<svg width="400" height="200" viewBox="0 0 400 200" fill="none" xmlns="http://www.w3.org/2000/svg">
<path d="M60.707 184.834C60.707 184.834 109.738 102.34 199.817 83.3488C247.668 73.2617 267.921 31.4213 304.506 25.0923C341.092 18.7633 352.997 75.1717 359.377 118.439C365.757 161.706 355.937 186.357 355.937 186.357L60.707 184.834Z" fill="#C0B4FE" fill-opacity="0.3"/>
<path d="M125.214 130.572C125.958 130.87 126.398 131.106 126.398 131.106C126.398 131.106 124.963 128.748 122.666 126.347C120.366 123.942 120.684 123.509 117.873 124.015C115.062 124.522 113.609 123.203 113.028 123.203C112.736 123.203 112.373 124.514 111.904 125.755C110.935 126.122 109.914 126.621 109.119 127.108C108.464 126.405 107.994 125.535 106.925 125.535C105.919 125.535 105.727 127.588 105.158 129.246C104.503 129.618 103.737 130.116 103.02 130.642C103.009 129.13 104.695 125.434 104.695 125.434C104.695 125.434 98.6889 127.46 98.6889 128.574C98.6889 129.687 102.661 131.612 100.919 131.612C99.1734 131.612 97.2354 128.674 97.2354 128.674C97.2354 128.674 94.1102 130.395 94.7056 132.32C95.3011 134.245 93.3668 134.937 92.7344 135.602C92.7344 135.602 92.7344 135.606 92.7307 135.606C91.2587 136.151 89.3873 137.249 88.581 138.092C87.2236 139.511 91.0664 147.851 90.0678 148.895C89.0655 149.942 87.0313 140.791 87.0313 139.913C87.0313 139.407 86.5986 139.364 86.0364 139.77C87.6638 130.36 90.1861 122.229 94.1139 118.108C95.6561 116.43 97.5276 115.421 98.9367 114.539C98.9552 114.528 98.9737 114.516 98.9922 114.504C98.7037 114.995 98.4485 115.865 98.4485 117.427C98.4485 121.123 107.55 122.345 106.2 120.934C104.851 119.523 103.342 115.15 104.07 115.15C104.795 115.15 106.008 119.759 107.946 120.721C109.884 121.684 112.162 119.101 112.162 119.101C112.162 119.101 106.082 114.315 106.689 113.681C107.295 113.047 112.551 119.453 114.004 120.06C115.458 120.667 118.121 117.729 118.121 117.729C118.121 117.729 108.09 112.107 108.375 111.145C108.656 110.182 117.684 117.122 119.09 116.666C120.495 116.209 121.704 113.271 121.704 113.271C121.704 113.271 111.53 109.675 111.918 108.813C112.307 107.951 120.443 112.61 121.608 112.359C122.77 112.107 122.189 108.612 122.189 108.005C122.189 107.398 115.916 106.513 115.31 105.879C114.703 105.245 121.464 107.043 121.949 107.043C122.433 107.043 122.966 106.436 122.481 105.268C121.997 104.104 121.56 100.253 121.56 100.253C120.98 100.253 118.413 98.127 117.976 97.6708C117.54 97.2146 115.894 101.266 115.262 101.266C114.633 101.266 117.104 97.6206 117.104 96.7584C117.104 95.8962 115.554 95.1384 114.293 95.1384C113.032 95.1384 111.094 103.93 110.513 103.93C109.932 103.93 112.547 94.9335 112.159 94.5276C111.77 94.1216 110.657 93.5146 108.331 93.8703C106.004 94.226 107.314 104.506 106.489 105.368C105.664 106.231 106.489 94.4812 106.489 94.1757C106.489 93.8703 103.582 94.6822 102.565 95.7454C101.548 96.8086 103.29 106.733 102.565 107.495C101.84 108.253 101.256 98.0265 101.256 96.9594C101.256 95.8962 100.335 95.7957 97.7199 99.2366C96.9987 100.188 96.8692 101.228 97.0505 102.245C92.9304 104.147 93.7514 111.04 95.5378 112.908C96.4439 113.855 97.535 114.091 98.3967 114.091C94.4542 116.523 92.0391 118.177 89.354 124.603C89.3503 122.426 89.121 117.71 87.9966 116.534C86.8649 115.351 89.354 115.993 89.354 114.779C89.354 113.565 89.2245 108.906 88.7067 108.365C88.1889 107.824 86.8353 112.08 85.9957 111.203C85.1562 110.325 88.385 107.692 88.385 107.352C88.385 107.016 86.5098 100.667 86.0586 100.667C85.6074 100.667 85.9292 103.435 84.6384 104.112C83.3477 104.789 85.3485 100.195 85.3485 98.7766C85.3485 97.3577 84.0245 97.0561 82.5081 95.4671C80.9917 93.878 79.2793 91.0789 79.2793 91.0789C79.2793 91.0789 80.5701 95.8073 82.5747 99.8552C84.4609 103.675 84.9713 117.872 85.0231 119.484C84.9861 119.527 84.9639 119.577 84.9639 119.639C84.8529 127.959 84.7457 135.212 84.6458 141.533C84.5534 141.808 84.5571 142.194 84.6273 142.654C84.6236 142.786 84.6236 142.914 84.6199 143.045C84.4757 144.05 84.3388 145.079 84.2094 146.134C83.773 144.765 83.4845 143.749 83.4845 143.749C83.4845 143.749 83.2367 144.027 82.8816 144.483C82.6819 143.261 82.2566 142.314 81.5391 142.024C81.5391 142.024 81.1877 142.395 80.6737 142.91C80.4444 134.922 80.0597 127.781 79.4236 123.52C79.2756 122.681 79.1462 121.854 78.8096 120.942C79.2756 120.934 79.897 120.791 80.718 120.385C83.4438 119.051 80.2187 109.405 79.7897 111.28C79.3607 113.155 76.8199 116.26 76.4907 115.525C76.1615 114.791 79.0094 111.902 78.8392 109.594C78.6691 107.286 75.7362 105.918 75.7362 105.918C75.7362 105.918 74.9632 113.793 74.2235 113.41C73.4838 113.028 75.8213 105.399 75.6105 103.71C75.3996 102.02 72.0266 100.389 72.0266 100.389C72.0266 100.389 72.4261 112.56 71.5902 112.622C70.7544 112.683 71.7752 101.05 70.8025 99.7934C69.8298 98.5368 67.1151 98.3745 67.1151 98.3745C67.1151 98.3745 69.0753 109.958 68.2653 109.877C67.4553 109.795 67.2002 99.8823 66.4863 98.7998C65.7725 97.7172 63.461 99.5653 63.0135 99.7856C62.566 100.006 64.7555 106.668 64.5631 107.51C64.3708 108.349 62.6325 100.868 62.4143 100.377C62.1961 99.8862 61.5045 99.5691 60.8647 100.478C60.2248 101.386 57.5878 103.219 57.5878 103.219C57.8504 103.807 57.4473 107.17 57.3105 107.777C57.1736 108.384 60.9054 108.585 61.1901 109.223C61.4749 109.861 57.6692 108.678 57.0331 108.987C56.3969 109.297 56.5412 111.141 57.1107 112.413C57.6803 113.685 65.0402 112.471 65.3065 113.058C65.5691 113.646 57.7543 114.249 57.6322 114.787C57.5102 115.324 57.5656 116.67 58.8823 118.893C60.199 121.116 67.1817 116.082 68.1913 116.604C69.1973 117.126 60.1657 120.536 59.9401 120.644C59.7145 120.756 61.6303 123.401 62.8766 124.046C64.123 124.692 70.6471 119.345 71.5348 119.805C72.4261 120.265 65.1475 124.545 64.3634 124.932C63.5793 125.314 63.9233 126.285 67.6477 127.684C68.6758 128.071 69.5006 127.824 70.1663 127.275C73.2989 130.611 77.7556 127.696 78.621 125.264C79.0537 128.968 79.3385 134.16 79.5271 139.987C78.7283 138.556 77.0973 136.948 76.3095 137.771C75.2443 138.885 74.1311 143.698 72.918 142.43C71.7086 141.162 75.9211 137.872 75.4366 135.947C74.9521 134.021 73.3137 132.363 72.6961 133.008C72.0784 133.654 72.2375 140.199 71.4608 139.388C70.6841 138.576 72.611 132.057 72.0414 131.462C71.4719 130.866 68.5871 128.044 67.5182 129.157C66.4531 130.271 68.7794 136.283 68.1654 135.641C67.5515 134.999 66.0351 128.28 65.1956 127.402C64.356 126.525 63.0283 127.626 62.2257 126.787C62.2257 126.787 62.063 128.651 61.6451 129.092C61.2271 129.529 65.7134 133.48 65.1327 133.48C64.552 133.48 60.8684 129.9 60.8684 129.9C60.8684 129.9 61.1606 133.716 61.9668 134.559C62.7731 135.401 67.0707 136.113 67.0707 136.855C67.0707 137.597 61.5156 135.908 61.5156 135.908C61.5156 135.908 62.6141 140.296 64.5521 140.837C66.49 141.379 69.5265 140.973 69.5265 141.715C69.5265 142.457 65.7171 141.986 65.7171 141.986C65.7171 141.986 66.6232 147.387 69.1418 147.387C71.6605 147.387 71.949 146.915 71.949 147.858C71.949 148.806 69.9814 147.182 69.9814 148.871C69.9814 150.561 71.8084 153.944 72.7589 152.95C73.2693 152.417 73.6133 151.643 73.8204 151.036C75.1445 156.221 76.7681 163.76 77.8628 172.834H78.6432C77.5078 163.397 75.8028 155.603 74.4454 150.36C75.2924 150.909 77.4967 152.262 79.2756 152.761C79.1647 153.824 79.2461 155.958 79.8304 157.868C79.86 163.196 79.8489 168.365 79.8193 172.838H80.9658C80.9806 169.014 80.9806 164.68 80.951 160.165C81.2987 160.613 81.7018 160.988 82.1863 161.228C82.3897 161.328 82.5895 161.41 82.7855 161.483C82.5192 165.388 82.3158 169.243 82.1641 172.838H83.2071C83.307 169.359 83.4549 165.601 83.6842 161.715C83.895 161.75 84.0984 161.773 84.2982 161.781C84.2131 166.32 84.1391 169.935 84.0799 172.838H84.8418C84.8788 169.567 84.9232 165.786 84.9676 161.761C85.9847 161.672 86.8094 161.309 87.2902 161.042C86.3286 164.425 85.8182 168.663 85.5815 172.838H86.2916C86.4544 169.42 86.7835 166.01 87.3642 163.184C87.4493 163.857 87.6527 164.68 88.0706 165.69C89.5574 169.27 95.8855 167.715 95.8855 167.715C92.0095 167.715 90.911 160.895 92.076 160.354C93.2373 159.813 92.5938 166.026 96.4032 166.973C100.213 167.92 101.378 164.746 101.378 164.746C98.4078 164.139 93.0783 159.04 94.0806 157.992C95.0829 156.944 100.02 164.07 102.025 164.07C104.026 164.07 106.223 158.533 106.223 158.533C103.767 160.018 95.7597 156.101 95.0126 154.752C94.2655 153.403 102.927 158.332 106.093 157.721C109.259 157.114 109.063 151.307 109.063 151.307C108.061 152.355 99.3731 151.373 98.4707 150.429C97.5683 149.482 107.062 150.901 108.871 149.958C110.679 149.011 110.099 144.178 110.099 144.178C110.099 144.178 103.512 145.635 101.829 145.164C100.15 144.692 108.741 143.814 109.514 141.788C110.291 139.763 108.375 135.065 108.375 135.065C107.488 135.993 104.691 135.224 103.53 135.088C106.692 133.503 110.387 131.678 111.974 130.986C114.626 129.846 121.819 129.513 125.214 130.572ZM71.5643 126.084C71.3683 126.13 71.2093 126.196 71.0614 126.269C72.1635 124.618 72.6554 122.322 72.9513 122.477C73.4543 122.739 72.7183 125.817 71.5643 126.084ZM79.6344 143.919C78.3103 145.133 76.6978 146.401 76.2096 145.891C75.4958 145.144 78.4842 143.447 79.59 142.133C79.6048 142.724 79.6196 143.319 79.6344 143.919ZM83.3255 154.59C83.2848 155.065 83.2441 155.541 83.2034 156.02C82.5192 155.927 81.639 154.733 80.8919 153.693C80.8882 153.434 80.8845 153.178 80.8808 152.919C80.94 152.908 81.0028 152.9 81.0546 152.881C81.2469 152.811 81.4318 152.653 81.6057 152.428C82.2122 153.298 82.878 154.017 83.3255 154.59ZM97.4758 104.417C97.5165 104.178 97.5276 103.965 97.5239 103.764C98.4226 105.813 100.091 107.507 99.8502 107.758C99.4397 108.187 97.2354 105.832 97.4758 104.417ZM85.1821 139.484C85.2635 129.645 85.3004 121.583 85.2265 119.801C85.9736 120.648 85.5039 124.955 86.6393 126.146C87.2976 126.834 88.0262 126.973 88.5662 126.625C88.3258 127.275 88.078 127.963 87.8302 128.697C87.6305 129.355 86.5431 132.78 86.1252 134.76C85.7849 136.194 85.4743 137.783 85.1821 139.484ZM87.7377 153.356C87.0572 153.662 85.9921 151.253 85.097 148.775C85.1081 147.785 85.1155 146.795 85.1266 145.817C85.1636 145.527 85.2043 145.237 85.2413 144.947C86.4248 148.388 88.6661 152.939 87.7377 153.356ZM95.3603 145.117C93.6812 145.117 94.5614 139.449 94.7426 136.786C95.1199 136.913 95.5156 137.037 95.8966 137.153C95.8892 140.018 96.8803 145.117 95.3603 145.117ZM102.842 135.448C102.173 136.631 101.67 140.377 100.531 140.659C99.5063 140.915 100.804 137.706 101.5 136.124C101.921 135.908 102.373 135.684 102.842 135.448Z" fill="#43616A"/>
<path d="M91.3146 184.777H73.8874C69.6379 183.47 66.8345 181.236 66.8345 178.699C66.8345 176.314 69.3124 174.195 73.1404 172.861H92.0617C95.8896 174.191 98.3676 176.31 98.3676 178.699C98.3676 181.236 95.5642 183.47 91.3146 184.777Z" fill="#43616A"/>
<path d="M250.837 117.686L250.837 10L149.736 10V117.686L250.837 117.686Z" fill="#FFEE9B"/>
<path d="M248.896 12.0287H151.678V115.655H248.896V12.0287Z" fill="#FFF7CF"/>
<path d="M168.765 45.955H164.427V46.3416H168.765V45.955Z" fill="#5B007C"/>
<path d="M168.765 32.5894H155.258V32.976H168.765V32.5894Z" fill="#5B007C"/>
<path d="M168.373 66.8443H155.258V67.2309H168.373V66.8443Z" fill="#5B007C"/>
<path d="M166.172 32.7827H166.05V67.0337H166.172V32.7827Z" fill="#5B007C"/>
<path d="M162.84 32.7827H162.718V67.0337H162.84V32.7827Z" fill="#5B007C"/>
<path d="M160.743 32.7827H160.621V67.0337H160.743V32.7827Z" fill="#5B007C"/>
<path d="M159.02 32.7827H158.897V67.0337H159.02V32.7827Z" fill="#5B007C"/>
<path d="M156.738 32.7827H156.616V67.0337H156.738V32.7827Z" fill="#5B007C"/>
<path d="M224.324 31.2169H168.762V31.3445H224.324V31.2169Z" fill="#5B007C"/>
<path d="M238.201 29.5815H168.64V29.7091H238.201V29.5815Z" fill="#5B007C"/>
<path d="M238.196 27.5208H168.669V27.6484H238.196V27.5208Z" fill="#5B007C"/>
<path d="M198.878 82.1005H168.373V82.2281H198.878V82.1005Z" fill="#5B007C"/>
<path d="M224.327 83.991H168.373V84.1186H224.327V83.991Z" fill="#5B007C"/>
<path d="M224.327 87.8611H168.373V87.9887H224.327V87.8611Z" fill="#5B007C"/>
<path d="M237.46 90.0494H168.373V90.177H237.46V90.0494Z" fill="#5B007C"/>
<path d="M191.762 67.0376H191.64V91.0817H191.762V67.0376Z" fill="#5B007C"/>
<path d="M198.937 74.1283H198.815V82.8969H198.937V74.1283Z" fill="#5B007C"/>
<path d="M203.727 68.1974H203.605V85.0233H203.727V68.1974Z" fill="#5B007C"/>
<path d="M209.382 72.7094H209.26V85.0233H209.382V72.7094Z" fill="#5B007C"/>
<path d="M215.714 72.7094H215.592V85.0233H215.714V72.7094Z" fill="#5B007C"/>
<path d="M224.386 69.0132H224.264V88.5686H224.386V69.0132Z" fill="#5B007C"/>
<path d="M168.433 68.1974H168.311V91.0817H168.433V68.1974Z" fill="#5B007C"/>
<path d="M237.523 61.1068H237.401V91.0817H237.523V61.1068Z" fill="#5B007C"/>
<path d="M209.16 23.844H208.79V26.5504H209.16V23.844Z" fill="#5B007C"/>
<path d="M218.898 25.1353H209.415V25.2629H218.898V25.1353Z" fill="#5B007C"/>
<path d="M209.467 25.1972C209.597 25.3325 209.656 25.5993 209.663 25.7849C209.486 25.5374 209.256 25.3209 208.979 25.1972C209.256 25.0812 209.475 24.8531 209.663 24.6095C209.645 24.8106 209.6 25.0503 209.467 25.1972Z" fill="#5B007C"/>
<path d="M161.187 78.5783H155.628V78.4468H161.124L175.722 57.5189L175.822 57.5962L161.187 78.5783Z" fill="#5B007C"/>
<path d="M166.975 52.0792H162.371V52.4658H166.975V52.0792Z" fill="#5B007C"/>
<path d="M166.975 54.3795H159.904V54.7662H166.975V54.3795Z" fill="#5B007C"/>
<path d="M167.467 59.108H157.847V59.4946H167.467V59.108Z" fill="#5B007C"/>
<path d="M168.947 26.5543H168.577V31.9709H168.947V26.5543Z" fill="#5B007C"/>
<path d="M238.259 26.5543H238.137V31.9709H238.259V26.5543Z" fill="#5B007C"/>
<path d="M224.386 28.7H224.264V32.311H224.386V28.7Z" fill="#5B007C"/>
<path d="M202.961 28.3598H202.839V31.9708H202.961V28.3598Z" fill="#5B007C"/>
<path d="M158.591 76.7071H156.061V77.5461H158.591V76.7071Z" fill="#5B007C"/>
<path d="M218.901 22.8388H212.795V23.844H218.901V22.8388Z" fill="#5B007C"/>
<path d="M233.511 93.3396H213.938V94.631H233.511V93.3396Z" fill="#5B007C"/>
<path d="M231.525 95.9183H221.184V96.9506H231.525V95.9183Z" fill="#5B007C"/>
<path d="M168.536 32.141V67.0376H170.674V64.9769H170.507V47.1845H170.733V45.1199H170.507V34.2055H176.222V45.1199H173.137V47.1845H185.102V52.8563H189.85V64.9769H173.466V67.0376C183.382 67.0376 194.921 67.0376 203.309 67.0376L209.23 72.1294H215.717L221.206 67.6833H224.32V34.2055H236.47V59.3051H238.445V32.1448C230.356 32.141 175.774 32.141 168.536 32.141ZM191.829 47.1806H201.264V54.5303H191.829V47.1806ZM191.829 45.1199V34.2055H195.775V45.1199H191.829ZM201.26 45.1199H196.759V34.2055H201.26V45.1199ZM177.213 34.2017H189.854V45.116H177.213V34.2017ZM186.093 51.824V47.1806H189.854V51.824H186.093ZM191.829 64.973V55.5626H201.264V64.973H191.829ZM222.353 65.6187H220.537L215.048 70.0649H209.944L204.023 64.973H203.239V34.2017H222.356V65.6187H222.353Z" fill="#3F3C43"/>
<path d="M174.561 72.7094V74.7739H198.756L204.836 79.8967L206.075 78.2884L199.451 72.7094H174.561Z" fill="#3F3C43"/>
<path d="M223.724 110.626H164.671V113.545H223.724V110.626Z" fill="#F7B28B"/>
<path d="M229.572 103.84H191.64V106.81H229.572V103.84Z" fill="#F7B28B"/>
<path d="M211.908 14.6346H161.143V16.7379H211.908V14.6346Z" fill="#F7B28B"/>
<path d="M296.661 94.8523C296.047 94.5508 292.363 95.6952 292.637 95.0805C292.914 94.4657 296.524 94.2685 296.391 93.6809C296.258 93.0971 295.866 89.8378 296.121 89.2695C296.121 89.2695 293.565 87.4988 292.947 86.6173C292.33 85.7358 291.66 86.0451 291.45 86.5206C291.235 86.9962 289.556 94.2338 289.371 93.4218C289.186 92.6099 291.305 86.161 290.873 85.9484C290.44 85.7358 288.202 83.9457 287.511 84.9973C286.819 86.0451 286.575 95.6372 285.791 95.7184C285.007 95.7957 286.904 84.5875 286.904 84.5875C286.904 84.5875 284.278 84.746 283.335 85.9639C282.396 87.1779 283.383 98.4364 282.573 98.3784C281.763 98.3165 282.152 86.5399 282.152 86.5399C282.152 86.5399 278.89 88.1212 278.682 89.7566C278.479 91.3921 280.742 98.7727 280.025 99.1439C279.307 99.515 278.56 91.8947 278.56 91.8947C278.56 91.8947 275.72 93.2208 275.557 95.4516C275.395 97.6824 278.15 100.478 277.832 101.189C277.514 101.9 275.054 98.8964 274.64 97.0832C274.226 95.2699 271.104 104.603 273.741 105.894C274.536 106.285 275.136 106.424 275.591 106.432C275.261 107.313 275.139 108.114 274.995 108.925C274.381 113.047 274.008 119.96 273.786 127.688C273.286 127.193 272.946 126.834 272.946 126.834C272.251 127.112 271.84 128.029 271.648 129.212C271.304 128.767 271.064 128.5 271.064 128.5C271.064 128.5 270.783 129.482 270.361 130.808C270.235 129.792 270.102 128.794 269.965 127.82C269.965 127.692 269.961 127.568 269.958 127.441C270.028 126.992 270.028 126.621 269.939 126.354C269.843 120.238 269.74 113.221 269.632 105.167C269.632 105.109 269.61 105.059 269.573 105.017C269.625 103.459 270.117 89.718 271.944 86.0219C273.882 82.1015 275.132 77.5277 275.132 77.5277C275.132 77.5277 273.475 80.238 272.007 81.7767C270.538 83.3116 269.255 83.6055 269.255 84.978C269.255 86.3505 271.193 90.7928 269.943 90.1394C268.693 89.486 269.004 86.8067 268.567 86.8067C268.131 86.8067 266.318 92.9463 266.318 93.2749C266.318 93.5997 269.444 96.1514 268.63 96.9981C267.816 97.8487 266.503 93.7311 266.004 94.2531C265.505 94.775 265.379 99.2831 265.379 100.462C265.379 101.641 267.787 101.019 266.692 102.16C265.605 103.296 265.383 107.862 265.379 109.965C262.779 103.745 260.445 102.144 256.628 99.7895C257.461 99.7895 258.515 99.5614 259.395 98.6451C261.122 96.8396 261.917 90.1665 257.93 88.3261C258.108 87.3403 257.982 86.335 257.283 85.4149C254.753 82.0822 253.862 82.1788 253.862 83.2111C253.862 84.2395 253.3 94.141 252.597 93.4025C251.894 92.6679 253.581 83.0642 252.597 82.0319C251.613 81.0035 248.799 80.2186 248.799 80.5125C248.799 80.8063 249.598 92.1769 248.799 91.3418C248.004 90.5067 249.269 80.5589 247.016 80.2186C244.767 79.8746 243.688 80.4622 243.314 80.8566C242.94 81.2471 245.47 89.9538 244.908 89.9538C244.346 89.9538 242.471 81.4442 241.25 81.4442C240.03 81.4442 238.532 82.1788 238.532 83.0139C238.532 83.8452 240.921 87.375 240.315 87.375C239.704 87.375 238.11 83.4547 237.689 83.8954C237.267 84.3362 234.782 86.393 234.219 86.393C234.219 86.393 233.798 90.1162 233.328 91.2452C232.858 92.3741 233.376 92.9618 233.842 92.9618C234.312 92.9618 240.851 91.222 240.266 91.8367C239.678 92.4475 233.609 93.3059 233.609 93.8935C233.609 94.4812 233.047 97.8641 234.171 98.1077C235.296 98.3513 243.173 93.8433 243.547 94.6784C243.921 95.5096 234.079 98.9892 234.079 98.9892C234.079 98.9892 235.251 101.831 236.609 102.272C237.97 102.712 246.705 96.0006 246.975 96.9285C247.249 97.8603 237.544 103.3 237.544 103.3C237.544 103.3 240.122 106.142 241.528 105.554C242.933 104.966 248.018 98.7688 248.607 99.3797C249.191 99.9906 243.31 104.622 243.31 104.622C243.31 104.622 245.515 107.12 247.39 106.192C249.265 105.26 250.437 100.802 251.14 100.802C251.843 100.802 250.385 105.036 249.076 106.401C247.771 107.766 256.577 106.586 256.577 103.006C256.577 101.495 256.333 100.652 256.052 100.176C256.07 100.188 256.085 100.199 256.103 100.207C257.464 101.058 259.277 102.036 260.771 103.66C264.573 107.65 267.014 115.517 268.586 124.622C268.042 124.232 267.624 124.271 267.624 124.762C267.624 125.612 265.656 134.466 264.687 133.453C263.718 132.44 267.439 124.371 266.126 122.999C265.346 122.183 263.537 121.12 262.11 120.594C262.11 120.594 262.11 120.59 262.106 120.59C261.492 119.948 259.624 119.275 260.198 117.416C260.771 115.552 257.749 113.886 257.749 113.886C257.749 113.886 255.874 116.728 254.187 116.728C252.501 116.728 256.344 114.864 256.344 113.789C256.344 112.71 250.53 110.75 250.53 110.75C250.53 110.75 252.161 114.327 252.15 115.788C251.458 115.282 250.715 114.798 250.082 114.439C249.531 112.83 249.346 110.847 248.374 110.847C247.338 110.847 246.883 111.686 246.251 112.37C245.481 111.899 244.494 111.419 243.554 111.063C243.099 109.865 242.748 108.597 242.467 108.597C241.905 108.597 240.499 109.869 237.777 109.382C235.059 108.891 235.366 109.308 233.14 111.636C230.913 113.963 229.526 116.244 229.526 116.244C229.526 116.244 229.955 116.02 230.673 115.73C233.961 114.702 240.917 115.026 243.492 116.148C245.026 116.816 248.603 118.583 251.661 120.114C250.537 120.246 247.834 120.992 246.975 120.091C246.975 120.091 245.123 124.638 245.873 126.598C246.624 128.558 254.935 129.409 253.311 129.865C251.687 130.321 245.311 128.91 245.311 128.91C245.311 128.91 244.749 133.588 246.498 134.504C248.248 135.421 257.438 134.048 256.562 134.961C255.685 135.877 247.279 136.824 246.31 135.811C246.31 135.811 246.121 141.433 249.183 142.02C252.246 142.608 260.63 137.837 259.905 139.144C259.184 140.451 251.432 144.24 249.058 142.801C249.058 142.801 251.184 148.16 253.119 148.16C255.057 148.16 259.835 141.267 260.804 142.279C261.773 143.292 256.617 148.226 253.744 148.813C253.744 148.813 254.868 151.883 258.555 150.971C262.243 150.054 261.618 144.046 262.742 144.568C263.866 145.09 262.805 151.69 259.055 151.69C259.055 151.69 265.179 153.194 266.618 149.73C267.021 148.755 267.221 147.959 267.299 147.306C268.268 152.046 268.53 158.471 268.452 163.71H262.343V165.342H263.33L264.007 185.577H280.24L280.916 165.342H281.856V163.71H275.783C276.719 151.771 278.79 141.866 280.402 135.556C280.606 136.14 280.935 136.89 281.43 137.408C282.351 138.371 284.119 135.092 284.119 133.461C284.119 131.825 282.218 133.395 282.218 132.479C282.218 131.562 282.496 132.022 284.933 132.022C287.37 132.022 288.247 126.795 288.247 126.795C288.247 126.795 284.559 127.251 284.559 126.532C284.559 125.813 287.496 126.204 289.371 125.682C291.246 125.16 292.308 120.911 292.308 120.911C292.308 120.911 286.93 122.546 286.93 121.827C286.93 121.108 291.087 120.424 291.867 119.604C292.648 118.788 292.929 115.096 292.929 115.096C292.929 115.096 289.367 118.56 288.805 118.56C288.243 118.56 292.585 114.736 292.182 114.315C291.775 113.89 291.62 112.084 291.62 112.084C290.843 112.896 289.556 111.829 288.746 112.68C287.932 113.53 286.464 120.029 285.872 120.652C285.277 121.274 287.529 115.456 286.497 114.381C285.465 113.302 282.673 116.035 282.122 116.612C281.571 117.188 283.435 123.497 282.684 124.282C281.933 125.067 282.089 118.73 281.49 118.108C280.894 117.485 279.307 119.09 278.838 120.949C278.368 122.813 282.447 125.999 281.275 127.22C280.103 128.446 279.026 123.791 277.995 122.712C277.233 121.916 275.653 123.474 274.88 124.858C275.062 119.221 275.339 114.195 275.757 110.611C276.593 112.966 280.905 115.784 283.938 112.556C284.585 113.089 285.384 113.325 286.375 112.954C289.978 111.597 290.31 110.661 289.552 110.29C288.794 109.919 281.752 105.778 282.614 105.33C283.476 104.885 289.789 110.058 290.995 109.436C292.2 108.813 294.053 106.25 293.835 106.146C293.617 106.041 284.877 102.739 285.854 102.237C286.83 101.73 293.587 106.602 294.86 104.452C296.132 102.299 296.187 101 296.069 100.478C295.951 99.9558 288.387 99.3758 288.642 98.8036C288.898 98.2353 296.017 99.4106 296.572 98.1773C297.138 96.9362 297.275 95.15 296.661 94.8523ZM257.479 89.7798C257.479 89.9732 257.487 90.1781 257.527 90.41C257.76 91.7826 255.63 94.0598 255.23 93.6461C254.997 93.4025 256.61 91.7632 257.479 89.7798ZM272.883 136.871C273.053 137.087 273.231 137.242 273.42 137.307C273.471 137.327 273.534 137.331 273.59 137.346C273.586 137.597 273.582 137.845 273.579 138.092C272.854 139.098 272.003 140.254 271.341 140.342C271.3 139.879 271.263 139.418 271.223 138.958C271.652 138.409 272.295 137.713 272.883 136.871ZM270.283 145.945C270.476 145.937 270.675 145.914 270.879 145.879C271.267 152.467 271.415 158.703 271.489 163.706H270.635C270.587 160.636 270.461 155.278 270.283 145.945ZM272.587 163.706C272.458 158.552 272.192 152.169 271.748 145.659C271.94 145.589 272.132 145.512 272.328 145.411C272.798 145.175 273.187 144.816 273.523 144.383C273.475 151.875 273.512 158.869 273.553 163.706H272.587ZM266.862 113.905C266.622 113.194 266.381 112.529 266.148 111.899C266.67 112.235 267.376 112.1 268.012 111.435C269.111 110.286 268.66 106.115 269.381 105.295C269.307 107.019 269.344 114.818 269.425 124.34C269.144 122.697 268.841 121.158 268.515 119.766C268.109 117.856 267.054 114.539 266.862 113.905ZM269.366 129.629C269.403 129.908 269.444 130.19 269.477 130.472C269.484 131.419 269.495 132.378 269.503 133.337C268.637 135.734 267.606 138.061 266.947 137.768C266.052 137.365 268.223 132.958 269.366 129.629ZM260.172 121.734C260.345 124.313 261.2 129.795 259.572 129.795C258.1 129.795 259.062 124.862 259.055 122.09C259.428 121.978 259.809 121.858 260.172 121.734ZM253.636 121.092C254.31 122.624 255.567 125.728 254.572 125.481C253.466 125.206 252.982 121.58 252.335 120.435C252.789 120.667 253.222 120.884 253.636 121.092ZM267.391 145.229C267.853 145.485 268.656 145.836 269.636 145.925C269.717 153.279 269.795 159.828 269.839 163.706H269.196C269.255 157.864 268.882 150.484 267.391 145.229ZM274.673 163.706C274.622 158.375 274.562 150.464 274.607 142.16C275.173 140.312 275.25 138.247 275.143 137.219C276.867 136.735 278.997 135.428 279.818 134.899C278.179 141.232 276.012 151.396 275.054 163.71H274.673V163.706ZM278.105 130.545C277.632 131.04 276.071 129.811 274.792 128.636C274.806 128.056 274.821 127.48 274.836 126.907C275.905 128.179 278.797 129.822 278.105 130.545ZM283.087 111.558C282.943 111.489 282.788 111.423 282.603 111.381C281.486 111.121 280.772 108.141 281.26 107.889C281.545 107.742 282.018 109.962 283.087 111.558Z" fill="#43616A"/>
<path d="M365.034 186.386C365.034 188.767 289.585 190.696 196.517 190.696C103.449 190.696 28 188.767 28 186.386C28 184.004 103.449 182.075 196.517 182.075C289.589 182.075 365.034 184.008 365.034 186.386Z" fill="#54688B"/>
<path d="M155.494 59.1399L157.029 58.0574C157.029 58.0574 153.027 51.1794 153.442 45.2524C153.66 42.1246 148.752 37.5122 147.446 38.2275C147.369 38.1965 143.09 38.328 142.709 48.5426L141.799 60.5124L146.422 64.7924C146.422 64.7924 149.336 59.5691 153.042 61.8656C156.748 64.1622 157.883 64.0926 157.883 64.0926C157.883 64.0926 155.494 60.2418 155.494 59.1399Z" fill="#002B32"/>
<path d="M168.701 182.009C167.935 179.875 167.477 176.677 166.508 172.355C166.393 171.848 166.238 171.122 166.053 170.24C164.792 170.07 163.497 170.72 162.443 171.315C162.857 172.483 163.42 173.874 163.449 174.381C163.523 175.603 163.168 175.715 163.168 175.715C163.175 177.818 163.797 180.076 164.215 180.513C164.751 181.073 165.346 183.849 165.857 183.849C166.367 183.849 170.676 184.348 170.676 184.348C170.787 183.32 169.466 184.143 168.701 182.009Z" fill="#FD5E5A"/>
<path d="M146.633 180.799C146.407 180.068 146.185 176.875 146.004 172.68C144.88 172.664 143.619 172.262 142.428 172.51C142.52 173.086 142.727 174.083 142.727 174.238C142.727 175.757 142.017 175.193 141.758 176.287C141.588 177.014 142.261 178.394 142.261 178.394C143.256 178.394 143.674 182.098 144.159 183.173C144.44 183.795 145.712 184.089 147.165 184.089C148.297 184.089 148.105 183.78 147.265 182.268C147.032 181.843 146.803 181.352 146.633 180.799Z" fill="#FFBE9D"/>
<path d="M161.304 136.256C161.16 135.614 157.202 100.563 155.719 87.6302L147.727 87.3403L143.311 106.463L153.818 141.089C153.463 144.29 153.6 146.869 154.569 151.241C155.368 154.849 158.649 166.915 160.612 172.432C161.667 171.837 164.903 170.662 166.049 170.244C161.581 141.301 162.806 143.022 161.304 136.256Z" fill="#383D43"/>
<path d="M147.128 139.836L153.819 100.532L153.012 87.0774H146.466C146.466 87.0774 139.905 94.4889 138.433 103.876C136.957 113.263 139.694 140.002 139.694 140.002C139.694 140.002 139.409 143.362 138.751 146.242C138.067 149.254 139.276 168.133 140.06 173.113C141.251 172.865 144.88 172.664 146.004 172.68C145.575 162.662 145.397 146.919 146.045 145.284C146.47 144.209 146.847 141.951 147.128 139.836Z" fill="#3A556E"/>
<path d="M155.948 89.0221L145.123 88.7785L146.466 87.0774H155.948V89.0221Z" fill="#3A1425"/>
<path d="M169.822 59.6503C169.977 58.6103 169.907 57.8912 169.6 57.5703C169.293 57.2455 169.441 57.0561 169.152 56.7545C168.864 56.453 168.191 56.7274 168.106 55.9349C168.021 55.1462 168.228 50.6227 167.695 50.7309C167.163 50.8392 167.103 56.8202 166.889 57.0445C166.674 57.2687 166.29 57.5123 166.149 56.5767C166.012 55.6449 166.697 55.1964 166.423 54.9065C166.149 54.6204 165.358 55.5869 165.291 55.9271C165.291 55.9271 164.603 59.0124 165.291 61.0924C165.824 62.7085 166.086 64.0849 166.16 65.4033C166.26 68.4344 165.876 71.539 164.984 76.2713C164.788 77.3229 163.882 77.0561 163.35 76.743L160.901 80.7136C162.61 82.84 164.892 84.054 165.975 83.9148C168.76 83.5591 168.398 65.8363 168.398 65.8363C168.391 65.6198 168.394 65.7474 168.383 65.4071C168.346 64.3323 168.313 63.3464 168.313 63.215C168.313 62.4302 169.666 60.6903 169.822 59.6503Z" fill="#FD5E5A"/>
<path d="M168.934 56.6269C168.934 56.6269 166.389 59.225 166.877 59.7353C167.366 60.2457 169.411 57.4852 169.411 57.4852C169.411 57.4852 167.144 59.9016 167.543 60.3191C167.943 60.7367 169.903 58.6953 169.903 58.6953C169.903 58.6953 167.835 60.555 168.205 60.7676C168.575 60.9803 169.903 59.4956 169.903 59.4956C169.903 59.4956 170.091 58.9389 170.021 58.6064C169.951 58.27 170.066 58.1308 170.01 57.9259C169.951 57.7172 169.699 57.4079 169.588 57.2919C169.474 57.1797 169.429 56.4336 168.934 56.6269Z" fill="#FFBE9D"/>
<path d="M163.139 76.1514C163.346 75.6101 163.649 74.9683 162.998 74.4966C162.11 73.851 162.14 74.3188 162.14 72.8844C162.14 71.5428 161.796 71.3495 160.812 71.0209C160.775 70.901 160.742 70.7773 160.709 70.6536C159.473 66.2384 155.383 59.6696 154.207 59.1438C153.031 58.618 153.042 61.8231 153.042 61.8231C153.042 61.8231 160.62 81.9005 160.905 82.2523L163.353 76.7545L163.164 76.1785C163.153 76.1669 163.146 76.1591 163.139 76.1514Z" fill="#691C15"/>
<path d="M142.964 178.904L143.026 183.88L142.494 183.892L141.832 178.22L142.964 178.904Z" fill="#1D1B22"/>
<path d="M154.203 59.1399C154.203 59.1399 151.799 57.1952 143.7 58.9698C143.304 59.0588 142.705 68.7939 142.705 68.7939C142.705 68.7939 145.405 84.0192 144.639 88.0478C144.639 88.0478 150.338 92.9927 157.081 89.5479C157.081 89.5479 156.245 76.8551 156.866 74.0327C157.488 71.2103 158.719 68.6509 156.992 65.7087C155.276 62.7742 154.203 59.1399 154.203 59.1399Z" fill="#E88C66"/>
<path d="M142.616 175.046C143.052 177.83 144.801 183.312 145.819 183.316C147.194 183.32 147.276 183.246 147.268 182.272C148.108 183.784 149.062 184.561 147.93 184.561C146.477 184.561 144.21 184.653 143.929 184.031C143.444 182.956 143.182 178.885 142.187 178.885L142.494 183.896L141.965 183.911C141.965 183.911 141.181 177.01 141.354 176.322C141.591 175.371 142.335 175.216 142.616 175.046Z" fill="#393644"/>
<path d="M169.238 183.006C170.247 183.992 171.875 183.783 171.782 184.607C171.782 184.607 166.201 184.356 165.691 184.356C165.18 184.356 164.748 181.077 164.211 180.517C163.675 179.956 164.008 184.356 164.008 184.356H163.457C163.457 184.356 163.087 179.824 162.577 178.061C162.17 176.662 162.747 176.07 163.161 175.715C164.84 179.067 165.018 183.787 169.238 183.006Z" fill="#393644"/>
<path d="M151.108 92.6989L151.418 92.4669C151.418 92.4669 152.717 92.4824 153.26 92.2001C153.804 91.9218 154.47 91.9295 154.225 92.2001C153.978 92.4708 152.75 92.7607 152.994 93.4605C153.242 94.1526 151.108 92.6989 151.108 92.6989Z" fill="#FFBE9D"/>
<path d="M155.76 93.074C155.527 93.2247 155.035 93.2827 154.521 93.4683C154.007 93.6539 156.84 92.3471 156.84 91.9179C156.84 91.4888 154.469 92.8033 153.782 93.1087C152.997 93.4567 151.751 92.8497 151.422 92.4592C151.422 92.4592 141.651 89.0337 139.058 87.1122C138.825 86.9382 138.226 86.0567 138.296 85.3917C136.628 85.5502 134.942 84.5566 133.458 85.3917C133.477 86.4627 133.229 89.1265 133.503 89.6523C135.197 92.9116 146.226 94.1333 148.541 94.1333C150.856 94.1333 153.131 94.7132 153.774 94.7132C154.418 94.7132 157.417 92.9966 157.506 92.1963C157.587 91.4463 156.067 92.8768 155.76 93.074Z" fill="#FFBE9D"/>
<path d="M142.708 69.428C144.402 67.4292 144.006 58.5446 144.006 58.5446C144.006 58.5446 139.394 58.7688 137.301 62.9753C135.104 67.3866 134.209 71.7014 132.889 86.482C134.375 85.6469 136.628 85.5541 138.296 85.3994C138.677 81.8232 141.28 71.1137 142.708 69.428Z" fill="#E06633"/>
<path d="M151.059 51.2915C151.244 51.4848 150.49 57.114 151.237 58.6721C151.237 58.6721 153.201 66.7177 151.865 66.8879C150.708 67.0348 146.366 60.0021 146.133 58.8925C145.822 57.3962 146.1 50.1935 146.1 50.1935L151.059 51.2915Z" fill="#FFBE9D"/>
<path d="M151.237 58.676C151.436 59.8243 152.783 67.0039 151.721 66.6327C150.464 66.045 146.676 60.2611 146.133 58.8964C146.813 61.0924 152.32 70.7425 152.535 65.5734C152.509 63.5397 151.814 60.5936 151.237 58.676Z" fill="#FFDEC9"/>
<path d="M150.981 53.6229C149.21 55.297 147.387 54.1332 146.04 52.0338C146.07 50.9745 146.048 49.9113 146.048 49.8494L151.055 51.2915C151.133 51.3727 151.052 52.3702 150.981 53.6229Z" fill="#FD5E5A"/>
<path d="M150.502 38.645C150.502 38.645 152.743 39.0935 153.013 41.1001C153.279 43.1105 153.653 44.7846 153.279 47.1276C152.906 49.4705 151.57 52.5983 149.381 53.1009C147.191 53.6035 144.895 49.8069 144.895 47.7423C144.895 45.6777 144.092 42.2175 145.59 40.0949C147.084 37.9762 150.502 38.645 150.502 38.645Z" fill="#FFBE9D"/>
<path d="M147.968 49.4589C149.148 49.9963 150.897 50.0079 150.897 50.0079C150.897 50.0079 150.775 50.2592 150.561 50.5298C150.05 50.4989 149.052 50.4061 148.227 50.0968C148.049 49.7527 147.968 49.4589 147.968 49.4589Z" fill="white"/>
<path d="M148.223 50.0968C149.048 50.4061 150.047 50.4989 150.557 50.5298C149.725 51.5698 148.837 51.3185 148.223 50.0968Z" fill="#2E0A29"/>
<path d="M150.641 37.7945C150.641 37.7945 152.742 39.0935 153.009 41.1001C153.249 42.9211 153.582 44.4676 153.364 46.4858C153.009 46.2267 152.502 45.9677 151.788 45.7241C149.809 45.0437 147.757 42.0396 147.513 39.5072C147.243 36.8047 150.641 37.7945 150.641 37.7945Z" fill="#FD5E5A"/>
<path d="M150.52 48.1057C150.46 47.4639 150.42 46.8221 150.423 46.1765C150.56 46.9961 150.593 47.5915 150.638 48.1869C150.312 48.2797 149.92 48.4692 149.428 48.2758C149.806 48.3493 150.179 48.241 150.52 48.1057Z" fill="#172866"/>
<path d="M149.306 46.1146C149.195 45.7434 148.892 45.3916 148.482 45.2756C147.749 45.0746 147.302 46.1764 146.799 46.1687C147.158 46.362 147.738 45.7164 148.134 45.554C148.348 45.4612 148.541 45.5269 148.752 45.6313C148.959 45.7434 149.14 45.9135 149.306 46.1146Z" fill="#172866"/>
<path d="M147.982 45.7859C147.982 46.0179 148.141 46.2074 148.337 46.2074C148.533 46.2074 148.692 46.0179 148.692 45.7859C148.692 45.554 148.533 45.3645 148.337 45.3645C148.141 45.3607 147.982 45.5501 147.982 45.7859Z" fill="#172866"/>
<path d="M150.934 46.3543C151.06 45.9908 151.378 45.6506 151.796 45.5578C152.536 45.3916 152.935 46.5128 153.438 46.5283C153.068 46.7061 152.521 46.0334 152.132 45.8517C151.922 45.7511 151.729 45.8053 151.511 45.8981C151.3 45.9986 151.108 46.161 150.934 46.3543Z" fill="#172866"/>
<path d="M152.272 46.0875C152.261 46.3195 152.095 46.5012 151.899 46.4935C151.703 46.4858 151.551 46.2886 151.562 46.0566C151.573 45.8246 151.74 45.6429 151.936 45.6507C152.132 45.6584 152.283 45.8556 152.272 46.0875Z" fill="#172866"/>
<path d="M149.565 44.3284C149.647 44.2743 149.007 43.6015 148.238 43.5281C147.472 43.4508 146.644 44.3284 146.644 44.3284C146.644 44.3284 147.772 43.6247 148.249 43.8528C148.726 44.0809 149.125 44.63 149.565 44.3284Z" fill="#172866"/>
<path d="M148.518 36.9439C146.884 37.1372 144.295 36.7196 143.089 39.511C142.375 41.0962 140.918 44.1467 140.918 49.5749C140.918 57.6592 133.458 61.2354 133.458 61.2354L136.728 62.8863L138.68 61.2354L137.349 64.2047L142.712 64.7653L142.941 60.8952L144.051 65.2988L146.555 64.7692C146.555 64.7692 145.567 51.5389 145.46 46.5437C145.478 46.5631 145.486 46.5747 145.486 46.5747C145.486 46.5747 145.463 45.9329 145.463 45.1055V45.1016C145.478 44.858 145.478 44.6106 145.467 44.3593C145.482 43.5629 145.519 42.7278 145.619 42.171C145.859 40.8024 146.34 40.1064 147.512 39.5188C148.689 38.935 152.894 40.6013 152.894 40.6013C152.746 38.0496 150.153 36.7467 148.518 36.9439Z" fill="#1B2B80"/>
<path d="M150.708 37.4039C152.765 37.8795 153.386 41.1851 155.065 42.9443C156.748 44.7034 156.319 47.2435 155.52 48.9176C154.717 50.5917 153.434 49.5053 153.434 49.5053C153.434 49.5053 154.104 49.8958 154.533 48.5C154.962 47.1043 154.211 46.0179 151.944 45.2331C149.673 44.4521 147.513 39.511 147.513 39.511C147.454 38.5445 148.652 36.9323 150.708 37.4039Z" fill="#2F499F"/>
<path d="M153.434 49.5014C154.214 49.977 155.313 47.982 154.51 46.6791C153.926 45.67 152.65 45.2486 151.625 44.804C150.005 43.8335 148.452 41.1504 147.509 39.5111C148.193 41.4674 149.643 44.1815 151.388 45.264L151.81 45.4535C152.243 45.6352 153.556 46.0063 154.192 46.8995C154.702 47.6031 154.458 48.6934 154.118 49.2076C153.977 49.4318 153.711 49.6097 153.434 49.5014Z" fill="#023135"/>
<path d="M145.907 46.8221C145.907 46.8221 145.338 44.2317 144.383 44.858C143.433 45.4844 144.454 48.3531 145.341 48.3531C146.229 48.3531 145.907 46.8221 145.907 46.8221Z" fill="#FFBE9D"/>
<path d="M144.983 45.4032C144.983 45.4032 146.388 47.7578 145.423 47.4987C144.461 47.2397 144.08 44.9663 144.983 45.4032Z" fill="#FD5E5A"/>
<path d="M148.533 47.6263C148.437 47.9317 147.897 48.0206 147.335 47.8235C146.769 47.6263 146.392 47.2165 146.492 46.911C146.588 46.6056 147.128 46.5167 147.69 46.7139C148.252 46.911 148.63 47.317 148.533 47.6263Z" fill="#FD5E5A"/>
<path d="M153.082 47.4716C153.127 47.7616 152.757 48.0632 152.265 48.1444C151.769 48.2217 151.337 48.0516 151.292 47.7577C151.248 47.4678 151.618 47.1662 152.11 47.085C152.605 47.0077 153.042 47.1817 153.082 47.4716Z" fill="#FD5E5A"/>
<path d="M120.85 72.6756C120.85 72.6756 131.839 76.3176 132.501 82.8554L129.571 83.849L119.434 77.2533L120.85 72.6756Z" fill="#7095B9"/>
<path d="M108.771 117.265C108.771 117.265 115.11 174.18 116.693 180.258V184.093H128.846C128.846 184.093 128.114 182.813 126.738 182.813C125.366 182.813 121.893 181.429 120.943 180.47C119.992 179.511 121.542 100.853 121.542 100.853H106.445L108.771 117.265Z" fill="#0F1D5B"/>
<path d="M106.984 52.5557L106.692 57.3112L117.473 56.0315L114.955 52.807L106.984 52.5557Z" fill="#375866"/>
<path d="M115.831 105.786L114.078 114.992C114.078 114.992 100.049 164.866 100.663 182.295C100.663 182.295 101.843 184.36 106.011 185.581C106.237 185.647 106.451 186.459 106.451 186.459H95.5779L96.1918 182.952C96.1918 182.952 96.5432 123.652 96.5432 116.747C96.5432 109.842 98.2963 100.853 98.2963 100.853H116.533L115.831 105.786Z" fill="#1A2A63"/>
<path d="M123.121 89.0453C123.121 72.9115 118.612 56.8627 115.239 54.8214C115.239 54.8214 111.319 54.5391 109.303 54.4695C106.296 54.3651 101.666 55.9503 99.1657 64.8504C97.5901 70.4603 98.3335 84.0037 98.5036 95.8035C98.5776 101.034 97.8157 105.925 97.923 109.629C106.422 109.629 112.635 109.335 120.883 109.335C121.016 106.521 123.121 94.1178 123.121 89.0453Z" fill="#D24307"/>
<path d="M111.153 73.9205C111.175 74.1602 106.141 54.9373 106.141 54.9373C106.141 54.9373 104.451 55.5366 102.206 57.0869C99.9613 58.6373 96.8583 69.3545 96.8583 69.3545C96.8583 69.3545 97.6201 94.7016 97.6201 96.6269C97.6201 97.6631 96.0076 113.186 94.5134 127.313L112.899 129.134C112.621 109.436 111.153 73.9205 111.153 73.9205Z" fill="#99C8F2"/>
<path d="M115.239 54.8214C115.239 54.8214 121.723 57.462 123.121 75.1964C124.515 92.9309 124.515 129.142 124.515 129.142H118.161C118.161 129.142 117.473 77.4157 117.473 73.8665C117.473 70.3172 115.239 54.8214 115.239 54.8214Z" fill="#96C7F6"/>
<path d="M114.955 52.807L117.466 73.4179L118.357 63.1106L117.473 61.9932V56.0315L114.955 52.807Z" fill="#C0DDFA"/>
<path d="M103.707 118.897H104.906C107.232 118.897 109.118 116.925 109.118 114.493V107.047H99.4985V114.493C99.4948 116.929 101.381 118.897 103.707 118.897Z" fill="#ABD2F8"/>
<path d="M96.9883 98.5451H99.4958V92.7883H96.9883V98.5451Z" fill="#ABD2F8"/>
<path d="M103.955 75.1346C103.951 75.1307 103.948 75.123 103.94 75.1191C104.059 75.1114 104.051 75.1191 103.955 75.1346Z" fill="#FFBE9D"/>
<path d="M130.126 85.6159L146.147 73.6538L129.512 72.0725L116.933 85.9484L130.126 85.6159Z" fill="#1E3340"/>
<path d="M123.262 80.1568C123.262 80.1568 121.305 80.613 120.58 81.4249C119.656 82.4572 117.462 84.139 116.541 84.139C115.62 84.139 111.696 84.5411 111.696 84.5411L111.038 89.0569C111.038 89.0569 125.68 85.5502 126.368 84.7808C127.06 84.0076 122.936 85.353 122.936 85.0089C122.936 84.6648 127.903 84.2782 127.648 83.4122C127.393 82.5461 123.065 84.5798 122.681 84.1506C122.296 83.7215 127.903 83.0023 127.903 82.086C127.903 81.1697 122.322 83.4122 122.322 83.4122C122.322 83.4122 122.219 82.9482 123.731 82.202C125.24 81.4558 126.705 80.8566 126.372 80.4816C126.039 80.1065 122.178 82.4804 121.667 81.9121L123.262 80.1568Z" fill="#FFBE9D"/>
<path d="M103.718 58.8036C103.718 58.8036 105.571 62.3489 105.201 67.4601C104.831 72.5713 104.199 80.4043 105.238 82.956C106.277 85.5116 113.885 82.956 113.885 82.956V89.0028C113.885 89.0028 102.856 93.6848 99.6609 92.1538C96.4654 90.6227 96.7687 77.4234 96.7687 70.9513C96.7687 64.4792 101.68 54.1602 103.718 58.8036Z" fill="#ABD2F8"/>
<path d="M111.152 73.9206L106.984 52.5557L102.675 56.0585L106.444 63.3735L106.166 65.6623L111.152 73.9206Z" fill="#C0DDFA"/>
<path d="M128.606 86.0915C128.606 86.0915 128.868 86.366 129.667 86.8841C130.44 87.3867 131.22 86.598 131.383 86.4472C131.694 86.1572 132.119 85.6082 132.33 85.2564C132.541 84.9045 132.648 84.6726 132.722 84.3053C132.833 83.7679 130.902 82.1093 130.721 82.2446C130.599 82.3335 130.507 82.4572 130.547 82.5964C130.592 82.7433 131.653 84.3594 131.653 84.3594C131.653 84.3594 130.133 82.7858 129.686 82.8361C129.238 82.8864 129.297 83.1686 129.412 83.3039C129.527 83.4354 130.962 85.3376 130.962 85.3376C130.962 85.3376 129.149 83.8839 128.861 83.9148C128.569 83.9457 128.373 84.3439 129.101 84.9896C129.512 85.353 130.181 86.2191 130.181 86.2191C130.181 86.2191 128.816 85.3298 128.38 85.3801C127.944 85.4226 128.606 86.0915 128.606 86.0915Z" fill="#FFBE9D"/>
<path d="M109.444 48.7088C109.259 48.5851 106.944 42.5654 106.944 42.5654C106.944 42.5654 105.398 38.0457 106.396 37.2802C107.395 36.5147 109.766 33.8625 111.844 33.8122C113.923 33.7619 115.317 34.4153 115.502 34.539C115.687 34.6628 117.037 37.0405 117.037 37.0405C117.037 37.0405 116.408 36.2402 116.086 39.2095C115.761 42.1787 109.444 48.7088 109.444 48.7088Z" fill="#381A3F"/>
<path d="M114.688 48.4382C114.441 49.2076 114.548 54.6976 114.352 56.0779C114.159 57.4427 108.201 59.5575 108.083 54.5933C107.964 49.629 108.434 43.791 108.434 43.791L114.688 48.4382Z" fill="#FFBE9D"/>
<path d="M114.689 48.4382L112.614 46.8956L108.438 43.791C108.438 43.791 108.438 43.7948 108.438 43.7987V43.8026C108.438 43.8026 108.438 43.8026 108.438 43.8064C108.438 43.8258 108.435 43.8644 108.431 43.9224C108.416 44.1041 108.39 44.4637 108.357 44.9625V44.9663C108.349 45.0668 108.342 45.1751 108.335 45.2872C108.335 45.2949 108.335 45.3027 108.335 45.3104C108.312 45.67 108.287 46.0875 108.261 46.5437C108.261 46.5708 108.257 46.594 108.257 46.6211C108.25 46.7293 108.246 46.8414 108.238 46.9536V46.9574C108.235 47.0154 108.231 47.0734 108.227 47.1353C108.227 47.143 108.227 47.1469 108.227 47.1546C108.227 47.1778 108.224 47.201 108.224 47.2203C108.224 47.2281 108.224 47.2358 108.224 47.2474C108.22 47.2861 108.22 47.3247 108.216 47.3634C108.993 50.0234 111.926 52.9153 114.463 53.2555C114.467 53.0738 114.478 52.8882 114.489 52.6988C114.522 50.8314 114.548 48.8751 114.689 48.4382Z" fill="#FD5E5A"/>
<path d="M108.201 39.2443C107.439 41.2277 107.398 44.8581 109.218 47.6031C111.037 50.3481 113.549 51.7632 115.35 50.3791C117.147 48.9949 117.665 40.3075 116.363 38.0728C115.061 35.8381 109.366 36.2209 108.201 39.2443Z" fill="#FFBE9D"/>
<path d="M108.205 47.5837C108.205 47.5837 107.802 44.742 106.755 44.05C105.712 43.3579 105.242 42.9365 105.054 41.9313C104.865 40.9261 101.385 40.2572 101.954 38.6063C102.524 36.9554 105.246 36.1822 106.633 33.3134C108.02 30.4447 109.514 28.8557 112.743 29.9034C115.971 30.9473 116.423 33.008 116.423 33.008C116.423 33.008 117.847 32.749 118.719 34.5313C119.589 36.3136 118.964 37.3266 118.405 38.1617C118.405 38.1617 118.527 35.8072 117.754 35.9734C116.981 36.1358 117.762 38.7262 117.762 38.7262C117.762 38.7262 116.6 37.7364 115.365 36.2015C114.13 34.6666 114.433 36.4606 114.799 38.4053C115.165 40.35 112.425 38.5174 111.208 37.1101C109.991 35.7028 108.249 37.0173 107.613 39.0123C106.966 41.0073 109.71 44.1389 108.205 47.5837Z" fill="#653870"/>
<path d="M108.8 42.3605C108.8 42.3605 107.661 40.3268 107.069 41.2122C106.477 42.0937 106.966 44.7344 108.219 44.7614C109.477 44.7885 108.8 42.3605 108.8 42.3605Z" fill="#FFBE9D"/>
<path d="M108.161 42.5113C108.161 42.5113 108.205 41.3359 107.591 41.7226C106.981 42.113 107.595 44.0036 108.161 43.965C108.723 43.9263 108.161 42.5113 108.161 42.5113Z" fill="#FD5E5A"/>
<path d="M114.614 41.9662C114.832 42.5036 114.98 43.068 115.069 43.6441C115.25 44.8929 115.058 45.4226 115.051 45.5038C114.91 45.4767 114.544 45.4187 114.056 45.2873C114.37 45.2795 114.681 45.2872 114.991 45.3027L114.888 45.3839C114.943 44.2511 114.729 43.1183 114.614 41.9662Z" fill="#172866"/>
<path d="M113.075 42.2677C113.142 42.6195 112.994 42.9481 112.746 43.0023C112.498 43.0564 112.243 42.8128 112.177 42.4571C112.11 42.1053 112.258 41.7767 112.506 41.7226C112.754 41.6684 113.009 41.912 113.075 42.2677Z" fill="#2F499F"/>
<path d="M116.482 41.7612C116.549 42.1131 116.401 42.4417 116.153 42.4958C115.905 42.5499 115.65 42.3064 115.583 41.9507C115.517 41.5988 115.665 41.2702 115.913 41.2161C116.164 41.162 116.419 41.4055 116.482 41.7612Z" fill="#2F499F"/>
<path d="M111.134 41.3707C111.134 41.3707 111.659 40.4081 112.532 40.2263C113.404 40.0408 113.142 40.8101 112.938 40.8527C112.735 40.8952 111.1 41.1929 111.134 41.3707Z" fill="#172866"/>
<path d="M115.295 39.7817C115.295 39.7817 116.327 40.1026 116.523 40.5975C116.523 40.5975 115.428 40.5047 115.232 40.2341C115.036 39.9673 115.295 39.7817 115.295 39.7817Z" fill="#172866"/>
<path d="M111.862 46.7989C111.862 46.7989 114.529 47.8467 115.978 46.8414C115.978 46.8414 115.572 48.2449 115.205 48.5001C114.425 49.0336 112.517 48.6276 111.862 46.7989Z" fill="white"/>
<path d="M270.04 104.14L291.439 111.857L284.471 62.1098L270.04 104.14Z" fill="#333643"/>
<path d="M276.608 173.492L277.903 180.289C277.903 180.289 264 181.364 264 180.718C264 180.073 271.257 178.109 272.115 177.212C273.331 175.94 272.902 174.664 272.902 174.664L276.608 173.492Z" fill="#333643"/>
<path d="M354.206 108.655C353.803 108.234 336.561 112.038 336.561 112.038L340.425 83.378L343.599 63.5519L348.795 53.7355C348.795 53.7355 355.419 51.6362 355.807 52.3591L357.989 74.447L354.206 108.655Z" fill="#26253A"/>
<path d="M360.06 179.67L360.574 182.636C360.574 182.636 359.243 187.171 357.224 189.282C355.204 191.393 350.866 191.528 350.866 189.73C350.866 187.933 355.393 182.365 355.393 180.208C355.393 178.05 360.06 179.67 360.06 179.67Z" fill="#4C5063"/>
<path d="M346.313 180.208L347.086 185.686C347.086 185.686 343.994 185.686 341.845 185.686C339.696 185.686 333.768 185.686 333.768 185.686C333.768 185.686 334.197 184.337 338.065 183.529C341.93 182.721 342.148 181.317 342.148 181.317L341.849 177.78L345.373 177.242L346.313 180.208Z" fill="#4C5063"/>
<path d="M311.717 47.739C311.192 52.5602 314.917 52.421 313.907 56.3259C313.533 57.7757 312.657 59.1444 311.481 60.0916C309.384 61.785 307.301 59.7901 307.301 59.7901C307.301 59.7901 309.506 59.4769 309.332 58.8776C309.332 58.8776 306.976 60.2308 305.948 59.0671C304.916 57.9033 304.798 56.9406 304.798 56.9406C304.798 56.9406 307.187 57.9381 306.425 55.947C305.892 54.559 305.256 52.8076 304.45 50.9054C302.793 46.9928 305.016 42.2412 306.099 40.2656C307.989 39.4459 311.377 43.8882 313.374 43.2928C312.79 44.7581 311.891 46.1268 311.717 47.739Z" fill="#31003D"/>
<path d="M266.611 93.8052V108.864L271.371 175.298L278.261 174.602L279.023 130.809L275.114 93.032L266.611 93.8052Z" fill="#7D8EEC"/>
<path d="M351.898 117.486L344.035 146.374L346.916 181.194H341.846L334.885 144.372L341.846 102.199L351.898 117.486Z" fill="#353535"/>
<path d="M341.846 101.078L346.528 117.505C346.528 117.505 353.703 142.033 354.861 156.226C356.022 170.419 354.861 180.119 354.861 180.119L361.263 181.198C361.263 181.198 364.957 151.737 363.582 141.859C362.206 131.98 363.889 107.909 363.889 107.909L361.263 101.081H341.846V101.078Z" fill="#696969"/>
<path d="M285.333 174.478C285.333 174.478 284.534 177.656 284.534 179.933C284.534 182.214 277.651 188.675 276.279 187.241C274.907 185.806 279.914 175.267 279.914 175.267L280.258 173.473L285.333 174.478Z" fill="#333643"/>
<path d="M269.352 93.032L270.998 108.149C270.998 108.149 281.79 162.118 278.68 175.982H286.912L288.695 109.916L284.715 94.0449L269.352 93.032Z" fill="#7C8BDE"/>
<path d="M310.908 65.3342C310.908 65.3342 310.468 60.2037 308.959 60.2037C305.796 60.2037 300.297 76.0089 300.134 78.4717C299.857 82.6163 302.582 82.8638 305.256 83.2001C307.871 83.5287 308.356 77.5245 308.356 77.5245L310.908 65.3342Z" fill="#460E02"/>
<path d="M319.925 181.174L319.847 186.197L320.38 186.212L321.068 180.49L319.925 181.174Z" fill="#1D1B22"/>
<path d="M316.226 137.022C316.226 137.022 316.799 144.874 317.716 147.221C318.637 149.568 316.991 180.575 316.211 183.077C316.037 183.633 315.804 184.128 315.56 184.561C314.709 186.085 314.513 186.398 315.656 186.402C317.125 186.405 318.412 186.115 318.696 185.485C319.188 184.399 319.625 180.664 320.627 180.668C320.627 180.668 321.315 179.276 321.141 178.541C320.882 177.44 320.165 178.004 320.172 176.469C320.176 174.934 325.043 151.609 324.281 148.215C323.519 144.82 322.979 144.414 322.994 140.374C323.009 136.334 316.226 137.022 316.226 137.022Z" fill="#FFBE9D"/>
<path d="M312.908 128.799C312.908 128.799 307.431 139.713 307.779 142.945C308.13 146.177 309.284 148.787 308.293 153.198C307.301 157.61 299.442 173.612 299.254 176.535C299.176 177.768 299.535 177.884 299.535 177.884C299.52 180.011 298.884 182.288 298.462 182.725C297.918 183.289 297.308 186.088 296.794 186.088C296.28 186.088 291.927 186.572 291.927 186.572C291.816 185.536 293.147 186.367 293.928 184.217C294.708 182.068 295.182 178.835 296.173 174.478C297.164 170.121 301.236 150.233 301.251 145.655C301.266 141.078 300.862 141.054 301.543 138.043C302.223 135.031 304.764 129.386 304.764 129.386L312.908 128.799Z" fill="#FFBE9D"/>
<path d="M307.779 142.945C307.428 139.713 312.909 128.799 312.909 128.799L304.765 129.386C304.765 129.386 302.224 135.031 301.543 138.043C301.044 140.254 301.129 140.853 301.203 142.825C302.76 143.173 305.183 143.687 307.949 144.151C307.883 143.757 307.823 143.359 307.779 142.945Z" fill="#EA5353"/>
<path d="M322.995 140.374C323.006 136.334 316.226 137.022 316.226 137.022C316.226 137.022 316.592 142.029 317.206 145.242C319.499 145.358 321.67 145.311 323.457 145.002C323.165 143.819 322.987 142.698 322.995 140.374Z" fill="#FFBE9D"/>
<path d="M308.959 60.2037C308.959 60.2037 311.496 58.1623 320.088 60.1921C320.321 60.2463 320.535 69.9969 320.535 69.9969C320.535 69.9969 316.548 86.3124 317.306 90.3836C317.306 90.3836 312.75 94.4045 305.948 90.9055C305.948 90.9055 306.832 78.0928 306.215 75.2395C305.597 72.3862 304.362 69.7959 306.115 66.8343C307.868 63.8728 308.959 60.2037 308.959 60.2037Z" fill="#EE66B2"/>
<path d="M303.859 110.422C304.58 106.761 305.952 90.9016 305.952 90.9016C305.952 90.9016 306.836 78.0889 306.218 75.2357C305.601 72.3824 304.365 69.792 306.118 66.8304C307.872 63.8689 308.963 60.2037 308.963 60.2037C308.963 60.2037 311.5 58.1623 320.091 60.1921C320.324 60.2463 320.539 69.9969 320.539 69.9969C320.539 69.9969 316.552 86.3124 317.31 90.3836C317.31 90.3836 321.87 98.174 322.913 102.454C323.956 106.734 323.202 140.038 323.202 140.038C318.771 141.654 300.674 140.038 300.674 140.038C300.674 140.038 303.138 114.084 303.859 110.422Z" fill="#BE2703"/>
<path d="M315.565 184.561C315.553 185.543 315.613 185.76 317.025 185.435C318.043 184.94 319.836 180.03 320.288 177.223C320.569 177.393 321.319 177.614 321.552 178.569C321.723 179.264 320.913 186.231 320.913 186.231L320.38 186.216L320.709 181.155C319.703 181.151 319.426 185.261 318.934 186.347C318.649 186.974 316.36 186.873 314.891 186.869C313.749 186.865 314.714 186.084 315.565 184.561Z" fill="#393644"/>
<path d="M293.295 185.207C292.27 186.201 290.717 185.996 290.806 186.831C290.806 186.831 296.442 186.599 296.956 186.599C297.471 186.599 297.918 183.289 298.462 182.729C299.005 182.164 298.654 186.606 298.654 186.606H299.209C299.209 186.606 299.593 182.033 300.115 180.254C300.529 178.839 299.949 178.244 299.531 177.884C297.833 181.259 297.556 186.015 293.295 185.207Z" fill="#393644"/>
<path d="M314.4 79.8326C313.335 80.6097 312.639 81.7348 310.343 82.4153C311.689 83.5133 313.231 84.6538 314.699 85.5469C315.047 83.6022 315.298 81.9938 315.343 80.0491C315.287 80.0723 314.452 79.8172 314.4 79.8326Z" fill="#FFBE9D"/>
<path d="M323.963 64.0584C323.279 61.8005 320.387 60.2037 320.387 60.2037C318.068 59.9215 317.391 72.6724 317.391 72.6724L316.47 79.7166C316.281 79.9293 315.59 79.7205 315.342 79.8288C315.301 81.7735 315.05 83.5983 314.698 85.5431C316.992 86.9349 319.111 87.712 320.024 86.757C322.107 84.5842 324.647 66.3201 323.963 64.0584Z" fill="#8C1C03"/>
<path d="M303.489 72.9855C302.579 72.7806 299.739 73.8129 299.739 73.8129C299.739 73.8129 298.984 74.907 298.984 75.6107C298.984 75.7305 299.047 75.7885 299.15 75.7769C298.954 75.9277 298.858 76.0476 298.94 76.1326C299.317 76.527 302.283 75.0346 302.461 75.2202C302.638 75.4058 299.091 76.0089 299.376 76.6816C299.498 76.9639 300.859 76.5154 301.717 76.2061C300.97 76.5115 299.879 77.0025 299.879 77.3002C299.879 77.7564 302.971 77.0567 303.648 77.0567C303.899 77.0567 304.314 77.335 304.78 77.6443C304.987 77.6057 305.131 77.7062 305.22 77.6791C305.22 77.6791 307.535 77.625 310.483 78.0077C307.265 75.9896 303.737 73.0435 303.489 72.9855ZM300.278 75.1351C300.042 75.2589 299.812 75.3787 299.605 75.4947C299.805 75.2975 299.964 74.8606 300.249 74.6519C300.826 74.2266 301.695 73.9869 301.824 74.1222C301.98 74.2884 301.107 74.7098 300.278 75.1351Z" fill="#FFBE9D"/>
<path d="M316.996 75.6764C316.84 76.4574 316.866 78.7926 316.511 79.3764C316.511 79.3764 316.127 79.0941 316.001 79.2295H315.997C314.736 79.9331 312.957 81.8662 309.484 82.6395C306.07 83.3857 301.418 83.7723 301.418 81.352C301.418 78.9318 303.748 77.6057 305.223 77.6057C305.223 77.6057 307.539 77.6211 310.486 78.0039C310.49 78.0039 310.49 78.0039 310.494 78.0039C313.434 78.3905 316.689 75.4328 316.996 75.6764Z" fill="#FF8D8D"/>
<path d="M307.865 39.1366C307.865 39.1366 308.675 36.9638 313.579 36.9638C318.483 36.9638 319.489 42.0247 318.86 43.2735C318.232 44.5223 319.3 47.047 320.432 47.3949C321.564 47.7429 324.397 49.3628 322.866 50.9596C321.335 52.5602 324.079 52.4713 324.079 53.9173C324.079 55.3632 323.239 56.3143 321.312 56.5734C319.385 56.8285 307.865 39.1366 307.865 39.1366Z" fill="#31003D"/>
<path d="M308.97 53.1092C308.97 53.1092 309.672 59.2952 309.672 63.3161C309.672 63.9269 312.709 63.2813 313.301 62.8328C314.24 62.1175 314.913 61.6381 315.076 60.2888C315.187 59.3841 312.672 50.5304 312.672 50.5304L308.97 53.1092Z" fill="#FFBE9D"/>
<path d="M313.027 51.8063C312.476 53.7085 311.474 55.7846 309.603 56.4728C309.503 56.5076 309.407 56.5386 309.31 56.5579C309.14 54.5822 308.974 53.1092 308.974 53.1092L312.672 50.5304C312.669 50.5304 312.813 51.0292 313.027 51.8063Z" fill="#FFBE9D"/>
<path d="M306.999 40.2617C306.999 40.2617 305.756 40.9885 305.261 42.5892C304.765 44.1898 305.538 46.2041 305.331 47.5882C305.124 48.9723 306.592 55.9663 309.887 54.9109C313.183 53.8554 313.686 48.7983 313.856 47.6771C314.026 46.5521 313.12 42.419 311.437 41.2128C309.75 40.0027 306.999 40.2617 306.999 40.2617Z" fill="#FFBE9D"/>
<path d="M305.26 42.5892C305.756 40.9886 306.999 40.2617 306.999 40.2617C306.999 40.2617 309.75 40.0027 311.433 41.2089C313.116 42.4152 314.022 46.5521 313.852 47.6733C313.722 48.5316 313.397 51.6864 311.784 53.5964C311.614 51.6362 312.95 48.7326 312.398 45.9412C312.236 46.0417 311.518 46.1229 311.159 46.1036C309.636 46.0224 311.747 43.7684 310.364 41.5414C309.51 40.8687 309.484 40.7914 308.926 40.6483C308.744 42.4461 307.076 45.5855 305.353 47.3872C305.471 46.0147 304.791 44.1163 305.26 42.5892Z" fill="#FFBE9D"/>
<path d="M307.631 47.2635C307.527 48.1334 307.316 49.1811 307.102 50.0355C307.361 50.1979 307.709 50.31 308.038 50.2791C307.501 50.4647 306.972 50.1167 306.939 50.109C307.091 49.3976 307.254 48.4427 307.631 47.2635Z" fill="#4F005E"/>
<path d="M309.214 45.9799C309.214 45.9799 309.88 45.5275 310.623 45.5005C311.367 45.4734 312.313 46.4438 312.313 46.4438C312.313 46.4438 311.252 45.686 310.756 45.7247C310.261 45.7634 309.754 46.0611 309.754 46.0611L309.214 45.9799Z" fill="#4F005E"/>
<path d="M307.442 45.8523C307.442 45.8523 306.932 45.3033 306.318 45.1602C305.704 45.0172 304.824 45.8291 304.824 45.8291C304.824 45.8291 305.778 45.2453 306.188 45.3613C306.595 45.4772 306.987 45.8484 306.987 45.8484L307.442 45.8523Z" fill="#4F005E"/>
<path d="M309.492 51.7057C307.857 52.189 307.273 52.0962 306.737 51.9261C307.469 52.6452 308.845 52.3784 309.492 51.7057Z" fill="white"/>
<path d="M309.599 47.1513C309.64 47.4219 309.861 47.6114 310.091 47.5727C310.32 47.5341 310.472 47.2828 310.427 47.0121C310.387 46.7415 310.165 46.552 309.935 46.5907C309.71 46.6294 309.558 46.8807 309.599 47.1513Z" fill="#4F005E"/>
<path d="M311.497 47.391C309.94 45.7208 309.329 46.9425 308.812 47.0276C309.233 47.0547 309.71 46.5791 310.173 46.7067C310.55 46.8072 311.116 47.1668 311.497 47.391Z" fill="#42004A"/>
<path d="M306.067 47.0508C306.104 47.3215 306.282 47.5148 306.463 47.4838C306.644 47.449 306.755 47.2016 306.718 46.931C306.681 46.6603 306.503 46.467 306.322 46.4979C306.145 46.5289 306.03 46.7763 306.067 47.0508Z" fill="#4F005E"/>
<path d="M307.387 47.2403C306.152 45.6629 305.582 46.9001 305.142 47.0083C305.494 47.016 305.919 46.525 306.3 46.6256C306.618 46.7067 307.077 47.0354 307.387 47.2403Z" fill="#42004A"/>
<path d="M309.499 49.7649C309.573 50.2327 310.11 50.5265 310.701 50.426C311.293 50.3255 311.711 49.8654 311.641 49.4015C311.567 48.9375 311.031 48.6398 310.439 48.7404C309.847 48.8409 309.429 49.2971 309.499 49.7649Z" fill="#FFBE9D"/>
<path d="M310.368 41.5414C309.269 40.6792 308.411 40.4009 307.805 40.3313C307.542 40.3158 307.335 40.3197 307.176 40.3313C306.954 40.3545 306.817 40.397 306.769 40.3893C306.769 40.3738 306.788 40.3081 306.836 40.2114C307.065 39.6895 307.916 38.1932 310.183 38.2319C310.257 38.2319 310.335 38.2319 310.409 38.2358C311.799 38.2938 313.205 38.2551 314.551 38.6843C315.339 38.9356 316.115 39.3724 316.703 39.9833C317.425 40.7334 317.513 41.6265 317.536 42.6472C317.576 44.5145 317.18 46.4206 317.635 48.2571C318.072 50.0162 319.078 51.6593 320.616 52.564C321.955 53.3528 322.632 54.5784 322.81 56.1751C322.994 57.8299 322.684 59.6161 321.948 61.093C320.631 63.7336 317.976 62.5699 317.976 62.5699C317.976 62.5699 319.899 61.3056 319.518 60.7643C319.518 60.7643 317.661 63.3702 316.115 63.5674C313.46 63.9076 312.313 61.8121 312.313 61.8121C312.313 61.8121 315.779 61.2051 314.344 59.473C313.345 58.2667 313.186 56.5656 312.08 54.6248C311.47 53.5538 312.028 51.7405 312.487 49.7494C312.52 49.5175 312.617 49.1115 312.72 48.6398C312.927 47.5186 313.034 46.3781 312.824 45.3149C312.661 45.4154 312.424 45.4966 312.062 45.4772C311.185 45.4308 311.189 44.878 311.156 44.0506C311.048 43.2542 310.826 42.2799 310.368 41.5414Z" fill="#4F005E"/>
<path d="M307.864 39.1367C307.864 39.1367 306.14 38.8622 304.672 39.9795C303.204 41.0968 303.052 45.5469 303.825 46.4671C304.598 47.3911 301.07 48.5973 302.971 48.7636C305.671 48.9956 309.525 39.5968 307.864 39.1367Z" fill="#4F005E"/>
<path d="M315.893 46.1422C315.316 47.2673 314.802 48.7829 314.669 50.0084C314.273 53.9288 318.526 52.5447 319.61 52.8076C320.28 52.9468 320.757 53.6891 320.379 54.5281C320.072 55.2201 319.592 55.3632 319.314 55.6145C318.893 56.005 319 56.554 319.381 56.8324C320.132 57.393 321.278 56.5926 321.433 57.7989C321.559 58.6418 321.178 59.5619 320.476 60.0839C321.249 59.6624 321.744 58.7229 321.692 57.768C321.637 56.786 321.001 56.728 320.124 56.6545C319.584 56.6042 319.429 56.3027 319.495 56.1364C319.581 55.8039 320.346 55.7962 320.831 54.7562C321.204 54.0177 321.041 53.1246 320.409 52.5988C318.763 51.2108 314.136 54.4817 315.179 48.7249C315.335 47.8434 315.597 46.9851 315.893 46.1422Z" fill="#6A0084"/>
<path d="M307.335 39.7591C304.78 39.6702 303.171 41.8275 303.848 44.0622C303.962 44.4411 304.155 44.82 304.51 44.9592L304.658 44.4218C304.517 44.4063 304.343 44.0352 304.291 43.8998C303.533 41.9551 304.902 39.8674 307.335 39.7591Z" fill="#6A0084"/>
<path d="M361.263 55.7653C361.263 55.7653 353.011 51.149 347.645 56.7589C342.278 62.3688 341.846 78.2165 341.846 78.2165V96.5386L341.076 104.696L361.178 102.199L358.47 74.2305L361.263 55.7653Z" fill="#A02103"/>
<path d="M344.035 82.9334L357.209 53.7085L365.686 56.7589L362.723 82.9334L368.264 112.305C368.264 112.305 346.676 110.353 344.035 113.113V82.9334Z" fill="#9E9E9E"/>
<path d="M347.644 56.7589C347.644 56.7589 342.747 72.9933 342.747 77.9653C342.747 82.9334 338.882 112.035 338.882 112.035H336.563L339.785 77.9653L343.764 62.3766L347.644 56.7589Z" fill="#7D87B7"/>
<path d="M348.799 53.7278L342.349 83.3741L343.762 62.3766L345.06 60.9577L344.035 61.1974L346.609 55.3903L348.799 53.7278Z" fill="#979FC5"/>
<path d="M327.473 88.4852C330.927 88.8371 332.485 89.042 332.558 88.7713C332.362 88.4891 331.601 88.3461 329.189 87.9826C327.802 87.7739 325.55 87.1669 325.273 86.8962C324.877 86.3201 326.16 86.4439 326.852 86.6062C326.922 86.6217 334.03 88.1837 334.574 87.1475C335.125 86.092 333.091 85.7325 331.874 85.5276C330.632 85.3227 329.995 84.2169 330.461 84.0313C331.038 83.7994 332.285 85.0945 334.304 85.3033C336.072 85.4889 338.62 85.8871 339.726 86.1423L340.791 86.873L344.05 86.6333L343.887 89.9815L341.39 90.6426C339.268 91.4313 336.113 92.4752 334.008 92.8425C331.8 93.2291 329.921 93.1518 328.971 92.9701C328.742 92.9275 328.727 92.6182 328.949 92.5873C329.533 92.5023 330.387 92.4597 330.987 92.4288C332.958 92.3244 333.624 91.9262 333.738 91.5086C333.461 91.2148 332.684 91.2187 329.97 91.3965C328.716 91.4777 326.996 91.5937 326.719 91.47C325.616 90.689 328.424 90.573 329.696 90.5769C331.005 90.5807 332.396 90.7161 332.562 90.1207C332.618 89.9273 330.92 89.6451 328.793 89.5678C321.071 89.2971 323.686 88.0986 327.473 88.4852Z" fill="#FFBE9D"/>
<path d="M365.689 56.7589C365.689 56.7589 368.678 55.9664 370.072 66.6874C371.466 77.4085 368.397 91.4198 365.689 92.7691C362.982 94.1145 340.429 91.153 340.429 91.153L341.845 84.3987C341.845 84.3987 356.003 84.7428 358.729 81.8972C361.455 79.0478 361.703 70.5769 361.262 65.9142C360.826 61.2515 365.689 56.7589 365.689 56.7589Z" fill="#B8B8B8"/>
<path d="M272.159 52.6685C272.159 52.6685 266.608 62.4539 266.608 67.2326C266.608 72.0074 264.566 90.6581 266.608 97.4781C268.268 103.03 278.291 104.399 287.186 95.1004C290.474 91.6633 283.621 76.0244 283.621 76.0244L288.695 52.3592L279.774 49.3396C279.774 49.3396 276.275 55.6803 272.159 52.6685Z" fill="#61567C"/>
<path d="M283.661 50.6541L288.695 52.3592L289.519 80.1497L296.791 108.149L291.439 111.857L277.033 85.9181L278.816 62.566L283.661 50.6541Z" fill="#7D87B7"/>
<path d="M266.874 58.1198L272.159 52.6685C272.159 52.6685 267.092 64.4643 267.092 69.8848C267.092 75.3053 266.612 102.365 266.612 102.365C266.612 102.365 264.078 94.6674 264.078 87.3525C264.078 80.0375 266.874 58.1198 266.874 58.1198Z" fill="#7D87B7"/>
<path d="M346.18 32.305C346.18 32.305 343.11 36.2834 342.592 39.0284C342.06 41.8546 341.383 46.3743 341.383 46.3743L342.589 46.4091C342.589 46.4091 343.524 48.9569 343.48 50.6349C343.436 52.3128 346.006 51.3385 347.478 51.381C348.95 51.4236 352.264 50.1902 353.666 45.4C355.067 40.6174 357.642 32.0808 346.18 32.305Z" fill="#FFBE9D"/>
<path d="M356.525 56.206C356.525 56.206 347.848 58.924 348.292 58.4833C348.695 58.0812 348.107 52.0305 347.963 50.0703C348.296 49.2662 350.814 43.1536 350.652 43.5441C350.652 43.5441 350.652 43.5441 350.652 43.5403L351.169 42.2876L356.525 56.206Z" fill="#FFBE9D"/>
<path d="M342.245 29.2506C342.1 29.4865 339.645 34.3579 343.602 36.3645C347.559 38.3711 348.628 35.6802 349.653 37.3929C350.677 39.1018 348.606 41.7618 349.435 43.3276L350.762 43.633C350.762 43.633 351.054 42.8134 351.591 42.8288C352.127 42.8443 352.164 47.0856 353.026 47.1126C353.887 47.1397 355.655 43.5789 356.506 41.9241C357.353 40.2694 359.18 34.6518 356.14 33.0937C353.1 31.5356 351.731 32.6142 351.768 31.2147C351.805 29.8151 350.429 31.2456 350.429 31.2456C350.429 31.2456 349.723 30.1747 350.222 28.9993C350.722 27.824 346.986 27.2943 346.05 29.6488C345.118 31.9957 343.787 26.7028 342.245 29.2506Z" fill="#2D1175"/>
<path d="M350.486 41.2592C350.486 41.2592 350.345 44.0197 350.981 44.039C351.617 44.0583 353.056 42.5351 352.864 40.8648C352.675 39.1946 350.826 39.3377 350.486 41.2592Z" fill="#FFBE9D"/>
<path d="M350.937 40.9731C350.937 40.9731 350.589 42.0633 351.055 42.5737C351.517 43.0879 352.472 41.9164 351.987 41.004C351.503 40.0916 351.055 40.3429 350.937 40.9731Z" fill="#FFBE9D"/>
<path d="M344.016 40.0027L343.894 40.6676C343.894 40.6676 345.019 40.5594 345.614 41.2205C346.21 41.8816 346.295 41.9551 346.295 41.9551C346.295 41.9551 346.01 40.4357 344.016 40.0027Z" fill="#2D1175"/>
<path d="M345.167 42.0982C345.159 42.4345 344.93 42.7052 344.656 42.6974C344.386 42.6897 344.172 42.4075 344.179 42.0711C344.19 41.7347 344.416 41.4641 344.69 41.4757C344.963 41.4796 345.178 41.7579 345.167 42.0982Z" fill="#2D1175"/>
<path d="M344.054 48.23C344.435 48.2416 344.823 48.1682 345.134 47.9826C345.289 47.8859 345.411 47.7583 345.5 47.6114C345.592 47.4684 345.622 47.2867 345.648 47.1165L345.651 47.0933C345.666 46.9851 345.766 46.9078 345.87 46.9271C345.973 46.9426 346.047 47.047 346.029 47.1552C346.029 47.1668 346.025 47.1745 346.021 47.1861C345.955 47.3988 345.881 47.6192 345.729 47.7854C345.589 47.9555 345.407 48.0831 345.215 48.1604C344.83 48.3073 344.431 48.3073 344.054 48.23Z" fill="#2D1175"/>
<path d="M340.345 34.2342C340.308 34.4623 340.526 34.8722 340.652 35.0616C341.328 36.0359 342.693 36.2137 343.603 36.3607C343.481 36.3645 342.253 36.5733 341.24 36.2408C340.141 35.9044 339.501 35.1235 339.335 34.3463L340.345 34.2342Z" fill="#2D1175"/>
<path d="M350.937 50.9093C350.512 51.3307 349.081 52.2509 348.197 52.8076C348.082 51.2921 347.96 50.0742 347.96 50.0742C347.96 50.0742 348.681 50.7624 350.641 43.4977C350.641 43.4977 350.645 43.5132 350.649 43.5441C350.649 43.548 350.649 43.548 350.649 43.548C350.734 44.1743 351.533 50.3255 350.937 50.9093Z" fill="#FFBE9D"/>
<path d="M343.395 49.4943C343.395 49.4943 343.155 50.5691 343.136 51.1916C343.122 51.814 344.586 52.5447 345.932 52.1852C347.279 51.8256 349.161 50.9596 349.631 50.4956C350.101 50.0317 350.637 43.606 350.637 43.606L349.435 43.3238C349.435 43.3238 348.725 47.5032 348.211 48.0096C347.7 48.5161 343.395 49.4943 343.395 49.4943Z" fill="#2D1175"/>
<path d="M356.188 90.8436C356.188 92.1002 358.459 93.1208 361.263 93.1208C364.066 93.1208 366.337 92.1002 366.337 90.8436C366.337 89.5871 364.066 88.5664 361.263 88.5664C358.459 88.5664 356.188 89.5871 356.188 90.8436Z" fill="#B96E16"/>
<path d="M361.174 92.5371C361.174 92.4984 361.203 92.4636 361.244 92.4636H361.263C361.448 92.4636 361.636 92.4597 361.821 92.4481C361.858 92.452 361.891 92.4791 361.895 92.5177C361.895 92.5564 361.865 92.5912 361.828 92.5951C361.644 92.6028 361.451 92.6105 361.263 92.6105H361.244C361.203 92.6105 361.174 92.5757 361.174 92.5371ZM360.678 92.5951C360.49 92.5835 360.301 92.568 360.116 92.5487C360.079 92.5448 360.05 92.51 360.053 92.4675C360.057 92.4288 360.094 92.394 360.131 92.4017C360.312 92.4211 360.501 92.4365 360.686 92.4481C360.723 92.452 360.752 92.4829 360.752 92.5255C360.749 92.5641 360.719 92.5951 360.682 92.5951C360.682 92.5951 360.682 92.5951 360.678 92.5951ZM362.313 92.4868C362.309 92.4481 362.339 92.4095 362.376 92.4056C362.561 92.3863 362.746 92.3592 362.927 92.3322C362.968 92.3283 363.001 92.3515 363.008 92.394C363.016 92.4327 362.99 92.4713 362.949 92.4791C362.764 92.51 362.579 92.5332 362.391 92.5564C362.387 92.5564 362.387 92.5564 362.383 92.5564C362.346 92.5525 362.317 92.5255 362.313 92.4868ZM359.558 92.4713C359.369 92.4404 359.18 92.4017 359.003 92.3592C358.966 92.3515 358.94 92.3128 358.951 92.2703C358.958 92.2316 358.995 92.2084 359.036 92.2162C359.21 92.2587 359.395 92.2974 359.58 92.3283C359.617 92.336 359.643 92.3708 359.639 92.4133C359.635 92.4481 359.606 92.4752 359.569 92.4752C359.565 92.4713 359.561 92.4713 359.558 92.4713ZM363.419 92.309C363.411 92.2703 363.434 92.2316 363.471 92.22C363.656 92.1775 363.837 92.1272 364.007 92.0731C364.044 92.0615 364.081 92.0847 364.092 92.1195C364.103 92.1582 364.085 92.2007 364.048 92.2123C363.874 92.2664 363.689 92.3206 363.5 92.3631C363.496 92.3631 363.489 92.3631 363.485 92.3631C363.456 92.3669 363.43 92.3438 363.419 92.309ZM358.455 92.2084C358.267 92.1466 358.086 92.0809 357.923 92.0074C357.886 91.9919 357.871 91.9494 357.886 91.9107C357.901 91.8721 357.941 91.8566 357.978 91.8721C358.141 91.9417 358.315 92.0074 358.5 92.0692C358.537 92.0808 358.559 92.1234 358.544 92.162C358.533 92.193 358.507 92.2123 358.478 92.2123C358.47 92.2123 358.463 92.2084 358.455 92.2084ZM364.495 91.9765C364.48 91.9378 364.499 91.8953 364.532 91.8798C364.713 91.8025 364.88 91.7174 365.028 91.6285C365.061 91.6092 365.105 91.6208 365.124 91.6556C365.142 91.6904 365.131 91.7368 365.098 91.7561C364.946 91.8489 364.772 91.9339 364.588 92.0151C364.58 92.019 364.569 92.019 364.562 92.019C364.532 92.019 364.506 92.0035 364.495 91.9765ZM357.413 91.7445C357.224 91.6285 357.069 91.5086 356.95 91.3849C356.924 91.3579 356.921 91.3115 356.95 91.2805C356.976 91.2535 357.02 91.2535 357.05 91.2805C357.161 91.3965 357.309 91.5086 357.486 91.6169C357.52 91.6362 357.531 91.6826 357.512 91.7174C357.498 91.7406 357.475 91.7522 357.453 91.7522C357.435 91.7522 357.424 91.7522 357.413 91.7445ZM365.464 91.3965C365.438 91.3656 365.438 91.3231 365.464 91.2921C365.623 91.1336 365.704 90.979 365.704 90.8437C365.704 90.805 365.738 90.7702 365.775 90.7702C365.812 90.7702 365.845 90.805 365.845 90.8437C365.845 91.0176 365.745 91.2109 365.56 91.3965C365.545 91.4081 365.531 91.4159 365.512 91.4159C365.497 91.4197 365.479 91.412 365.464 91.3965ZM356.747 90.9016C356.71 90.9016 356.677 90.8668 356.68 90.8282C356.684 90.6542 356.787 90.4648 356.972 90.283C356.998 90.256 357.043 90.256 357.072 90.2869C357.098 90.314 357.098 90.3604 357.069 90.3913C356.91 90.5498 356.824 90.7006 356.821 90.8359C356.817 90.8707 356.784 90.9016 356.747 90.9016ZM365.475 90.399C365.364 90.2869 365.216 90.1709 365.039 90.0627C365.005 90.0433 364.994 89.9969 365.013 89.9622C365.031 89.9274 365.076 89.9158 365.109 89.9351C365.298 90.0511 365.453 90.1671 365.575 90.2908C365.605 90.3178 365.605 90.3642 365.579 90.3952C365.564 90.4106 365.545 90.4184 365.527 90.4184C365.505 90.4184 365.486 90.4145 365.475 90.399ZM357.409 90.0279C357.39 89.9931 357.401 89.9467 357.435 89.9274C357.586 89.8346 357.76 89.7495 357.949 89.6683C357.986 89.6529 358.026 89.6722 358.041 89.707C358.056 89.7456 358.038 89.7882 358.004 89.8036C357.823 89.881 357.657 89.966 357.509 90.0549C357.498 90.0627 357.486 90.0627 357.475 90.0627C357.446 90.0627 357.424 90.0511 357.409 90.0279ZM364.543 89.8114C364.38 89.7418 364.207 89.6761 364.022 89.6142C363.985 89.6026 363.962 89.5601 363.977 89.5214C363.988 89.4827 364.025 89.4634 364.066 89.475C364.255 89.5369 364.436 89.6026 364.599 89.6761C364.636 89.6915 364.65 89.734 364.636 89.7727C364.625 89.7998 364.599 89.8191 364.573 89.8191C364.562 89.8191 364.551 89.8152 364.543 89.8114ZM358.437 89.5639C358.426 89.5253 358.448 89.4827 358.481 89.4711C358.655 89.417 358.836 89.3668 359.029 89.3204C359.066 89.3126 359.103 89.3358 359.114 89.3745C359.121 89.4131 359.099 89.4518 359.062 89.4634C358.873 89.5059 358.696 89.5562 358.526 89.6103C358.518 89.6142 358.511 89.6142 358.507 89.6142C358.474 89.6142 358.448 89.5949 358.437 89.5639ZM363.482 89.4673C363.304 89.4247 363.119 89.39 362.934 89.359C362.897 89.3513 362.871 89.3165 362.875 89.274C362.883 89.2353 362.916 89.2082 362.957 89.2121C363.145 89.243 363.33 89.2817 363.511 89.3242C363.548 89.332 363.574 89.3706 363.563 89.4131C363.556 89.4479 363.526 89.4711 363.493 89.4711C363.493 89.4711 363.489 89.4673 363.482 89.4673ZM359.528 89.2933C359.521 89.2546 359.547 89.216 359.587 89.2082C359.768 89.1773 359.957 89.1541 360.146 89.1309C360.194 89.127 360.22 89.158 360.223 89.1966C360.227 89.2353 360.197 89.274 360.16 89.2778C359.972 89.2972 359.787 89.3242 359.609 89.3513C359.606 89.3513 359.602 89.3513 359.598 89.3513C359.561 89.3551 359.532 89.332 359.528 89.2933ZM362.383 89.2817C362.202 89.2624 362.017 89.2469 361.828 89.2392C361.791 89.2353 361.762 89.2044 361.762 89.1618C361.766 89.1232 361.803 89.0961 361.836 89.0923C362.028 89.1038 362.217 89.1193 362.398 89.1386C362.435 89.1425 362.465 89.1773 362.461 89.2198C362.457 89.2585 362.428 89.2856 362.391 89.2856C362.391 89.2817 362.387 89.2817 362.383 89.2817ZM360.641 89.1696C360.641 89.1309 360.671 89.0961 360.708 89.0923C360.882 89.0845 361.063 89.0768 361.252 89.0768C361.255 89.0768 361.259 89.0768 361.266 89.0768L361.27 89.1502V89.0768C361.307 89.0768 361.337 89.1116 361.337 89.1502C361.337 89.1889 361.3 89.2237 361.263 89.2237C361.078 89.2237 360.893 89.2276 360.715 89.2392C360.715 89.2392 360.715 89.2392 360.712 89.2392C360.675 89.2392 360.645 89.2082 360.641 89.1696Z" fill="#FABE78"/>
<path d="M344.035 82.9334L356.151 63.7143L354.86 60.8378L357.568 61.0195L361.262 55.0191L355.811 52.3553L344.035 82.9334Z" fill="#979FC5"/>
<path d="M285.858 104.43V108.566L282.167 107.789L280.739 106.498L282.167 102.597L285.858 104.43Z" fill="#FF8D8D"/>
<path d="M288.694 52.3591C288.694 52.3591 291.783 52.0614 293.358 56.3336C294.937 60.6058 294.593 85.4154 294.593 85.4154L286.912 106.069L282.167 102.597C282.167 102.597 285.591 88.2571 284.937 80.8958C284.286 73.5345 288.694 52.3591 288.694 52.3591Z" fill="#979FC5"/>
<path d="M286.912 108.13C286.912 108.13 280.073 106.111 277.673 103.602C277.673 103.602 281.024 107.739 283.073 108.764C285.126 109.784 286.912 108.13 286.912 108.13Z" fill="#5D68A7"/>
<path d="M280.184 34.1879C280.539 31.8488 278.376 30.1206 276.127 29.8499C273.919 29.5832 271.774 29.2661 270.809 30.5497C268.482 33.6466 270.372 40.4434 270.372 40.4434C270.372 40.4434 271.434 43.6408 274.426 44.1202C276.478 44.4489 279.522 38.5606 280.184 34.1879Z" fill="#FFBE9D"/>
<path d="M281.349 41.0698C281.349 41.0698 280.399 50.0472 279.777 52.2586C279.152 54.4701 271.537 55.6107 271.818 53.4842C272.037 51.8218 273.723 44.8973 273.723 44.8973L281.349 41.0698Z" fill="#FFBE9D"/>
<path d="M280.617 47.2171C280.528 47.1784 280.469 47.1436 280.458 47.1243C279.8 46.092 279.349 42.8057 279.349 42.8057C279.349 42.8057 278.457 45.9258 278.198 47.6888C278.032 48.81 275.983 49.243 274.023 49.328C273.782 48.8486 273.631 48.2648 273.557 47.7777C273.531 48.2919 273.56 48.837 273.671 49.3396C273.327 49.3474 272.995 49.3435 272.673 49.3319C273.18 47.1088 273.72 44.8973 273.72 44.8973L281.346 41.0698C281.349 41.0698 281.017 44.1975 280.617 47.2171Z" fill="#FFBE9D"/>
<path d="M270.513 44.8702C270.272 45.2607 269.854 45.7904 269.403 46.0958C268.848 45.1409 268.619 43.923 268.76 42.9835C269.007 41.2901 270.15 40.5323 270.243 39.906C270.243 39.906 270.383 41.3984 272.251 42.0092C274.119 42.6201 275.879 41.3481 276.719 40.7024C277.558 40.0606 278.601 39.4768 278.786 38.2319C278.971 36.987 279.822 32.1349 279.822 32.1349C279.822 32.1349 280.143 31.3307 282.063 32.7496C283.983 34.1685 283.609 34.9572 283.701 36.6622C283.79 38.3672 283.154 39.5116 284.378 40.1534C285.602 40.7952 286.723 43.0222 285.41 44.9901C284.097 46.958 281.316 46.7802 280.65 45.8252C279.981 44.8741 279.382 42.2296 279.382 42.2296C279.382 42.2296 278.642 44.7001 278.405 46.3085C278.254 47.333 276.216 47.7003 274.259 47.7506C274.011 47.306 273.852 46.7724 273.775 46.3278C273.756 46.7995 273.793 47.2982 273.912 47.7583C272.924 47.7661 271.992 47.6965 271.371 47.5959C270.786 47.5031 270.291 47.19 269.895 46.757C270.239 46.2273 270.431 45.5507 270.513 44.8702Z" fill="#94BBFF"/>
<path d="M282.273 32.707C284.052 33.9133 283.916 34.9185 283.978 36.4264C284.123 38.6185 283.464 39.299 284.644 39.9137C287.274 41.5878 286.708 46.1267 283.15 46.6332C282.266 46.7183 281.212 46.6023 280.646 45.829C281.308 46.467 282.284 46.4708 283.094 46.293C286.053 45.628 286.508 41.8314 284.311 40.5246C282.754 39.8248 283.475 38.3479 283.398 36.4495C283.35 35.0422 283.708 34.3115 282.077 32.9854C281.508 32.4983 280.321 31.5704 279.818 32.1426C280.254 31.4428 281.604 32.2624 282.273 32.707Z" fill="#777CAA"/>
<path d="M278.087 36.612C278.087 36.612 278.827 35.8426 279.877 36.2756C280.924 36.7125 279.663 39.4884 278.709 39.3338C277.754 39.183 278.087 36.612 278.087 36.612Z" fill="#FFBE9D"/>
<path d="M271.992 34.9572C271.508 38.3479 271.708 38.0231 271.648 39.7011C272.011 39.6818 272.377 39.6856 272.743 39.6856C271.478 39.9872 271.63 39.9253 271.427 39.964C271.463 39.3647 270.938 37.6249 271.992 34.9572Z" fill="#2B3278"/>
<path d="M276.394 35.6764C276.394 35.6764 275.832 35.0655 274.533 34.8335C273.235 34.6015 272.792 34.6093 272.792 34.6093C272.792 34.6093 273.172 33.287 273.916 33.6273C274.659 33.9636 274.652 34.6363 275.432 34.3154C276.209 33.9907 276.394 35.6764 276.394 35.6764Z" fill="#E3E4FF"/>
<path d="M269.2 33.7162C269.2 33.7162 269.762 33.519 270.576 33.9868C271.389 34.4585 271.633 34.6905 271.633 34.6905C271.633 34.6905 271.966 33.4571 271.415 33.3489C270.864 33.2406 270.594 33.7742 270.294 33.1285C269.991 32.479 269.2 33.7162 269.2 33.7162Z" fill="#E3E4FF"/>
<path d="M270.046 35.1582C270.006 35.4366 270.154 35.6879 270.379 35.7266C270.605 35.7614 270.819 35.5681 270.86 35.2897C270.901 35.0113 270.753 34.7562 270.527 34.7214C270.301 34.6866 270.087 34.8837 270.046 35.1582Z" fill="#2B3278"/>
<path d="M273.493 35.8194C273.453 36.0977 273.601 36.3529 273.826 36.3877C274.052 36.4225 274.266 36.2292 274.307 35.9508C274.348 35.6725 274.2 35.4173 273.974 35.3825C273.748 35.3477 273.534 35.5449 273.493 35.8194Z" fill="#2B3278"/>
<path d="M278.949 36.9522C278.949 36.9522 279.699 36.4651 279.766 37.0141C279.833 37.5631 279.326 38.6147 278.849 38.607C278.372 38.6031 278.949 36.9522 278.949 36.9522Z" fill="#FFBE9D"/>
<path d="M271.515 41.093C272.092 41.8855 273.416 42.0131 274.736 40.9615C274.899 40.83 274.736 40.5633 274.555 40.6677C274.255 40.7257 273.246 41.8739 271.515 41.093Z" fill="white"/>
<path d="M280.381 48.9143L285.577 50.3835L282.752 60.2926L283.713 62.4036L277.038 85.9181C277.038 85.9181 277.881 68.0483 278.143 62.2103C278.406 56.3723 280.381 48.9143 280.381 48.9143Z" fill="#979FC5"/>
<path d="M230.354 123.795H127.215V127.193H230.354V123.795Z" fill="#3E2720"/>
<path d="M136.291 127.19H133.369V187.248H136.291V127.19Z" fill="#3E2720"/>
<path d="M225.236 127.19H222.314V187.248H225.236V127.19Z" fill="#3E2720"/>
<path d="M220.553 127.19H217.632V187.248H220.553V127.19Z" fill="#3E2720"/>
<path d="M142.793 127.19H139.871V187.248H142.793V127.19Z" fill="#3E2720"/>
<path d="M234.481 123.296H123.087V125.492H234.481V123.296Z" fill="#D86B47"/>
</svg>
