<svg width="400" height="200" viewBox="0 0 400 200" fill="none" xmlns="http://www.w3.org/2000/svg">
<path d="M71.3896 184.463C71.3896 184.463 109.856 106.946 180.524 89.1015C218.061 79.6213 233.95 40.3065 262.652 34.3571C291.354 28.4076 300.693 81.4165 305.699 122.074C310.705 162.731 303 185.897 303 185.897L71.3896 184.463Z" fill="#5B007C" fill-opacity="0.15"/>
<path d="M211.169 106.214C211.169 106.214 236.066 111.168 240.84 106.981C240.84 106.981 236.116 75.8807 236.116 73.9384C236.116 71.996 232.777 53.0184 232.777 53.0184L224.317 52.1301L215.934 88.3899L211.169 106.214Z" fill="#591914"/>
<path d="M158.529 14.6171H154.277V184.362H158.529V14.6171Z" fill="#E0D9B6"/>
<path d="M197.382 14.6171H193.13V184.362H197.382V14.6171Z" fill="#E0D9B6"/>
<path d="M195.256 71.6347H156.403V75.0477H195.256V71.6347Z" fill="#E0D9B6"/>
<path d="M195.256 131.579H156.403V136.267H195.256V131.579Z" fill="#E0D9B6"/>
<path d="M157.717 185.231L155.089 182.67L193.032 136.101L154.395 73.1532L193.844 15.1036L196.664 17.4035L158.56 73.3412L197.382 135.736L157.717 185.231Z" fill="#E0D9B6"/>
<path d="M270.245 70.9602C268.955 73.4813 266.892 89.1602 266.202 89.1602C265.774 89.1602 263.56 85.4635 261.791 82.2237C260.689 82.6402 259.85 83.5838 258.739 83.7386C260.076 87.5717 261.72 91.9871 262.448 92.7832C263.783 94.2428 265.969 96.48 268.995 94.534C272.021 92.5879 272.57 83.1304 272.57 83.1304L272.954 68.0338C272.954 68.0412 271.583 68.3545 270.245 70.9602Z" fill="#211D50"/>
<path d="M219.047 55.7642L215.931 54.2457C215.931 54.2457 199.693 68.4945 197.207 69.2354L199.185 75.302C199.185 75.302 210.401 73.5808 217.049 67.1788C223.704 60.773 219.047 55.7642 219.047 55.7642Z" fill="#601302"/>
<path d="M196.563 60.2202C196.563 60.2202 196.924 59.8258 196 59.354C195.438 59.0628 194.808 58.9707 194.184 59.0149C193.497 59.0665 192.479 59.225 192.193 59.6931C192.159 59.7447 194.194 73.4665 194.194 73.4665H199.185L196.563 60.2202Z" fill="#6F81A6"/>
<path d="M292 186.685C292 189.272 251.805 198.453 187 191.369C129.528 185.09 81.9998 189.272 81.9998 186.685C81.9998 184.098 129.009 182 187 182C244.99 181.996 292 184.094 292 186.685Z" fill="#54688B"/>
<path d="M283.491 89.3224C283.784 88.0398 284.825 68.1407 283.723 67.9196C282.618 67.6947 283.491 89.3224 283.491 89.3224Z" fill="#591914"/>
<path d="M272.954 68.0412C272.954 68.0412 270.532 74.4322 268.032 78.0442C265.532 81.6562 265.41 111.75 266.826 111.75C268.241 111.75 271.438 110.493 271.438 110.493L272.954 68.0412Z" fill="#F2B90C"/>
<path d="M283.204 186.341L283.13 191.25L283.629 191.269L284.272 185.67L283.204 186.341Z" fill="#1D1B22"/>
<path d="M279.751 143.163C279.751 143.163 280.286 150.84 281.146 153.136C282.005 155.429 280.468 185.755 279.737 188.202C279.575 188.744 279.356 189.23 279.131 189.654C278.336 191.143 278.154 191.449 279.222 191.453C280.593 191.457 281.796 191.173 282.062 190.557C282.524 189.496 282.928 185.84 283.868 185.843C283.868 185.843 284.508 184.48 284.35 183.765C284.111 182.685 283.437 183.241 283.444 181.737C283.447 180.237 287.996 157.427 287.281 154.106C286.567 150.785 286.065 150.391 286.078 146.44C286.085 142.488 279.751 143.163 279.751 143.163Z" fill="#FFBE9D"/>
<path d="M276.647 135.121C276.647 135.121 271.526 145.795 271.856 148.953C272.186 152.112 273.264 154.666 272.338 158.982C271.411 163.298 264.066 178.944 263.891 181.804C263.817 183.009 264.154 183.123 264.154 183.123C264.14 185.202 263.547 187.428 263.15 187.859C262.644 188.412 262.071 191.151 261.59 191.147C261.108 191.147 257.041 191.622 257.041 191.622C256.936 190.609 258.18 191.423 258.908 189.319C259.635 187.214 260.08 184.056 261.007 179.795C261.933 175.534 265.741 156.085 265.754 151.607C265.768 147.132 265.39 147.11 266.027 144.162C266.66 141.217 269.036 135.696 269.036 135.696L276.647 135.121Z" fill="#FFBE9D"/>
<path d="M271.853 148.953C271.526 145.791 276.644 135.121 276.644 135.121L269.033 135.696C269.033 135.696 266.657 141.217 266.024 144.162C265.559 146.325 265.637 146.911 265.707 148.839C267.163 149.182 269.424 149.679 272.011 150.136C271.951 149.749 271.897 149.355 271.853 148.953Z" fill="#EA5353"/>
<path d="M286.075 146.44C286.089 142.492 279.751 143.163 279.751 143.163C279.751 143.163 280.091 148.061 280.667 151.201C282.81 151.312 284.839 151.268 286.51 150.966C286.23 149.808 286.068 148.714 286.075 146.44Z" fill="#FD5E5A"/>
<path d="M272.954 68.0412C272.954 68.0412 275.326 66.0436 283.355 68.0265C283.574 68.0818 283.773 77.613 283.773 77.613C283.773 77.613 280.047 93.5683 280.754 97.5489C280.754 97.5489 276.495 101.481 270.141 98.0575C270.141 98.0575 270.966 85.5262 270.39 82.7361C269.814 79.946 268.658 77.4139 270.296 74.517C271.937 71.6237 272.954 68.0412 272.954 68.0412Z" fill="#EE66B2"/>
<path d="M268.19 117.149C268.864 113.571 270.144 98.0612 270.144 98.0612C270.144 98.0612 270.97 85.5298 270.394 82.7398C269.818 79.9497 268.662 77.4176 270.299 74.5207C271.937 71.6237 272.954 68.0375 272.954 68.0375C272.954 68.0375 275.326 66.0399 283.356 68.0228C283.575 68.0781 283.774 77.6093 283.774 77.6093C283.774 77.6093 280.047 93.5646 280.755 97.5452C280.755 97.5452 285.017 105.163 285.991 109.35C286.964 113.537 286.26 146.104 286.26 146.104C282.119 147.685 265.205 146.104 265.205 146.104C265.205 146.104 267.516 120.728 268.19 117.149Z" fill="#4239A0"/>
<path d="M279.13 189.651C279.12 190.609 279.174 190.823 280.495 190.506C281.448 190.023 283.123 185.22 283.544 182.475C283.807 182.644 284.508 182.854 284.727 183.79C284.885 184.472 284.127 191.283 284.127 191.283L283.628 191.269L283.935 186.322C282.995 186.319 282.736 190.34 282.274 191.398C282.008 192.013 279.868 191.914 278.497 191.906C277.429 191.903 278.332 191.14 279.13 189.651Z" fill="#393644"/>
<path d="M258.318 190.284C257.361 191.258 255.905 191.058 255.989 191.869C255.989 191.869 261.256 191.641 261.738 191.645C262.219 191.648 262.637 188.408 263.146 187.859C263.655 187.306 263.328 191.652 263.328 191.652L263.847 191.656C263.847 191.656 264.207 187.181 264.696 185.445C265.083 184.063 264.541 183.481 264.15 183.127C262.56 186.426 262.3 191.073 258.318 190.284Z" fill="#393644"/>
<path d="M279.929 67.1492C279.929 67.1492 276.111 101.489 277.55 105.2C278.989 108.912 282.318 115.992 288.224 114.068L283.773 80.3956L283.719 67.9159L279.929 67.1492Z" fill="#F2B90C"/>
<path d="M279.127 74.8376H283.753L283.743 72.6373H279.35C279.279 73.3265 279.205 74.0636 279.127 74.8376Z" fill="#FFF7CF"/>
<path d="M278.457 81.8957H283.976L283.777 80.3957L283.774 79.6954H278.659C278.592 80.4178 278.524 81.1512 278.457 81.8957Z" fill="#FFF7CF"/>
<path d="M271.933 47.4345C271.933 47.4345 272.691 45.3079 277.273 45.3079C281.856 45.3079 282.796 50.2578 282.21 51.4777C281.623 52.6977 282.621 55.1708 283.679 55.5099C284.737 55.849 287.382 57.4338 285.953 58.9965C284.521 60.563 287.088 60.4745 287.088 61.8898C287.088 63.3051 286.303 64.2339 284.504 64.4882C282.698 64.7388 271.933 47.4345 271.933 47.4345Z" fill="#31003D"/>
<path d="M272.967 61.101C272.967 61.101 273.624 67.1493 273.624 71.0819C273.624 71.679 276.461 71.0487 277.014 70.6065C277.893 69.9062 278.52 69.4381 278.672 68.1186C278.773 67.234 276.424 58.5764 276.424 58.5764L272.967 61.101Z" fill="#FFBE9D"/>
<path d="M276.758 59.8258C276.242 61.6871 275.306 63.7179 273.557 64.3887C273.463 64.4256 273.372 64.4514 273.281 64.4735C273.122 62.5422 272.964 61.1011 272.964 61.1011L276.421 58.5801C276.424 58.5801 276.556 59.0666 276.758 59.8258Z" fill="#FD5E5A"/>
<path d="M271.124 48.5329C271.124 48.5329 269.962 49.2442 269.5 50.8106C269.038 52.3771 269.759 54.3452 269.567 55.6978C269.372 57.0505 270.747 63.8911 273.826 62.8591C276.906 61.8271 277.378 56.8846 277.533 55.7826C277.691 54.6843 276.845 50.6374 275.272 49.458C273.695 48.2822 271.124 48.5329 271.124 48.5329Z" fill="#FFBE9D"/>
<path d="M269.5 50.8106C269.962 49.2442 271.124 48.5329 271.124 48.5329C271.124 48.5329 273.695 48.2822 275.268 49.4617C276.842 50.6411 277.688 54.6843 277.529 55.7863C277.408 56.6266 277.105 59.7116 275.595 61.5802C275.437 59.6636 276.684 56.8257 276.168 54.0946C276.017 54.1941 275.346 54.2715 275.009 54.253C273.587 54.172 275.562 51.9679 274.268 49.7897C273.469 49.1336 273.442 49.0525 272.92 48.9162C272.748 50.6743 271.192 53.7444 269.581 55.5062C269.696 54.1646 269.059 52.307 269.5 50.8106Z" fill="#FD5E5A"/>
<path d="M271.714 55.3846C271.616 56.236 271.417 57.2569 271.219 58.0936C271.461 58.2557 271.785 58.3626 272.095 58.3331C271.596 58.5137 271.101 58.1746 271.07 58.1673C271.208 57.4707 271.36 56.5382 271.714 55.3846Z" fill="#4F005E"/>
<path d="M273.193 54.1278C273.193 54.1278 273.816 53.6855 274.51 53.6597C275.204 53.6339 276.091 54.5811 276.091 54.5811C276.091 54.5811 275.097 53.8403 274.635 53.8772C274.17 53.914 273.698 54.2052 273.698 54.2052L273.193 54.1278Z" fill="#4F005E"/>
<path d="M271.539 54.0024C271.539 54.0024 271.064 53.4643 270.487 53.3243C269.911 53.1842 269.089 53.9766 269.089 53.9766C269.089 53.9766 269.982 53.4054 270.366 53.5196C270.747 53.6339 271.114 53.9987 271.114 53.9987L271.539 54.0024Z" fill="#4F005E"/>
<path d="M273.452 59.7263C271.926 60.1981 271.377 60.1097 270.878 59.9438C271.562 60.6478 272.849 60.3861 273.452 59.7263Z" fill="white"/>
<path d="M273.554 55.274C273.594 55.5394 273.8 55.7237 274.012 55.6868C274.228 55.65 274.369 55.403 274.329 55.1377C274.288 54.8723 274.083 54.688 273.87 54.7249C273.655 54.7617 273.513 55.0087 273.554 55.274Z" fill="#4F005E"/>
<path d="M275.326 55.5099C273.874 53.8772 273.301 55.0713 272.816 55.1561C273.21 55.1819 273.658 54.7175 274.09 54.8428C274.44 54.9349 274.969 55.2888 275.326 55.5099Z" fill="#42004A"/>
<path d="M270.252 55.1745C270.289 55.4399 270.454 55.6278 270.619 55.5947C270.784 55.5615 270.892 55.3182 270.858 55.0529C270.821 54.7875 270.656 54.5995 270.491 54.6327C270.322 54.6659 270.218 54.9091 270.252 55.1745Z" fill="#4F005E"/>
<path d="M271.485 55.3588C270.329 53.8145 269.797 55.0234 269.389 55.1303C269.719 55.1377 270.114 54.6585 270.474 54.758C270.767 54.8391 271.195 55.1598 271.485 55.3588Z" fill="#42004A"/>
<path d="M273.459 57.8282C273.527 58.2853 274.029 58.5728 274.581 58.4769C275.134 58.3774 275.525 57.9314 275.457 57.4744C275.39 57.0174 274.888 56.7299 274.335 56.8257C273.786 56.9252 273.392 57.3749 273.459 57.8282Z" fill="#FD5E5A"/>
<path d="M271.933 47.4345C271.933 47.4345 270.322 47.1655 268.951 48.2601C267.579 49.3548 267.438 53.7039 268.159 54.6069C268.88 55.5099 265.581 56.693 267.36 56.8515C269.881 57.0763 273.483 47.8842 271.933 47.4345Z" fill="#4F005E"/>
<path d="M271.438 48.0427C269.049 47.9579 267.546 50.0661 268.179 52.2517C268.287 52.6203 268.466 52.9926 268.796 53.1289L268.934 52.6019C268.803 52.5835 268.641 52.226 268.59 52.0933C267.886 50.1914 269.163 48.1496 271.438 48.0427Z" fill="#6A0084"/>
<path d="M234.819 177.993L235.328 181.048C235.328 181.048 234.017 185.722 232.026 187.9C230.038 190.074 225.762 190.214 225.762 188.361C225.762 186.51 230.22 180.768 230.22 178.549C230.22 176.327 234.819 177.993 234.819 177.993Z" fill="#4C5063"/>
<path d="M221.278 178.549L222.039 184.196C222.039 184.196 218.993 184.196 216.877 184.196C214.761 184.196 208.922 184.196 208.922 184.196C208.922 184.196 209.347 182.806 213.154 181.973C216.962 181.14 217.174 179.692 217.174 179.692L216.877 176.047L220.348 175.49L221.278 178.549Z" fill="#4C5063"/>
<path d="M226.776 113.902L219.033 143.679L221.87 179.567H216.877L210.02 141.611L216.877 98.1497L226.776 113.902Z" fill="#464F7C"/>
<path d="M216.877 96.9923L221.49 113.924C221.49 113.924 228.555 139.205 229.698 153.833C230.84 168.462 229.698 178.457 229.698 178.457L236.002 179.567C236.002 179.567 239.641 149.204 238.286 139.02C236.932 128.837 238.59 104.028 238.59 104.028L236.002 96.9923H216.877Z" fill="#5D69A5"/>
<path d="M218.747 86.7056L215.93 54.2457C215.93 54.2457 223.363 51.7837 231.248 53.5049C239.132 55.2298 241.666 58.1857 241.666 58.1857C241.666 58.1857 235.304 84.1772 235.304 87.8739C235.304 91.5707 236.821 99.2111 236.821 99.2111L216.877 98.1496L218.747 86.7056Z" fill="#BF2604"/>
<path d="M232.777 53.0183C232.777 53.0183 230.624 83.0677 230.624 92.5879C230.624 102.108 233.047 107.942 240.837 106.981L239.078 78.5601C239.078 78.5601 238.276 61.4291 241.733 57.6512C241.733 57.6512 236.251 52.8819 232.777 53.0183Z" fill="#F2B90C"/>
<path d="M224.317 52.1301C224.317 52.1301 222.44 103.162 218.4 104.813C214.36 106.465 211.169 106.214 211.169 106.214C211.169 106.214 216.921 63.5299 215.934 54.2457L224.317 52.1301Z" fill="#F2B90C"/>
<path d="M232.245 60.7693C232.188 61.6355 232.127 62.5532 232.063 63.5115L239.577 64.2338C239.712 63.2756 239.873 62.3615 240.069 61.5212L232.245 60.7693Z" fill="#FFF7CF"/>
<path d="M223.825 62.7228C223.876 61.7608 223.923 60.8394 223.967 59.9769L216.008 59.2103C215.981 60.0654 215.941 60.9868 215.887 61.9598L223.825 62.7228Z" fill="#FFF7CF"/>
<path d="M231.689 69.4454C231.631 70.3484 231.578 71.2662 231.524 72.1913L239.01 72.91C239.021 72.0402 239.044 71.1114 239.085 70.1568L231.689 69.4454Z" fill="#FFF7CF"/>
<path d="M223.32 71.3989C223.38 70.4701 223.438 69.5523 223.491 68.6567L215.479 67.8864C215.408 68.7783 215.327 69.6961 215.247 70.6249L223.32 71.3989Z" fill="#FFF7CF"/>
<path d="M241.467 57.983C246.329 57.983 253.405 89.6799 251.933 93.1297C250.356 96.8265 232.488 84.8701 232.488 84.8701L233.556 78.4312C233.556 78.4312 240.962 82.4044 241.666 81.6341C242.37 80.8638 239.132 68.8816 239.132 68.8816C239.132 68.8816 240.352 57.983 241.467 57.983Z" fill="#BF2604"/>
<path d="M259.547 77.7272C258.961 75.9765 259.635 73.7172 258.658 72.6483C257.681 71.5795 258.034 70.0205 257.856 70.2158C257.677 70.4111 256.825 71.034 257.644 72.3572C258.462 73.6803 258.088 73.5439 257.697 73.5439C257.307 73.5439 254.19 68.4282 253.745 68.9147C253.3 69.4012 256.808 73.6214 256.4 74.071C255.992 74.517 255.332 72.9432 255.332 72.9432L254.975 76.3303L256.734 77.8083C256.734 77.8083 257.63 80.5799 258.739 83.7459C259.85 83.5875 260.689 82.6439 261.791 82.2311C260.696 80.2224 259.773 78.3943 259.547 77.7272Z" fill="#FD5E5A"/>
<path d="M255.632 72.3277C255.632 72.3277 259.153 75.4789 258.782 76.4151C258.408 77.3476 256.269 74.2589 255.875 74.6939C255.477 75.1288 257.741 76.3672 257.583 77.1375C257.424 77.9078 255.386 76.0097 255.386 76.0097C255.386 76.0097 256.623 77.178 256.623 77.7309C256.623 78.2837 255.888 78.0958 255.153 77.2923C254.419 76.4888 254.54 75.1325 254.54 74.1705C254.54 73.2012 255.632 72.3277 255.632 72.3277Z" fill="#FFBE9D"/>
<path d="M230.065 38.9648L222.48 42.6468L221.416 42.2303L221.601 40.4685L224.364 37.9217L231.278 34.8147L235.062 34.2987L235.186 34.741L234.684 35.7877L230.065 38.9648Z" fill="#3F1817"/>
<path d="M226.605 48.7208C226.443 48.6066 224.425 43.1149 224.425 43.1149C224.425 43.1149 223.077 38.9906 223.946 38.294C224.815 37.5974 226.884 35.1759 228.694 35.1317C230.506 35.0874 231.719 35.6808 231.884 35.7951C232.046 35.9093 233.222 38.0765 233.222 38.0765C233.222 38.0765 232.676 37.3468 232.393 40.0557C232.114 42.7647 226.605 48.7208 226.605 48.7208Z" fill="#381A3F"/>
<path d="M231.174 48.4739C230.958 49.1741 231.052 54.183 230.88 55.4472C230.712 56.693 225.516 58.6206 225.415 54.0945C225.314 49.5685 225.722 44.239 225.722 44.239L231.174 48.4739Z" fill="#FFBE9D"/>
<path d="M231.173 48.4739L229.364 47.0659L225.722 44.2353C225.722 44.2353 225.722 44.239 225.722 44.2427V44.2464C225.722 44.2464 225.722 44.2464 225.722 44.2501C225.722 44.2685 225.718 44.3054 225.715 44.357C225.701 44.5228 225.681 44.8509 225.651 45.3042V45.3079C225.644 45.4 225.637 45.4958 225.634 45.599C225.634 45.6064 225.634 45.6138 225.634 45.6175C225.614 45.9455 225.594 46.3251 225.57 46.7416C225.57 46.7637 225.567 46.7895 225.567 46.8116C225.56 46.9111 225.557 47.0107 225.55 47.1139V47.1175C225.546 47.1691 225.546 47.2244 225.543 47.2797C225.543 47.2871 225.543 47.2908 225.543 47.2981C225.543 47.3203 225.54 47.3387 225.54 47.3608C225.54 47.3682 225.54 47.3755 225.54 47.3829C225.536 47.4198 225.536 47.453 225.533 47.4898C226.21 49.9187 228.768 52.5539 230.981 52.8672C230.985 52.7014 230.995 52.5318 231.005 52.3586C231.028 50.6595 231.052 48.8719 231.173 48.4739Z" fill="#FD5E5A"/>
<path d="M225.52 40.0889C224.853 41.8986 224.819 45.212 226.406 47.7183C227.993 50.2246 230.183 51.5146 231.753 50.2504C233.323 48.9862 233.771 41.0582 232.636 39.0201C231.5 36.9782 226.534 37.3283 225.52 40.0889Z" fill="#FFBE9D"/>
<path d="M225.52 47.6962C225.52 47.6962 225.166 45.1052 224.256 44.4712C223.346 43.841 222.935 43.454 222.773 42.5399C222.608 41.6259 220.597 39.7499 221.092 38.2461C221.587 36.7423 222.942 37.2989 224.148 34.682C225.354 32.0652 226.658 30.6167 229.475 31.5676C232.292 32.5222 232.683 34.3982 232.683 34.3982C232.683 34.3982 233.926 34.1624 234.684 35.7878C235.442 37.4131 234.9 38.3382 234.411 39.1012C234.411 39.1012 234.516 36.9561 233.842 37.1035C233.168 37.251 233.845 39.6135 233.845 39.6135C233.845 39.6135 232.834 38.7068 231.756 37.3099C230.678 35.9094 230.944 37.5458 231.264 39.3223C231.584 41.0951 229.192 39.4255 228.131 38.1429C227.069 36.8603 225.55 38.0581 224.994 39.8789C224.441 41.6922 226.834 44.5486 225.52 47.6962Z" fill="#653870"/>
<path d="M226.042 42.9306C226.042 42.9306 225.048 41.0767 224.532 41.8839C224.017 42.691 224.441 45.0978 225.536 45.1199C226.631 45.142 226.042 42.9306 226.042 42.9306Z" fill="#FFBE9D"/>
<path d="M225.482 43.067C225.482 43.067 225.52 41.9944 224.987 42.3482C224.455 42.7021 224.991 44.4307 225.482 44.3938C225.974 44.3606 225.482 43.067 225.482 43.067Z" fill="#FD5E5A"/>
<path d="M231.11 42.5694C231.298 43.0596 231.426 43.5756 231.507 44.099C231.665 45.2378 231.497 45.7243 231.494 45.7944C231.372 45.7686 231.052 45.717 230.624 45.5953C230.897 45.588 231.17 45.5953 231.44 45.6101L231.349 45.6838C231.396 44.6555 231.211 43.6235 231.11 42.5694Z" fill="#172866"/>
<path d="M229.768 42.8421C229.826 43.1628 229.697 43.465 229.482 43.5129C229.266 43.5608 229.044 43.3397 228.987 43.0154C228.929 42.6947 229.057 42.3925 229.273 42.3446C229.489 42.3003 229.711 42.5215 229.768 42.8421Z" fill="#2F499F"/>
<path d="M232.74 42.3814C232.798 42.7021 232.67 43.0043 232.454 43.0522C232.238 43.1001 232.016 42.879 231.959 42.5546C231.901 42.234 232.029 41.9318 232.245 41.8838C232.461 41.8359 232.683 42.0608 232.74 42.3814Z" fill="#2F499F"/>
<path d="M228.077 42.0276C228.077 42.0276 228.535 41.1504 229.297 40.9808C230.058 40.8113 229.829 41.5116 229.65 41.5521C229.472 41.5927 228.047 41.8617 228.077 42.0276Z" fill="#172866"/>
<path d="M231.706 40.5791C231.706 40.5791 232.605 40.8703 232.777 41.3236C232.777 41.3236 231.824 41.2389 231.652 40.9919C231.48 40.745 231.706 40.5791 231.706 40.5791Z" fill="#172866"/>
<path d="M228.71 46.9812C228.71 46.9812 231.035 47.9395 232.299 47.018C232.299 47.018 231.945 48.3007 231.625 48.5292C230.948 49.0157 229.283 48.6471 228.71 46.9812Z" fill="white"/>
<path d="M223.757 31.4423C223.778 31.5012 225.715 36.8418 225.695 36.7865C227.669 35.9941 230.466 35.1022 232.491 34.5272C232.15 33.6058 231.625 32.1757 230.782 31.645C229.65 30.9337 227.706 29.7985 226.153 30.097C224.849 30.3439 224.317 31.0184 223.757 31.4423Z" fill="#F2B90C"/>
<path d="M223.959 31.2469C223.983 31.3059 225.995 36.7607 225.971 36.7018C228.053 35.8762 231.837 34.4645 233.97 33.8601C233.633 32.9571 233.104 32.0873 232.508 31.3649C231.76 30.4582 230.564 29.9238 229.492 29.6473C228.475 29.3857 227.423 29.4299 226.429 29.7874C225.627 30.0749 224.886 30.5319 224.192 31.0516C224.037 31.1658 223.959 31.2469 223.959 31.2469Z" fill="#F2B90C"/>
<path d="M222.729 31.8514L225.091 37.063C225.149 37.0445 227.747 35.9278 231.49 34.8184C231.146 33.4289 230.678 31.892 229.58 30.9963C228.528 30.1412 227.049 29.8022 225.782 30.1818C225.206 30.355 224.67 30.6609 224.192 31.0479C223.673 31.2506 223.117 31.575 222.729 31.8514Z" fill="#B65F2E"/>
<path d="M221.021 40.4686C221.81 37.7928 227.662 35.972 230.284 35.198C230.129 34.4572 229.819 32.5517 229.162 31.8293C226.719 29.1461 220.627 31.2506 220.179 36.2153C220.088 37.2841 220.661 39.3297 221.021 40.4686Z" fill="#F7931E"/>
<path d="M221.021 40.4722V40.4649C221.739 37.7928 227.221 36.1489 229.788 35.3418C231.193 34.8663 235.345 33.134 235.665 34.4351C235.786 34.929 235.446 35.2202 234.688 35.7877C234.57 35.6071 235.56 34.4904 233.845 34.8737C230.718 35.574 226.116 36.1784 222.096 40.5755C221.261 41.4895 221.918 42.2709 222.484 42.6431C221.217 42.6689 220.752 41.4268 221.021 40.4722Z" fill="#B96E16"/>
<path d="M220.91 40.4317C221.84 36.547 233.973 32.5849 235.766 33.5542C236.524 33.9633 236.009 34.9658 234.688 35.7878C235.267 35.3086 235.456 35.0543 235.52 34.8295C236.197 32.4559 225.038 36.8419 222.507 38.7805C221.928 39.2228 221.399 39.7757 221.143 40.4833C221.129 40.5497 220.951 40.9772 221.096 41.5522C221.18 41.9023 221.348 42.234 221.641 42.4404C220.557 42.0792 220.91 40.4317 220.91 40.4317Z" fill="#F8E000"/>
<path d="M100.774 75.2223C100.774 75.2223 102.381 58.8246 109.68 52.6806C109.68 52.6806 114.545 67.2501 112.341 69.6606C110.138 72.071 106.842 76.4718 106.842 76.4718C106.842 76.4718 106.465 76.7113 100.774 75.2223Z" fill="#C20095"/>
<path d="M140.112 100.255L160.894 73.8696C160.894 73.8696 162.256 72.7861 158.546 70.6226C154.836 68.4591 153.495 69.3879 152.484 70.6226C152.484 70.6226 134.721 99.8759 135.624 99.8759C136.524 99.8759 140.112 100.255 140.112 100.255Z" fill="#6F81A6"/>
<path d="M134.296 53.8047C134.296 53.8047 140.193 82.8112 147.777 86.471L142.737 91.1039C142.737 91.1039 136.635 87.374 132.48 78.9965C128.329 70.6152 134.296 53.8047 134.296 53.8047Z" fill="#6E0054"/>
<path d="M124.906 179.653L124.165 185.137C124.165 185.137 127.123 185.137 129.178 185.137C131.234 185.137 136.904 185.137 136.904 185.137C136.904 185.137 136.493 183.788 132.794 182.981C129.094 182.17 128.656 180.644 128.656 180.644L129.178 177.227L125.809 176.689L124.906 179.653Z" fill="#4C5063"/>
<path d="M119.565 116.871L127.086 145.785L124.33 180.64H129.182L135.836 143.78L129.182 101.571L119.565 116.871Z" fill="#464F7C"/>
<path d="M111.755 179.115L111.263 182.081C111.263 182.081 112.537 186.622 114.467 188.734C116.398 190.846 120.549 190.982 120.549 189.184C120.549 187.385 116.22 181.812 116.22 179.653C116.22 177.493 111.755 179.115 111.755 179.115Z" fill="#4C5063"/>
<path d="M129.182 100.447L123.976 117.888C123.976 117.888 117.84 141.443 116.732 155.648C115.623 169.852 116.732 179.56 116.732 179.56L110.61 180.64C110.61 180.64 107.075 151.151 108.389 141.262C109.703 131.374 108.096 107.277 108.096 107.277L110.61 100.443H129.182V100.447Z" fill="#5D69A5"/>
<path d="M115.842 86.471L108.092 102.507L129.39 102.909L132.48 89.0252L115.842 86.471Z" fill="#C20095"/>
<path d="M117.479 50.4397C117.479 50.4397 125.563 52.769 127.77 51.5343L128.005 65.9748L119.38 65.75L117.479 50.4397Z" fill="#8C251C"/>
<path d="M134.296 53.8047C134.296 53.8047 121.311 50.8599 114.505 51.6781C110.751 52.1277 109.68 52.6806 109.68 52.6806L115.866 92.1359C115.866 92.1359 131.328 93.2195 131.699 92.8141C132.069 92.4087 133.828 60.8444 134.296 53.8047Z" fill="#C20095"/>
<path d="M117.479 50.4397C117.479 50.4397 123.42 87.7978 117.584 92.9062C111.748 98.0109 106.701 99.6437 106.701 99.6437L110.36 71.9788C110.36 71.9788 111.421 53.4509 110.468 52.4115L117.479 50.4397Z" fill="#F2B90C"/>
<path d="M127.77 51.5343C127.77 51.5343 128.191 92.5118 129.899 96.087C131.608 99.6621 133.259 100.255 133.259 100.255L134.296 53.8047L127.77 51.5343Z" fill="#F2B90C"/>
<path d="M127.77 51.5343C127.77 51.5343 128.191 92.5118 129.899 96.087C131.608 99.6621 133.259 100.255 133.259 100.255L134.296 53.8047L127.77 51.5343Z" fill="#F2B90C"/>
<path d="M134.084 63.3654L134.172 59.5139H127.891C127.915 60.7117 127.938 62.0017 127.965 63.3654H134.084Z" fill="#FFF7CF"/>
<path d="M119.14 63.3654C118.999 62.0201 118.854 60.7265 118.709 59.5139H110.845C110.825 60.7633 110.788 62.0791 110.747 63.3654H119.14Z" fill="#FFF7CF"/>
<path d="M133.929 70.2392L134.016 66.3876H128.032C128.063 67.6408 128.096 68.9308 128.13 70.2392H133.929Z" fill="#FFF7CF"/>
<path d="M119.757 70.2392C119.663 68.9419 119.555 67.6518 119.437 66.3876H110.633C110.569 67.8988 110.505 69.2441 110.454 70.2392H119.757Z" fill="#FFF7CF"/>
<path d="M157.302 73.6006L137.881 100.256C137.881 100.256 134.293 99.9865 135.037 99.1719C135.779 98.3611 152.477 70.6226 152.477 70.6226C152.477 70.6226 151.615 76.575 157.302 73.6006Z" fill="#D6E9FA"/>
<path d="M114.38 69.6606C114.38 69.6606 113.945 74.8869 116.236 77.3895C118.524 79.8921 157.181 80.7729 160.891 73.8733L139.738 100.934C139.738 100.934 133.552 102.559 125.512 100.259C117.473 97.9593 112.399 101.07 108.443 99.4483C104.484 97.8229 101.516 97.5539 101.516 97.5539L114.38 69.6606Z" fill="#99C8F2"/>
<path d="M106.34 75.495C106.34 75.495 108.854 77.6585 107.041 85.5754L103.82 89.2426C103.82 89.2426 97.9302 80.9056 100.777 75.226C100.774 75.2223 104.238 73.1951 106.34 75.495Z" fill="#FD5E5A"/>
<path d="M111.04 89.9724C111.04 89.9724 108.355 88.6861 107.698 87.1307C107.041 85.5754 107.647 85.0483 107.246 84.6097C106.845 84.1711 105.269 84.5139 104.864 84.9598C104.46 85.4021 103.264 85.9366 103.513 87.5583C103.759 89.18 102.256 89.7255 102.256 90.47C102.256 91.2145 102.738 92.5745 103.284 93.1716C103.83 93.7687 105.784 93.8977 107.145 93.4259C108.507 92.9505 105.474 92.0069 105.474 92.0069C105.474 92.0069 109.063 92.7514 109.679 92.0732C110.299 91.3951 106.586 90.4478 106.586 90.4478C106.586 90.4478 109.74 91.1924 110.606 91.1924C111.475 91.1887 111.04 89.9724 111.04 89.9724Z" fill="#FFBE9D"/>
<path d="M149.25 88.9404C149.25 88.9404 147.255 87.6726 147.255 88.6198C147.255 89.567 148.36 90.2083 148.36 90.2083C148.36 90.2083 146.871 89.2943 146.541 89.9724C146.211 90.6506 147.201 91.056 147.201 91.056C147.201 91.056 146.035 90.8423 145.655 91.2587C145.274 91.6752 146.231 92.6298 146.231 92.6298C146.231 92.6298 145.203 92.1728 145.203 92.6298C145.203 93.0868 146.214 93.9456 147.12 93.9456C148.027 93.9456 149.058 93.9014 149.368 93.179C149.678 92.4566 149.944 92.6372 150.294 91.8263C150.645 91.0081 149.25 89.3901 149.25 88.9404Z" fill="#FD5E5A"/>
<path d="M118.453 35.1662C118.955 35.1478 119.622 35.0962 120.313 35.0372C121.876 34.9119 123.389 34.8529 124.784 35.6269C124.131 36.7879 124.926 38.4133 125.118 39.7696C123.083 40.223 120.643 40.6358 118.689 39.7955C118.227 38.8372 117.732 37.1823 117.587 35.7707C117.826 35.579 118.116 35.38 118.453 35.1662Z" fill="#220D58"/>
<path d="M122.22 28.8158C122.227 28.8784 122.807 34.4512 122.8 34.3922C124.845 34.1932 127.689 34.1342 129.731 34.1563C129.626 33.1907 129.465 31.698 128.791 30.9608C127.891 29.9767 126.321 28.3624 124.788 28.2113C123.508 28.086 122.847 28.5725 122.22 28.8158Z" fill="#F2B90C"/>
<path d="M122.456 28.6904C122.463 28.7531 123.086 34.4549 123.08 34.3959C125.233 34.1969 129.128 33.9241 131.281 33.9499C131.173 33.0064 130.876 32.0371 130.486 31.193C129.99 30.1279 128.986 29.2912 128.046 28.731C127.146 28.1966 126.149 27.9496 125.128 28.0086C124.303 28.0528 123.501 28.2777 122.722 28.5725C122.551 28.6352 122.456 28.6904 122.456 28.6904Z" fill="#F2B90C"/>
<path d="M121.156 28.919L122.166 34.4917C122.224 34.4917 124.933 34.16 128.72 34.16C128.72 32.7558 128.639 31.1746 127.81 30.0247C127.018 28.9264 125.701 28.1929 124.424 28.1966C123.841 28.1966 123.265 28.3403 122.722 28.5688C122.187 28.6131 121.587 28.7642 121.156 28.919Z" fill="#B65F2E"/>
<path d="M117.54 36.5594C118.905 34.2559 124.845 34.1748 127.497 34.1748C127.524 33.4339 127.675 31.5506 127.224 30.6881C125.546 27.4779 119.312 27.7617 117.736 32.3172C117.399 33.3013 117.463 35.3911 117.54 36.5594Z" fill="#F7931E"/>
<path d="M120.654 30.6549C120.66 30.6549 120.664 30.6549 120.67 30.6512L121.597 30.4006C121.634 30.3896 121.654 30.349 121.648 30.3085C121.638 30.2679 121.604 30.2458 121.563 30.2532L120.637 30.5038C120.6 30.5149 120.58 30.5554 120.586 30.596C120.593 30.6291 120.623 30.6549 120.654 30.6549Z" fill="#591914"/>
<path d="M120.745 31.2262C120.752 31.2262 120.758 31.2263 120.762 31.2226L121.597 30.9719C121.634 30.9609 121.655 30.9203 121.644 30.8798C121.634 30.8392 121.601 30.8171 121.56 30.8282L120.725 31.0788C120.688 31.0899 120.667 31.1304 120.677 31.171C120.688 31.2078 120.714 31.2262 120.745 31.2262Z" fill="#591914"/>
<path d="M118.642 31.4658C118.649 31.4658 118.659 31.4658 118.666 31.4621L119.522 31.1009C119.559 31.0862 119.575 31.0419 119.562 31.0051C119.548 30.9682 119.508 30.9461 119.474 30.9609L118.619 31.322C118.581 31.3368 118.565 31.381 118.578 31.4179C118.588 31.4474 118.612 31.4658 118.642 31.4658Z" fill="#591914"/>
<path d="M118.642 31.9302C118.649 31.9302 118.659 31.9302 118.666 31.9265L119.525 31.5911C119.562 31.5764 119.579 31.5358 119.565 31.4953C119.552 31.4584 119.515 31.4363 119.478 31.451L118.619 31.7864C118.581 31.8012 118.565 31.8417 118.578 31.8823C118.585 31.9081 118.612 31.9302 118.642 31.9302Z" fill="#591914"/>
<path d="M119.869 31.0051C119.869 31.1157 119.953 31.2078 120.054 31.2078C120.155 31.2078 120.239 31.1157 120.239 31.0051C120.239 30.8945 120.155 30.8024 120.054 30.8024C119.953 30.8024 119.869 30.8945 119.869 31.0051Z" fill="#591914"/>
<path d="M130.283 35.6343C130.472 35.6306 130.661 35.7817 130.732 35.9734C130.88 36.3751 130.994 36.7695 131.062 37.1344C131.537 39.7586 132.137 43.9639 132.137 43.9639L131.069 43.9971C131.069 43.9971 130.236 46.3633 130.277 47.9261C130.317 49.4888 128.033 48.5821 126.725 48.619C125.418 48.6595 122.473 47.5133 121.23 43.061C120.799 41.5167 120.243 39.5522 120.121 37.654C121.577 37.256 123.039 36.3383 124.495 36.0066C126.425 35.5643 128.346 35.6675 130.283 35.6343Z" fill="#FFBE9D"/>
<path d="M118.952 51.8034C118.952 51.8034 120.678 59.3075 125.492 57.0076C126.267 56.639 126.163 49.2161 126.291 47.3953C125.998 46.6471 123.757 40.9675 123.902 41.3324C123.902 41.3324 123.902 41.3324 123.902 41.3287L123.44 40.164L118.952 51.8034Z" fill="#FFBE9D"/>
<path d="M124.559 35.9955C124.465 37.514 125.59 39.9245 124.98 41.126L123.801 41.4098C123.801 41.4098 123.541 40.6469 123.063 40.6616C122.588 40.6763 122.554 44.62 121.789 44.6421C121.024 44.6643 119.451 41.3582 118.699 39.8176C118.625 39.6664 118.544 39.4785 118.457 39.2647C118.241 38.7155 118.578 37.713 119.063 37.444C120.677 36.5594 122.207 36.3456 124.559 35.9955Z" fill="#2D1175"/>
<path d="M120.266 36.8985C120.155 36.939 120.047 36.987 119.936 37.0349C120.047 36.9906 120.155 36.939 120.266 36.8985Z" fill="#2D1175"/>
<path d="M119.067 37.4477C119.009 37.4808 118.952 37.5214 118.902 37.573C118.956 37.5251 119.009 37.4808 119.067 37.4477Z" fill="#2D1175"/>
<path d="M119.667 37.1454C119.481 37.2302 119.296 37.3223 119.111 37.4255C119.296 37.326 119.481 37.2302 119.667 37.1454Z" fill="#2D1175"/>
<path d="M118.692 37.8494C118.669 37.8863 118.649 37.9231 118.628 37.96C118.649 37.9194 118.669 37.8863 118.692 37.8494Z" fill="#2D1175"/>
<path d="M123.689 36.1282C123.588 36.1429 123.494 36.1577 123.396 36.1761C123.491 36.1577 123.585 36.1429 123.689 36.1282Z" fill="#2D1175"/>
<path d="M120.883 36.6958C120.788 36.7253 120.697 36.7584 120.603 36.7879C120.694 36.7584 120.785 36.7216 120.883 36.6958Z" fill="#2D1175"/>
<path d="M122.194 36.3788C122.096 36.3972 122.002 36.4193 121.907 36.4414C122.002 36.423 122.096 36.4009 122.194 36.3788Z" fill="#2D1175"/>
<path d="M118.42 38.616C118.416 38.6298 118.416 38.6436 118.413 38.6539C118.413 38.6401 118.416 38.6298 118.42 38.616Z" fill="#2D1175"/>
<path d="M124.491 36.0066C126.021 35.7264 126.651 35.6343 130.283 35.6343C130.668 35.6343 130.762 36.0618 130.856 36.3604C129.579 36.4414 127.069 36.7584 124.653 37.1639C124.582 36.7474 124.515 36.0029 124.491 36.0066Z" fill="#FD5E5A"/>
<path d="M118.474 38.3543C118.467 38.3764 118.46 38.3986 118.457 38.4244C118.464 38.3986 118.467 38.3764 118.474 38.3543Z" fill="#2D1175"/>
<path d="M123.69 36.1282C123.946 36.0877 124.215 36.0508 124.492 36.0066C124.212 36.0471 123.946 36.0877 123.69 36.1282Z" fill="#2D1175"/>
<path d="M121.907 36.4415C121.779 36.4673 121.647 36.4931 121.523 36.5262C121.644 36.4967 121.775 36.4673 121.907 36.4415Z" fill="#2D1175"/>
<path d="M118.528 38.1885C118.507 38.2438 118.49 38.2991 118.474 38.3543C118.49 38.2954 118.507 38.2401 118.528 38.1885Z" fill="#2D1175"/>
<path d="M118.42 39.0952C118.406 39.0288 118.403 38.9588 118.399 38.8851C118.399 38.9588 118.406 39.0288 118.42 39.0952Z" fill="#2D1175"/>
<path d="M122.608 36.3051C122.47 36.3309 122.325 36.353 122.193 36.3788C122.328 36.353 122.47 36.3309 122.608 36.3051Z" fill="#2D1175"/>
<path d="M123.393 36.1724C123.231 36.1982 123.066 36.224 122.911 36.2498C123.069 36.224 123.231 36.1982 123.393 36.1724Z" fill="#2D1175"/>
<path d="M121.24 36.5999C121.119 36.6331 120.997 36.6626 120.879 36.6958C120.997 36.6589 121.122 36.6294 121.24 36.5999Z" fill="#2D1175"/>
<path d="M118.9 37.5766C118.88 37.5945 118.864 37.6159 118.848 37.6373C118.867 37.6159 118.884 37.5909 118.9 37.5766Z" fill="#2D1175"/>
<path d="M118.457 38.4244C118.44 38.487 118.43 38.5534 118.42 38.6161C118.427 38.5497 118.44 38.487 118.457 38.4244Z" fill="#2D1175"/>
<path d="M118.628 37.96C118.605 38.0042 118.588 38.0484 118.568 38.0927C118.585 38.0447 118.605 38.0005 118.628 37.96Z" fill="#2D1175"/>
<path d="M118.754 37.7499C118.733 37.7794 118.713 37.8125 118.693 37.8494C118.713 37.8162 118.733 37.7794 118.754 37.7499Z" fill="#2D1175"/>
<path d="M118.413 38.6566C118.403 38.7266 118.399 38.7966 118.399 38.8667C118.399 38.7966 118.403 38.7303 118.413 38.6566Z" fill="#2D1175"/>
<path d="M124.559 35.9955C124.539 36.3456 124.582 36.7437 124.653 37.1639C119.36 38.0521 118.737 38.4649 118.42 39.0952C118.123 36.8027 121.772 36.4083 124.559 35.9955Z" fill="#220D58"/>
<path d="M129.791 38.0411L129.899 38.6566C129.899 38.6566 128.902 38.5571 128.373 39.1689C127.844 39.7807 127.77 39.8507 127.77 39.8507C127.77 39.8507 128.022 38.4428 129.791 38.0411Z" fill="#2D1175"/>
<path d="M129.225 40.5399C129.805 40.5215 129.775 39.3863 129.195 39.4047C128.953 39.4121 128.646 40.5584 129.225 40.5399Z" fill="#2D1175"/>
<path d="M129.761 45.6852C129.286 45.6999 128.73 45.5598 128.477 45.1065C128.369 44.9333 128.336 44.5684 128.342 44.6274C128.309 44.3841 127.972 44.4394 128.006 44.6863C128.107 45.3903 128.774 45.8952 129.761 45.6852Z" fill="#2D1175"/>
<path d="M124.047 39.2094C124.047 39.2094 124.171 41.7746 123.605 41.7931C123.039 41.8115 121.765 40.3962 121.934 38.8445C122.106 37.2892 123.747 37.4218 124.047 39.2094Z" fill="#FFBE9D"/>
<path d="M123.645 38.9441C123.645 38.9441 123.955 39.9576 123.541 40.4331C123.13 40.9086 122.284 39.8213 122.712 38.9736C123.143 38.1222 123.541 38.358 123.645 38.9441Z" fill="#FD5E5A"/>
<path d="M117.537 36.5668V36.5594C118.834 34.2411 124.387 34.2227 126.995 34.1748C128.43 34.1195 132.746 33.644 132.746 34.9598C132.746 35.4574 131.715 36.0029 130.812 36.224C130.745 36.0213 130.684 35.6601 130.297 35.6675C127.173 35.7191 121.857 35.9107 119.07 37.4513C118.649 37.6835 118.342 38.4612 118.406 39.0251C117.207 38.6897 117.062 37.3887 117.537 36.5668Z" fill="#B96E16"/>
<path d="M117.439 36.4967C119.221 33.0948 131.58 32.7447 133.043 34.16C133.663 34.7607 132.888 35.6379 131.449 36.0434C132.106 35.7522 132.399 35.4905 132.514 35.2952C133.707 33.2496 122.166 34.2669 119.329 35.3873C118.679 35.6416 118.052 36.0139 117.648 36.611C117.621 36.6699 117.351 37.0238 117.355 37.6024C117.351 37.9563 117.432 38.3174 117.661 38.5902C116.725 37.9489 117.439 36.4967 117.439 36.4967Z" fill="#F8E000"/>
<path d="M194.424 60.0765C194.424 60.0765 193.008 60.3824 193.072 60.5261C193.19 60.8026 194.676 60.9168 194.676 60.9168L194.424 60.0765Z" fill="#53617D"/>
<path d="M193.072 60.5261C193.072 60.5261 195.754 60.9057 196.627 59.9474L201.351 88.6737H200.394L193.072 60.5261Z" fill="#B9CBF0"/>
<path d="M220.381 58.9854C220.381 58.9854 203.487 62.4352 198.251 62.0667C193.015 61.6981 192.196 59.6894 192.196 59.6894C192.196 59.6894 191.438 60.8357 194.198 73.4628C196.957 86.09 199.434 93.8521 199.434 93.8521L230.233 95.1457L220.381 58.9854Z" fill="#99C8F2"/>
<path d="M193.426 70.8939C193.426 70.8939 192.732 71.0376 192.317 72.2097C191.903 73.378 191.155 74.9813 191.509 76.2971C191.863 77.6129 193.406 79.1904 193.894 79.7248C194.383 80.2592 198.682 78.1842 198.756 77.0637C198.831 75.9433 197.142 77.4434 196.334 77.4434C195.525 77.4434 198.362 76.5809 198.248 75.9027C198.133 75.2246 195.825 76.2934 195.431 76.1091C195.037 75.9249 196.816 75.9027 196.903 75.2762C196.991 74.6496 194.774 74.9592 194.774 74.9592C194.774 74.9592 193.884 73.4112 194.123 73.1495C194.363 72.8878 195.242 73.4997 195.505 72.8215C195.775 72.147 194.144 70.341 193.426 70.8939Z" fill="#FFBE9D"/>
<path d="M233.434 79.1683C233.434 79.1683 228.151 78.3243 226.574 77.7088C224.997 77.0933 223.026 78.3574 221.759 78.0773C220.492 77.8009 221.028 79.1867 222.18 79.1867C223.333 79.1867 224.63 78.7555 224.63 79.1867C224.63 79.618 222.632 79.7728 221.166 79.4337C219.7 79.0946 219.7 79.0946 219.7 79.618C219.7 80.1413 221.84 81.2507 224.684 80.849C224.684 80.849 225.344 80.989 225.135 81.2175C224.923 81.4497 221.672 80.7863 220.772 81.2175C219.872 81.6488 220.435 82.4191 222.575 82.6034C224.714 82.7877 225.166 82.6328 225.307 83.0346C225.449 83.4363 222.126 82.725 221.958 83.311C221.789 83.897 226.379 85.0064 227.221 84.8516C228.063 84.6968 232.75 83.2815 232.75 83.2815L233.434 79.1683Z" fill="#FFBE9D"/>
<path d="M246.76 73.5881L255.234 94.2501L268.735 96.1557L265.649 75.9028L246.76 73.5881Z" fill="#AD7435"/>
<path d="M265.649 75.9028L246.76 73.5881L255.234 94.2501L248.634 75.2983L265.649 75.9028Z" fill="#825728"/>
<path d="M282.388 69.1911C282.388 69.1911 282.82 69.1616 281.873 75.0809C280.929 81.0038 282.217 87.1441 280.67 88.8395C279.123 90.5313 271.819 86.5839 271.819 87.1478C271.819 87.7117 271.044 92.223 271.044 92.223C271.044 92.223 281.701 95.8903 284.882 91.6591C288.062 87.4316 287.031 68.0633 282.388 69.1911Z" fill="#6861B3"/>
<path d="M274.272 49.7897C273.247 48.9457 272.442 48.6729 271.876 48.6066C271.63 48.5918 271.438 48.5955 271.29 48.6066C271.081 48.6324 270.953 48.6729 270.909 48.6619C270.909 48.6471 270.929 48.5845 270.973 48.4886C271.185 47.98 271.984 46.5131 274.103 46.5536C274.174 46.5536 274.245 46.5536 274.315 46.5573C275.616 46.6126 276.927 46.5758 278.187 46.9959C278.921 47.2429 279.649 47.6704 280.198 48.2638C280.872 48.9973 280.953 49.8708 280.973 50.8696C281.01 52.6977 280.643 54.559 281.064 56.3576C281.472 58.0788 282.412 59.6858 283.851 60.5703C285.101 61.3406 285.734 62.5422 285.903 64.1012C286.078 65.7192 285.788 67.4663 285.097 68.911C283.864 71.4947 281.384 70.3522 281.384 70.3522C281.384 70.3522 283.18 69.1174 282.827 68.5867C282.827 68.5867 281.091 71.1372 279.646 71.3288C277.166 71.6605 276.094 69.615 276.094 69.615C276.094 69.615 279.332 69.0216 277.991 67.3299C277.058 66.1505 276.91 64.4882 275.875 62.5864C275.306 61.5397 275.828 59.7631 276.256 57.8171C276.29 57.5886 276.377 57.1942 276.475 56.7298C276.671 55.6352 276.768 54.5184 276.573 53.4791C276.421 53.5786 276.199 53.656 275.862 53.6375C275.043 53.5896 275.047 53.0515 275.013 52.2443C274.908 51.463 274.699 50.5084 274.272 49.7897Z" fill="#4F005E"/>
<path d="M279.437 54.2862C278.897 55.3882 278.416 56.8699 278.291 58.0677C277.92 61.9009 281.896 60.5482 282.91 60.8025C283.537 60.9389 283.982 61.665 283.628 62.4832C283.342 63.1577 282.894 63.2977 282.634 63.5447C282.24 63.928 282.341 64.4661 282.695 64.7388C283.396 65.2843 284.467 64.503 284.615 65.6824C284.733 66.5043 284.376 67.4073 283.722 67.9159C284.443 67.5068 284.908 66.5854 284.861 65.6529C284.807 64.6946 284.214 64.6356 283.396 64.5619C282.89 64.514 282.745 64.2155 282.809 64.0533C282.89 63.7289 283.604 63.7216 284.059 62.7044C284.41 61.982 284.255 61.1084 283.665 60.5924C282.129 59.2324 277.806 62.4316 278.776 56.8035C278.914 55.9485 279.16 55.1118 279.437 54.2862Z" fill="#6A0084"/>
<path d="M272.678 88.9354C272.678 88.9354 269.733 85.1981 269.197 84.6121C268.661 84.026 264.295 82.5554 264.295 83.1857C264.295 83.8123 264.547 83.8602 264.295 84.5641C264.039 85.2681 263.782 85.0506 264.039 85.9831C264.298 86.9156 263.931 86.7719 263.931 87.5238C263.931 88.2756 266.013 89.6394 267.519 90.2512C269.022 90.863 272.674 91.4269 272.674 91.4269V88.9354H272.678Z" fill="#FFBE9D"/>
<path d="M151.309 8.01607V15.1037H239.085V8.01607H151.309ZM162.198 12.9659H155.918C155.342 12.9659 154.87 12.45 154.87 11.8197C154.87 11.1894 155.342 10.6735 155.918 10.6735H162.198C162.775 10.6735 163.246 11.1894 163.246 11.8197C163.246 12.4536 162.775 12.9659 162.198 12.9659ZM234.317 12.9659H228.036C227.46 12.9659 226.989 12.45 226.989 11.8197C226.989 11.1894 227.46 10.6735 228.036 10.6735H234.317C234.893 10.6735 235.365 11.1894 235.365 11.8197C235.362 12.4536 234.89 12.9659 234.317 12.9659Z" fill="#E0D9B6"/>
<path d="M239.085 8.01607H151.309V9.20656H239.085V8.01607Z" fill="#E0D59D"/>
<path d="M240.84 6H148.997V8.01606H240.84V6Z" fill="#E0D9B6"/>
</svg>
