<svg width="400" height="200" viewBox="0 0 400 200" fill="none" xmlns="http://www.w3.org/2000/svg">
<path d="M310.851 22.3524C297.904 24.2493 78.5662 37.159 100.269 53.9165C121.972 70.674 172.375 55.5778 167.827 70.0961C163.278 84.6144 27.3816 83.2368 61.3036 107.135C95.2255 131.034 138.374 84.2584 149.785 103.29C161.201 122.329 75.0288 119.4 73.5234 139.012C72.0246 158.625 201.196 112.911 195.865 129.927C190.534 146.943 141.596 137.199 156.169 161.495C170.741 185.797 289.415 158.069 293.404 145.336C297.393 132.603 247.425 118.839 277.862 105.12C308.299 91.4009 348.012 81.8245 323.221 68.0276C298.429 54.2307 348.693 42.1539 352.396 30.3315C356.103 18.5229 310.851 22.3524 310.851 22.3524Z" fill="url(#paint0_linear_21_5064)"/>
<path d="M218.234 15.5678H194.659V19.0331L205.105 23.8138L204.648 34.7365L205.696 34.7904L206.149 23.9176L218.234 20.16V15.5678ZM217.186 19.2946L205.731 22.8561L195.707 18.2677V16.7139H217.183V19.2946H217.186Z" fill="#33405A"/>
<path d="M200.285 53.7437C201.551 51.7091 204.514 50.2822 204.514 50.2822C204.838 50.1169 206.135 50.2092 206.076 50.6591C206.016 51.1091 205.211 50.7668 204.536 51.5207C203.86 52.2745 204.303 52.4745 204.627 52.5245C204.947 52.5745 206.381 53.9783 206.318 54.4475C206.255 54.9206 206.002 54.9052 205.935 55.409C205.868 55.9128 205.323 56.459 204.374 57.0128C203.425 57.5666 201.132 57.4628 200.485 57.9897C200.362 58.0897 199.371 58.9627 198.393 59.8281C197.859 59.1858 197.085 58.6704 197.061 57.6705C198.189 56.682 199.223 55.4513 200.285 53.7437Z" fill="#FD5E5A"/>
<path d="M204.264 31.9335L197.62 178.884L199.716 178.997L206.361 32.047L204.264 31.9335Z" fill="#591914"/>
<path d="M216.356 17.037H196.631C196.248 17.037 195.938 16.6986 195.938 16.2793V15.8255C195.938 15.4063 196.248 15.0678 196.631 15.0678H216.356C216.739 15.0678 217.049 15.4063 217.049 15.8255V16.2793C217.049 16.6986 216.739 17.037 216.356 17.037Z" fill="#BF2604"/>
<path d="M216.032 14.0563H197.187V17.8947H216.032V14.0563Z" fill="#F8E000"/>
<path d="M199.268 14.0563C198.66 15.1063 197.995 16.4255 197.485 17.8947H198.09C198.635 16.4024 199.331 15.0755 199.943 14.0563H199.268Z" fill="#8C1C03"/>
<path d="M201.873 14.0563C201.265 15.1063 200.6 16.4255 200.091 17.8947H200.695C201.24 16.4024 201.936 15.0755 202.548 14.0563H201.873Z" fill="#8C1C03"/>
<path d="M204.475 14.0563C203.867 15.1063 203.202 16.4255 202.692 17.8947H203.297C203.842 16.4024 204.538 15.0755 205.15 14.0563H204.475Z" fill="#8C1C03"/>
<path d="M207.08 14.0563C206.472 15.1063 205.808 16.4255 205.298 17.8947H205.903C206.448 16.4024 207.144 15.0755 207.756 14.0563H207.08Z" fill="#8C1C03"/>
<path d="M209.682 14.0563C209.074 15.1063 208.409 16.4255 207.9 17.8947H208.504C209.049 16.4024 209.746 15.0755 210.357 14.0563H209.682Z" fill="#8C1C03"/>
<path d="M212.284 14.0563C211.676 15.1063 211.011 16.4255 210.501 17.8947H211.106C211.651 16.4024 212.347 15.0755 212.959 14.0563H212.284Z" fill="#8C1C03"/>
<path d="M214.889 14.0563C214.281 15.1063 213.617 16.4255 213.103 17.8947H213.708C214.253 16.4024 214.949 15.0755 215.561 14.0563H214.889Z" fill="#8C1C03"/>
<path d="M215.132 15.9794C216.148 15.8294 216.032 14.3871 216.032 14.0602C216.032 13.7333 215.8 14.0602 214.89 14.0602C213.979 14.0602 206.704 13.8833 206.057 13.8833C205.411 13.8833 204.475 14.0602 204.05 13.7833C203.621 13.5064 197.19 14.0602 197.19 14.0602H197.166C197.352 14.0679 197.816 14.1102 198.53 14.364C199.476 14.6986 200.608 14.8448 201.67 14.4217C202.731 14.0025 203.494 14.7179 203.494 14.7179C203.494 14.7179 203.66 15.5909 203.747 15.8563C203.835 16.1217 204.205 15.7871 204.205 15.7871C204.205 15.7871 203.839 16.5678 204.507 16.714C205.179 16.864 204.461 14.9448 205.407 14.6679C206.353 14.3909 208.202 14.9948 208.202 14.9948C209.355 15.4255 210.488 15.9024 210.72 15.6524C210.952 15.3986 211.673 15.1832 212.404 15.5024C213.135 15.8217 212.949 16.6293 213.1 16.464C213.251 16.2986 213.223 15.364 213.627 15.8063C214.032 16.2486 214.035 17.3062 214.331 17.6255C214.626 17.9447 214.531 16.8678 214.668 17.3216C214.805 17.7755 213.93 21.9946 214.9 21.9946C215.871 21.9946 214.116 16.1294 215.132 15.9794Z" fill="#4F80FF"/>
<path d="M206.279 54.1552C206.279 54.1552 202.521 53.5129 202.415 54.3129C202.31 55.1129 205.879 55.1782 205.879 55.1782C205.879 55.1782 202.45 54.6706 202.363 55.3282C202.275 55.9821 205.203 56.4513 205.203 56.4513C205.203 56.4513 202.359 55.759 202.422 56.2513C202.486 56.7436 205.253 57.3436 205.253 57.3436C205.253 57.3436 205.861 57.1551 205.668 56.6744C205.527 56.3244 205.77 56.2282 205.903 56.0359C206.037 55.8436 206.128 55.3975 206.153 55.2167C206.177 55.0321 206.757 54.4936 206.279 54.1552Z" fill="#FFBE9D"/>
<path d="M312.71 183.005C312.71 187.277 261.259 190.74 197.79 190.74C134.321 190.74 82.8699 187.277 82.8699 183.005C82.8699 178.733 134.321 175.27 197.79 175.27C261.259 175.27 312.71 178.733 312.71 183.005Z" fill="#54688B"/>
<path d="M169.994 174.763L169.175 182.048C169.175 182.048 170.996 182.048 174.368 182.048C177.74 182.048 183.021 181.525 183.021 181.525C183.021 181.525 175.1 178.652 175.1 175.467C175.1 172.283 175.1 172.283 175.1 172.283L169.994 174.763Z" fill="#0D3153"/>
<path d="M199.107 175.006C198.657 173.71 197.416 170.983 197.416 170.983L193.407 172.279L192.588 179.84C192.588 179.84 204.43 179.84 206.251 179.84C206.251 179.84 199.557 176.302 199.107 175.006Z" fill="#0D3153"/>
<path d="M112.634 160.329C112.634 160.329 111.942 179.617 111.942 179.652C111.942 180.682 106.608 181.517 100.029 181.517C98.201 181.517 96.4712 181.452 94.9206 181.336C90.8983 181.036 88.1172 180.394 88.1172 179.648C88.1172 179.609 87.2523 155.637 87.2488 155.591H112.81L112.634 160.329Z" fill="#A695C6"/>
<path d="M111.397 159.122C106.369 159.875 97.5928 160.118 91.3062 159.533C90.0756 159.421 88.9365 159.271 87.945 159.095C84.2778 158.429 83.8242 157.629 85.6982 155.533C85.6596 155.599 85.6385 155.664 85.6385 155.729C85.6385 156.514 88.3071 157.198 92.3294 157.591C94.5551 157.806 97.1991 157.933 100.033 157.933C107.983 157.933 114.424 156.948 114.424 155.729C114.424 155.587 114.336 155.449 114.171 155.318H114.192C117.479 157.975 113.316 158.833 111.397 159.122Z" fill="#C0E2ED"/>
<path d="M85.635 155.729C85.635 156.945 92.0798 157.929 100.026 157.929C107.972 157.929 114.417 156.945 114.417 155.729C114.417 155.56 114.385 155.449 114.15 155.291C113.752 155.06 113.327 154.883 112.859 154.729C110.482 154.014 105.627 153.525 100.026 153.525C92.0798 153.525 85.635 154.514 85.635 155.729Z" fill="#C20095"/>
<path d="M112.81 155.583C112.81 155.968 111.818 156.322 110.152 156.606C107.814 157.002 104.15 157.26 100.029 157.26C99.843 157.26 99.6531 157.26 99.4703 157.26C95.6062 157.237 92.1922 156.991 89.9596 156.618C88.2649 156.333 87.2522 155.975 87.2522 155.587C87.2522 154.687 92.6739 153.952 99.4738 153.914C99.6601 153.914 99.8465 153.914 100.033 153.914C107.086 153.906 112.81 154.656 112.81 155.583Z" fill="#56448E"/>
<path d="M110.152 156.606C109.421 156.729 108.563 156.841 107.599 156.933C105.479 157.137 102.863 157.26 100.033 157.26C97.2131 157.26 94.6042 157.141 92.4911 156.937C91.5383 156.845 90.6874 156.737 89.9631 156.614C92.3013 156.218 95.9649 155.96 100.086 155.96C104.171 155.964 107.81 156.214 110.152 156.606Z" fill="#FB8603"/>
<path d="M110.149 163.537H91.2219V175.009H110.149V163.537Z" fill="white"/>
<path d="M109.28 165.56H101.193V166.333H109.28V165.56Z" fill="#C0B4FE"/>
<path d="M109.554 167.064H101.468V167.837H109.554V167.064Z" fill="#C0B4FE"/>
<path d="M109.832 168.883H101.745V169.656H109.832V168.883Z" fill="#C0B4FE"/>
<path d="M85.9232 156.61C85.9232 156.61 84.2004 157.248 85.0231 158.148C85.8459 159.048 84.341 162.418 85.3606 163.533C86.3803 164.648 86.1693 158.71 86.7706 158.845C87.3718 158.979 86.3451 162.191 87.4878 162.191C88.6305 162.191 88.2683 158.672 88.9258 159.391C89.5833 160.11 89.165 161.864 89.9561 161.541C90.7472 161.218 90.6874 159.468 90.9933 159.498C91.3027 159.529 92.4559 158.491 91.2183 158.148C89.9806 157.806 89.7486 155.349 85.9232 156.61Z" fill="#C20095"/>
<path d="M94.9909 158.968C94.9909 158.968 98.1518 157.356 98.8761 158.152C99.6039 158.948 102.786 159.821 102.118 159.821C101.45 159.821 98.1131 159.856 97.6384 159.845C97.1673 159.837 94.4037 160.448 94.9909 158.968Z" fill="#C20095"/>
<path d="M109.832 157.26C109.832 157.26 110.834 157.087 110.834 157.929C110.834 158.772 111.836 158.314 111.836 159.395C111.836 160.475 111.281 164.702 112.501 164.121C113.721 163.541 112.603 158.948 113.074 158.948C113.545 158.948 112.898 160.256 113.84 160.256C114.783 160.256 114.684 158.814 114.684 158.152C114.684 157.491 113.693 155.668 112.262 156.075C110.827 156.479 109.832 156.649 109.832 157.26Z" fill="#C20095"/>
<path d="M84.8016 179.775C84.8016 179.775 78.8034 180.694 81.2435 181.521C83.6836 182.352 87.2101 179.775 84.8016 179.775Z" fill="#C20095"/>
<path d="M98.5598 165.56H92.7549V172.583H98.5598V165.56Z" fill="#FAB300"/>
<path d="M263.769 163.413C263.769 163.413 263.174 179.924 263.174 179.959C263.174 180.839 258.611 181.559 252.978 181.559C251.413 181.559 249.93 181.505 248.604 181.405C245.159 181.147 242.778 180.597 242.778 179.962C242.778 179.932 242.036 159.405 242.036 159.367H263.92L263.769 163.413Z" fill="#A695C6"/>
<path d="M262.707 162.378C258.403 163.024 250.89 163.232 245.507 162.728C244.452 162.632 243.478 162.505 242.627 162.351C239.487 161.782 239.1 161.098 240.704 159.302C240.669 159.355 240.651 159.413 240.651 159.471C240.651 160.14 242.936 160.728 246.378 161.063C248.284 161.248 250.545 161.355 252.971 161.355C259.774 161.355 265.291 160.513 265.291 159.471C265.291 159.351 265.217 159.232 265.073 159.117H265.091C267.917 161.398 264.352 162.132 262.707 162.378Z" fill="#C0E2ED"/>
<path d="M240.655 159.475C240.655 160.517 246.171 161.359 252.975 161.359C259.778 161.359 265.295 160.517 265.295 159.475C265.295 159.328 265.267 159.236 265.066 159.102C264.725 158.905 264.363 158.752 263.959 158.621C261.923 158.009 257.767 157.59 252.971 157.59C246.171 157.59 240.655 158.432 240.655 159.475Z" fill="#4F80FF"/>
<path d="M263.92 159.352C263.92 159.682 263.069 159.986 261.645 160.228C259.644 160.567 256.505 160.786 252.978 160.786C252.816 160.786 252.658 160.786 252.5 160.786C249.195 160.767 246.269 160.559 244.357 160.236C242.905 159.994 242.04 159.686 242.04 159.352C242.04 158.578 246.681 157.952 252.5 157.917C252.658 157.917 252.82 157.917 252.978 157.917C259.018 157.913 263.92 158.555 263.92 159.352Z" fill="#56448E"/>
<path d="M261.641 160.225C261.016 160.332 260.281 160.425 259.455 160.505C257.64 160.682 255.401 160.782 252.974 160.782C250.559 160.782 248.326 160.678 246.519 160.505C245.703 160.428 244.976 160.332 244.353 160.228C246.354 159.89 249.49 159.671 253.017 159.671C256.522 159.675 259.641 159.89 261.641 160.225Z" fill="#2F499F"/>
<path d="M261.642 166.159H245.436V175.982H261.642V166.159Z" fill="white"/>
<path d="M260.896 167.89H253.973V168.551H260.896V167.89Z" fill="#C0B4FE"/>
<path d="M261.132 169.178H254.209V169.84H261.132V169.178Z" fill="#C0B4FE"/>
<path d="M261.367 170.736H254.444V171.397H261.367V170.736Z" fill="#C0B4FE"/>
<path d="M248.664 162.248C248.664 162.248 251.368 160.867 251.99 161.548C252.613 162.228 255.337 162.978 254.764 162.978C254.191 162.978 251.336 163.005 250.932 163.001C250.528 162.994 248.161 163.517 248.664 162.248Z" fill="#4F80FF"/>
<path d="M261.371 160.786C261.371 160.786 262.229 160.64 262.229 161.359C262.229 162.082 263.087 161.69 263.087 162.613C263.087 163.536 262.608 167.155 263.656 166.659C264.704 166.163 263.744 162.228 264.145 162.228C264.549 162.228 263.994 163.348 264.799 163.348C265.604 163.348 265.52 162.113 265.52 161.544C265.52 160.975 264.672 159.417 263.445 159.767C262.222 160.117 261.371 160.263 261.371 160.786Z" fill="#4F80FF"/>
<path d="M251.719 167.89H246.748V173.905H251.719V167.89Z" fill="#4F80FF"/>
<path d="M183.148 44.317C183.148 44.317 185.271 64.5856 187.121 64.5856C188.97 64.5856 197.057 56.4013 197.057 56.4013L199.539 59.8319C199.539 59.8319 190.155 74.8392 184.783 72.197C179.407 69.5547 179.716 50.8207 179.716 50.8207L183.148 44.317Z" fill="#F27F3D"/>
<path d="M186.34 79.1353L198.685 172.383L192.511 173.579L176.295 110.804L179.716 77.9584L186.34 79.1353Z" fill="#F27F3D"/>
<path d="M183.148 45.0401C183.148 45.0401 180.454 42.7747 171.334 45.0247C171.084 45.0862 170.859 55.9128 170.859 55.9128C170.859 55.9128 175.092 74.0316 174.287 78.5545C174.287 78.5545 179.125 83.0198 186.34 79.1314C186.34 79.1314 185.401 64.901 186.059 61.7319C186.716 58.5628 188.024 55.6859 186.164 52.3975C184.308 49.113 183.148 45.0401 183.148 45.0401Z" fill="#EE0085"/>
<path d="M183.148 44.317C183.148 44.317 180.454 42.3632 171.334 44.617C171.084 44.6785 170.859 55.9167 170.859 55.9167C170.859 55.9167 175.092 74.0354 174.287 78.5584C174.287 78.5584 179.108 96.1232 183.977 95.3348C185.24 95.131 186.59 81.0006 186.344 79.1353C186.344 79.1353 185.405 64.9049 186.062 61.7357C186.72 58.5666 188.028 55.6898 186.168 52.4014C184.308 49.113 183.148 44.317 183.148 44.317Z" fill="#F2A71B"/>
<path d="M170.915 82.9736C170.768 82.8121 169.474 80.7275 169.2 81.0314C168.922 81.3352 170.346 83.2544 170.346 83.2544C170.346 83.2544 168.697 81.4314 168.373 81.7852C168.046 82.1429 170.574 84.6044 170.842 84.6044C171.105 84.6044 170.915 82.9736 170.915 82.9736Z" fill="#FD5E5A"/>
<path d="M173.148 80.9121C173.124 80.866 172.153 79.6199 170.863 77.7891C170.451 77.2045 170.005 76.5546 169.548 75.87C168.915 76.4507 168.314 77.1391 167.646 77.7122C168.187 78.4391 168.679 79.1006 169.087 79.666C169.534 80.3045 169.843 80.7929 169.956 81.0698C170.726 82.9543 170.835 84.6005 170.835 84.6005C170.835 84.6005 172.392 84.5389 172.74 84.1582C173.089 83.7774 172.814 83.1967 173.328 82.6351C173.844 82.0775 173.148 80.9121 173.148 80.9121Z" fill="#FFBE9D"/>
<path d="M164.428 63.8857C165.311 59.6127 170.458 57.182 171.341 55.0705C172.244 52.9052 171.51 44.5631 171.51 44.5631C167.684 44.2824 158.884 62.1318 159.102 64.8202C159.256 66.6971 163.641 74.4507 166.9 78.8121C167.568 78.2352 168.918 76.4469 169.551 75.8661C166.904 71.9008 163.866 66.6087 164.428 63.8857Z" fill="#F2B90C"/>
<path d="M171.506 44.567C171.643 46.4015 171.584 48.6361 171.615 50.5053C171.643 53.809 171.46 54.8513 170.796 55.6782C169.249 57.6397 165.107 60.0358 164.428 63.8857C165.392 60.0665 169.397 57.9435 171.018 55.882C171.629 55.1128 171.745 54.2898 171.823 53.2475C171.984 50.8091 171.847 47.0207 171.506 44.567Z" fill="#D6F8F6"/>
<path d="M133.129 177.721L133.867 183.19C133.867 183.19 130.917 183.19 128.868 183.19C126.818 183.19 121.161 183.19 121.161 183.19C121.161 183.19 121.572 181.844 125.26 181.036C128.949 180.229 129.388 178.706 129.388 178.706L128.868 175.298L132.229 174.76L133.129 177.721Z" fill="#3A4163"/>
<path d="M137.19 57.9128C137.19 57.9128 136.339 49.5784 134.342 49.5784C130.165 49.5784 123.168 72.6777 122.95 76.0815C122.585 81.8121 126.185 82.1544 129.719 82.6159C133.175 83.0697 133.815 74.7738 133.815 74.7738L137.19 57.9128Z" fill="#F27F3D"/>
<path d="M146.247 177.183L146.74 180.14C146.74 180.14 145.47 184.671 143.544 186.775C141.617 188.878 137.479 189.017 137.479 187.225C137.479 185.432 141.796 179.871 141.796 177.717C141.796 175.563 146.247 177.183 146.247 177.183Z" fill="#3A4163"/>
<path d="M149.711 50.8207L143.305 48.1746L138.326 48.5245L134.346 49.5784L128.457 76.5507L128.868 98.7155H147.397L144.198 84.6889L149.711 50.8207Z" fill="#F2A71B"/>
<path d="M134.694 61.8972C129.233 81.3928 131.009 96.5847 131.006 96.527V96.5347C131.009 96.6155 130.953 96.6886 130.879 96.6924C130.622 96.7078 130.777 96.3732 130.552 93.6271L130.461 92.1618C129.894 80.8967 132.176 64.8241 137.907 50.686C138.055 50.3245 138.554 50.5668 138.407 50.9283C138.241 51.3744 136.568 55.1666 134.694 61.8972Z" fill="#591900"/>
<path d="M141.8 77.9583C140.393 79.0314 139.476 80.589 136.438 81.5313C138.217 83.0505 140.253 84.6274 142.193 85.8581C142.654 83.1697 142.988 80.9467 143.044 78.2583C142.974 78.2891 141.87 77.9353 141.8 77.9583Z" fill="#FD5E5A"/>
<path d="M153.409 56.1513C152.506 53.0283 149.711 50.8206 149.711 50.8206C146.645 50.4322 145.752 68.0625 145.752 68.0625L144.532 77.8045C144.282 78.0968 143.371 77.8122 143.041 77.9583C142.985 80.6467 142.074 83.5005 141.613 86.1927C144.644 88.1157 148.019 88.8619 149.232 87.5388C151.985 84.5274 154.317 59.2781 153.409 56.1513Z" fill="#F2B90C"/>
<path d="M127.388 68.4932C126.185 68.2086 122.434 69.6355 122.434 69.6355C122.434 69.6355 121.439 71.147 121.439 72.12C121.439 72.2854 121.523 72.3662 121.66 72.3469C121.4 72.5546 121.277 72.72 121.379 72.8354C121.875 73.3777 125.795 71.3162 126.027 71.5739C126.262 71.8316 121.572 72.6662 121.955 73.5931C122.114 73.9815 123.914 73.3662 125.046 72.9354C124.062 73.3546 122.62 74.0353 122.62 74.4469C122.62 75.0776 126.705 74.1084 127.599 74.1084C127.933 74.1084 128.478 74.4969 129.093 74.9199C129.371 74.8661 129.557 75.0084 129.673 74.9699C129.673 74.9699 132.732 74.8969 136.624 75.4276C132.377 72.6469 127.715 68.5701 127.388 68.4932ZM123.147 71.4623C122.834 71.6316 122.528 71.8008 122.258 71.9585C122.521 71.6854 122.732 71.0816 123.105 70.7931C123.865 70.2047 125.014 69.8739 125.187 70.0624C125.391 70.2931 124.241 70.8777 123.147 71.4623Z" fill="#FFBE9D"/>
<path d="M145.231 72.2124C145.024 73.2931 145.059 76.5199 144.591 77.3276C144.591 77.3276 144.082 76.9353 143.916 77.1276H143.913C142.246 78.0968 139.894 80.7698 135.306 81.839C130.798 82.8736 124.649 83.4082 124.649 80.0583C124.649 76.7122 127.729 74.8815 129.68 74.8815C129.68 74.8815 132.739 74.9046 136.631 75.4353C136.635 75.4353 136.635 75.4353 136.638 75.4353C140.527 75.9623 144.827 71.8739 145.231 72.2124Z" fill="#FF8D8D"/>
<path d="M136.747 36.7172L137.014 46.3438L137.067 48.2284C137.084 48.8553 137 51.2783 137.475 51.6322C138.572 52.4552 141.529 52.2552 143.308 51.3821C144.922 50.5899 141.497 36.3633 141.497 36.3633C141.497 36.3633 138.709 36.1556 136.747 36.7172Z" fill="#FFBE9D"/>
<path d="M141.497 36.3672C141.497 36.3672 141.606 36.821 141.775 37.5671C141.729 38.6479 141.61 40.3171 141.297 41.567C140.882 43.2362 138.962 46.0708 137.014 46.3438L136.747 36.7172C138.709 36.1556 141.497 36.3672 141.497 36.3672Z" fill="#FD5E5A"/>
<path d="M140.794 22.4907C141.81 23.906 142.664 25.9021 141.374 27.0021C142.847 26.0406 142.172 23.6983 141.282 22.1022L140.794 22.4907Z" fill="#001959"/>
<path d="M134.736 28.6174C134.736 28.6174 132.563 29.0366 132.468 32.0789C132.373 35.1211 134.107 43.4324 136.329 44.0824C138.551 44.7285 140.991 41.6901 141.451 39.994C141.926 38.2325 141.898 35.5057 141.898 35.5057C141.898 35.5057 141.48 24.5714 134.736 28.6174Z" fill="#FFBE9D"/>
<path d="M144.275 39.5633C144.275 39.5633 143.789 40.2632 143.171 39.4248C143.171 39.4248 141.732 37.4902 142.808 35.8941C143.884 34.298 145.519 32.0981 145.08 29.3251C144.64 26.5521 141.571 26.7482 141.571 26.7482C141.571 26.7482 140.868 22.4983 136.641 24.1752C136.641 24.1752 135.787 23.2983 133.284 23.5637C130.784 23.8291 131.452 25.2944 129.996 25.1252C128.54 24.956 128.277 23.7291 128.86 23.2137C128.86 23.2137 126.441 24.5983 126.227 26.7944C126.012 28.9905 129.834 28.8828 129.834 28.8828C129.834 28.8828 126.775 29.5058 129.191 30.7981C131.606 32.0904 132.742 32.0019 134.113 30.3827C135.485 28.7635 136.233 28.352 137.018 28.6636C137.798 28.9789 137.619 30.8443 138.772 30.9789C139.929 31.1135 140.829 34.3865 140.829 34.3865C140.829 34.3865 141.701 34.0096 141.768 36.3403C141.834 38.671 141.616 40.1171 142.924 40.2709C144.229 40.4209 144.275 39.5633 144.275 39.5633Z" fill="#001959"/>
<path d="M141.314 31.6635C141.986 31.5365 143.635 31.9904 142.394 34.4018C141.152 36.8133 139.859 34.4403 139.96 33.4019C140.062 32.3634 140.801 31.7596 141.314 31.6635Z" fill="#FFBE9D"/>
<path d="M135.038 35.3788C135.263 36.771 135.32 38.1287 135.65 39.4248C135.945 39.4094 136.241 39.4094 136.54 39.4286C136.044 39.6402 135.636 39.7479 135.45 39.8094C135.436 39.7363 134.841 37.9787 135.038 35.3788Z" fill="#001959"/>
<path d="M135.537 34.9365C135.615 34.9442 135.685 34.8903 135.703 34.8057C135.706 34.7826 135.826 34.2057 136.466 33.875C137.021 33.5904 138.435 33.898 138.934 34.0403C139.018 34.0673 139.095 34.0096 139.117 33.9211C139.138 33.8327 139.088 33.7404 139.008 33.7173C138.93 33.6942 137.098 33.1788 136.332 33.575C135.548 33.9788 135.404 34.7096 135.4 34.7403C135.383 34.8288 135.439 34.9172 135.52 34.9365C135.527 34.9365 135.534 34.9365 135.537 34.9365Z" fill="#001959"/>
<path d="M138.153 40.0094C138.153 40.0094 135.994 40.9248 134.725 40.6748C134.725 40.6748 135.003 41.7478 135.759 42.0016C136.515 42.2593 137.991 41.6786 138.153 40.0094Z" fill="white"/>
<path d="M142.264 33.0788C142.264 33.0788 142.218 34.7403 141.479 34.7634C140.741 34.7865 140.505 33.5673 140.973 32.925C141.441 32.2904 142.309 32.6019 142.264 33.0788Z" fill="#FD5E5A"/>
<path d="M136.082 35.5672C136.135 35.8864 136.36 36.1095 136.592 36.0633C136.821 36.0172 136.968 35.7249 136.916 35.4057C136.863 35.0864 136.638 34.8634 136.406 34.9095C136.177 34.9518 136.033 35.248 136.082 35.5672Z" fill="#001959"/>
<path d="M133.083 35.9787C133.136 36.298 133.361 36.521 133.593 36.4749C133.822 36.4287 133.969 36.1364 133.917 35.8172C133.864 35.498 133.639 35.2749 133.407 35.3211C133.178 35.3634 133.03 35.6595 133.083 35.9787Z" fill="#001959"/>
<path d="M134.138 34.9557C134.198 35.0211 134.198 35.1249 134.138 35.1903C134.103 35.2287 134.057 35.2442 134.015 35.2365C133.98 35.2326 133.948 35.2172 133.923 35.1903C133.758 35.0057 133.245 34.5249 132.89 34.4826C132.802 34.4711 132.714 34.4672 132.626 34.4672C132.612 34.3557 132.598 34.2442 132.587 34.1365C132.696 34.1326 132.809 34.1365 132.921 34.1519C133.456 34.2173 134.11 34.9288 134.138 34.9557Z" fill="#001959"/>
<path d="M138.459 115.096L130.956 143.941L135.017 178.709H128.868L122.226 141.941L128.868 98.7155L138.459 115.096Z" fill="#F27F3D"/>
<path d="M128.868 98.7155L134.061 116.115C134.061 116.115 140.182 139.611 141.29 153.779C142.397 167.948 141.29 177.633 141.29 177.633L149.904 179.152C149.904 179.152 150.923 149.295 149.612 139.43C148.301 129.565 149.904 105.531 149.904 105.531L147.397 98.7155H128.868Z" fill="#F2A71B"/>
<path d="M174.287 78.5545C174.287 78.5545 169.477 85.2928 168.338 92.0695C167.203 98.8462 166.795 133.718 166.795 133.718L165.417 141.214L168.711 176.598L176.819 175.152C176.819 175.152 179.941 116.976 182.501 105.215C185.06 93.4541 184.42 90.6657 184.42 90.6657L184.034 80.1275L174.287 78.5545Z" fill="#F2A71B"/>
<path d="M180.581 46.09C181.39 52.7783 182.153 59.4704 182.852 66.1702C183.197 69.5201 183.538 72.8739 183.823 76.2315C184.09 79.5929 184.403 82.9505 184.378 86.3427C184.378 86.4158 184.326 86.4735 184.259 86.4696C184.192 86.4696 184.139 86.412 184.139 86.3389V86.3312C184.139 82.9774 183.802 79.6121 183.51 76.2622C183.2 72.9085 182.835 69.5624 182.466 66.2163C181.713 59.5242 180.901 52.8398 180.043 46.1669C180.022 46.0054 180.124 45.8515 180.275 45.8285C180.423 45.8131 180.56 45.9246 180.581 46.09Z" fill="#580000"/>
<path d="M168.851 49.213C168.851 49.213 167.125 53.6667 167.667 53.7552C168.208 53.8437 167.638 55.5167 167.79 57.0012C167.941 58.4858 168.598 53.9398 169.178 53.4705C169.759 53.0013 169.977 53.0244 170.251 51.0053C170.525 48.9861 171.035 45.24 170.342 46.2862C169.646 47.3284 168.851 49.213 168.851 49.213Z" fill="#4F80FF"/>
<path d="M177.726 114.538C177.726 114.538 178.415 111.996 176.939 111.996C175.462 111.996 174.667 120.376 175.342 121.115C176.017 121.853 177.726 114.538 177.726 114.538Z" fill="#4F80FF"/>
<path d="M173.774 92.3349C173.774 92.3349 172.329 97.5501 173.405 100.089C174.481 102.627 173.472 96.3347 174.983 94.6809C176.495 93.0271 175.898 87.235 175.898 85.2928C175.898 83.3505 175.159 86.0158 174.076 87.2004C172.993 88.385 171.9 86.6312 171.9 89.1003C171.9 91.5695 173.774 92.3349 173.774 92.3349Z" fill="#55AFFF"/>
<path d="M173.64 52.3937C173.64 52.3937 172.607 53.8475 173.261 53.8475C173.915 53.8513 174.326 52.3937 173.64 52.3937Z" fill="#4F80FF"/>
<path d="M173.96 50.4822C173.718 50.4822 173.521 50.2668 173.521 50.0014C173.521 49.7361 173.718 49.5207 173.96 49.5207C174.203 49.5207 174.4 49.7361 174.4 50.0014C174.4 50.2668 174.203 50.4822 173.96 50.4822Z" fill="#4F80FF"/>
<path d="M174.551 48.6053C174.467 48.6053 174.4 48.5322 174.4 48.4399C174.4 48.3476 174.467 48.2746 174.551 48.2746C174.635 48.2746 174.702 48.3476 174.702 48.4399C174.702 48.5322 174.635 48.6053 174.551 48.6053Z" fill="#4F80FF"/>
<path d="M148.909 53.9051C148.909 53.9051 150.231 52.859 150.414 53.9051C150.597 54.9513 151.553 57.8897 151.553 59.8819C151.553 61.8742 150.231 61.9742 150.231 60.978C150.231 59.9819 149.183 58.5396 149.183 62.1241C149.183 65.7087 148.227 68.1548 147.953 68.4509C147.678 68.7471 146.859 67.2933 146.859 66.101C146.859 64.9087 146.223 63.8664 146.448 62.3703C146.676 60.8742 148.681 54.2205 148.681 54.2205L148.909 53.9051Z" fill="#55AFFF"/>
<path d="M150.354 63.8857C150.354 63.8857 149.5 65.6625 150.354 65.251C151.208 64.8395 150.927 63.2626 150.354 63.8857Z" fill="#99C8F2"/>
<path d="M150.73 67.5317C150.611 67.6625 149.995 69.8316 150.73 69.0278C151.465 68.2201 151.243 66.9702 150.73 67.5317Z" fill="#99C8F2"/>
<path d="M145.154 51.6629C145.154 51.6629 142.081 52.4283 143.74 53.4398C145.4 54.4513 146.63 54.7975 146.63 54.2244C146.63 53.6552 145.154 51.6629 145.154 51.6629Z" fill="#99C8F2"/>
<path d="M179.509 32.7403C179.509 33.1326 179.03 33.448 178.44 33.448C177.849 33.448 177.371 33.1326 177.371 32.7403C177.371 32.348 177.849 32.0327 178.44 32.0327C179.03 32.0327 179.509 32.348 179.509 32.7403Z" fill="#FD5E5A"/>
<path d="M183.57 32.7403C183.57 33.1326 183.091 33.448 182.501 33.448C181.91 33.448 181.432 33.1326 181.432 32.7403C181.432 32.348 181.91 32.0327 182.501 32.0327C183.091 32.0327 183.57 32.348 183.57 32.7403Z" fill="#FD5E5A"/>
<path d="M174.983 35.2211C174.741 35.4864 173.517 36.0479 173.517 37.3056C173.517 38.5594 175.135 39.7786 174.386 40.1748C173.637 40.5709 173.18 39.9594 173.18 41.717C173.18 43.4747 174.396 44.39 174.396 44.39C174.396 44.39 176.26 44.6593 177.146 43.6901C178.032 42.7209 176.871 41.9324 177.367 40.894C177.866 39.8517 178.745 39.3402 178.436 38.3248C178.299 37.871 177.701 37.0172 176.97 36.421C176.059 35.671 174.983 35.2211 174.983 35.2211Z" fill="#000044"/>
<path d="M174.389 24.0253C175.054 23.2984 177.757 23.1253 177.757 23.1253H177.958C178.805 22.7714 183.277 30.0443 182.711 33.925C182.149 37.8018 181.744 37.4057 179.206 37.8903C176.667 38.3749 174.772 36.3018 174.132 34.0134C173.489 31.7173 173.724 24.7522 174.389 24.0253Z" fill="#000044"/>
<path d="M181.664 36.4326C181.846 36.6326 181.112 42.3555 181.836 43.9439C181.836 43.9439 181.702 46.8438 180.408 47.0131C179.28 47.1592 177.233 45.6977 177.008 44.567C176.706 43.0478 177.008 35.4442 177.008 35.4442L181.664 36.4326Z" fill="#FFBE9D"/>
<path d="M181.586 38.8056C179.863 40.5094 178.242 39.7325 176.938 37.5979C176.966 36.521 177.008 35.5057 177.008 35.4442L181.663 36.4364C181.737 36.5172 181.656 37.5287 181.586 38.8056Z" fill="#FD5E5A"/>
<path d="M181.119 23.5676C181.119 23.5676 183.299 24.0214 183.559 26.0675C183.819 28.1136 184.181 29.8174 183.819 32.2019C183.457 34.5865 182.159 37.7672 180.029 38.2787C177.901 38.7902 175.669 34.9288 175.669 32.8288C175.669 30.7289 174.892 27.2059 176.344 25.0483C177.796 22.8868 181.119 23.5676 181.119 23.5676Z" fill="#FFBE9D"/>
<path d="M181.119 23.5676C181.119 23.5676 183.298 24.0214 183.559 26.0675C183.794 27.9213 184.114 29.4943 183.903 31.5481C183.555 31.2866 183.063 31.0212 182.37 30.7712C179.99 29.9135 177.863 24.8829 177.771 24.6675L177.733 24.5791L177.726 24.4791C177.715 24.2791 177.736 24.0714 177.792 23.8599C179.325 23.1984 181.119 23.5676 181.119 23.5676Z" fill="#FD5E5A"/>
<path d="M176.238 31.6327C176.238 31.6327 175.409 30.5828 174.994 30.1289C174.579 29.6751 173.542 25.1867 174.579 23.656C175.616 22.1214 177.603 22.0368 179.192 21.8407C180.781 21.6407 183.302 22.9637 183.443 25.556C183.443 25.556 179.354 23.856 178.211 24.4521C177.068 25.0483 176.601 25.7598 176.368 27.1482C176.136 28.5367 176.238 31.6327 176.238 31.6327Z" fill="#000044"/>
<path d="M176.238 31.6327C176.238 31.6327 175.683 28.9943 174.758 29.6328C173.833 30.2712 174.825 33.1904 175.69 33.1904C176.555 33.1904 176.238 31.6327 176.238 31.6327Z" fill="#FFBE9D"/>
<path d="M175.342 30.1866C175.342 30.1866 176.706 32.5827 175.771 32.3173C174.832 32.0519 174.463 29.7405 175.342 30.1866Z" fill="#FD5E5A"/>
<path d="M181.14 33.1904C181.083 32.5366 181.041 31.8827 181.048 31.2289C181.182 32.0596 181.213 32.6673 181.256 33.275C180.939 33.3711 180.559 33.5634 180.081 33.3673C180.447 33.4404 180.809 33.325 181.14 33.1904Z" fill="#172866"/>
<path d="M179.959 31.1673C179.85 30.7904 179.558 30.4327 179.157 30.3135C178.443 30.1097 178.011 31.2327 177.522 31.2212C177.874 31.4173 178.433 30.7635 178.819 30.5943C179.027 30.502 179.213 30.5673 179.421 30.6712C179.621 30.7866 179.8 30.9635 179.959 31.1673Z" fill="#172866"/>
<path d="M178.671 30.8289C178.671 31.0674 178.826 31.2597 179.019 31.2597C179.213 31.2597 179.368 31.0674 179.368 30.8289C179.368 30.5904 179.213 30.3981 179.019 30.3981C178.826 30.3981 178.671 30.5904 178.671 30.8289Z" fill="#172866"/>
<path d="M181.544 31.4097C181.667 31.0404 181.976 30.6943 182.381 30.5981C183.101 30.4289 183.488 31.5712 183.977 31.5866C183.618 31.7635 183.084 31.0827 182.708 30.8981C182.504 30.7943 182.314 30.852 182.106 30.9481C181.899 31.0481 181.713 31.2135 181.544 31.4097Z" fill="#172866"/>
<path d="M182.845 31.1366C182.834 31.375 182.673 31.5558 182.483 31.5481C182.293 31.5404 182.145 31.3404 182.156 31.102C182.166 30.8635 182.328 30.6828 182.521 30.6905C182.708 30.702 182.855 30.8981 182.845 31.1366Z" fill="#172866"/>
<path d="M180.212 29.3482C180.289 29.2943 179.667 28.6097 178.921 28.5328C178.176 28.4559 177.371 29.3482 177.371 29.3482C177.371 29.3482 178.468 28.6328 178.932 28.8636C179.396 29.0943 179.783 29.6559 180.212 29.3482Z" fill="#172866"/>
<path d="M181.242 35.5288C181.323 35.5172 181.301 35.3826 181.224 35.398C181.214 35.398 179.987 35.5788 178.967 34.7019C178.904 34.648 178.83 34.7519 178.893 34.8057C179.586 35.4018 180.567 35.6403 181.242 35.5288Z" fill="#172866"/>
<path d="M180.327 35.9595C180.359 35.9595 180.387 35.9326 180.387 35.898C180.398 35.7326 179.494 35.8518 179.16 35.2518C179.118 35.1788 179.016 35.248 179.058 35.3211C179.368 35.8749 180.285 35.9595 180.324 35.9595C180.324 35.9595 180.324 35.9595 180.327 35.9595Z" fill="#172866"/>
<path d="M181.322 22.3022C183.323 22.7868 183.924 26.1483 185.559 27.9367C187.194 29.7251 186.779 32.3096 185.999 34.0134C185.222 35.7172 183.97 34.6096 183.97 34.6096C183.97 34.6096 184.62 35.0057 185.035 33.5865C185.45 32.1673 184.722 31.0597 182.518 30.2635C180.313 29.4674 178.207 24.4445 178.207 24.4445C178.158 23.4637 179.322 21.8215 181.322 22.3022Z" fill="#00005A"/>
<path d="M183.974 34.6134C184.733 35.098 185.802 33.0673 185.021 31.7404C184.455 30.7135 183.211 30.2828 182.219 29.8328C180.644 28.8443 179.132 26.1136 178.214 24.4483C178.879 26.4367 180.289 29.1982 181.987 30.2981L182.395 30.4905C182.813 30.6751 184.093 31.052 184.712 31.9635C185.211 32.6789 184.972 33.7865 184.642 34.3134C184.501 34.5403 184.241 34.7172 183.974 34.6134Z" fill="#003135"/>
<path d="M174.551 41.394C174.551 41.394 173.183 40.9171 173.183 42.4709C173.183 44.0247 175.532 45.5323 175.251 45.5323C174.969 45.5323 173.658 45.5093 173.964 46.5862C174.27 47.6631 176.629 48.4438 176.629 48.4438C176.629 48.4438 177.983 46.4169 177.744 45.4631C177.504 44.5054 176.756 45.1285 176.756 45.1285C176.756 45.1285 177.947 43.1132 177.378 42.1978C176.798 41.2748 174.551 41.394 174.551 41.394Z" fill="#000044"/>
<path d="M180.039 53.1244C180.039 53.1244 178.633 50.6399 176.625 48.4438C176.625 48.4438 175.342 51.2591 176.295 54.559C177.248 57.8589 176.657 60.0127 176.657 60.0127C176.657 60.0127 178.724 58.9704 178.724 56.8205C178.724 56.8205 179.273 58.432 179.048 59.8319C179.048 59.8281 180.961 55.4551 180.039 53.1244Z" fill="#000044"/>
<path d="M292.926 50.9336C292.926 50.9336 288.706 45.425 288.065 46.126C287.425 46.8269 288.831 49.8804 289.713 50.2976C290.597 50.7113 292.926 50.9336 292.926 50.9336Z" fill="#7C3B01"/>
<path d="M291.213 19.8995C291.219 19.8961 290.825 13.3685 290.231 12.965C289.619 12.5513 290.081 14.2268 290.06 14.8731C290.041 15.5193 289.985 16.7947 289.781 15.6663C289.578 14.538 288.29 10.9134 287.865 10.7391C287.118 10.4313 288.991 14.6234 289 16.1006C289 16.1006 287.612 12.7496 287.162 11.3306C287.162 11.3306 286.834 10.168 286.368 10.4279C285.902 10.6878 286.705 11.8982 286.893 12.7325C287.081 13.5669 287.968 15.7347 288.09 16.0322C288.212 16.3263 287.706 15.7313 287.252 14.6234C286.796 13.5156 286.071 11.7409 285.73 12.1136C285.389 12.4863 286.734 15.0679 287.237 16.2989C287.743 17.5299 287.909 17.9026 287.549 17.7556C287.19 17.6085 286.846 17.2427 286.468 16.6374C286.09 16.0322 285.424 16.5554 285.952 17.4718C286.484 18.3882 287.993 19.5952 288.556 20.132C288.647 20.2175 289.631 21.2878 289.697 21.3869C289.759 21.4998 289.831 21.6502 289.913 21.8315C291.06 24.4199 293.904 33.4641 292.501 38.0563C291.719 40.6037 289.256 45.0591 287.424 47.904C288.787 48.9675 290.475 50.7489 292.47 50.7489C295.652 45.2096 298.303 40.019 298.143 38.6376C297.865 36.2201 293.933 24.7653 291.213 19.8995Z" fill="#FFBE9D"/>
<path d="M288.065 46.126C286.161 49.0803 284.22 52.1782 281.904 53.8332C278.837 56.025 278.559 57.4919 278.315 57.9159C280.894 60.6445 280.751 68.8612 283.17 65.5821C284.952 63.1646 289.478 56.938 292.926 50.9336C291.497 49.4906 289.231 48.3827 288.065 46.126Z" fill="#F27F1B"/>
<path d="M270.423 175.005C270.423 175.005 269.275 179.943 269.275 180.965C269.275 181.987 271.201 184.2 272.601 184.2C274.002 184.2 273.614 174.324 273.614 174.324L270.423 175.005Z" fill="#172866"/>
<path d="M286.531 175.005V177.132C286.531 177.132 285.44 179.772 285.44 180.623C285.44 181.474 285.44 182.664 285.44 182.664H294.702H299.45C299.45 182.664 296.149 179.772 293.364 178.835C290.579 177.898 290.891 175.005 290.891 175.005H286.531Z" fill="#172866"/>
<path d="M270.535 46.6799C270.535 46.6799 267.069 47.6442 266.103 49.5522C265.14 51.4602 264.327 53.3921 266.84 55.2352C269.354 57.0816 268.069 58.6169 268.069 58.6169C268.069 58.6169 269.326 58.634 270.063 56.7362C270.801 54.8385 270.173 53.6827 270.173 53.6827L271.054 55.1804C271.054 55.1804 271.904 48.8649 271.904 47.9417C271.908 47.0219 270.535 46.6799 270.535 46.6799Z" fill="#18287D"/>
<path d="M259.892 73.6073C259.833 73.8946 259.314 76.5651 259.198 76.6916C258.032 77.967 254.118 73.8672 254.118 73.8672L254.934 79.8682C254.934 79.8682 257.97 84.5937 260.189 84.5937C261.433 84.5937 262.855 81.1949 263.543 77.437C262.415 76.1377 261.158 74.8246 259.892 73.6073Z" fill="#FFBE9D"/>
<path d="M259.892 73.6073C259.86 73.7578 259.71 74.5374 259.551 75.2794L263.111 79.3861C263.274 78.7603 263.421 78.1038 263.543 77.437C262.414 76.1377 261.158 74.8246 259.892 73.6073Z" fill="#ED5A5A"/>
<path d="M262.699 54.777L265.324 86.8916C265.324 86.8916 274.896 91.2342 281.786 87.6575L282.836 61.0959L281.904 53.8298C281.904 53.8298 281.745 53.9153 280.082 53.7614C278.347 53.6007 275.903 55.1565 273.352 55.1463C271.295 55.136 269.269 53.3066 266.844 53.7546C265.5 54.0042 264.115 54.3359 262.699 54.777Z" fill="#F2913D"/>
<path d="M265.324 86.8916C265.324 86.8916 260.654 100.172 261.705 107.835C262.755 115.498 265.44 139.505 265.44 139.505L269.119 176.178L274.427 176.284L275.343 142.336L276.997 107.452L274.662 86.8916H265.324Z" fill="#F2A71B"/>
<path d="M281.629 86.7787L284.671 104.132L287.972 132.991L293.364 176.065L285.752 175.771L279.528 142.059V137.802L271.589 108.177L272.53 86.8881L281.629 86.7787Z" fill="#F2913D"/>
<path d="M293.364 176.065C285.33 124.946 287.256 123.845 281.182 87.7019C282.051 70.9163 281.717 77.0062 282.651 61.0891V61.1267C282.386 58.6989 282.139 56.2678 281.901 53.8332C282.598 58.2271 283.008 61.0207 283.017 61.0856C282.861 67.6816 283.392 45.7088 282.379 87.6882L282.37 87.5378C285.124 102.716 284.821 97.3377 291.048 153.873C291.457 157.57 291.863 161.266 292.238 164.966C292.623 168.662 293.017 172.358 293.364 176.065Z" fill="#FFDA88"/>
<path d="M274.211 59.9265L271.717 106.915C271.714 106.97 271.673 107.011 271.623 107.008C271.573 107.004 271.536 106.96 271.539 106.905L273.733 59.8992C273.739 59.7521 273.852 59.6427 273.986 59.6495C274.115 59.6564 274.218 59.7795 274.211 59.9265Z" fill="#8C251C"/>
<path d="M263.655 78.5483C264.192 75.6111 264.061 71.4531 263.852 68.8818C263.373 63.021 263.677 54.4897 263.677 54.4897C263.677 54.4897 260.901 54.5923 259.5 59.0101C258.238 62.9868 259.807 71.6617 259.278 74.281C260.544 75.4948 262.526 77.249 263.655 78.5483Z" fill="#F27F1B"/>
<path d="M251.899 71.0565V182.664H256.335V71.0565H251.899ZM253.962 73.8433C253.728 73.8433 253.537 73.6347 253.537 73.3783C253.537 73.1218 253.728 72.9132 253.962 72.9132C254.196 72.9132 254.387 73.1218 254.387 73.3783C254.384 73.6347 254.193 73.8433 253.962 73.8433Z" fill="#FBB03B"/>
<path d="M256.335 71.0565H251.899V72.1234H256.335V71.0565Z" fill="#6F81A6"/>
<path d="M251.083 73.2722C251.083 73.2722 253.027 74.2502 253.455 75.1016C253.883 75.953 252.267 75.8676 252.267 75.8676C252.267 75.8676 254.409 77.2079 253.805 77.8679C253.202 78.5278 252.677 78.1654 252.677 78.1654C252.677 78.1654 254.293 78.9518 253.69 79.6117C253.086 80.2717 252.499 79.7827 252.499 79.7827C252.499 79.7827 253.127 80.2306 252.833 80.5486C252.542 80.8666 251.82 81.1026 251.083 80.8051C250.345 80.5076 250.111 79.4852 249.839 78.2953C249.563 77.1019 249.72 73.5253 251.083 73.2722Z" fill="#FFBE9D"/>
<path d="M256.556 73.8433C256.556 73.8433 254.896 75.6555 255.09 76.4215C255.284 77.1874 256.997 76.165 257.347 75.4435C257.697 74.7186 256.556 73.8433 256.556 73.8433Z" fill="#FFBE9D"/>
<path d="M278.047 52.0928H269.276L270.957 54.4145L276.622 54.6881L278.047 52.0928Z" fill="#42617C"/>
<path d="M275.565 29.6105C273.517 29.1181 270.882 29.8499 269.885 31.6211C269.482 32.3392 269.319 33.2282 269.188 34.0454C268.9 35.8201 268.838 37.6426 268.844 39.4412C268.844 39.6908 268.847 39.937 268.854 40.1866C268.854 40.1866 278.95 40.8294 278.956 40.8294C279.016 40.8328 279.113 38.4769 279.116 38.3401C279.157 36.6886 279.094 34.9994 278.725 33.3923C278.484 32.346 278.094 31.2347 277.328 30.5132C276.859 30.0721 276.246 29.7746 275.565 29.6105Z" fill="#F27F3D"/>
<path d="M277.928 32.7939C276.09 31.6382 273.086 30.7184 270.401 32.3323C267.716 33.9462 268.079 41.633 268.572 43.3768C269.135 45.3635 270.113 46.1602 270.479 46.2252L277.609 46.3141C280.773 45.3669 281.017 34.7361 277.928 32.7939Z" fill="#451F0A"/>
<path d="M279.429 44.0778C280.235 41.6261 280.407 38.6376 279.547 35.3345C279.25 34.5549 278.935 33.5393 278.072 32.9102C275.768 31.2928 272.58 30.9817 270.42 33.0504C269.673 33.765 269.326 34.1548 268.844 35.567C268.035 38.2751 268.2 41.8484 268.572 43.3768C267.613 41.0687 267.406 33.6795 270.326 31.1766C272.248 29.5284 276.737 30.0584 278.472 31.5595C281.179 33.7 281.188 40.8226 279.429 44.0778Z" fill="#F2B90C"/>
<path d="M270.573 41.291C270.829 42.4126 270.551 43.4555 269.95 43.6196C269.35 43.7837 268.656 43.0075 268.4 41.886C268.144 40.7644 268.422 39.7215 269.022 39.5574C269.619 39.3933 270.313 40.1695 270.573 41.291Z" fill="#FFBE9D"/>
<path d="M269.86 41.0038C269.798 40.9422 269.235 39.8139 268.854 40.1866C268.472 40.5593 268.763 43.3187 269.288 42.8058C269.813 42.2895 269.86 41.0038 269.86 41.0038Z" fill="#FFBE9D"/>
<path d="M280.066 42.1253C279.747 43.2811 278.994 44.0504 278.378 43.8487C277.765 43.6469 277.525 42.5459 277.844 41.3902C278.162 40.2344 278.916 39.4651 279.532 39.6668C280.144 39.872 280.385 40.9696 280.066 42.1253Z" fill="#FFBE9D"/>
<path d="M278.472 41.3218C278.472 41.3218 278.778 40.2515 279.347 40.4977C279.916 40.7439 279.4 42.84 278.91 43.0383C278.419 43.2366 278.109 42.0057 278.472 41.3218Z" fill="#FFBE9D"/>
<path d="M271.373 47.398L271.023 56.0387L273.949 60.33L276.312 57.1158L276.875 46.3175L271.373 47.398Z" fill="#FFBE9D"/>
<path d="M276.875 46.3175L271.373 47.398L271.382 48.2528C271.382 49.4223 272.986 51.0704 273.811 51.173C275.249 51.3508 276.406 49.4701 276.793 47.822L276.875 46.3175Z" fill="#FFBE9D"/>
<path d="M270.104 35.208C269.46 36.309 269.469 38.4495 269.397 40.378C269.3 43.0041 270.385 49.2239 273.298 49.5317C276.215 49.8394 277.737 46.7209 278.394 44.2522C279.053 41.7834 279.034 36.6749 277.481 34.9755C275.934 33.2795 271.395 32.9991 270.104 35.208Z" fill="#FFBE9D"/>
<path d="M269.86 35.208C269.357 36.0731 269.269 38.1144 269.394 39.5711C270.107 37.3314 273.877 33.936 274.23 33.6522C272.567 33.5154 270.579 33.9736 269.86 35.208Z" fill="#18287D"/>
<path d="M278.81 39.8207C278.71 38.2786 279.104 36.2509 277.637 34.8113C276.925 34.1138 275.527 33.7616 274.23 33.6488C274.812 35.4302 277.409 38.7949 278.81 39.8207Z" fill="#2F499F"/>
<path d="M276.481 44.6078C274.946 47.1107 272.061 45.8319 272.055 45.5344L276.481 44.6078Z" fill="white"/>
<path d="M273.442 43.0007C273.599 42.6827 273.899 42.2416 274.224 42.1766C274.552 42.2074 274.855 42.6793 275.002 42.9973C274.224 42.1082 274.239 42.1356 273.442 43.0007Z" fill="#662D91"/>
<path d="M275.296 38.576C275.296 38.576 276.165 38.1897 276.493 38.1897C276.821 38.1897 278.022 39.065 278.022 39.065C278.022 39.065 276.915 38.3196 276.399 38.4735C275.884 38.6273 275.505 39.1676 275.296 38.9351C275.083 38.706 275.296 38.576 275.296 38.576Z" fill="#662D91"/>
<path d="M273.002 38.576C273.002 38.576 272.133 38.1897 271.801 38.1897C271.473 38.1897 270.273 39.065 270.273 39.065C270.273 39.065 271.379 38.3196 271.895 38.4735C272.414 38.6273 272.789 39.1676 273.002 38.9351C273.214 38.706 273.002 38.576 273.002 38.576Z" fill="#662D91"/>
<path d="M271.382 42.5904C271.995 42.5904 272.492 42.2888 272.492 41.9168C272.492 41.5447 271.995 41.2431 271.382 41.2431C270.77 41.2431 270.273 41.5447 270.273 41.9168C270.273 42.2888 270.77 42.5904 271.382 42.5904Z" fill="#FD5E5A"/>
<path d="M278.275 41.9851C278.275 42.3202 277.769 42.5904 277.147 42.5904C276.521 42.5904 276.018 42.3202 276.018 41.9851C276.018 41.6501 276.524 41.3799 277.147 41.3799C277.772 41.3765 278.275 41.6501 278.275 41.9851Z" fill="#FD5E5A"/>
<path d="M276.575 40.1968C276.575 40.443 276.406 40.6448 276.196 40.6448C275.987 40.6448 275.818 40.443 275.818 40.1968C275.818 39.9506 275.987 39.7489 276.196 39.7489C276.406 39.7489 276.575 39.9472 276.575 40.1968Z" fill="#662D91"/>
<path d="M275.284 40.3541C276.347 38.2957 277.441 41.0585 278.153 40.2276C278.028 40.5285 277.65 40.6208 277.356 40.4977C276.397 40.1045 276.484 39.3659 275.284 40.3541Z" fill="#0C143F"/>
<path d="M271.87 40.0601C271.857 40.3062 272.017 40.5182 272.226 40.5285C272.436 40.5422 272.614 40.3507 272.626 40.1011C272.639 39.8549 272.479 39.6429 272.27 39.6326C272.064 39.619 271.882 39.8104 271.87 40.0601Z" fill="#662D91"/>
<path d="M273.155 40.2926C272.195 38.176 270.967 40.8705 270.294 39.9985C270.404 40.3063 270.776 40.4225 271.076 40.3165C272.051 39.9746 272.001 39.2326 273.155 40.2926Z" fill="#0C143F"/>
<path d="M269.276 52.0928L270.957 53.5631L273.949 60.33L266.841 53.758L269.276 52.0928Z" fill="#99CFFF"/>
<path d="M278.047 52.0928L276.84 53.3169L273.949 60.33L280.079 53.7648L278.047 52.0928Z" fill="#99CFFF"/>
<path d="M268.125 54.011L270.957 53.5631L269.276 52.0928L267.069 52.3834L268.125 54.011Z" fill="#BBDFFF"/>
<path d="M278.444 53.5015L276.841 53.3169L278.047 52.0928H279.645L278.444 53.5015Z" fill="#BBDFFF"/>
<path d="M264.033 93.72L269.616 95.8639L269.013 97.4881L263.543 94.8518L264.033 93.72Z" fill="#F2913D"/>
<path d="M276.793 96.9376L281.607 93.1763L282.476 94.6501L277.359 98.0318L276.793 96.9376Z" fill="#C46818"/>
<defs>
<linearGradient id="paint0_linear_21_5064" x1="228.589" y1="-13.1527" x2="170.447" y2="172.433" gradientUnits="userSpaceOnUse">
<stop stop-color="#BDDFFF"/>
<stop offset="1" stop-color="#EAB0FF"/>
</linearGradient>
</defs>
</svg>
