<svg width="400" height="200" viewBox="0 0 400 200" fill="none" xmlns="http://www.w3.org/2000/svg">
<path d="M364 190C364 193.312 295.498 196 211 196C126.502 196 58 193.312 58 190C58 186.688 126.502 184 211 184C295.498 184 364 186.688 364 190Z" fill="#54688B"/>
<path d="M315.896 120.118C316.76 120.481 317.274 120.767 317.274 120.767C317.274 120.767 315.604 117.895 312.926 114.965C310.248 112.035 310.614 111.511 307.343 112.126C304.071 112.742 302.379 111.138 301.698 111.138C301.358 111.138 300.935 112.737 300.39 114.245C299.26 114.693 298.074 115.299 297.145 115.895C296.386 115.037 295.836 113.977 294.589 113.977C293.415 113.977 293.193 116.478 292.53 118.501C291.767 118.949 290.872 119.56 290.039 120.199C290.026 118.353 291.989 113.853 291.989 113.853C291.989 113.853 284.993 116.32 284.993 117.68C284.993 119.04 289.621 121.382 287.588 121.382C285.555 121.382 283.3 117.804 283.3 117.804C283.3 117.804 279.658 119.903 280.352 122.251C281.045 124.598 278.795 125.443 278.053 126.249C278.053 126.249 278.053 126.254 278.049 126.254C276.335 126.922 274.154 128.258 273.216 129.284C271.637 131.011 276.112 141.178 274.948 142.452C273.783 143.726 271.41 132.576 271.41 131.507C271.41 130.891 270.904 130.839 270.25 131.33C272.147 119.86 275.083 109.95 279.658 104.926C281.455 102.879 283.636 101.648 285.276 100.575C285.298 100.561 285.32 100.546 285.342 100.532C285.006 101.128 284.709 102.188 284.709 104.096C284.709 108.6 295.313 110.094 293.738 108.371C292.164 106.649 290.41 101.319 291.256 101.319C292.103 101.319 293.511 106.935 295.771 108.109C298.026 109.282 300.682 106.133 300.682 106.133C300.682 106.133 293.599 100.298 294.305 99.5301C295.012 98.7571 301.136 106.568 302.828 107.307C304.521 108.047 307.626 104.468 307.626 104.468C307.626 104.468 295.945 97.6168 296.272 96.4431C296.6 95.2693 307.116 103.729 308.756 103.171C310.392 102.617 311.805 99.0338 311.805 99.0338C311.805 99.0338 299.954 94.6491 300.407 93.6042C300.861 92.5545 310.339 98.2323 311.696 97.9269C313.052 97.6168 312.372 93.3608 312.372 92.6165C312.372 91.877 305.066 90.7939 304.359 90.0257C303.653 89.2528 311.526 91.4476 312.088 91.4476C312.651 91.4476 313.275 90.708 312.708 89.2862C312.145 87.8644 311.635 83.1742 311.635 83.1742C310.959 83.1742 307.966 80.5835 307.46 80.0252C306.95 79.4718 305.035 84.41 304.298 84.41C303.565 84.41 306.444 79.968 306.444 78.9183C306.444 77.8686 304.638 76.943 303.173 76.943C301.707 76.943 299.448 87.6592 298.772 87.6592C298.096 87.6592 301.14 76.6949 300.691 76.1987C300.237 75.7072 298.942 74.9629 296.233 75.3971C293.524 75.8313 295.047 88.3606 294.087 89.4102C293.128 90.4599 294.087 76.1367 294.087 75.7693C294.087 75.3971 290.702 76.3848 289.516 77.6825C288.33 78.9803 290.362 91.0754 289.516 92.001C288.67 92.9267 287.994 80.4594 287.994 79.1616C287.994 77.8639 286.921 77.7398 283.872 81.9385C283.03 83.0979 282.882 84.367 283.095 85.6076C278.298 87.9264 279.253 96.3286 281.333 98.6044C282.389 99.7591 283.662 100.045 284.661 100.045C280.068 103.008 277.255 105.027 274.128 112.861C274.123 110.208 273.857 104.459 272.549 103.027C271.231 101.586 274.128 102.369 274.128 100.885C274.128 99.406 273.975 93.7235 273.373 93.065C272.771 92.4066 271.192 97.5929 270.211 96.5242C269.234 95.4554 272.994 92.2444 272.994 91.834C272.994 91.4237 270.813 83.6848 270.285 83.6848C269.757 83.6848 270.137 87.058 268.632 87.8835C267.127 88.7041 269.461 83.1074 269.461 81.3803C269.461 79.6531 267.916 79.2809 266.15 77.3486C264.383 75.4162 262.39 72 262.39 72C262.39 72 263.895 77.7637 266.228 82.6971C268.427 87.3539 269.02 104.659 269.081 106.625C269.042 106.677 269.011 106.739 269.011 106.811C268.88 116.955 268.758 125.791 268.641 133.497C268.536 133.831 268.536 134.298 268.619 134.866C268.614 135.023 268.614 135.181 268.61 135.343C268.444 136.564 268.283 137.824 268.135 139.107C267.624 137.438 267.288 136.197 267.288 136.197C267.288 136.197 266.996 136.536 266.586 137.094C266.355 135.605 265.858 134.451 265.025 134.098C265.025 134.098 264.615 134.551 264.017 135.176C263.751 125.443 263.302 116.735 262.56 111.544C262.386 110.523 262.237 109.511 261.845 108.405C262.39 108.395 263.11 108.218 264.069 107.727C267.245 106.1 263.489 94.3437 262.988 96.6291C262.486 98.9146 259.529 102.698 259.145 101.801C258.761 100.904 262.08 97.383 261.884 94.5727C261.688 91.7625 258.268 90.0925 258.268 90.0925C258.268 90.0925 257.37 99.6923 256.506 99.2247C255.642 98.7571 258.369 89.458 258.124 87.4016C257.88 85.3452 253.95 83.3508 253.95 83.3508C253.95 83.3508 254.417 98.1846 253.444 98.2609C252.467 98.3372 253.662 84.1571 252.528 82.6255C251.394 81.094 248.236 80.8936 248.236 80.8936C248.236 80.8936 250.517 95.0165 249.575 94.9163C248.633 94.8161 248.336 82.7353 247.503 81.4137C246.67 80.092 243.979 82.344 243.456 82.6112C242.932 82.8784 245.484 90.9991 245.261 92.0249C245.039 93.0507 243.015 83.9281 242.758 83.3317C242.5 82.7353 241.698 82.3441 240.956 83.4558C240.21 84.5675 237.135 86.7956 237.135 86.7956C237.441 87.5113 236.97 91.6146 236.808 92.3493C236.647 93.0889 240.996 93.337 241.327 94.1099C241.658 94.8876 237.223 93.4467 236.485 93.8236C235.744 94.2006 235.914 96.4478 236.577 97.9985C237.24 99.5491 245.815 98.0701 246.121 98.7857C246.426 99.5014 237.323 100.236 237.179 100.89C237.035 101.548 237.1 103.185 238.636 105.895C240.167 108.605 248.306 102.469 249.479 103.104C250.652 103.738 240.132 107.894 239.87 108.028C239.608 108.161 241.837 111.387 243.29 112.174C244.738 112.961 252.341 106.444 253.379 107.002C254.417 107.565 245.937 112.78 245.026 113.247C244.114 113.715 244.511 114.893 248.851 116.606C250.046 117.079 251.01 116.778 251.787 116.105C255.437 120.175 260.628 116.621 261.635 113.658C262.137 118.171 262.473 124.498 262.691 131.602C261.762 129.861 259.86 127.895 258.94 128.902C257.697 130.262 256.401 136.125 254.988 134.58C253.579 133.038 258.486 129.026 257.924 126.678C257.361 124.331 255.45 122.313 254.735 123.1C254.015 123.887 254.203 131.865 253.3 130.877C252.397 129.889 254.639 121.941 253.976 121.215C253.313 120.49 249.95 117.05 248.707 118.405C247.464 119.765 250.173 127.089 249.457 126.306C248.742 125.524 246.975 117.336 245.998 116.268C245.021 115.199 243.473 116.54 242.535 115.518C242.535 115.518 242.348 117.794 241.859 118.329C241.371 118.863 246.6 123.677 245.92 123.677C245.244 123.677 240.956 119.316 240.956 119.316C240.956 119.316 241.296 123.968 242.234 124.994C243.176 126.025 248.179 126.888 248.179 127.795C248.179 128.701 241.711 126.64 241.711 126.64C241.711 126.64 242.989 131.989 245.248 132.647C247.503 133.306 251.041 132.809 251.041 133.716C251.041 134.623 246.6 134.045 246.6 134.045C246.6 134.045 247.656 140.63 250.587 140.63C253.523 140.63 253.854 140.052 253.854 141.207C253.854 142.361 251.564 140.381 251.564 142.443C251.564 144.504 253.693 148.626 254.801 147.414C255.394 146.765 255.795 145.821 256.039 145.081C257.583 151.398 259.472 160.592 260.75 171.652H261.662C260.34 160.149 258.351 150.649 256.772 144.256C257.762 144.924 260.327 146.57 262.399 147.18C262.268 148.473 262.364 151.079 263.044 153.407C263.079 159.901 263.066 166.199 263.031 171.652H264.366C264.383 166.991 264.383 161.709 264.348 156.203C264.75 156.752 265.221 157.205 265.788 157.501C266.023 157.625 266.255 157.725 266.486 157.811C266.176 162.572 265.936 167.267 265.762 171.652H266.974C267.092 167.41 267.262 162.83 267.528 158.092C267.772 158.135 268.012 158.164 268.244 158.173C268.143 163.703 268.056 168.117 267.986 171.652H268.876C268.92 167.668 268.972 163.054 269.02 158.15C270.202 158.04 271.166 157.596 271.724 157.272C270.603 161.394 270.01 166.561 269.735 171.647H270.56C270.752 167.482 271.135 163.326 271.807 159.877C271.903 160.697 272.143 161.704 272.627 162.93C274.359 167.291 281.73 165.397 281.73 165.397C277.216 165.397 275.938 157.086 277.29 156.427C278.646 155.769 277.892 163.341 282.332 164.495C286.772 165.65 288.125 161.78 288.125 161.78C284.666 161.041 278.459 154.829 279.623 153.55C280.792 152.271 286.546 160.96 288.875 160.96C291.208 160.96 293.764 154.213 293.764 154.213C290.903 156.022 281.573 151.25 280.705 149.604C279.837 147.958 289.926 153.965 293.612 153.226C297.297 152.486 297.075 145.406 297.075 145.406C295.91 146.679 285.787 145.487 284.736 144.337C283.68 143.182 294.741 144.914 296.848 143.759C298.955 142.605 298.279 136.712 298.279 136.712C298.279 136.712 290.606 138.492 288.648 137.915C286.69 137.337 296.7 136.269 297.603 133.802C298.506 131.335 296.277 125.605 296.277 125.605C295.243 126.736 291.989 125.8 290.637 125.633C294.323 123.701 298.623 121.478 300.473 120.633C303.565 119.23 311.94 118.82 315.896 120.118ZM253.405 114.645C253.178 114.698 252.99 114.784 252.82 114.87C254.107 112.856 254.678 110.06 255.023 110.246C255.607 110.566 254.748 114.321 253.405 114.645ZM262.804 136.383C261.26 137.862 259.385 139.408 258.813 138.788C257.98 137.876 261.465 135.806 262.752 134.207C262.77 134.928 262.787 135.653 262.804 136.383ZM267.101 149.385C267.053 149.967 267.005 150.544 266.957 151.126C266.159 151.012 265.134 149.557 264.261 148.292C264.257 147.977 264.253 147.662 264.248 147.352C264.318 147.333 264.392 147.328 264.453 147.304C264.68 147.219 264.894 147.023 265.094 146.751C265.81 147.815 266.582 148.693 267.101 149.385ZM283.588 88.2318C283.636 87.9407 283.645 87.6831 283.645 87.4397C284.692 89.9399 286.633 92.001 286.354 92.3064C285.874 92.8312 283.305 89.9637 283.588 88.2318ZM269.269 130.977C269.365 118.982 269.408 109.158 269.321 106.988C270.189 108.018 269.644 113.271 270.97 114.717C271.737 115.557 272.588 115.724 273.212 115.304C272.928 116.096 272.645 116.936 272.352 117.833C272.117 118.634 270.852 122.809 270.368 125.223C269.971 126.965 269.604 128.907 269.269 130.977ZM272.243 147.882C271.454 148.254 270.211 145.32 269.168 142.299C269.181 141.092 269.19 139.885 269.203 138.692C269.247 138.339 269.295 137.986 269.338 137.633C270.712 141.827 273.325 147.376 272.243 147.882ZM281.124 137.843C279.165 137.843 280.195 130.934 280.404 127.685C280.845 127.843 281.303 127.991 281.748 128.134C281.739 131.626 282.895 137.843 281.124 137.843ZM289.839 126.058C289.058 127.499 288.474 132.065 287.143 132.413C285.948 132.724 287.462 128.816 288.273 126.884C288.766 126.621 289.289 126.344 289.839 126.058Z" fill="#43616A"/>
<path d="M276.409 186.185H256.109C251.159 184.592 247.896 181.867 247.896 178.776C247.896 175.865 250.784 173.284 255.241 171.662H277.281C281.743 173.284 284.627 175.865 284.627 178.776C284.622 181.867 281.36 184.592 276.409 186.185Z" fill="#263238"/>
<path d="M211.389 106.603L197.361 104.341L203.237 182.942H172.002C169.507 182.942 167.483 185.156 167.483 187.885H214.638L211.389 106.603Z" fill="#4E556B"/>
<path d="M197.362 104.341C198.147 122.262 200.485 153.265 202.618 182.327C201.972 182.341 184.01 182.499 171.998 182.942C184.359 183.4 203.11 183.558 203.848 183.572C203.848 183.529 200.607 134.958 197.362 104.341Z" fill="#E3E4FF"/>
<path d="M152.978 28.1544L151.484 28.3025L152.511 40.6996L154.005 40.5516L152.978 28.1544Z" fill="#381A3F"/>
<path d="M194.347 22.7623L197.296 51.9718L203.638 53.3412L202.133 24.938L194.347 22.7623Z" fill="#84608D"/>
<path d="M193.266 24.1364L194.348 22.7623L197.296 51.9718H196.415L193.266 24.1364Z" fill="#6E1D6B"/>
<path d="M152.003 35.7544L244.085 51.9718L252.686 127.768L159.087 122.896L152.003 35.7544Z" fill="#D5B3DB"/>
<path d="M150.333 37.2573L152.003 35.7544L159.087 122.896L156.33 123.326L150.333 37.2573Z" fill="#E3E4FF"/>
<path d="M254.143 122.682L156.727 116.603V124.027L255.111 129.485L254.143 122.682Z" fill="#F3D7F9"/>
<path d="M155.122 118.144L156.727 116.603V124.027L155.248 126.875L155.122 118.144Z" fill="#E3E4FF"/>
<path d="M255.112 129.485L252.577 131.513L155.249 126.875L156.727 124.027L255.112 129.485Z" fill="#E0750A"/>
<path d="M226.176 37.2859C226.176 37.2525 225.831 33.3353 219.445 30.2531C212.933 27.1136 199.939 35.0148 199.809 35.0912L199.229 33.9651C199.782 33.6264 212.868 25.668 219.916 29.0699C227.026 32.5004 227.34 37.0187 227.349 37.2096L226.176 37.2859Z" fill="#653870"/>
<path d="M226.79 42.9876C227.75 42.0238 227.811 40.3872 226.93 39.3376L225.857 38.0589C224.976 37.0092 223.48 36.9424 222.52 37.9062C222.25 38.1782 221.831 38.1591 221.583 37.8633L221.556 37.8346C220.92 37.0808 219.847 37.0331 219.157 37.7249L217.421 39.4712L224.911 48.3791L226.647 46.6328C227.336 45.9362 227.379 44.7625 226.747 44.0086C226.507 43.7176 226.524 43.2595 226.79 42.9876Z" fill="#93278F"/>
<path d="M226.93 39.3376C225.752 38.2736 225.552 37.7965 224.732 37.577C224.021 37.3909 223.336 37.6104 222.926 37.9539C222.795 38.0398 222.359 38.6505 221.696 38.3308C221.369 38.1734 221.303 37.8776 220.841 37.6533C219.716 37.0951 219.297 38.0493 217.426 39.4712C217.967 38.7507 218.769 37.8489 218.87 37.7344C219.524 36.9472 220.305 36.7802 221.055 37.0855C221.535 37.2812 221.779 37.639 221.844 37.6867C221.971 37.8012 222.176 37.7965 222.307 37.6867C223.641 36.4844 225.238 36.8279 226.075 38.078C226.363 38.4978 226.66 38.9082 226.93 39.3376Z" fill="#E3E4FF"/>
<path d="M227.183 39.6334L225.687 37.8537L227.262 36.2697C227.593 35.9357 228.103 35.9595 228.409 36.3222L228.81 36.7993C229.115 37.1619 229.094 37.7201 228.762 38.0541L227.183 39.6334Z" fill="#93278F"/>
<path d="M215.633 120.282L166.484 117.214L166.803 111.612L215.341 114.933L215.633 120.282Z" fill="#464A7F"/>
<path d="M166.859 116.188L162.013 116.698L155.122 45.2968L160.735 46.795L166.859 116.188Z" fill="#464A7F"/>
<path d="M153.035 15.7392L152.803 16.5196L199.718 33.2049L199.95 32.4244L153.035 15.7392Z" fill="#172866"/>
<path d="M151.384 29.6857L151.216 30.4854L200.208 42.8314L200.376 42.0317L151.384 29.6857Z" fill="#172866"/>
<path d="M147.575 22.635L145.778 22.8732L155.807 113.405L157.604 113.167L147.575 22.635Z" fill="#172866"/>
<path d="M157.613 21.2534L155.818 21.5092L166.568 111.761L168.363 111.505L157.613 21.2534Z" fill="#172866"/>
<path d="M173.559 114.618C173.886 119.952 170.087 124.576 165.071 124.943C160.055 125.315 155.72 121.288 155.392 115.959C155.065 110.625 158.864 106.001 163.885 105.634C168.897 105.262 173.232 109.284 173.559 114.618Z" fill="#381A3F"/>
<path d="M169.799 114.895C169.991 118.02 167.762 120.73 164.822 120.95C161.883 121.169 159.34 118.807 159.148 115.682C158.956 112.557 161.185 109.847 164.125 109.627C167.069 109.408 169.607 111.77 169.799 114.895Z" fill="#6E5175"/>
<path d="M201.675 37.2954C201.675 40.454 200.711 43.0162 199.52 43.0162C198.33 43.0162 197.366 40.454 197.366 37.2954C197.366 34.1369 198.33 31.5747 199.52 31.5747C200.711 31.5747 201.675 34.1369 201.675 37.2954Z" fill="#381A3F"/>
<path d="M158.201 23.3253C158.201 27.6051 155.253 31.069 151.615 31.069C147.977 31.069 145.024 27.6003 145.024 23.3253C145.024 19.0455 147.973 15.5768 151.615 15.5768C155.253 15.5816 158.201 19.0503 158.201 23.3253Z" fill="#381A3F"/>
<path d="M155.846 23.3253C155.846 26.0735 153.948 28.3064 151.611 28.3064C149.273 28.3064 147.375 26.0783 147.375 23.3253C147.375 20.577 149.273 18.3441 151.611 18.3441C153.953 18.3441 155.846 20.577 155.846 23.3253Z" fill="#6E5175"/>
<path d="M166.859 49.5528L172.285 105.768L241.948 111.784L236.853 59.1191L166.859 49.5528Z" fill="#FFF7CF"/>
<path d="M282.934 58.5266C282.934 58.5266 274.071 65.2683 275 66.2035C275.606 66.8142 278.638 72.43 280.034 73.7516C280.178 73.89 283.366 76.7145 283.597 76.7002C283.824 76.6907 286.192 80.5029 285.734 80.5267C285.276 80.5506 283.645 77.8692 283.645 77.8692C283.645 77.8692 285.355 81.4667 284.818 81.4905C284.286 81.5144 283.257 78.2032 283.021 78.4847C282.786 78.7662 284.936 82.4877 284.212 82.5211C283.488 82.5545 282.816 80.1212 282.546 80.4504C282.271 80.7749 282.153 81.0898 281.896 80.8321C281.778 80.7128 281.73 80.813 281.368 80.1117C280.941 79.2815 279.846 77.9646 279.157 77.2728C278.228 76.3424 271.127 68.5462 270.058 65.6739C268.99 62.8016 283.017 42.4761 286.746 40.2098C290.476 37.9339 283.362 58.0733 282.934 58.5266Z" fill="#FFBE9D"/>
<path d="M285.041 57.0189L277.068 66.1606L272.409 58.1926C272.409 58.1926 282.049 40.2718 287.287 40.0237C288.129 39.9808 285.041 57.0189 285.041 57.0189Z" fill="#F7931E"/>
<path d="M280.221 62.544C281.067 53.0635 282.625 45.086 284.692 41.1974C285.625 40.4913 286.895 39.6325 287.675 39.5943C288.513 39.5561 285.037 57.0189 285.037 57.0189L280.221 62.544Z" fill="#E27F1B"/>
<path d="M295.217 112.399C295.217 112.399 289.743 177.14 288.351 184.048L288.36 188.414L277.569 188.428C277.569 188.428 278.219 186.973 279.436 186.973C280.653 186.973 283.732 185.394 284.574 184.301C285.416 183.209 283.828 93.7479 283.828 93.7479L297.227 93.7336L295.217 112.399Z" fill="#0C0C0D"/>
<path d="M286.088 99.3064L287.985 109.693C287.985 109.693 303.12 165.941 302.51 185.604C302.51 185.604 301.253 187.937 296.8 189.321C296.56 189.397 296.115 190.857 296.115 190.857L307.962 190.294L307.295 186.339C307.295 186.339 306.762 119.441 306.745 111.65C306.727 103.858 304.826 93.7192 304.826 93.7192L285.32 93.7431L286.088 99.3064Z" fill="#33405A"/>
<path d="M281.909 79.5248C281.865 60.3683 284.421 41.3358 288.395 38.912C290.755 38.8023 291.344 38.7498 293.725 38.6639C297.276 38.5351 302.75 40.4149 305.724 50.9785C308.433 60.5877 307.692 89.8259 307.316 104.144C297.28 104.154 289.939 103.815 280.204 103.825C280.047 100.475 281.927 85.5461 281.909 79.5248Z" fill="#D24307"/>
<path d="M283.614 20.9817C283.614 20.9817 284.338 20.4378 284.84 20.4234L284.557 19.9416C284.557 19.9368 283.601 20.4187 283.614 20.9817Z" fill="#2F499F"/>
<path d="M287.266 32.5567L288.343 41.8368C288.565 43.7453 289.856 45.1051 291.309 44.9763C291.675 44.9429 292.059 44.8904 292.447 44.814C294.38 44.4323 296.151 42.5763 295.693 40.0476C295.104 36.8031 293.813 31.4212 293.76 28.5632C293.669 23.8874 287.205 30.1711 287.266 32.5567Z" fill="#FFBE9D"/>
<path d="M293.752 28.5679C293.664 23.8874 287.205 30.1711 287.266 32.5567L287.894 37.9816C288.557 37.8385 289.979 37.4902 291.261 36.8604C293.01 36.0015 293.062 33.5682 294.087 32.8477C294.14 32.8096 294.192 32.7666 294.249 32.7094C293.978 31.1349 293.773 29.6653 293.752 28.5679Z" fill="#FD5E5A"/>
<path d="M278.363 17.4128C280.317 18.6724 284.121 20.4616 285.468 18.4911C284.282 20.7336 280.09 19.4119 277.896 18.3813L278.363 17.4128Z" fill="#5C2C55"/>
<path d="M284.265 23.5534C284.265 23.5534 282.197 21.9168 282.59 23.3816C282.978 24.8464 284.094 27.9859 285.106 26.7167C286.118 25.4476 284.265 23.5534 284.265 23.5534Z" fill="#FD5E5A"/>
<path d="M288.652 14.8888C288.342 15.2419 284.835 15.0796 283.789 19.0445C282.746 23.0142 284.29 31.9698 286.58 34.3173C288.87 36.6647 291.378 35.0664 293.245 30.9345C295.112 26.8026 298.815 21.454 295.897 17.6656C294.353 15.657 288.652 14.8888 288.652 14.8888Z" fill="#FFBE9D"/>
<path d="M284.958 31.2685C284.958 31.2685 286.061 33.864 285.071 35.0091C284.081 36.1542 288.059 36.4405 289.381 36.0111C290.702 35.5817 292.416 35.1618 292.918 34.6847C293.987 33.6636 293.564 24.8941 292.866 27.0411C292.168 29.1882 290.484 32.9622 289.734 32.9813C288.988 33.0052 288.033 33.2438 287.269 33.2676C286.506 33.2962 284.958 31.2685 284.958 31.2685Z" fill="#5C2C55"/>
<path d="M288.155 16.6542C287.889 18.7344 286.07 21.6306 281.473 18.6676C276.876 15.7047 277.665 11.7446 277.665 11.7446C277.665 11.7446 280.038 14.9174 281.421 14.1827C282.803 13.4479 281.687 9.61658 281.687 9.61658C281.687 9.61658 286.768 9.04405 287.723 9.01542C288.679 8.98679 289.734 12.1978 289.734 12.1978C289.734 12.1978 289.045 10.7712 294.061 10.1319C299.077 9.49254 296.342 17.7563 296.988 20.5666C297.633 23.3768 294.345 28.4868 294.388 30.1425C294.432 31.7981 295.287 32.8096 295.287 32.8096C295.287 32.8096 294.214 33.1197 293.184 30.2522C292.155 27.3847 293.791 23.0572 293.734 20.8481C293.664 18.1667 292.482 17.241 291.431 16.4442C290.633 15.8478 288.417 14.5739 288.155 16.6542Z" fill="#5C2C55"/>
<path d="M293.328 23.7156C293.328 23.7156 292.146 27.3274 293.04 27.0173C293.934 26.7119 295.666 24.8178 295.208 22.2842C294.75 19.7555 293.328 23.7156 293.328 23.7156Z" fill="#FFBE9D"/>
<path d="M293.328 23.7156C293.328 23.7156 294.087 22.5562 294.357 22.9427C294.994 23.854 293.053 26.5688 293.036 25.8627C293.018 25.1565 293.328 23.7156 293.328 23.7156Z" fill="#FD5E5A"/>
<path d="M289.04 22.8949C289.053 23.4579 288.761 23.9207 288.382 23.935C288.002 23.9446 287.684 23.5009 287.671 22.9379C287.658 22.3749 287.95 21.912 288.329 21.8977C288.709 21.8834 289.027 22.3319 289.04 22.8949Z" fill="#2F499F"/>
<path d="M285.041 23.019C285.054 23.582 284.762 24.0448 284.382 24.0591C284.003 24.0687 283.684 23.625 283.671 23.062C283.658 22.499 283.95 22.0361 284.33 22.0218C284.705 22.0075 285.028 22.456 285.041 23.019Z" fill="#2F499F"/>
<path d="M288.264 19.4072L288.072 20.0656C288.072 20.0656 289.08 19.6648 289.795 20.5523C289.795 20.5523 289.097 19.2306 288.264 19.4072Z" fill="#2F499F"/>
<path d="M283.998 21.2059L281.852 21.2727C281.163 21.2918 280.618 21.9693 280.64 22.7757L280.683 24.522C280.705 25.3331 281.281 25.9724 281.974 25.9486L284.12 25.8817C284.809 25.8627 285.355 25.1851 285.333 24.3788L285.289 22.6325C285.267 21.8214 284.687 21.1821 283.998 21.2059ZM284.753 24.3979C284.766 24.8321 284.469 25.1947 284.098 25.209L281.952 25.2758C281.582 25.2853 281.268 24.9418 281.259 24.5076L281.215 22.7614C281.202 22.3272 281.499 21.9646 281.87 21.9503L284.016 21.8835C284.386 21.8739 284.7 22.2174 284.709 22.6516L284.753 24.3979Z" fill="#0F1D5B"/>
<path d="M290.541 20.9435L288.042 21.0199C287.235 21.0437 286.602 21.7356 286.624 22.5658L286.672 24.355C286.694 25.1852 287.361 25.834 288.168 25.8102L290.667 25.7338C291.474 25.71 292.107 25.0182 292.085 24.188L292.037 22.3988C292.015 21.5733 291.348 20.9197 290.541 20.9435ZM291.413 24.2118C291.426 24.6603 291.082 25.0325 290.65 25.0468L288.151 25.1231C287.719 25.1374 287.357 24.7844 287.344 24.3407L287.296 22.5514C287.283 22.1077 287.627 21.7308 288.059 21.7165L290.558 21.6401C290.99 21.6258 291.352 21.9789 291.365 22.4226L291.413 24.2118Z" fill="#0F1D5B"/>
<path d="M285.612 28.859C285.612 28.8208 284.618 26.0058 285.66 21.5065C285.713 21.2822 286.04 21.3633 285.987 21.5876C285.979 21.6258 285.084 25.5716 285.843 28.4439C286.825 28.253 287.187 27.9715 287.257 28.2626C287.326 28.5632 286.886 28.4773 285.612 28.859Z" fill="#2F499F"/>
<path d="M286.771 22.6784L285.036 22.732L285.052 23.3663L286.787 23.3128L286.771 22.6784Z" fill="#0F1D5B"/>
<path d="M285.682 6C287.191 6.01431 288.744 6.64411 289.485 8.00869C290.148 9.22535 290.052 10.3323 290.035 11.1863L289.891 12.2265L289.56 12.1787C289.56 11.902 289.642 11.0241 289.503 10.1891C289.145 7.97529 287.666 7.04012 285.712 7.24529L285.682 6Z" fill="#5C2C55"/>
<path d="M286.912 30.5433C286.934 31.1349 287.213 31.6025 287.531 31.5882C287.85 31.5739 288.089 31.0824 288.063 30.486C288.041 29.8944 287.762 29.4268 287.444 29.4411C287.13 29.4602 286.89 29.9516 286.912 30.5433Z" fill="#2F499F"/>
<path d="M299.024 40.1382C299.024 40.1382 315.102 39.1315 315.045 37.6428C314.984 36.1542 299.792 30.6768 298.737 30.2665C297.463 29.7703 297.463 29.7703 295.413 28.6204C295.413 28.6204 293.851 28.2626 293.123 27.9429C292.395 27.6232 293.049 27.0841 293.843 27.0459C294.636 27.0077 295.435 27.1652 295.792 27.1509C296.15 27.1318 295.443 25.3617 295.413 24.6603C295.387 23.9542 294.03 21.9025 292.883 21.955C291.732 22.0075 290.685 21.5876 290.951 21.3014C291.217 21.0151 295.566 21.3968 295.688 21.5065C295.81 21.6162 298.501 26.3541 299.613 27.3608C300.726 28.3675 322.936 30.0852 324.24 36.2496C325.544 42.4141 308.843 52.7486 305.545 52.3812C302.248 52.0138 295.757 40.5056 299.024 40.1382Z" fill="#FF8D8D"/>
<path d="M316.319 46.9897L312.136 38.7498C312.695 38.6448 313.192 38.5351 313.615 38.4253L318.164 45.5583C317.567 46.045 316.947 46.5269 316.319 46.9897Z" fill="#FD5E5A"/>
<path d="M313.174 37.724L319.171 48.6835C319.171 48.6835 307.752 52.5625 305.541 52.6675C303.329 52.7725 298.213 45.6872 297.855 42.7958C297.498 39.9044 297.903 39.5132 297.903 39.5132L313.174 37.724Z" fill="#FBB03B"/>
<path d="M297.345 40.9875C297.363 41.5075 297.415 42.0133 297.476 42.5191C297.677 44.8713 300.342 48.4497 301.991 50.0815C300.691 48.3018 298.301 44.7091 298.161 42.4284C298.1 41.7795 298.013 40.5342 298.161 39.9044C304.311 39.2364 309.894 38.3728 313.174 37.7192C306.152 37.9768 297.664 39.3557 297.581 39.3653C297.498 39.4798 297.328 40.5485 297.345 40.9875Z" fill="#FFE09A"/>
<path d="M283.2 76.1134C283.427 76.1038 286.192 80.5029 285.734 80.5268C285.276 80.5506 283.405 77.7451 283.405 77.7451C283.405 77.7451 285.35 81.4619 284.818 81.4906C284.286 81.5144 282.943 78.2175 282.707 78.499C282.472 78.7805 284.936 82.4877 284.212 82.5211C283.488 82.5545 282.72 80.2405 282.445 80.5697C282.171 80.8942 282.153 81.0898 281.896 80.8321C281.761 80.6985 281.329 79.5487 280.897 78.728L281.207 74.7583C282.184 75.6124 283.056 76.1181 283.2 76.1134Z" fill="#FFBE9D"/>
<path d="M282.04 79.749C282.04 79.749 283.348 82.2587 283.086 82.5736C282.825 82.8885 280.967 79.6775 281.106 79.5105C281.25 79.3435 282.04 79.749 282.04 79.749Z" fill="#FFBE9D"/>
<path d="M297.634 60.6077C297.569 60.6077 297.504 60.5648 297.477 60.498C297.438 60.4026 297.477 60.2928 297.565 60.2499C306.249 56.0035 308.063 41.2747 308.081 41.1268C308.094 41.0218 308.177 40.9502 308.273 40.9646C308.369 40.9789 308.434 41.0743 308.421 41.1745C308.404 41.3224 306.563 56.2611 297.704 60.5934C297.678 60.603 297.656 60.6077 297.634 60.6077Z" fill="#464A7F"/>
<path d="M309.799 50.9698C309.778 50.9698 309.756 50.9651 309.734 50.9555C309.647 50.9174 309.603 50.8076 309.638 50.7122C313.52 39.9912 310.567 36.4462 310.537 36.408C310.471 36.3317 310.475 36.2124 310.541 36.1408C310.611 36.0693 310.72 36.074 310.785 36.1456C310.916 36.2935 313.921 39.9053 309.961 50.8506C309.935 50.9269 309.869 50.9698 309.799 50.9698Z" fill="#464A7F"/>
<path d="M211.834 60.6746L177.358 56.5618L179.919 89.6026L185.118 100.285C198.801 100.906 211.463 101.478 211.38 101.478C211.817 101.478 211.834 100.758 211.393 100.739L202.74 100.347C202.687 100.271 202.892 100.51 191.866 88.4432V76.1143L208.929 76.9493L212.144 72.1303V61.438C230.428 62.898 229.565 63.0554 229.604 62.4638C229.648 61.7529 229.552 62.2586 211.834 60.6746ZM211.468 71.8918L208.598 76.1954L202.665 75.9044C201.885 65.8036 202.308 65.1261 201.654 65.1738C201.004 65.2216 201.497 65.7798 201.985 75.871L191.19 75.3461V88.7533L201.749 100.304L185.532 99.5697L180.586 89.469L178.104 57.3967L211.468 61.3807V71.8918Z" fill="#6F81A6"/>
<path d="M131.093 61.8292C131.093 61.8292 134.451 78.3377 136.135 80.2844C137.823 82.231 141.801 91.8498 141.801 91.8498C141.801 91.8498 145.478 93.9206 145.478 96.1869L144.601 97.79L142.909 98.5439L142.063 99.0687H141.151C141.151 99.0687 140.889 96.3348 139.721 94.3166C138.547 92.2983 133.671 87.4126 131.097 80.7949C128.519 74.1772 125.357 63.9715 125.357 63.9715L131.093 61.8292Z" fill="#FD5E5A"/>
<path d="M170.363 87.5552L121.345 112.269L124.69 120.207L173.708 95.4936L170.363 87.5552Z" fill="#142040"/>
<path d="M132.198 105.242L118.044 112.378L122.276 122.422L136.43 115.286L132.198 105.242Z" fill="#142040"/>
<path d="M121.27 116.818C122.439 119.59 122.884 122.095 122.265 122.405C121.645 122.72 120.193 120.725 119.024 117.949C117.855 115.176 117.41 112.672 118.029 112.361C118.649 112.051 120.101 114.046 121.27 116.818Z" fill="#142040"/>
<path d="M162.838 89.7743C162.218 90.0892 162.663 92.5894 163.832 95.3615C165.001 98.1336 166.449 100.128 167.073 99.8178L179.958 93.3194L175.727 83.2759L162.838 89.7743Z" fill="#1E3340"/>
<path d="M178.959 87.7322C180.128 90.5043 180.573 93.0092 179.949 93.3193C179.33 93.6342 177.877 91.6399 176.708 88.863C175.539 86.0909 175.094 83.586 175.714 83.2759C176.342 82.9658 177.79 84.9601 178.959 87.7322Z" fill="#495B8E"/>
<path d="M174.409 85.7045L163.379 91.2677C163.339 91.2868 163.291 91.2677 163.269 91.2248C163.252 91.1819 163.269 91.1294 163.309 91.1055L174.34 85.5422C174.379 85.5232 174.431 85.5422 174.449 85.5852C174.471 85.6329 174.453 85.6854 174.409 85.7045Z" fill="#495A63"/>
<path d="M174.488 87.5986L163.457 93.1619C163.418 93.181 163.37 93.1619 163.348 93.119C163.331 93.076 163.348 93.0188 163.388 92.9997L174.419 87.4364C174.458 87.4173 174.51 87.4364 174.528 87.4794C174.549 87.5223 174.532 87.5748 174.488 87.5986Z" fill="#495A63"/>
<path d="M175.09 89.0252L164.059 94.5885C164.02 94.6076 163.972 94.5885 163.95 94.5456C163.932 94.5026 163.95 94.4454 163.989 94.4263L175.02 88.863C175.059 88.8439 175.107 88.863 175.129 88.906C175.151 88.9537 175.133 89.0062 175.09 89.0252Z" fill="#495A63"/>
<path d="M175.984 90.5759L164.953 96.1392C164.914 96.1583 164.862 96.1392 164.844 96.0962C164.827 96.0533 164.844 96.0008 164.883 95.9769L175.914 90.4137C175.954 90.3946 176.006 90.4137 176.023 90.4566C176.041 90.4996 176.023 90.552 175.984 90.5759Z" fill="#495A63"/>
<path d="M118.605 122.438C118.605 122.438 124.894 135.659 124.48 139.567C124.061 143.475 122.718 146.624 123.848 151.968C124.977 157.311 134.002 176.692 134.207 180.228C134.294 181.721 133.88 181.859 133.88 181.859C133.888 184.431 134.613 187.184 135.101 187.718C135.725 188.401 136.423 191.793 137.016 191.793C137.613 191.793 142.638 192.399 142.638 192.399C142.773 191.144 141.229 192.146 140.335 189.541C139.441 186.936 138.905 183.028 137.775 177.756C136.645 172.479 132.013 148.413 132.013 142.878C132.013 137.344 132.48 137.315 131.703 133.67C130.931 130.025 128.013 123.187 128.013 123.187L118.605 122.438Z" fill="#FD5E5A"/>
<path d="M125.352 77.2212C125.352 77.2212 126.399 95.8147 127.219 100.247C128.039 104.68 132.706 136.084 132.706 136.084L137.779 177.756L132.41 178.448L122.897 149.329L123.564 138.732L114.143 107.977L118.517 76.997L122.365 76.7918L125.352 77.2212Z" fill="#2A5780"/>
<path d="M141.059 190.739C142.237 191.946 144.038 191.707 143.929 192.709C143.929 192.709 137.417 192.404 136.824 192.404C136.231 192.404 135.725 188.401 135.097 187.714C134.473 187.031 134.857 192.404 134.857 192.404H134.216C134.216 192.404 133.784 186.869 133.191 184.722C132.715 183.009 133.391 182.289 133.875 181.859C135.83 185.943 136.135 191.693 141.059 190.739Z" fill="#393644"/>
<path d="M128.607 49.2045C126.958 43.7796 123.425 39.4998 123.425 39.4998C123.425 39.4998 123.957 49.591 124.69 53.5606C125.148 56.0321 124.166 63.0077 125.959 67.2398C127.119 66.5432 130.661 64.9687 131.935 64.544C131.355 59.601 129.453 51.9909 128.607 49.2045Z" fill="#6D3A28"/>
<path d="M110.305 185.753L110.374 191.822L109.759 191.841L108.983 184.913L110.305 185.753Z" fill="#1D1B22"/>
<path d="M115.774 132.31C115.774 132.31 114.971 141.862 113.898 144.696C112.825 147.53 113.689 185.037 114.583 188.067C114.779 188.739 115.05 189.336 115.329 189.865C116.31 191.712 116.533 192.089 115.211 192.089C113.515 192.089 112.032 191.731 111.704 190.968C111.142 189.656 110.649 185.132 109.489 185.132C109.489 185.132 108.699 183.443 108.9 182.556C109.201 181.22 110.029 181.912 110.029 180.056C110.029 178.2 104.494 149.973 105.389 145.87C106.283 141.767 106.906 141.28 106.906 136.394C106.902 131.508 115.774 132.31 115.774 132.31Z" fill="#FFBE9D"/>
<path d="M123.421 39.5046C123.421 39.5046 120.616 37.1285 111.164 39.2994C110.702 39.4044 110.004 51.2943 110.004 51.2943C110.004 51.2943 114.553 71.0425 113.659 75.9616C113.659 75.9616 118.91 80.8426 126.783 76.6391C126.783 76.6391 125.811 61.1422 126.535 57.6926C127.259 54.2429 128.694 51.1178 126.683 47.5298C124.672 43.9418 123.421 39.5046 123.421 39.5046Z" fill="#BF2604"/>
<path opacity="0.4" d="M123.229 78.0132L110.414 45.3064C110.178 48.3027 110.004 51.2943 110.004 51.2943C110.004 51.2943 114.553 71.0425 113.659 75.9616C113.663 75.9616 117.371 79.4112 123.229 78.0132Z" fill="#8F1D03"/>
<path d="M113.663 75.9616C113.663 75.9616 108.364 85.3609 107.142 90.533C105.921 95.705 106.558 135.841 106.558 135.841C106.558 135.841 104.451 144.085 104.451 148.06C104.451 152.034 107.526 178.443 107.526 178.443H114.143L116.136 138.555L122.034 98.6393L125.357 77.2164L113.663 75.9616Z" fill="#4A98DE"/>
<path d="M114.138 178.448C114.548 167.808 114.278 150.77 114.902 138.541C116.921 124.929 118.631 121.002 120.786 107.099C120.642 108.125 118.893 120.835 117.436 130.716L116.289 138.584V138.565C115.857 147.683 114.767 168.194 114.138 178.448Z" fill="#99CFFF"/>
<path opacity="0.42" d="M118.138 76.4435L113.663 75.9616C113.663 75.9616 109.917 82.6127 107.997 87.8038L116.084 104.336L118.522 102.771L120.782 107.103L122.029 98.6489L123.512 89.0968L118.138 76.4435Z" fill="#9C7692"/>
<path d="M110.326 53.8565C112.171 51.6856 112.289 50.7933 112.289 46.7425C112.289 42.687 111.164 39.2946 111.164 39.2946C111.164 39.2946 107.347 39.6716 105.951 44.6432C104.22 50.8076 96.7609 59.3243 96.8569 65.3504C98.4751 64.4438 101.681 67.402 103.496 67.235C103.919 63.356 108.773 55.6886 110.326 53.8565Z" fill="#CA4B2F"/>
<path d="M110.326 53.8565C112.054 51.5376 112.15 50.8983 112.132 46.8094C112.123 44.3235 111.775 41.6946 111.164 39.2946C111.596 40.4827 111.905 41.7232 112.115 42.9828C112.581 45.6929 112.512 49.0995 112.206 50.6454C112.076 51.28 111.827 51.8907 111.491 52.4203C111.146 52.9452 110.75 53.4175 110.326 53.8565Z" fill="#FEC4B7"/>
<path d="M109.934 180.929C110.444 184.326 112.385 189.942 113.637 190.743C115.704 191.387 115.338 191.049 115.329 189.865C116.311 191.712 117.423 192.657 116.101 192.657C114.405 192.657 111.757 192.771 111.43 192.008C110.863 190.696 110.558 185.724 109.393 185.724L109.755 191.845L109.14 191.865C109.14 191.865 108.228 183.439 108.429 182.594C108.704 181.435 109.607 181.134 109.934 180.929Z" fill="#393644"/>
<path d="M110.989 25.5439C112.376 27.0135 110.976 30.5728 109.563 30.9211L109.506 30.4153C110.527 30.2722 112.176 27.1089 110.941 25.6012L110.989 25.5439Z" fill="#111F59"/>
<path d="M109.676 21.5981C109.646 20.2908 109.371 17.638 108.276 18.0244C107.164 18.2201 108.354 20.3385 109.301 19.451C109.698 19.0646 109.746 18.3346 109.536 17.7907C108.9 16.0969 105.759 16.6551 106.466 18.306L105.646 18.4539C105.236 15.3526 110.4 15.6484 109.951 18.7401C109.798 19.7325 109.079 20.1286 108.498 19.8948C107.561 19.5322 107.194 17.9672 108.224 17.7954C109.502 17.3708 109.829 20.0665 109.864 21.6029L109.676 21.5981Z" fill="#111F59"/>
<path d="M113.868 26.0592C113.868 26.0592 112.847 36.3985 114.644 39.4378C115.656 41.1459 117.27 41.351 118.487 41.1984C119.403 41.0886 120.005 40.0962 119.822 39.0752C119.342 36.4319 118.535 31.3648 118.945 29.0889C119.508 25.9352 113.868 26.0592 113.868 26.0592Z" fill="#FFBE9D"/>
<path d="M113.868 26.0592C113.868 26.0592 113.776 27.0039 113.693 28.4019C114.509 30.2484 115.687 32.238 117.327 34.2991C118.108 35.282 118.792 36.012 119.399 36.5512C118.997 33.9365 118.644 30.7637 118.945 29.0889C119.508 25.9352 113.868 26.0592 113.868 26.0592Z" fill="#FD5E5A"/>
<path d="M111.958 19.7373C112.228 18.6733 113.327 17.1608 114.784 16.1637C117.929 14.0071 121.911 16.5597 122.387 20.954C122.43 21.3548 122.439 21.7508 122.395 22.1277C122.125 24.5276 123.743 25.8493 123.743 25.8493C123.743 25.8493 123.66 26.4123 123.141 26.5697C122.622 26.7272 122.679 27.0087 122.849 27.3808C123.019 27.753 123.198 27.8246 123.067 28.1108C122.936 28.3971 122.417 28.5021 122.417 28.5021C122.417 28.5021 122.788 29.0794 122.644 29.3895C122.5 29.6997 122.291 29.671 122.291 29.671C122.291 29.671 121.824 29.9191 121.92 30.2961C122.016 30.673 121.806 31.1024 121.632 31.4078C121.388 31.8372 119.861 33.8745 115.931 29.9287C111.997 25.9876 111.347 22.142 111.958 19.7373Z" fill="#FFBE9D"/>
<path d="M122.277 21.6124C122.277 21.6124 120.672 21.3452 119.652 23.1726C119.652 23.1726 120.965 21.8892 122.107 21.9846L122.277 21.6124Z" fill="#2B3278"/>
<path d="M121.763 23.1774C121.763 23.1774 122.129 23.6354 122.042 23.9312C121.955 24.2271 121.759 24.2652 121.759 24.2652L121.763 23.1774Z" fill="#2B3278"/>
<path d="M120.698 24.0982C120.698 24.0982 121.475 23.3825 122.09 23.0676C122.705 22.7527 122.814 22.4331 122.814 22.4331C122.814 22.4331 122.203 22.9007 121.619 23.1488C121.034 23.3969 120.698 24.0982 120.698 24.0982Z" fill="#0F1D5B"/>
<path d="M121.196 27.9296C121.536 28.254 121.968 28.4544 122.413 28.5021C121.963 28.5069 121.505 28.3685 121.095 28.0536C121.061 28.025 121.052 27.9725 121.074 27.9344C121.095 27.8962 121.143 27.8866 121.178 27.9153L121.183 27.92L121.196 27.9296Z" fill="#0F1D5B"/>
<path d="M121.104 26.3694C120.934 26.8322 120.21 26.9467 119.486 26.6318C118.762 26.3169 118.313 25.6823 118.483 25.2243C118.653 24.7615 119.377 24.6469 120.101 24.9618C120.821 25.2767 121.27 25.9113 121.104 26.3694Z" fill="#FD5E5A"/>
<path d="M106.667 19.3222C106.667 19.3222 104.329 18.3012 103.478 19.2888C102.623 20.2765 103.103 21.6983 103.103 21.6983C103.103 21.6983 102.244 20.8395 102.139 23.6116C102.034 26.3837 108.084 31.7561 110.566 27.1709C113.044 22.5905 107.042 19.432 106.667 19.3222Z" fill="#111F59"/>
<path d="M110.579 24.7615C109.436 24.2653 107.203 23.7166 107.229 25.0334C107.168 27.023 109.541 27.4858 109.288 26.0306C109.17 24.7185 106.771 24.9905 106.479 26.0593C106.126 27.2664 107.281 28.6691 108.581 27.9248L108.852 28.5451C106.296 29.8476 104.83 25.7873 106.819 24.8855C107.944 24.3798 109.632 24.6136 109.702 25.9781C109.763 26.4362 109.593 26.9896 109.144 27.2282C108.686 27.4381 108.28 27.2616 107.958 27.0898C106.767 26.4314 106.714 24.8283 107.129 24.3368C107.827 23.4589 109.685 24.0696 110.657 24.5229L110.579 24.7615Z" fill="#18287D"/>
<path d="M115.172 13.5777C111.221 13.8878 110.593 17.7239 109.794 21.3214C109 24.9189 113.402 27.4906 113.764 27.3236C113.764 27.3236 115.107 22.977 116.586 22.9198C118.064 22.8625 121.999 19.2507 121.999 19.2507C123.285 16.2448 119.124 13.2628 115.172 13.5777Z" fill="#18287D"/>
<path d="M116.585 22.9197C116.585 22.9197 117.266 21.6792 115.717 21.2164C114.169 20.7536 114.143 23.602 115.006 24.4322C115.87 25.2624 116.585 22.9197 116.585 22.9197Z" fill="#FFBE9D"/>
<path d="M116.088 23.082C116.088 23.082 116.537 21.6983 115.844 21.7842C115.15 21.8701 114.662 23.3635 115.168 23.6784C115.678 23.9933 116.088 23.082 116.088 23.082Z" fill="#FD5E5A"/>
<path d="M86.1139 32.8964L83.0215 26.3646C83.0215 26.3646 82.0924 24.6374 86.3277 22.7861C88.8531 21.6792 90.877 20.9301 91.4223 22.2709C91.9675 23.6116 97.6683 43.5935 97.6683 43.5935L86.1139 32.8964Z" fill="#313451"/>
<path d="M87.636 24.1173C86.4278 25.6775 84.6831 26.3169 83.0212 26.3646L85.9262 33.4928C85.9262 33.4928 91.0862 35.2916 90.2313 32.3239C89.3764 29.3609 87.636 24.1173 87.636 24.1173Z" fill="#283E6D"/>
<path d="M115.268 96.936L81.1763 27.2664C81.1763 27.2664 87.3438 28.0966 91.4265 22.2709L118.177 95.0704L115.268 96.936Z" fill="#6F81A6"/>
<path d="M43.9315 132.446C45.4669 133.147 49.0479 134.998 52.1099 136.602C50.9845 136.74 48.2802 137.518 47.421 136.578C47.421 136.578 45.5672 141.339 46.3175 143.396C47.0677 145.447 55.39 146.34 53.763 146.817C52.1361 147.294 45.7548 145.82 45.7548 145.82C45.7548 145.82 45.1921 150.72 46.9412 151.679C48.6946 152.638 57.8892 151.202 57.0169 152.156C56.1402 153.115 47.7263 154.107 46.7536 153.043C46.7536 153.043 46.5661 158.931 49.6324 159.546C52.6987 160.162 61.0908 155.166 60.3668 156.536C59.6427 157.905 51.8874 161.875 49.5103 160.367C49.5103 160.367 51.6388 165.978 53.5755 165.978C55.5165 165.978 60.3013 158.759 61.2696 159.818C62.2379 160.882 57.078 166.045 54.1992 166.66C54.1992 166.66 55.3246 169.876 59.019 168.917C62.7091 167.958 62.0853 161.66 63.2107 162.209C64.336 162.757 63.2717 169.671 59.5205 169.671C59.5205 169.671 65.6533 171.246 67.0927 167.619C67.4983 166.598 67.6946 165.763 67.7774 165.081C68.3401 167.949 68.6585 171.403 68.8155 174.867H69.5003C69.2735 170.635 68.7763 166.341 67.8472 162.91C68.3096 163.177 69.1121 163.545 70.0979 163.64C70.1415 167.72 70.1808 171.551 70.22 174.867H70.9572C70.9005 171.928 70.8263 168.259 70.7435 163.659C70.9354 163.65 71.136 163.626 71.341 163.592C71.5635 167.534 71.7074 171.341 71.8034 174.867H72.811C72.6627 171.222 72.4664 167.319 72.209 163.359C72.4009 163.287 72.5928 163.201 72.7891 163.101C73.2602 162.858 73.6484 162.476 73.9842 162.023C73.9581 166.598 73.9581 170.993 73.9712 174.867H75.0834C75.0573 170.334 75.0442 165.095 75.0747 159.694C75.6417 157.762 75.7202 155.596 75.6112 154.518C77.3385 154.012 79.4671 152.642 80.2914 152.084C78.9785 157.399 77.3254 165.301 76.2262 174.867H76.9808C78.0407 165.673 79.6153 158.029 80.8977 152.776C81.0983 153.392 81.4342 154.174 81.9271 154.713C82.8474 155.72 84.6183 152.289 84.6183 150.577C84.6183 148.864 82.7122 150.51 82.7122 149.551C82.7122 148.592 82.9913 149.074 85.4296 149.074C87.8678 149.074 88.7445 143.596 88.7445 143.596C88.7445 143.596 85.0545 144.073 85.0545 143.324C85.0545 142.57 87.9943 142.981 89.8699 142.437C91.7455 141.888 92.8097 137.441 92.8097 137.441C92.8097 137.441 87.4273 139.154 87.4273 138.4C87.4273 137.646 91.5884 136.926 92.3692 136.072C93.15 135.218 93.4334 131.348 93.4334 131.348C93.4334 131.348 89.8655 134.975 89.3028 134.975C88.7402 134.975 93.0889 130.972 92.6832 130.528C92.2776 130.084 92.1206 128.19 92.1206 128.19C91.3442 129.039 90.0574 127.923 89.2418 128.815C88.4305 129.707 86.9562 136.516 86.363 137.165C85.7698 137.813 88.0205 131.725 86.9911 130.595C85.9574 129.464 83.1615 132.327 82.6119 132.928C82.0623 133.529 83.9248 140.142 83.1746 140.962C82.4243 141.783 82.577 135.146 81.9794 134.493C81.3819 133.839 79.7942 135.518 79.3274 137.47C78.8564 139.421 82.939 142.756 81.7657 144.04C80.5923 145.323 79.515 140.447 78.4813 139.316C77.718 138.481 76.1346 140.113 75.3626 141.564C75.5414 135.657 75.8206 130.394 76.2393 126.644C77.0768 129.111 81.3906 132.064 84.4264 128.681C85.0719 129.24 85.8701 129.488 86.869 129.096C90.4762 127.675 90.8077 126.696 90.0487 126.305C89.2898 125.914 82.2411 121.577 83.1004 121.109C83.9597 120.642 90.2843 126.062 91.4881 125.408C92.692 124.755 94.5501 122.073 94.332 121.959C94.1139 121.849 85.3642 118.394 86.3412 117.865C87.3183 117.335 94.0834 122.436 95.357 120.184C96.6307 117.932 96.6874 116.567 96.5696 116.018C96.4518 115.474 88.8797 114.864 89.1327 114.267C89.3857 113.671 96.5173 114.902 97.0712 113.614C97.6252 112.321 97.7603 110.455 97.1497 110.14C96.5347 109.825 92.849 111.023 93.1238 110.379C93.3986 109.735 97.0145 109.53 96.8836 108.914C96.7484 108.299 96.3559 104.892 96.6132 104.295C96.6132 104.295 94.0572 102.439 93.4378 101.519C92.8184 100.598 92.1511 100.917 91.9374 101.418C91.7237 101.915 90.04 109.501 89.8568 108.647C89.6692 107.793 91.7935 101.042 91.3573 100.817C90.9211 100.593 88.6835 98.7227 87.9943 99.8201C87.3051 100.917 87.0565 110.966 86.2714 111.047C85.4863 111.128 87.3836 99.3859 87.3836 99.3859C87.3836 99.3859 84.7535 99.5529 83.8114 100.827C82.8692 102.101 83.8593 113.89 83.0481 113.828C82.2368 113.766 82.625 101.433 82.625 101.433C82.625 101.433 79.358 103.088 79.153 104.801C78.948 106.514 81.2161 114.244 80.4964 114.635C79.7767 115.026 79.0309 107.044 79.0309 107.044C79.0309 107.044 76.187 108.432 76.0256 110.77C75.8642 113.108 78.6208 116.038 78.3024 116.782C77.984 117.526 75.524 114.382 75.1096 112.478C74.6953 110.579 71.5722 120.351 74.2111 121.706C75.0093 122.116 75.6068 122.259 76.0605 122.269C75.7333 123.194 75.6112 124.029 75.4673 124.883C74.8523 129.201 74.4771 136.439 74.2547 144.536C73.7574 144.016 73.4172 143.639 73.4172 143.639C72.7237 143.93 72.3093 144.889 72.1174 146.13C71.7728 145.667 71.5329 145.385 71.5329 145.385C71.5329 145.385 71.2538 146.416 70.8307 147.804C70.7042 146.736 70.5733 145.691 70.4337 144.674C70.4337 144.541 70.4294 144.412 70.4294 144.278C70.4992 143.811 70.4992 143.42 70.412 143.143C70.316 136.735 70.2113 129.387 70.1066 120.952C70.1066 120.89 70.0848 120.837 70.0499 120.794C70.1023 119.163 70.5952 104.773 72.4227 100.898C74.3637 96.7903 75.6156 92 75.6156 92C75.6156 92 73.9581 94.8389 72.4882 96.4468C71.0183 98.0547 69.7359 98.3648 69.7359 99.801C69.7359 101.237 71.6768 105.894 70.425 105.207C69.1732 104.525 69.4873 101.714 69.0467 101.714C68.6106 101.714 66.796 108.146 66.796 108.489C66.796 108.833 69.9235 111.5 69.1122 112.392C68.2965 113.285 66.9836 108.971 66.4864 109.515C65.9848 110.064 65.8626 114.787 65.8626 116.018C65.8626 117.249 68.2703 116.601 67.1755 117.798C66.0851 118.991 65.8626 123.772 65.8626 125.976C63.263 119.458 60.9251 117.784 57.1042 115.317C57.9373 115.317 58.9928 115.078 59.8739 114.119C61.6055 112.225 62.3994 105.235 58.4083 103.313C58.5828 102.282 58.4607 101.228 57.7628 100.264C55.2286 96.7713 54.3388 96.8762 54.3388 97.9545C54.3388 99.0328 53.7761 109.401 53.0739 108.633C52.3716 107.864 54.0596 97.8018 53.0739 96.7235C52.0881 95.6452 49.2747 94.8246 49.2747 95.1299C49.2747 95.4401 50.0729 107.344 49.2747 106.476C48.4765 105.603 49.7458 95.1824 47.4908 94.8246C45.2401 94.4667 44.1584 95.0822 43.7832 95.4926C43.4081 95.9029 45.9423 105.021 45.3797 105.021C44.817 105.021 42.9414 96.108 41.7201 96.108C40.4988 96.108 38.9984 96.8762 38.9984 97.7494C38.9984 98.6225 41.393 102.32 40.7823 102.32C40.1717 102.32 38.5753 98.2122 38.1565 98.675C37.7334 99.1378 35.2472 101.294 34.6846 101.294C34.6846 101.294 34.2614 105.197 33.7947 106.376C33.3237 107.554 33.8427 108.174 34.3094 108.174C34.7805 108.174 41.3232 106.352 40.7387 106.996C40.1542 107.635 34.0739 108.537 34.0739 109.153C34.0739 109.768 33.5112 113.308 34.6366 113.566C35.7619 113.824 43.648 109.1 44.0232 109.973C44.3983 110.846 34.545 114.492 34.545 114.492C34.545 114.492 35.7183 117.469 37.0792 117.932C38.4401 118.395 47.1855 111.362 47.4559 112.335C47.7307 113.308 38.017 119.01 38.017 119.01C38.017 119.01 40.5992 121.987 42.0036 121.372C43.4125 120.756 48.5027 114.263 49.0916 114.902C49.676 115.541 43.7876 120.394 43.7876 120.394C43.7876 120.394 45.9947 123.013 47.8702 122.035C49.7458 121.062 50.9191 116.391 51.6257 116.391C52.328 116.391 50.8711 120.823 49.5626 122.254C48.2541 123.686 57.0692 122.445 57.0692 118.7C57.0692 117.116 56.825 116.233 56.5458 115.737C56.5633 115.746 56.5807 115.761 56.5982 115.77C57.9634 116.663 59.7735 117.684 61.2696 119.387C65.0731 123.567 67.5201 131.806 69.0947 141.344C68.5495 140.934 68.1308 140.977 68.1308 141.487C68.1308 142.38 66.1592 151.65 65.1909 150.591C64.2226 149.532 67.9432 141.077 66.6303 139.641C65.8495 138.787 64.035 137.675 62.6131 137.122V137.117C61.9981 136.444 60.1269 135.743 60.7026 133.791C61.2784 131.84 58.2513 130.094 58.2513 130.094C58.2513 130.094 56.3757 133.071 54.6833 133.071C52.9953 133.071 56.8425 131.119 56.8425 129.993C56.8425 128.867 51.0238 126.811 51.0238 126.811C51.0238 126.811 52.6551 130.556 52.6464 132.088C51.9529 131.558 51.2114 131.048 50.5746 130.676C50.025 128.991 49.8374 126.911 48.8647 126.911C47.8266 126.911 47.373 127.789 46.7405 128.505C45.9685 128.013 44.9827 127.508 44.0406 127.135C43.5869 125.881 43.2336 124.549 42.9501 124.549C42.3875 124.549 40.9786 125.885 38.2568 125.37C35.5351 124.855 35.8405 125.294 33.6159 127.732C31.3871 130.17 30 132.556 30 132.556C30 132.556 30.4275 132.322 31.1472 132.016C34.3923 130.933 41.3581 131.272 43.9315 132.446ZM81.7264 123.805C82.0099 123.652 82.4898 125.976 83.5584 127.651C83.4145 127.574 83.2618 127.508 83.0699 127.465C81.9489 127.188 81.2379 124.068 81.7264 123.805ZM75.2972 143.725C76.3658 145.056 79.262 146.779 78.5685 147.532C78.0974 148.048 76.5315 146.764 75.2492 145.533C75.2666 144.927 75.2797 144.326 75.2972 143.725ZM73.3431 154.16C73.5132 154.384 73.692 154.546 73.8796 154.618C73.9319 154.637 73.993 154.642 74.0497 154.656C74.0453 154.918 74.0453 155.176 74.041 155.438C73.3169 156.493 72.4663 157.7 71.799 157.795C71.7597 157.309 71.7205 156.827 71.6812 156.345C72.1087 155.772 72.7542 155.042 73.3431 154.16ZM55.6691 108.885C55.4336 108.628 57.0474 106.915 57.9198 104.839C57.9198 105.045 57.9285 105.259 57.9678 105.498C58.2033 106.934 56.0704 109.32 55.6691 108.885ZM68.9682 136.248C68.5625 134.245 67.5114 130.771 67.3151 130.103C67.0709 129.359 66.8353 128.662 66.5998 127.999C67.1188 128.352 67.8298 128.209 68.4666 127.512C69.5657 126.31 69.1121 121.94 69.8362 121.085C69.762 122.894 69.8013 131.062 69.8798 141.034C69.5963 139.316 69.2953 137.704 68.9682 136.248ZM69.8188 146.578C69.858 146.874 69.8929 147.165 69.9322 147.461C69.9409 148.453 69.9496 149.455 69.9583 150.462C69.0903 152.972 68.0566 155.415 67.398 155.104C66.5038 154.68 68.676 150.066 69.8188 146.578ZM59.4988 138.677C59.8695 138.558 60.2533 138.434 60.6154 138.305C60.7898 141.005 61.6447 146.75 60.0134 146.75C58.5479 146.75 59.5075 141.583 59.4988 138.677ZM54.077 137.632C54.7488 139.235 56.0093 142.489 55.0148 142.232C53.9069 141.945 53.4228 138.147 52.7729 136.95C53.2265 137.188 53.6627 137.417 54.077 137.632Z" fill="#43616A"/>
<path d="M63.9385 186.948H80.8186C84.9361 185.621 87.6492 183.36 87.6492 180.788C87.6492 178.369 85.2502 176.222 81.5427 174.872H63.2188C59.5113 176.222 57.1123 178.369 57.1123 180.788C57.1079 183.36 59.8209 185.626 63.9385 186.948Z" fill="#263238"/>
</svg>
