<svg width="500" height="353" viewBox="0 0 500 353" fill="none" xmlns="http://www.w3.org/2000/svg">
<g clip-path="url(#clip0_17_87)">
<path d="M522 293.45C522 293.59 400.885 293.71 251.516 293.71C102.091 293.71 -19 293.59 -19 293.45C-19 293.31 102.091 293.19 251.516 293.19C400.885 293.19 522 293.3 522 293.45Z" fill="#263238"/>
<path d="M360.32 322.73C360.32 322.87 358.829 323.03 356.977 322.89C355.133 322.76 353.658 322.39 353.674 322.25C353.69 322.1 355.173 322.24 357.001 322.37C358.829 322.51 360.32 322.58 360.32 322.73Z" fill="white"/>
<path d="M314.719 85.3445C312.532 80.3402 306.364 78.7172 300.999 77.7028C301.607 72.5257 298.827 67.1156 294.266 64.5984C289.705 62.0812 283.641 62.5997 279.584 65.8683C276.465 68.3779 274.685 72.3904 274.692 76.3803C277.097 81.3922 277.698 87.1103 279.373 92.4377C281.154 98.0958 284.851 103.867 290.652 105.091C294.236 105.85 297.933 104.708 301.352 103.401C305.281 101.898 309.234 100.079 312.074 96.9762C314.922 93.8729 316.402 89.1992 314.719 85.3445Z" fill="#010E3A"/>
<path d="M300.976 77.004C300.999 77.019 300.863 77.252 300.6 77.6652C300.345 78.0785 299.924 78.6496 299.368 79.3258C298.256 80.6708 296.498 82.3765 294.236 83.8192C291.974 85.2544 289.682 86.126 287.992 86.5618C287.143 86.7797 286.451 86.9225 285.963 86.9751C285.482 87.0352 285.212 87.0577 285.204 87.0352C285.189 86.9675 286.256 86.7947 287.909 86.2988C289.562 85.8029 291.794 84.9087 294.018 83.4961C296.242 82.0759 298 80.4379 299.15 79.153C300.315 77.8606 300.916 76.9664 300.976 77.004Z" fill="#263238"/>
<path d="M291.042 63.8545C291.042 63.8395 291.133 63.847 291.298 63.8846C291.463 63.9297 291.696 64.0348 291.952 64.2452C292.463 64.666 292.921 65.5376 293.124 66.6647C293.327 67.7843 293.462 69.1368 293.379 70.6472C293.282 72.15 292.951 73.788 292.35 75.4261C291.155 78.7022 289.089 81.2269 287.338 82.6545C286.895 83.0152 286.504 83.3383 286.113 83.5787C285.738 83.8267 285.422 84.0521 285.136 84.1874C284.58 84.4879 284.265 84.6382 284.25 84.6157C284.205 84.5405 285.482 83.9319 287.158 82.4441C288.833 80.9789 290.81 78.4918 291.982 75.2908C292.568 73.6978 292.898 72.0974 293.019 70.6246C293.124 69.1519 293.019 67.8219 292.853 66.7173C292.688 65.6203 292.29 64.7787 291.846 64.358C291.403 63.9297 291.027 63.8921 291.042 63.8545Z" fill="#263238"/>
<path d="M287.969 101.026C287.984 100.989 288.42 101.214 289.277 101.409C290.126 101.597 291.396 101.763 292.959 101.665C293.732 101.612 294.589 101.515 295.461 101.244C296.325 100.966 297.219 100.553 298.083 99.9893C299.804 98.8772 301.449 97.2317 302.667 95.1878C303.921 93.1666 304.628 90.965 304.966 88.9362C305.312 86.8999 305.244 85.0139 305.018 83.4735C304.786 81.9257 304.372 80.7159 304.087 79.8894C303.749 79.0779 303.561 78.627 303.591 78.6195C303.606 78.612 303.666 78.7172 303.779 78.9201C303.884 79.1305 304.049 79.431 304.237 79.8293C304.568 80.6483 305.033 81.858 305.304 83.4285C305.567 84.9914 305.665 86.9074 305.334 88.9963C305.011 91.0702 304.305 93.3244 303.012 95.3982C301.757 97.4871 300.067 99.1628 298.286 100.297C297.392 100.861 296.468 101.282 295.566 101.552C294.657 101.815 293.778 101.905 292.981 101.935C291.388 101.996 290.103 101.785 289.247 101.552C288.818 101.432 288.495 101.304 288.285 101.199C288.074 101.101 287.969 101.041 287.969 101.026Z" fill="#263238"/>
<path d="M272.566 73.7504C264.736 66.6046 255.208 60.3605 244.614 60.0149C235.176 59.7068 224.807 64.2227 217.428 70.1137C213.799 73.0141 210.831 77.8456 208.922 82.0834C206.3 87.8993 208.171 94.4214 209.433 100.673C211.958 113.191 221.786 125.454 227.294 126.822L281.485 118.827C285.76 110.163 289.697 99.7413 285.978 90.8222C283.438 84.7509 277.427 78.1912 272.566 73.7504Z" fill="#010E3A"/>
<path d="M254.442 71.1581C252.804 68.6259 249.505 67.7618 246.845 69.1744L216.939 79.9344C208.171 84.5856 209.523 98.3287 214.543 106.887C220.118 116.4 227.294 127.791 232.967 133.87C244.366 146.095 256.035 140.768 256.035 140.768C256.027 140.753 260.911 147.62 263.391 151.114C269.365 159.5 278.389 156.457 285.85 149.371C291.591 143.916 292.786 135.207 288.713 128.415L254.442 71.1581Z" fill="#FFBE9D"/>
<path d="M225.663 116.159C226.257 117.106 227.549 117.392 228.549 116.791C229.548 116.189 229.886 114.935 229.292 113.988C228.699 113.041 227.406 112.756 226.407 113.357C225.408 113.958 225.077 115.213 225.663 116.159Z" fill="#263238"/>
<path d="M220.877 111.065C221.253 111.148 221.914 109.269 223.807 107.999C225.678 106.707 227.722 106.744 227.767 106.376C227.797 106.203 227.301 105.94 226.4 105.91C225.513 105.873 224.213 106.128 223.033 106.932C221.861 107.729 221.162 108.833 220.892 109.66C220.614 110.486 220.697 111.035 220.877 111.065Z" fill="#263238"/>
<path d="M243.223 103.679C243.817 104.625 245.109 104.911 246.109 104.31C247.108 103.709 247.446 102.454 246.853 101.507C246.259 100.56 244.967 100.275 243.967 100.876C242.96 101.47 242.63 102.732 243.223 103.679Z" fill="#263238"/>
<path d="M239.684 98.9073C240.06 98.9899 240.729 97.1114 242.615 95.8416C244.486 94.5492 246.53 94.5867 246.575 94.2185C246.605 94.0457 246.109 93.7827 245.207 93.7527C244.321 93.7151 243.021 93.9706 241.841 94.7671C240.669 95.5635 239.97 96.6681 239.699 97.4946C239.429 98.3287 239.504 98.8697 239.684 98.9073Z" fill="#263238"/>
<path d="M242.269 117.534C242.209 117.422 240.894 118.008 238.828 119.052C238.309 119.33 237.791 119.541 237.49 119.263C237.145 118.992 236.994 118.338 236.852 117.617C236.521 116.144 236.168 114.604 235.8 112.981C234.259 106.414 232.794 101.146 232.531 101.214C232.268 101.282 233.305 106.654 234.845 113.221C235.236 114.829 235.612 116.37 235.972 117.835C236.16 118.504 236.265 119.338 237.002 119.894C237.378 120.164 237.904 120.187 238.272 120.067C238.647 119.954 238.918 119.774 239.166 119.631C241.142 118.436 242.337 117.647 242.269 117.534Z" fill="#263238"/>
<path d="M256.027 140.768C256.027 140.768 265.638 135.155 271.063 123.523C271.063 123.523 272.986 136.154 258.424 144.111L256.027 140.768Z" fill="#EB996E"/>
<path d="M250.888 116.858C249.753 116.34 248.461 116.543 247.439 117.181C245.959 118.106 245.087 119.42 245.042 121.389C244.982 121.99 245.741 123.057 246.079 123.268C246.417 123.478 246.214 123.403 246.582 123.448C247.927 123.628 249.325 123.771 250.587 123.298C251.85 122.824 252.947 121.577 252.939 120.037C252.931 118.669 252.022 117.369 250.888 116.858Z" fill="#EB996E"/>
<path d="M248.709 115.092C248.393 115.28 249.768 117.332 248.994 119.977C248.228 122.621 245.883 123.861 246.064 124.154C246.124 124.305 246.823 124.222 247.762 123.628C248.686 123.05 249.813 121.87 250.287 120.255C250.752 118.639 250.414 117.136 249.918 116.25C249.415 115.34 248.844 114.987 248.709 115.092Z" fill="#263238"/>
<path d="M233.823 93.6775C234.357 94.0683 236.078 92.5504 238.475 91.3257C240.849 90.0483 243.073 89.4922 243.058 88.8385C243.043 88.5305 242.404 88.2599 241.345 88.2449C240.293 88.2299 238.835 88.5304 237.4 89.2818C235.972 90.0332 234.898 91.0627 234.312 91.9343C233.711 92.8059 233.576 93.4897 233.823 93.6775Z" fill="#010E3A"/>
<path d="M217.165 104.069C217.789 104.272 218.788 102.95 220.336 101.875C221.846 100.748 223.424 100.215 223.424 99.561C223.409 99.2529 222.913 98.9674 222.057 98.9448C221.215 98.9223 220.035 99.2379 218.983 99.9968C217.931 100.756 217.263 101.77 217.015 102.582C216.759 103.401 216.872 103.964 217.165 104.069Z" fill="#010E3A"/>
<path d="M262.121 90.2436C262.249 90.0257 268.042 82.6169 273.174 90.2737C278.306 97.9229 269.567 101.5 269.41 101.289C269.244 101.086 262.121 90.2436 262.121 90.2436Z" fill="#FFBE9D"/>
<path d="M269.8 96.8259C269.815 96.7808 269.996 96.8334 270.289 96.7808C270.574 96.7357 271.003 96.5479 271.296 96.1346C271.904 95.293 271.724 93.5573 270.837 92.1522C270.386 91.4459 269.8 90.8748 269.184 90.4916C268.576 90.0859 267.952 89.9431 267.494 90.1384C267.028 90.3188 266.9 90.7546 266.953 91.0326C266.99 91.3181 267.148 91.4384 267.11 91.4759C267.103 91.506 266.862 91.4609 266.712 91.1002C266.645 90.9274 266.607 90.687 266.69 90.4165C266.772 90.146 266.99 89.883 267.298 89.7252C267.914 89.372 268.809 89.5599 269.485 89.9807C270.191 90.3789 270.875 91.0101 271.378 91.8066C272.363 93.3845 272.543 95.3532 271.649 96.4126C271.206 96.9161 270.649 97.0513 270.296 97.0288C269.936 96.9987 269.785 96.856 269.8 96.8259Z" fill="#EB996E"/>
<path d="M274.046 97.6449C274.053 97.5848 274.594 97.7426 275.015 98.4489C275.21 98.787 275.406 99.3055 275.203 99.8841C274.993 100.455 274.421 100.846 273.813 100.989C273.212 101.139 272.505 101.049 272.077 100.628C271.656 100.23 271.506 99.7188 271.484 99.313C271.461 98.4639 271.897 98.0807 271.927 98.1258C271.994 98.1634 271.709 98.5767 271.814 99.2755C271.867 99.6136 272.032 100.019 272.363 100.297C272.678 100.583 273.197 100.651 273.7 100.53C274.204 100.41 274.639 100.102 274.797 99.7263C274.955 99.3431 274.857 98.9148 274.715 98.5992C274.429 97.9455 274.008 97.6975 274.046 97.6449Z" fill="#263238"/>
<path d="M215.407 109.464C214.926 106.557 215.82 103.588 217.105 100.936C218.397 98.2911 220.088 95.8491 221.35 93.1891C224.258 87.0878 224.799 79.8819 222.831 73.4123C217.766 74.036 213.258 77.4473 210.763 81.8956C208.268 86.3439 207.675 91.7164 208.569 96.7432C209.456 101.77 211.747 106.466 214.67 110.652" fill="#010E3A"/>
<path d="M247.792 65.5452C238.512 64.0499 225.874 68.3629 220.246 75.8844C225.716 81.5425 235.462 85.4272 243.073 87.4334C250.73 89.4472 259.236 96.345 266.524 87.0352C267.028 86.3965 268.162 86.4791 268.508 85.7428C268.801 85.1191 268.636 84.3827 268.44 83.7215C265.698 74.4417 257.335 67.0855 247.792 65.5452Z" fill="#010E3A"/>
<path d="M283.311 87.208C283.266 87.2455 282.725 86.4942 281.552 85.337C280.38 84.1798 278.509 82.662 275.902 81.287C273.294 79.9269 269.943 78.7472 266.104 78.0935C262.264 77.4248 257.951 77.3121 253.443 77.4248C248.927 77.545 244.629 77.823 240.699 77.793C236.777 77.7779 233.23 77.4699 230.314 76.9063C227.392 76.3352 225.1 75.5538 223.582 74.885C222.823 74.5469 222.244 74.2689 221.861 74.051C221.478 73.8406 221.275 73.7279 221.283 73.7129C221.305 73.6678 222.117 74.1036 223.65 74.7122C225.182 75.3209 227.467 76.0572 230.375 76.5757C233.282 77.0942 236.799 77.3722 240.706 77.3571C244.614 77.3571 248.912 77.0716 253.435 76.9514C257.958 76.8312 262.302 76.9589 266.179 77.6577C270.056 78.3415 273.437 79.5663 276.052 80.9864C278.674 82.4141 280.538 83.992 281.68 85.1942C282.244 85.8029 282.672 86.2913 282.927 86.6519C283.19 87.0126 283.318 87.193 283.311 87.208Z" fill="white"/>
<path d="M266.291 71.2483C266.291 71.2633 266.126 71.2483 265.818 71.2107C265.457 71.1581 265.014 71.098 264.473 71.0229C264.18 70.9778 263.857 70.9252 263.504 70.8726C263.151 70.835 262.76 70.8125 262.347 70.7824C261.513 70.7298 260.566 70.6171 259.514 70.6396C258.988 70.6321 258.439 70.6321 257.868 70.6246C257.297 70.6321 256.696 70.6772 256.08 70.6998C254.848 70.7373 253.533 70.8801 252.15 71.0078C249.385 71.3159 246.357 71.7592 243.178 72.2401C239.992 72.721 236.949 73.1193 234.162 73.3522C232.764 73.4198 231.442 73.54 230.194 73.51C229.571 73.51 228.969 73.5175 228.391 73.5025C227.812 73.4649 227.264 73.4273 226.73 73.3898C225.671 73.3522 224.724 73.1643 223.897 73.0441C223.484 72.9765 223.093 72.9239 222.74 72.8563C222.395 72.7661 222.079 72.6834 221.786 72.6083C221.26 72.4655 220.824 72.3528 220.471 72.2552C220.171 72.1725 220.02 72.1199 220.02 72.1049C220.028 72.0898 220.186 72.1124 220.494 72.165C220.847 72.2401 221.29 72.3228 221.824 72.428C222.117 72.4881 222.432 72.5557 222.778 72.6309C223.131 72.691 223.514 72.7285 223.935 72.7811C224.762 72.8788 225.701 73.0366 226.753 73.0516C227.279 73.0742 227.827 73.1042 228.398 73.1343C228.969 73.1418 229.571 73.1193 230.187 73.1193C231.419 73.1343 232.741 73.0066 234.124 72.9239C236.889 72.6684 239.925 72.2627 243.103 71.7818C246.282 71.3009 249.325 70.8651 252.097 70.5795C253.488 70.4668 254.81 70.3316 256.057 70.3165C256.681 70.3015 257.282 70.2639 257.853 70.2639C258.432 70.279 258.98 70.294 259.514 70.309C260.573 70.309 261.528 70.4443 262.362 70.5194C262.782 70.5645 263.166 70.5946 263.526 70.6472C263.872 70.7148 264.195 70.7749 264.496 70.835C265.029 70.9477 265.472 71.0379 265.826 71.113C266.141 71.1882 266.291 71.2332 266.291 71.2483Z" fill="#263238"/>
<path d="M214.332 107.263C214.302 107.278 214.084 106.812 213.716 105.963C213.521 105.542 213.303 105.016 213.107 104.385C212.904 103.761 212.634 103.055 212.461 102.243C212.363 101.838 212.258 101.417 212.146 100.981C212.04 100.538 211.98 100.072 211.898 99.591C211.702 98.6293 211.635 97.5923 211.529 96.4953C211.409 94.3012 211.469 91.8817 211.845 89.372C212.251 86.8699 212.927 84.5405 213.708 82.4892C214.137 81.4823 214.52 80.5055 215.001 79.6564C215.226 79.2281 215.429 78.7998 215.662 78.4091C215.895 78.0259 216.128 77.6577 216.346 77.297C216.759 76.5757 217.232 75.9896 217.616 75.4561C217.991 74.9151 218.36 74.4868 218.668 74.1412C219.276 73.4424 219.629 73.0742 219.652 73.0967C219.735 73.1644 218.322 74.6596 216.631 77.4774C216.421 77.8305 216.211 78.2062 215.985 78.5895C215.76 78.9802 215.579 79.4085 215.354 79.8368C214.903 80.6859 214.535 81.6552 214.122 82.6545C213.37 84.6908 212.717 86.9901 212.318 89.4547C211.95 91.9268 211.875 94.3162 211.973 96.4803C212.063 97.5623 212.115 98.5917 212.296 99.5384C212.371 100.012 212.424 100.478 212.514 100.914C212.611 101.349 212.702 101.77 212.792 102.168C213.543 105.369 214.437 107.225 214.332 107.263Z" fill="white"/>
<path d="M274.271 75.3584C274.279 75.3434 274.391 75.396 274.602 75.5012C274.812 75.6064 275.12 75.7642 275.511 75.9896C276.285 76.4329 277.397 77.1092 278.659 78.101C279.922 79.0854 281.327 80.4078 282.604 82.1135C283.235 82.9701 283.844 83.9094 284.385 84.9313C284.926 85.9532 285.407 87.0502 285.835 88.1998C286.677 90.4916 287.361 92.7233 287.729 94.8197C288.097 96.9086 288.157 98.8396 287.977 100.44C287.811 102.041 287.473 103.303 287.195 104.152C287.06 104.58 286.917 104.896 286.835 105.121C286.744 105.339 286.692 105.452 286.684 105.444C286.579 105.422 287.428 103.581 287.706 100.418C287.849 98.8396 287.759 96.9461 287.376 94.8873C286.992 92.8285 286.309 90.6193 285.475 88.3426C285.054 87.208 284.58 86.1335 284.054 85.1191C283.521 84.1122 282.935 83.188 282.319 82.3389C281.079 80.6558 279.719 79.3258 278.487 78.3265C277.262 77.3196 276.18 76.6133 275.436 76.1324C274.677 75.644 274.256 75.381 274.271 75.3584Z" fill="#263238"/>
<path d="M244.215 215.502L274.993 214.022L261.377 152.384C261.377 152.384 246.267 162.904 245.996 178.909C245.748 193.471 244.215 215.502 244.215 215.502Z" fill="#0398DA"/>
<path d="M352.499 179.202C346.751 158.08 332.212 135.485 332.212 135.485C332.212 135.485 324.127 116.565 303.561 119.375C303.561 119.375 295.28 120.901 291.508 125.574L258.8 154.684L261.137 196.446C261.505 203.081 263.97 210.52 268.779 215.104C274.444 220.506 281.049 223.82 288.578 225.518C286.564 228.358 287.406 232.506 289.675 235.143C291.944 237.781 295.295 239.216 298.602 240.29C320.49 247.429 345.511 242.447 364.184 228.982C364.176 228.974 357.895 199.016 352.499 179.202Z" fill="#0398DA"/>
<path d="M338.553 215.502C338.553 215.517 338.381 215.547 338.05 215.6C337.674 215.652 337.193 215.72 336.592 215.81C335.277 215.99 333.459 216.246 331.227 216.561C326.704 217.215 320.46 218.229 313.622 219.604C306.784 220.987 300.638 222.482 296.212 223.632C294.033 224.211 292.26 224.684 290.975 225.022C290.389 225.18 289.915 225.3 289.547 225.398C289.217 225.48 289.044 225.518 289.044 225.503C289.036 225.488 289.209 225.428 289.525 225.323C289.885 225.21 290.351 225.06 290.93 224.879C292.155 224.496 293.928 223.978 296.137 223.369C300.548 222.144 306.687 220.611 313.539 219.221C320.392 217.839 326.644 216.869 331.182 216.291C333.451 215.998 335.292 215.787 336.57 215.66C337.178 215.607 337.659 215.562 338.035 215.524C338.373 215.502 338.553 215.494 338.553 215.502Z" fill="#263238"/>
<path d="M261.37 152.392C261.911 155.653 263.586 162.491 264.631 166.631C264.991 168.066 266.923 169.749 268.17 170.538C270.154 171.793 272.415 171.004 274.196 169.471C279.313 165.075 282.522 158.944 284.798 150.032C286.489 143.428 291.501 125.567 291.501 125.567L275.812 138.16L261.37 152.392Z" fill="#FFBE9D"/>
<path d="M260.303 183.162C260.318 183.162 260.325 183.289 260.34 183.537C260.348 183.83 260.363 184.184 260.37 184.619C260.393 185.619 260.423 186.956 260.453 188.587C260.558 191.93 260.716 196.589 261.873 201.556C263.03 206.53 265.217 210.7 267.321 213.278C268.365 214.578 269.327 215.539 270.026 216.148C270.725 216.764 271.138 217.087 271.115 217.11C271.108 217.117 270.995 217.05 270.792 216.907C270.597 216.757 270.281 216.561 269.928 216.261C269.192 215.675 268.185 214.743 267.103 213.443C264.916 210.873 262.655 206.658 261.49 201.631C260.325 196.612 260.213 191.923 260.175 188.579C260.168 186.896 260.19 185.544 260.213 184.604C260.228 184.176 260.243 183.815 260.25 183.522C260.28 183.289 260.295 183.162 260.303 183.162Z" fill="#263238"/>
<path d="M261.114 196.198C261.122 196.206 261.009 196.326 260.784 196.537C260.543 196.739 260.183 197.025 259.642 197.273C259.108 197.528 258.394 197.746 257.545 197.806C256.704 197.859 255.727 197.754 254.705 197.438C253.69 197.13 252.624 196.604 251.632 195.83C250.647 195.056 249.738 194.049 248.979 192.862C248.228 191.675 247.574 190.345 247.176 188.85C246.988 188.106 246.89 187.302 246.981 186.498C247.078 185.694 247.371 184.89 247.89 184.229C248.401 183.56 249.167 183.079 249.994 182.951C250.82 182.839 251.647 183.049 252.33 183.44C253.014 183.823 253.585 184.386 253.976 185.04C254.374 185.694 254.555 186.423 254.622 187.137C254.75 188.572 254.374 189.909 253.886 191.051C253.382 192.193 252.729 193.193 251.932 193.914C251.534 194.275 251.113 194.583 250.655 194.763C250.204 194.944 249.768 195.049 249.355 195.139C248.528 195.312 247.807 195.364 247.213 195.364C246.62 195.372 246.161 195.304 245.861 195.229C245.553 195.154 245.418 195.049 245.418 195.049C245.425 195.026 245.575 195.101 245.876 195.146C246.177 195.199 246.627 195.237 247.213 195.207C247.792 195.176 248.506 195.101 249.31 194.913C249.708 194.816 250.136 194.703 250.565 194.523C250.985 194.35 251.376 194.057 251.752 193.704C252.503 192.997 253.119 192.028 253.6 190.909C254.066 189.796 254.412 188.504 254.277 187.159C254.209 186.498 254.029 185.807 253.668 185.22C253.315 184.627 252.781 184.116 252.158 183.763C251.534 183.402 250.79 183.229 250.069 183.327C249.347 183.44 248.679 183.853 248.22 184.454C247.747 185.055 247.476 185.792 247.386 186.528C247.304 187.272 247.386 188.023 247.567 188.745C247.942 190.172 248.573 191.495 249.302 192.652C250.031 193.809 250.903 194.793 251.85 195.552C252.796 196.311 253.826 196.83 254.803 197.145C255.787 197.476 256.726 197.588 257.545 197.558C258.364 197.521 259.055 197.333 259.589 197.108C260.648 196.679 261.077 196.153 261.114 196.198Z" fill="#263238"/>
<path d="M294.311 199.625C294.319 199.632 294.274 199.677 294.198 199.775C294.101 199.88 293.981 200.015 293.83 200.181C293.522 200.549 292.989 201.022 292.29 201.623C290.862 202.751 288.518 204.178 285.294 204.885C282.116 205.598 277.953 205.568 274.008 203.607C272.055 202.66 270.139 201.21 268.929 199.106C268.335 198.069 267.967 196.837 268.012 195.582C268.05 194.335 268.433 193.065 269.222 192.028C269.996 190.991 271.213 190.292 272.483 190.202C273.753 190.097 274.993 190.503 276 191.164C277.021 191.825 277.803 192.787 278.291 193.831C278.787 194.883 279.028 196.003 279.103 197.1C279.238 199.302 278.742 201.368 278.021 203.164C277.284 204.96 276.225 206.462 275.12 207.68C272.889 210.137 270.424 211.362 268.703 211.948C268.275 212.121 267.877 212.196 267.531 212.293C267.193 212.391 266.9 212.436 266.66 212.474C266.442 212.504 266.261 212.534 266.119 212.556C265.998 212.571 265.931 212.579 265.931 212.571C265.916 212.519 266.938 212.421 268.651 211.797C270.342 211.166 272.754 209.919 274.918 207.484C275.992 206.275 277.014 204.794 277.72 203.029C278.419 201.27 278.885 199.242 278.742 197.115C278.667 196.056 278.427 194.981 277.953 193.982C277.487 192.982 276.751 192.096 275.789 191.472C274.842 190.848 273.678 190.48 272.513 190.578C271.348 190.668 270.251 191.292 269.53 192.254C268.801 193.208 268.433 194.41 268.395 195.582C268.35 196.762 268.688 197.912 269.26 198.911C270.402 200.917 272.265 202.345 274.166 203.277C278.013 205.208 282.093 205.268 285.234 204.607C288.42 203.945 290.75 202.578 292.192 201.496C292.899 200.925 293.44 200.474 293.77 200.121C293.928 199.97 294.063 199.843 294.168 199.745C294.259 199.662 294.304 199.625 294.311 199.625Z" fill="#263238"/>
<path d="M355.28 191.517C355.28 191.517 354.769 192.314 353.476 193.418C352.199 194.508 350.08 195.913 347.089 196.574C344.136 197.243 340.274 196.942 336.743 194.936C334.999 193.937 333.316 192.554 332.092 190.706C331.49 189.781 331.025 188.729 330.829 187.587C330.649 186.453 330.732 185.243 331.175 184.138C331.611 183.034 332.422 182.065 333.489 181.554C334.534 181.028 335.758 180.915 336.848 181.261C337.952 181.606 338.794 182.508 339.185 183.522C339.59 184.537 339.606 185.626 339.478 186.626C339.35 187.632 339.034 188.587 338.636 189.458C338.23 190.315 337.81 191.141 337.344 191.9C336.42 193.426 335.375 194.741 334.256 195.778C332.024 197.889 329.567 198.693 327.921 198.994C327.087 199.136 326.426 199.189 325.983 199.189C325.78 199.189 325.614 199.189 325.479 199.189C325.367 199.189 325.306 199.181 325.306 199.174C325.306 199.121 326.246 199.166 327.891 198.836C329.514 198.498 331.896 197.664 334.068 195.567C335.15 194.538 336.172 193.238 337.066 191.728C337.93 190.202 338.884 188.519 339.125 186.573C339.245 185.611 339.222 184.582 338.847 183.65C338.486 182.726 337.727 181.922 336.743 181.614C335.766 181.306 334.631 181.411 333.677 181.892C332.708 182.358 331.964 183.244 331.558 184.274C331.145 185.303 331.062 186.445 331.227 187.52C331.415 188.594 331.851 189.601 332.43 190.495C333.602 192.276 335.24 193.636 336.938 194.62C340.372 196.597 344.144 196.92 347.044 196.304C349.982 195.695 352.094 194.35 353.394 193.305C354.686 192.246 355.242 191.48 355.28 191.517Z" fill="#263238"/>
<g opacity="0.3">
<path d="M289.044 225.503C304.838 225.631 320.858 222.445 334.977 215.367C319.633 217.861 303.719 220.401 289.044 225.503Z" fill="black"/>
</g>
<path d="M289.667 235.136C289.667 235.136 281.334 247.451 278.194 256.874C275.053 266.296 276.864 293.362 276.864 293.362L372.93 293.039C372.93 293.039 380.842 277.665 378.4 257.776C375.958 237.886 364.184 226.375 364.184 226.375L289.667 235.136Z" fill="#263238"/>
<path d="M311.796 293.242C311.774 293.234 311.886 292.813 312.119 292.062C312.345 291.31 312.705 290.228 313.164 288.898C314.08 286.238 315.508 282.624 317.199 278.679C318.889 274.742 320.355 271.15 321.346 268.528C321.827 267.266 322.218 266.214 322.526 265.417C322.804 264.681 322.977 264.283 323 264.29C323.022 264.298 322.909 264.718 322.669 265.47C322.436 266.221 322.075 267.296 321.609 268.626C320.678 271.278 319.25 274.892 317.559 278.837C315.869 282.775 314.411 286.366 313.427 288.996C312.953 290.266 312.57 291.31 312.27 292.114C311.984 292.851 311.819 293.249 311.796 293.242Z" fill="#455A64"/>
<path d="M378.904 258.895C378.911 258.91 378.814 258.97 378.626 259.083C378.438 259.188 378.167 259.368 377.792 259.549C377.055 259.932 375.943 260.398 374.508 260.781C371.668 261.57 367.34 261.818 363.079 260.105C358.819 258.384 355.873 255.206 354.371 252.674C353.604 251.404 353.123 250.292 352.853 249.51C352.702 249.127 352.635 248.804 352.575 248.601C352.515 248.391 352.492 248.278 352.507 248.278C352.597 248.24 353.026 250.059 354.603 252.538C356.144 254.995 359.059 258.076 363.23 259.759C367.4 261.427 371.63 261.232 374.448 260.526C377.296 259.819 378.866 258.812 378.904 258.895Z" fill="#455A64"/>
<path d="M129.316 300C127.152 301.443 95 341.906 95 341.906L159.297 348.044L129.316 300ZM127.145 317.665L137.153 335.293L116.633 332.851L127.145 317.665Z" fill="#979FC5"/>
<path d="M118.712 284C118.712 284 112.22 291.717 124.52 297.773C136.821 303.829 288.213 352.7 289.926 352.7C293.352 352.7 299.784 355.323 305.314 347.358L375.022 303.627C375.022 303.627 360.918 311.531 356.229 311.005C347.032 309.983 252.341 291.815 252.341 291.815C252.341 291.815 245.961 289.793 246.758 284H118.712Z" fill="#455A64"/>
<path d="M131.145 294.143C132.58 294.128 177.123 293.542 246.026 292.64H246.041H246.056C262.88 295.939 281.259 299.546 300.751 303.37C310.496 305.264 320.527 307.218 330.777 309.209C335.909 310.193 341.086 311.185 346.323 312.184C347.63 312.425 348.945 312.673 350.26 312.921L352.236 313.281L354.138 313.604C354.07 313.732 354.22 313.319 354.385 313.905C354.348 313.958 354.318 313.973 354.318 313.973L354.258 314.018L354.153 314.093L353.942 314.236L353.514 314.514L352.665 315.055L350.952 316.137C349.809 316.85 348.66 317.572 347.51 318.293C330.777 328.662 314.531 338.731 299.278 348.191L299.203 348.236L299.12 348.206C202.528 317.113 132.888 294.699 131.145 294.143C132.888 294.699 202.58 316.963 299.24 347.838L299.083 347.861C314.336 338.401 330.581 328.332 347.307 317.955C348.457 317.234 349.599 316.52 350.749 315.799L352.462 314.716L353.311 314.175L353.732 313.905L353.942 313.77L354.04 313.702L354.085 313.672C354.145 313.687 353.987 313.597 354.175 313.77C354.25 313.875 354.318 314.093 354.265 313.988C353.814 313.98 353.521 313.897 353.176 313.852L352.184 313.68L350.208 313.319C348.893 313.071 347.578 312.83 346.27 312.583C341.033 311.576 335.848 310.584 330.724 309.599C320.475 307.601 310.444 305.647 300.698 303.746C281.207 299.906 262.835 296.292 246.011 292.979H246.049C177.123 293.677 132.58 294.128 131.145 294.143Z" fill="#263238"/>
<path d="M158.676 298.464C160.096 298.441 193.729 297.96 246.349 297.201H246.364H246.379C271.348 302.258 300.878 308.232 332.467 314.626L332.971 314.724L332.527 314.979C331.318 315.693 330.01 316.46 328.703 317.234C317.822 323.636 307.205 329.88 296.979 335.898L296.911 335.943L296.836 335.921C277.172 330.353 258.725 325.131 242.126 320.427C233.831 318.068 225.941 316.016 218.593 314.123C211.236 312.252 204.421 310.524 198.23 308.946C185.832 305.812 175.928 303.25 169.136 301.417C165.739 300.493 163.132 299.779 161.344 299.245C159.668 298.749 158.894 298.524 158.676 298.464C159.127 298.584 162.463 299.486 169.173 301.289C175.973 303.085 185.884 305.61 198.29 308.713C204.489 310.276 211.312 311.989 218.668 313.845C226.024 315.723 233.914 317.76 242.217 320.112C258.823 324.8 277.269 330.007 296.941 335.56L296.791 335.583C307.017 329.564 317.635 323.312 328.507 316.911C329.815 316.137 331.122 315.37 332.332 314.656L332.392 315.017C300.803 308.6 271.281 302.604 246.312 297.532H246.349C193.736 298.088 160.104 298.449 158.676 298.464Z" fill="white"/>
<path d="M336.48 314.251C336.532 314.341 327.673 319.811 316.695 326.468C305.71 333.126 296.761 338.446 296.708 338.355C296.656 338.265 305.507 332.795 316.492 326.138C327.478 319.48 336.427 314.153 336.48 314.251Z" fill="white"/>
<path d="M297.091 341.226C296.986 341.226 296.866 339.888 296.836 338.235C296.798 336.582 296.858 335.237 296.971 335.237C297.076 335.237 297.196 336.575 297.226 338.228C297.257 339.881 297.196 341.218 297.091 341.226Z" fill="white"/>
<path d="M320.302 326.333C320.219 326.401 319.799 326.033 319.37 325.507C318.942 324.981 318.656 324.5 318.739 324.432C318.822 324.364 319.243 324.733 319.671 325.259C320.107 325.785 320.385 326.266 320.302 326.333Z" fill="white"/>
<path d="M219.554 297.915C219.554 297.908 219.645 297.945 219.802 298.028C219.983 298.118 220.216 298.238 220.516 298.396C221.155 298.734 222.072 299.215 223.229 299.831C225.603 301.109 228.992 302.935 233.177 305.181C241.578 309.742 253.157 316.031 265.938 322.974C270.484 325.454 274.872 327.851 278.93 330.068L278.742 330.075C288.014 324.177 296.212 319.405 302.096 316.122C305.034 314.476 307.393 313.199 309.016 312.335C309.812 311.914 310.436 311.591 310.887 311.358C311.09 311.26 311.248 311.177 311.375 311.11C311.488 311.057 311.541 311.035 311.548 311.035C311.556 311.035 311.496 311.072 311.39 311.14C311.27 311.207 311.112 311.298 310.917 311.41C310.481 311.658 309.865 312.004 309.076 312.44C307.453 313.356 305.124 314.671 302.208 316.317C296.362 319.661 288.195 324.47 278.937 330.383L278.847 330.443L278.75 330.391C274.685 328.182 270.296 325.785 265.743 323.312C252.977 316.332 241.42 310.005 233.035 305.422C228.872 303.122 225.498 301.259 223.139 299.959C221.989 299.313 221.095 298.809 220.456 298.456C220.163 298.291 219.938 298.156 219.765 298.058C219.63 297.968 219.554 297.915 219.554 297.915Z" fill="white"/>
<path d="M184.607 309.427L194.841 313.965L285.339 307.646L278.141 303.032L184.607 309.427Z" fill="#979FC5"/>
<path d="M197.696 311.425C197.651 311.523 196.419 311.035 194.954 310.336C193.481 309.637 192.331 308.991 192.377 308.893C192.422 308.795 193.654 309.284 195.119 309.983C196.592 310.681 197.742 311.328 197.696 311.425Z" fill="#263238"/>
<path d="M211.252 310.479C211.207 310.576 209.974 310.088 208.509 309.389C207.036 308.69 205.887 308.044 205.932 307.946C205.977 307.849 207.209 308.337 208.674 309.036C210.147 309.735 211.297 310.381 211.252 310.479Z" fill="#263238"/>
<path d="M224.807 309.524C224.762 309.622 223.529 309.134 222.064 308.435C220.591 307.736 219.442 307.09 219.487 306.992C219.532 306.894 220.764 307.383 222.229 308.082C223.702 308.78 224.852 309.427 224.807 309.524Z" fill="#263238"/>
<path d="M238.362 308.578C238.317 308.675 237.085 308.187 235.619 307.488C234.147 306.789 232.997 306.143 233.042 306.045C233.087 305.948 234.319 306.436 235.785 307.135C237.257 307.834 238.415 308.48 238.362 308.578Z" fill="#263238"/>
<path d="M251.925 307.631C251.88 307.728 250.647 307.24 249.182 306.541C247.709 305.842 246.56 305.196 246.605 305.099C246.65 305.001 247.882 305.489 249.348 306.188C250.813 306.887 251.97 307.533 251.925 307.631Z" fill="#263238"/>
<path d="M265.48 306.677C265.435 306.774 264.203 306.286 262.737 305.587C261.265 304.888 260.115 304.242 260.16 304.144C260.205 304.047 261.437 304.535 262.903 305.234C264.368 305.933 265.525 306.579 265.48 306.677Z" fill="#263238"/>
<path d="M202.175 309.757C202.13 309.855 201.453 309.63 200.664 309.254C199.875 308.878 199.274 308.495 199.319 308.397C199.364 308.3 200.041 308.525 200.83 308.901C201.619 309.276 202.22 309.66 202.175 309.757Z" fill="#263238"/>
<path d="M215.805 308.863C215.76 308.961 215.084 308.735 214.295 308.36C213.506 307.984 212.905 307.601 212.95 307.503C212.995 307.405 213.671 307.631 214.46 308.006C215.249 308.382 215.85 308.765 215.805 308.863Z" fill="#263238"/>
<path d="M229.435 307.969C229.39 308.067 228.714 307.841 227.925 307.465C227.136 307.09 226.535 306.707 226.58 306.609C226.625 306.511 227.301 306.737 228.09 307.112C228.879 307.488 229.48 307.871 229.435 307.969Z" fill="#263238"/>
<path d="M243.066 307.067C243.021 307.165 242.344 306.94 241.556 306.564C240.767 306.188 240.165 305.805 240.211 305.707C240.256 305.61 240.932 305.835 241.721 306.211C242.51 306.586 243.111 306.977 243.066 307.067Z" fill="#263238"/>
<path d="M256.696 306.173C256.651 306.271 255.975 306.045 255.186 305.67C254.397 305.294 253.796 304.911 253.841 304.813C253.886 304.715 254.562 304.941 255.351 305.316C256.14 305.692 256.741 306.075 256.696 306.173Z" fill="#263238"/>
<path d="M270.326 305.279C270.281 305.377 269.605 305.151 268.816 304.775C268.027 304.4 267.426 304.017 267.471 303.919C267.516 303.821 268.192 304.047 268.981 304.422C269.77 304.798 270.372 305.181 270.326 305.279Z" fill="#263238"/>
<path d="M327.162 140.039C326.478 133.179 312.57 117.046 296.107 126.649C295.483 127.01 292.883 135.771 293.109 155.428C293.334 175.092 297.061 222.249 297.061 222.249L287.353 291.303L305.297 294.647C305.297 294.647 322.571 235.279 323.488 226.367C323.488 226.367 327.846 146.899 327.162 140.039ZM323.894 222.415C323.894 222.407 323.894 222.407 323.894 222.415ZM323.488 226.36C323.488 226.352 323.488 226.337 323.488 226.33C323.495 226.345 323.488 226.352 323.488 226.36ZM323.495 226.277C323.503 226.217 323.51 226.157 323.51 226.097C323.51 226.172 323.503 226.232 323.495 226.277ZM323.525 226.051C323.525 226.029 323.533 225.999 323.533 225.976C323.525 225.999 323.525 226.029 323.525 226.051ZM323.683 224.504C323.691 224.451 323.698 224.391 323.698 224.338C323.691 224.391 323.683 224.443 323.683 224.504ZM323.766 223.647C323.773 223.594 323.773 223.542 323.781 223.489C323.781 223.542 323.773 223.594 323.766 223.647ZM323.811 223.204C323.841 222.948 323.856 222.76 323.871 222.633C323.856 222.775 323.841 222.971 323.811 223.204Z" fill="#FFBE9D"/>
<path d="M288.954 178.909L328.229 178.721C328.229 178.721 331.746 146.035 329.597 138.912C326.982 130.233 311.916 118.361 298.669 123.673C285.422 128.993 288.954 178.909 288.954 178.909Z" fill="#0398DA"/>
<path d="M294.484 129.286C294.491 129.294 294.439 129.361 294.349 129.497C294.244 129.639 294.101 129.835 293.92 130.09C293.755 130.368 293.567 130.722 293.334 131.127C293.154 131.563 292.906 132.051 292.696 132.63C291.824 134.937 291.012 138.446 290.434 142.902C289.254 151.813 288.781 164.452 289.142 178.909L288.954 178.721C293.695 178.698 298.699 178.668 303.839 178.646C312.472 178.608 320.723 178.571 328.229 178.541L328.049 178.713C328.5 166.714 328.883 156.487 329.153 149.236C329.304 145.637 329.416 142.774 329.499 140.798C329.544 139.836 329.582 139.085 329.604 138.551C329.619 138.311 329.634 138.123 329.642 137.972C329.649 137.845 329.657 137.777 329.664 137.777C329.672 137.777 329.672 137.845 329.672 137.972C329.672 138.115 329.672 138.311 329.664 138.551C329.649 139.077 329.634 139.828 329.612 140.798C329.552 142.781 329.469 145.637 329.364 149.243C329.123 156.494 328.793 166.721 328.402 178.721L328.395 178.894H328.222C320.715 178.931 312.472 178.976 303.831 179.029C298.692 179.051 293.687 179.074 288.946 179.097H288.758L288.751 178.909C288.413 164.429 288.931 151.783 290.178 142.857C290.795 138.393 291.644 134.869 292.56 132.57C292.778 131.991 293.034 131.503 293.229 131.067C293.47 130.661 293.672 130.308 293.845 130.038C294.041 129.797 294.191 129.602 294.304 129.459C294.424 129.346 294.484 129.286 294.484 129.286Z" fill="#263238"/>
<path d="M305.297 294.654L287.684 290.717C287.684 290.717 285.279 295.007 285.144 294.955C285.016 294.902 268.749 300.778 267.749 301.274C267.163 301.567 265.998 303.393 265.134 304.836C264.451 305.993 264.165 307.345 264.33 308.683C264.33 308.683 263.038 311.305 263.338 311.673C264.09 312.568 265.653 312.507 267.456 311.553C269.537 310.456 274.512 304.806 274.512 304.806C274.512 304.806 270.101 312.665 269.958 314.311C269.816 315.949 270.154 316.693 272.393 315.919C274.88 315.055 280.711 306.173 280.711 306.173C280.711 306.173 280.358 310.343 279.283 312.477C278.216 314.611 278.584 316.76 280.936 316.55C283.288 316.34 286.046 309.239 286.046 309.239L287.902 307.623C287.902 307.623 287.579 309.705 286.602 311.463C285.708 313.071 282.935 316.422 286.068 316.279C289.202 316.137 293.733 308.57 293.733 308.57C293.733 308.57 300.803 303.739 302.411 300.943C304.027 298.156 305.297 294.654 305.297 294.654Z" fill="#FFBE9D"/>
<path d="M280.004 298.464C280.012 298.486 279.749 298.599 279.268 298.764C278.787 298.93 278.088 299.163 277.224 299.441C276.368 299.741 275.301 299.997 274.144 300.29C272.994 300.583 271.739 300.988 270.642 301.785C268.41 303.378 267.073 305.572 265.833 306.894C265.247 307.586 264.804 308.164 264.526 308.585C264.248 309.006 264.112 309.246 264.082 309.239C264.06 309.231 264.15 308.961 264.398 308.51C264.638 308.059 265.059 307.443 265.615 306.729C266.186 306.015 266.84 305.174 267.584 304.219C268.343 303.28 269.267 302.296 270.409 301.477C271.566 300.635 272.881 300.222 274.046 299.944C275.226 299.666 276.262 299.448 277.134 299.178C278.006 298.93 278.72 298.742 279.208 298.614C279.719 298.494 279.997 298.434 280.004 298.464Z" fill="#EB996E"/>
<path d="M277.803 302.363C277.871 302.476 276.413 303.258 275.023 304.67C273.603 306.075 273.017 307.623 272.911 307.578C272.806 307.571 273.265 305.873 274.745 304.4C276.195 302.92 277.773 302.281 277.803 302.363Z" fill="#EB996E"/>
<path d="M284.265 303.506C284.272 303.566 283.919 303.618 283.408 303.836C282.897 304.047 282.229 304.445 281.71 305.099C281.199 305.752 280.959 306.496 280.876 307.045C280.786 307.593 280.816 307.946 280.756 307.954C280.711 307.961 280.576 307.616 280.598 307.015C280.613 306.429 280.824 305.587 281.395 304.858C281.966 304.129 282.74 303.731 283.303 303.573C283.897 303.415 284.265 303.461 284.265 303.506Z" fill="#EB996E"/>
<path d="M290.291 305.294C290.321 305.339 290.111 305.512 289.765 305.767C289.427 306.023 288.946 306.353 288.525 306.812C288.112 307.27 287.864 307.781 287.774 308.179C287.676 308.57 287.699 308.841 287.639 308.848C287.594 308.863 287.466 308.6 287.496 308.134C287.526 307.676 287.766 307.06 288.232 306.549C288.698 306.038 289.232 305.73 289.615 305.527C290.006 305.339 290.261 305.249 290.291 305.294Z" fill="#EB996E"/>
<path d="M328.47 156.239C328.47 156.239 327.403 156.87 325.299 157.644C323.202 158.388 320.024 159.222 316.004 159.282C312.014 159.327 307.153 158.568 302.434 156.081C301.262 155.458 300.112 154.714 299.06 153.789C298.016 152.865 297.069 151.753 296.43 150.423C295.799 149.101 295.491 147.583 295.664 146.065C295.829 144.547 296.573 143.067 297.79 142.053C299.022 141.068 300.555 140.557 302.066 140.482C302.824 140.43 303.576 140.497 304.305 140.655C305.034 140.805 305.74 141.061 306.386 141.421C307.04 141.767 307.618 142.233 308.107 142.759C308.61 143.277 309.024 143.871 309.339 144.502C309.67 145.126 309.91 145.787 310.06 146.463C310.226 147.132 310.293 147.816 310.286 148.485C310.293 149.83 309.97 151.137 309.422 152.287C308.858 153.429 308.092 154.413 307.22 155.232C305.477 156.855 303.418 157.832 301.479 158.343C299.526 158.854 297.685 158.922 296.099 158.801C294.514 158.689 293.161 158.403 292.087 158.102C291.012 157.802 290.193 157.509 289.645 157.291C289.374 157.186 289.164 157.088 289.029 157.028C288.894 156.968 288.826 156.93 288.826 156.923C288.826 156.915 288.901 156.938 289.044 156.99C289.209 157.051 289.412 157.126 289.675 157.216C290.231 157.411 291.05 157.682 292.125 157.96C293.199 158.23 294.544 158.493 296.115 158.583C297.685 158.681 299.496 158.591 301.404 158.072C303.305 157.554 305.304 156.585 306.995 154.992C307.829 154.195 308.565 153.233 309.106 152.136C309.625 151.032 309.933 149.777 309.925 148.485C309.925 147.838 309.858 147.185 309.7 146.546C309.557 145.9 309.324 145.269 309.009 144.675C308.7 144.074 308.31 143.51 307.829 143.022C307.355 142.526 306.814 142.083 306.198 141.76C305.59 141.421 304.921 141.173 304.222 141.038C303.531 140.888 302.802 140.828 302.081 140.873C300.638 140.941 299.18 141.429 298.031 142.353C296.903 143.292 296.197 144.675 296.039 146.11C295.874 147.545 296.167 148.996 296.768 150.258C298.008 152.805 300.322 154.533 302.599 155.766C307.243 158.23 312.044 159.019 315.997 159.004C319.971 158.982 323.135 158.193 325.239 157.501C326.291 157.133 327.095 156.825 327.628 156.577C327.884 156.472 328.087 156.382 328.244 156.314C328.395 156.262 328.47 156.231 328.47 156.239Z" fill="#263238"/>
<path d="M270.469 216.629L267.929 214.367L246.161 215.412C246.161 221.348 246.672 243.537 246.672 243.537L208.313 278.77L210.545 295.548C210.545 295.548 259.506 270.429 265.217 259.909C270.942 249.397 270.469 216.629 270.469 216.629Z" fill="#FFBE9D"/>
<path d="M258.011 254.642C257.943 254.657 257.786 253.688 257.199 252.238C256.628 250.795 255.539 248.886 253.803 247.256C252.067 245.633 250.091 244.671 248.611 244.19C247.131 243.702 246.154 243.604 246.161 243.537C246.161 243.514 246.409 243.506 246.853 243.559C247.296 243.604 247.927 243.709 248.694 243.927C250.219 244.348 252.278 245.295 254.066 246.97C255.854 248.646 256.936 250.645 257.455 252.14C257.718 252.891 257.868 253.515 257.943 253.958C258.018 254.394 258.034 254.635 258.011 254.642Z" fill="#EB996E"/>
<path d="M210.56 278.988C210.56 278.988 208.065 277.432 206.773 277.304C205.488 277.177 202.009 276.696 202.009 276.696H193.669C192.564 276.696 191.505 277.102 190.678 277.83C188.897 279.416 185.899 282.181 185.809 282.992C185.681 284.15 186.711 285.435 186.711 285.435C186.711 285.435 185.283 288.072 185.358 289.823C185.426 291.483 186.388 292.505 187.372 293.031C187.372 293.031 187.485 295.421 188.123 296.923C188.131 296.938 188.138 296.953 188.146 296.968C188.672 298.201 189.874 299.012 191.212 299.042C195.585 299.148 205.188 299.335 207.156 298.937C209.726 298.426 219.006 289.823 219.006 289.823L210.56 278.988Z" fill="#FFBE9D"/>
<path d="M186.801 292.573C188.972 294.376 191.377 295.962 194.044 296.878C196.719 297.795 199.687 297.998 202.362 297.074C203.392 296.721 204.444 296.112 204.819 295.09C205.263 293.858 204.481 292.423 203.309 291.851C202.137 291.28 200.709 291.446 199.515 291.979" fill="#FFBE9D"/>
<path d="M199.507 291.972C199.5 291.957 199.582 291.904 199.755 291.829C199.928 291.746 200.183 291.641 200.529 291.551C201.205 291.378 202.332 291.19 203.535 291.821C204.113 292.144 204.647 292.701 204.932 293.437C205.067 293.805 205.143 294.218 205.097 294.647C205.045 295.075 204.872 295.496 204.594 295.849C204.038 296.563 203.189 296.999 202.317 297.292C201.438 297.585 200.484 297.78 199.507 297.84C197.538 297.975 195.667 297.622 194.067 297.074C192.459 296.525 191.121 295.781 190.047 295.105C188.972 294.421 188.161 293.783 187.612 293.324C187.064 292.866 186.786 292.595 186.801 292.573C186.816 292.55 187.131 292.783 187.703 293.204C188.274 293.617 189.108 294.218 190.19 294.865C191.272 295.511 192.609 296.21 194.18 296.728C195.75 297.246 197.576 297.57 199.477 297.442C200.424 297.382 201.34 297.201 202.19 296.923C203.031 296.653 203.82 296.24 204.308 295.623C204.812 295.007 204.872 294.196 204.624 293.542C204.384 292.881 203.91 292.362 203.392 292.054C202.317 291.446 201.228 291.573 200.559 291.694C199.883 291.836 199.522 292.009 199.507 291.972Z" fill="#EB996E"/>
<path d="M195.848 280.024C195.472 281.527 194.676 282.917 193.579 284.007C195.112 285.525 196.577 287.11 197.974 288.748C198.508 289.379 199.049 290.026 199.349 290.8C199.657 291.566 199.695 292.483 199.267 293.189C198.666 294.181 197.298 294.481 196.171 294.181C195.044 293.88 194.112 293.129 193.21 292.393C190.611 290.259 188.958 287.937 186.703 285.435" fill="#FFBE9D"/>
<path d="M186.703 285.442C186.711 285.435 186.801 285.51 186.951 285.66C187.109 285.81 187.327 286.043 187.605 286.351C188.198 287.02 188.98 287.892 189.919 288.959C190.904 290.056 192.113 291.31 193.631 292.513C194.382 293.114 195.209 293.73 196.186 293.993C197.133 294.248 198.335 294.068 198.974 293.249C199.289 292.836 199.402 292.302 199.364 291.784C199.327 291.265 199.146 290.769 198.883 290.319C198.365 289.417 197.621 288.673 196.96 287.944C195.645 286.502 194.458 285.202 193.458 284.105L193.368 283.999L193.466 283.909C194.488 282.917 195.051 281.888 195.374 281.174C195.697 280.445 195.803 280.017 195.833 280.024C195.848 280.024 195.833 280.137 195.788 280.348C195.743 280.55 195.66 280.859 195.517 281.234C195.232 281.986 194.691 283.06 193.661 284.112V283.917C194.691 285.006 195.9 286.291 197.245 287.719C197.914 288.44 198.658 289.169 199.229 290.138C199.507 290.619 199.717 291.175 199.763 291.769C199.815 292.355 199.68 292.994 199.297 293.497C198.921 293.993 198.35 294.286 197.786 294.414C197.215 294.541 196.637 294.519 196.096 294.376C195.014 294.076 194.165 293.414 193.413 292.806C191.888 291.573 190.678 290.274 189.716 289.154C188.755 288.027 188.018 287.103 187.492 286.464C186.974 285.81 186.688 285.457 186.703 285.442Z" fill="#EB996E"/>
<path d="M198.282 268.506L197.396 299.846L198.553 304.64L200.168 299.643L201.468 268.551L198.282 268.506Z" fill="#263238"/>
<path d="M204.271 278.108C203.94 278.191 200.101 277.357 198.853 279.025C197.606 280.693 195.269 287.614 195.269 287.614C195.269 287.614 196.351 290.446 198.185 289.695C200.018 288.944 203.52 285.277 203.52 285.277L206.773 285.194" fill="#FFBE9D"/>
<path d="M206.773 285.194C206.773 285.217 206.472 285.247 205.916 285.284C205.293 285.314 204.496 285.352 203.519 285.404L203.602 285.367C202.723 286.299 201.581 287.463 200.123 288.651C199.762 288.944 199.364 289.237 198.936 289.507C198.726 289.642 198.493 289.763 198.252 289.875C197.989 289.973 197.704 290.041 197.411 290.003C196.809 289.95 196.314 289.575 195.953 289.146C195.577 288.718 195.299 288.222 195.074 287.681L195.044 287.621L195.066 287.553C195.111 287.433 195.156 287.298 195.201 287.163C195.863 285.254 196.539 283.443 197.23 281.828C197.576 281.024 197.922 280.257 198.312 279.574C198.5 279.228 198.726 278.905 199.011 278.627C199.319 278.394 199.642 278.206 199.973 278.116C201.295 277.725 202.392 277.89 203.129 277.951C203.459 277.996 203.737 278.033 203.978 278.063C204.173 278.093 204.263 278.093 204.271 278.108C204.278 278.153 203.85 278.146 203.121 278.101C202.392 278.086 201.288 277.981 200.071 278.379C199.762 278.469 199.484 278.649 199.221 278.852C198.989 279.085 198.786 279.386 198.613 279.731C198.252 280.408 197.914 281.167 197.583 281.971C196.922 283.586 196.253 285.389 195.592 287.29C195.547 287.426 195.502 287.553 195.457 287.681V287.546C195.66 288.027 195.93 288.508 196.261 288.891C196.592 289.282 197.005 289.582 197.463 289.62C197.914 289.68 198.35 289.44 198.763 289.184C199.176 288.929 199.56 288.651 199.92 288.365C201.37 287.215 202.535 286.081 203.437 285.187L203.474 285.149H203.519C204.496 285.149 205.293 285.142 205.916 285.142C206.472 285.157 206.773 285.172 206.773 285.194Z" fill="#EB996E"/>
<path d="M199.943 264.095C199.379 264.087 198.913 264.531 198.906 265.094L198.816 269.542C198.808 270.106 199.252 270.572 199.815 270.579C200.379 270.587 200.845 270.144 200.852 269.58L200.942 265.132C200.95 264.568 200.506 264.11 199.943 264.095Z" fill="#263238"/>
<path d="M196.644 275.982C196.659 275.974 196.704 276.012 196.794 276.102L196.712 276.125C196.674 275.516 196.794 273.277 197.012 270.609C197.08 269.835 197.148 269.092 197.208 268.393C197.29 267.717 197.29 267.1 197.471 266.567C197.568 266.304 197.734 266.079 197.937 265.958C198.132 265.838 198.335 265.808 198.493 265.823C198.823 265.861 198.913 266.063 198.891 266.071C198.868 266.101 198.748 265.966 198.485 265.981C198.222 265.996 197.846 266.191 197.726 266.665C197.598 267.115 197.621 267.754 197.561 268.43C197.508 269.129 197.456 269.873 197.396 270.647C197.178 273.314 196.93 275.546 196.802 276.14L196.772 276.26L196.712 276.162C196.652 276.05 196.629 275.989 196.644 275.982Z" fill="#263238"/>
<path d="M198.575 306.136C198.47 306.136 198.38 305.565 198.38 304.866C198.38 304.167 198.47 303.596 198.575 303.596C198.68 303.596 198.771 304.167 198.771 304.866C198.771 305.572 198.688 306.136 198.575 306.136Z" fill="#263238"/>
</g>
<defs>
<clipPath id="clip0_17_87">
<rect width="500" height="354" fill="white"/>
</clipPath>
</defs>
</svg>
