<svg width="493" height="353" viewBox="0 0 493 353" fill="none" xmlns="http://www.w3.org/2000/svg">
<g clip-path="url(#clip0_17_2066)">
<path d="M503 293.5C503 293.769 387.26 294 244.512 294C101.717 294 -14 293.769 -14 293.5C-14 293.231 101.717 293 244.512 293C387.248 293 503 293.231 503 293.5Z" fill="#263238"/>
<path d="M307.565 155.085C308.815 159.882 307.148 165.311 303.431 168.598C300.987 170.756 297.806 172.004 295.579 174.378C292.71 177.441 291.885 182.118 293.143 186.116C294.393 190.114 297.55 193.376 301.34 195.183C306.499 197.646 312.861 197.43 317.845 194.623C324.038 191.129 327.651 184.125 328.565 177.081C329.478 170.037 328.044 162.905 326.177 156.052" fill="#010E3A"/>
<path d="M385.676 279.297C392.085 278.25 398.094 280.201 404.44 281.608C406.147 281.984 407.941 282.312 409.64 281.888C412.388 281.192 414.343 278.514 414.768 275.715C415.136 273.293 414.503 270.75 413.149 268.703C412.572 267.84 411.859 267.04 410.954 266.528C410.025 266.001 408.951 265.801 407.885 265.697C404.023 265.321 400.097 266.184 396.58 267.824C393.063 269.463 389.946 271.869 387.206 274.604C385.868 275.947 386.268 277.49 385.676 279.297Z" fill="#263238"/>
<path d="M255.694 176.058C254.669 169.989 254.797 163.728 256.063 157.7C256.68 154.765 257.585 151.847 259.228 149.344C259.828 148.433 260.566 147.545 261.575 147.145C262.977 146.586 264.644 147.105 265.749 148.129C267.192 149.464 267.793 151.535 267.728 153.494C267.664 155.461 267.023 157.356 266.302 159.187C263.835 165.503 259.925 170.748 255.694 176.058Z" fill="#263238"/>
<path d="M379.899 199.173C381.357 200.204 413.59 269.447 413.59 269.447C411.002 268.335 408.134 268.055 405.377 268.639L403.631 269.103C400.506 269.934 397.534 271.286 394.849 273.101L385.667 279.305C384.93 278.889 384.442 278.13 384.361 277.282L384.337 277.019L359.364 234.242L379.899 199.173Z" fill="#0398DA"/>
<path d="M259.003 88.977L267.592 137.694C270.356 144.251 302.597 183.973 302.597 183.973L291.933 218.147L249.597 160.378C245.663 156.18 243.524 150.623 243.636 144.883L245.286 92.8309L259.003 88.977Z" fill="#FFBE9D"/>
<path d="M304.713 176.337L326.818 178.008L346.096 180.991C346.096 180.991 379.907 189.858 379.907 193.552C379.907 194.783 370.669 224.119 365.525 241.694C363.306 249.282 362.416 254.671 362.416 254.671L379.907 293.434H296.725V257.885C296.725 257.885 291.14 211.246 292.102 204.882C293.063 198.517 304.713 176.337 304.713 176.337Z" fill="#0398DA"/>
<path d="M248.539 69.2917C248.668 64.3264 249.172 59.3771 250.054 54.4918C250.182 53.7962 250.462 52.9566 251.159 52.8687C252.025 52.7567 252.465 53.8681 252.577 54.7237C253.347 60.6005 253.098 66.6052 251.848 72.402" fill="#EB996E"/>
<path d="M258.37 172.452C267.857 163.992 268.177 149.336 267.368 137.67C267.312 136.807 267.248 135.871 267.736 135.168C268.642 133.881 270.845 134.352 271.726 135.664C272.608 136.967 272.56 138.662 272.48 140.237C272.968 138.902 275.051 138.91 276.029 139.941C277.006 140.973 277.175 142.5 277.287 143.915C277.391 145.218 277.495 146.522 277.599 147.825L305.305 174.179C305.305 174.179 306.067 171.812 308.102 173.163C310.137 174.514 311.451 177.457 311.451 177.457L291.925 219.994L255.686 175.994C255.694 175.986 256.832 173.827 258.37 172.452Z" fill="#0398DA"/>
<path d="M295.979 201.883C293.175 205.617 290.836 209.759 289.618 214.269C288.4 218.778 288.368 223.672 290.026 228.037C292.374 234.186 298.191 238.871 304.705 239.871" fill="#0398DA"/>
<path d="M385.676 279.297L384.626 293.45H405.161L409.976 268.463C403.719 268.111 397.55 270.046 392.614 273.892L385.676 279.297Z" fill="#FFBE9D"/>
<path d="M268.025 169.325C268.001 169.309 268.161 168.909 268.474 168.206C268.794 167.502 269.227 166.463 269.715 165.167C270.212 163.872 270.725 162.305 271.214 160.546C271.678 158.779 272.111 156.812 272.423 154.725C272.72 152.638 272.872 150.623 272.928 148.8C272.968 146.969 272.92 145.322 272.816 143.939C272.72 142.556 272.6 141.444 272.496 140.677C272.399 139.909 272.359 139.477 272.383 139.469C272.415 139.461 272.504 139.885 272.656 140.645C272.816 141.404 272.976 142.524 273.113 143.915C273.257 145.298 273.329 146.961 273.313 148.808C273.273 150.655 273.137 152.678 272.84 154.789C272.528 156.892 272.079 158.875 271.59 160.65C271.077 162.425 270.533 163.992 269.996 165.279C269.467 166.567 268.994 167.59 268.626 168.278C268.257 168.957 268.049 169.333 268.025 169.325Z" fill="#263238"/>
<path d="M274.058 161.897C274.002 161.865 274.386 161.114 274.915 159.866C275.444 158.619 276.085 156.86 276.55 154.853C277.014 152.846 277.215 150.983 277.279 149.632C277.351 148.281 277.335 147.441 277.399 147.433C277.447 147.433 277.567 148.273 277.575 149.64C277.575 151.007 277.423 152.91 276.95 154.949C276.478 156.988 275.781 158.763 275.172 159.994C274.579 161.226 274.106 161.929 274.058 161.897Z" fill="#263238"/>
<path d="M306.603 184.013C306.539 183.973 306.876 183.453 307.068 182.518C307.276 181.583 307.26 180.231 306.86 178.816C306.459 177.401 305.858 176.177 305.466 175.282C305.065 174.386 304.857 173.803 304.913 173.787C304.969 173.763 305.265 174.29 305.73 175.154C306.187 176.026 306.836 177.233 307.26 178.704C307.677 180.183 307.645 181.622 307.357 182.59C307.076 183.557 306.635 184.037 306.603 184.013Z" fill="#263238"/>
<path d="M301.788 240.335C301.78 240.343 301.66 240.279 301.444 240.143C301.187 239.975 300.875 239.767 300.49 239.519C299.673 238.967 298.495 238.152 297.101 237.064C295.715 235.969 294.104 234.586 292.606 232.771C291.116 230.964 289.778 228.661 289.129 226.014C288.456 223.376 288.408 220.745 288.672 218.418C288.937 216.084 289.489 214.037 290.042 212.358C290.603 210.679 291.164 209.367 291.573 208.464C291.781 208.016 291.941 207.672 292.061 207.44C292.182 207.209 292.246 207.089 292.262 207.097C292.294 207.113 292.085 207.616 291.725 208.528C291.364 209.447 290.852 210.775 290.331 212.446C289.818 214.125 289.297 216.156 289.065 218.458C288.824 220.753 288.889 223.328 289.546 225.91C290.178 228.501 291.468 230.74 292.919 232.531C294.377 234.33 295.947 235.721 297.301 236.832C298.663 237.944 299.809 238.791 300.594 239.391C300.955 239.663 301.251 239.895 301.5 240.079C301.692 240.231 301.796 240.319 301.788 240.335Z" fill="#263238"/>
<path d="M347.177 248.242C347.177 248.258 347.057 248.298 346.825 248.37C346.584 248.434 346.24 248.554 345.783 248.642C344.87 248.85 343.532 249.066 341.857 249.114C338.54 249.234 333.757 248.474 329.39 245.716C325.023 242.957 322.283 238.975 320.969 235.929C320.296 234.402 319.912 233.098 319.711 232.187C319.599 231.739 319.551 231.371 319.511 231.132C319.471 230.892 319.463 230.764 319.471 230.756C319.503 230.748 319.615 231.251 319.864 232.139C320.112 233.034 320.537 234.306 321.234 235.801C322.596 238.775 325.328 242.653 329.606 245.364C333.885 248.058 338.564 248.858 341.849 248.818C343.5 248.81 344.838 248.642 345.751 248.482C346.664 248.322 347.169 248.21 347.177 248.242Z" fill="#263238"/>
<path d="M359.924 263.786C359.812 263.754 360.87 259.34 362.288 253.919C363.706 248.498 364.948 244.124 365.06 244.156C365.172 244.188 364.115 248.602 362.697 254.031C361.278 259.436 360.037 263.81 359.924 263.786Z" fill="#263238"/>
<path d="M371.134 254.399C371.037 254.455 367.817 249.202 363.939 242.661C360.061 236.121 357.008 230.772 357.104 230.716C357.2 230.66 360.421 235.913 364.299 242.453C368.177 248.986 371.238 254.335 371.134 254.399Z" fill="#263238"/>
<path d="M401.86 267.344C401.868 267.424 400.69 267.52 398.864 267.983C397.95 268.207 396.885 268.559 395.731 269.023C394.585 269.503 393.359 270.118 392.141 270.87C390.932 271.645 389.858 272.485 388.929 273.309C388.015 274.148 387.238 274.964 386.645 275.691C385.443 277.138 384.85 278.154 384.786 278.114C384.762 278.098 384.89 277.834 385.155 277.37C385.411 276.899 385.836 276.259 386.413 275.499C386.99 274.74 387.751 273.892 388.664 273.021C389.594 272.165 390.683 271.294 391.917 270.51C393.159 269.735 394.409 269.127 395.587 268.655C396.765 268.199 397.862 267.88 398.8 267.688C399.737 267.488 400.498 267.384 401.035 267.352C401.564 267.32 401.852 267.312 401.86 267.344Z" fill="#263238"/>
<path d="M405.786 262.53C405.778 262.618 404.496 262.458 402.445 262.634C401.419 262.714 400.21 262.922 398.888 263.258C397.582 263.618 396.163 264.122 394.761 264.817C393.359 265.529 392.109 266.352 391.036 267.184C389.978 268.039 389.089 268.879 388.408 269.655C387.038 271.19 386.389 272.309 386.324 272.261C386.3 272.245 386.453 271.965 386.749 271.462C386.893 271.206 387.078 270.902 387.334 270.574C387.582 270.238 387.839 269.846 388.191 269.455C388.848 268.647 389.738 267.76 390.803 266.88C391.885 266.017 393.151 265.161 394.577 264.441C396.011 263.738 397.453 263.234 398.799 262.882C400.145 262.562 401.387 262.378 402.429 262.339C402.95 262.291 403.422 262.315 403.839 262.323C404.256 262.323 404.608 262.355 404.897 262.386C405.466 262.45 405.786 262.498 405.786 262.53Z" fill="#263238"/>
<g opacity="0.3">
<path d="M320.328 232.459C318.437 236.025 320.016 240.374 321.738 244.028C323.076 246.859 324.567 249.737 326.994 251.704C329.382 253.639 332.603 254.535 335.647 254.103C338.7 253.671 341.536 251.928 343.299 249.41C333.116 249.45 323.285 242.509 319.936 232.915" fill="black"/>
</g>
<g opacity="0.3">
<path d="M357.112 230.716C355.678 234.146 356.76 238.847 358.266 242.245C359.78 245.644 361.375 249.442 360.157 252.968C359.933 253.623 359.604 254.287 359.684 254.983C359.772 255.67 360.517 256.334 361.134 256.014C361.495 255.83 361.655 255.406 361.775 255.022C362.913 251.6 364.059 248.178 365.197 244.764" fill="black"/>
</g>
<path d="M281.317 185.548C281.205 185.532 281.573 182.678 282.134 179.184C282.703 175.69 283.256 172.867 283.368 172.883C283.48 172.899 283.112 175.754 282.551 179.248C281.982 182.742 281.437 185.564 281.317 185.548Z" fill="#FAFAFA"/>
<path d="M272.88 183.781C272.776 183.853 271.398 181.926 269.499 179.72C267.6 177.505 265.91 175.858 265.99 175.77C266.062 175.69 267.897 177.217 269.812 179.456C271.727 181.678 272.968 183.717 272.88 183.781Z" fill="#FAFAFA"/>
<path d="M280.123 163.185C280.171 163.217 279.827 163.768 279.218 164.624C278.609 165.479 277.728 166.623 276.686 167.838C275.652 169.053 274.659 170.109 273.914 170.852C273.169 171.588 272.68 172.012 272.64 171.972C272.552 171.884 274.306 169.997 276.366 167.566C278.433 165.151 280.027 163.113 280.123 163.185Z" fill="#FAFAFA"/>
<path d="M277.295 153.118C277.183 153.166 276.726 152.143 275.837 151.135C274.963 150.112 274.018 149.52 274.082 149.408C274.122 149.312 275.22 149.776 276.157 150.863C277.095 151.943 277.399 153.094 277.295 153.118Z" fill="#FAFAFA"/>
<path d="M269.988 159.323C270.004 159.435 269.075 159.674 267.905 159.866C266.735 160.05 265.774 160.106 265.758 159.994C265.742 159.882 266.671 159.642 267.841 159.451C269.01 159.267 269.972 159.211 269.988 159.323Z" fill="#FAFAFA"/>
<path d="M288.424 168.206C288.296 168.19 288.608 166.503 288.159 164.488C287.735 162.465 286.749 161.058 286.853 160.994C286.917 160.914 288.111 162.281 288.56 164.4C289.033 166.519 288.512 168.246 288.424 168.206Z" fill="#FAFAFA"/>
<path d="M298.271 178.776C298.159 178.84 297.317 177.145 295.691 175.53C294.08 173.899 292.39 173.043 292.454 172.931C292.486 172.835 294.313 173.539 295.987 175.234C297.67 176.913 298.367 178.744 298.271 178.776Z" fill="#FAFAFA"/>
<path d="M282.463 197.118C282.503 197.214 280.868 197.806 278.761 197.726C276.654 197.662 275.067 196.958 275.116 196.87C275.156 196.75 276.75 197.254 278.777 197.31C280.804 197.39 282.431 196.998 282.463 197.118Z" fill="#FAFAFA"/>
<path d="M289.882 200.916C289.77 200.876 290.395 199.029 290.916 196.694C291.444 194.36 291.669 192.433 291.789 192.441C291.893 192.449 291.853 194.424 291.316 196.79C290.795 199.149 289.986 200.956 289.882 200.916Z" fill="#FAFAFA"/>
<path d="M306.091 201.532C306.003 201.612 304.44 200.028 302.589 198.006C300.739 195.983 299.312 194.28 299.401 194.2C299.489 194.12 301.051 195.703 302.902 197.726C304.745 199.757 306.171 201.46 306.091 201.532Z" fill="#FAFAFA"/>
<path d="M313.646 220.217C313.566 220.297 312.396 219.226 311.034 217.819C309.672 216.412 308.639 215.212 308.719 215.132C308.799 215.052 309.969 216.124 311.331 217.531C312.693 218.93 313.726 220.138 313.646 220.217Z" fill="#FAFAFA"/>
<path d="M299.609 222C299.681 222.08 298.343 223.32 296.412 224.431C294.481 225.559 292.742 226.102 292.71 225.998C292.662 225.886 294.305 225.175 296.204 224.071C298.102 222.976 299.529 221.905 299.609 222Z" fill="#FAFAFA"/>
<path d="M306.067 239.775C305.946 239.743 306.427 237.648 306.667 235.009C306.916 232.379 306.836 230.228 306.964 230.22C307.068 230.204 307.341 232.379 307.084 235.049C306.836 237.728 306.171 239.807 306.067 239.775Z" fill="#FAFAFA"/>
<path d="M330.352 225.327C330.287 225.415 328.573 224.215 326.882 222.28C325.184 220.353 324.23 218.498 324.318 218.45C324.423 218.386 325.528 220.122 327.195 222.009C328.853 223.903 330.432 225.223 330.352 225.327Z" fill="#FAFAFA"/>
<path d="M339.221 232.867C339.125 232.795 340.343 231.132 341.697 228.997C343.067 226.862 344.06 225.071 344.172 225.119C344.269 225.167 343.435 227.062 342.049 229.221C340.679 231.379 339.309 232.939 339.221 232.867Z" fill="#FAFAFA"/>
<path d="M337.923 214.413C337.891 214.525 336.072 214.133 333.853 213.541C331.634 212.949 329.855 212.374 329.887 212.262C329.919 212.15 331.738 212.542 333.957 213.133C336.176 213.725 337.955 214.301 337.923 214.413Z" fill="#FAFAFA"/>
<path d="M331.457 246.891C331.345 246.883 331.345 245.188 331.473 243.101C331.593 241.014 331.786 239.327 331.906 239.335C332.018 239.343 332.018 241.038 331.89 243.125C331.762 245.212 331.569 246.899 331.457 246.891Z" fill="#FAFAFA"/>
<path d="M337.05 258.013C336.93 257.957 337.771 256.302 338.059 254.071C338.372 251.848 337.995 250.025 338.123 250.001C338.22 249.961 338.788 251.808 338.468 254.127C338.171 256.446 337.13 258.077 337.05 258.013Z" fill="#FAFAFA"/>
<path d="M322.556 255.558C322.452 255.574 322.203 253.695 322.644 251.424C323.077 249.154 324.006 247.499 324.094 247.555C324.206 247.603 323.469 249.298 323.052 251.504C322.62 253.711 322.676 255.55 322.556 255.558Z" fill="#FAFAFA"/>
<path d="M309.336 261.195C309.255 261.283 307.629 259.9 305.57 258.277C303.511 256.646 301.796 255.39 301.86 255.294C301.924 255.198 303.759 256.31 305.826 257.949C307.901 259.588 309.408 261.115 309.336 261.195Z" fill="#FAFAFA"/>
<path d="M318.285 245.508C318.341 245.612 316.234 246.827 313.59 248.234C310.938 249.641 308.751 250.689 308.695 250.593C308.639 250.489 310.746 249.274 313.39 247.866C316.042 246.459 318.237 245.404 318.285 245.508Z" fill="#FAFAFA"/>
<path d="M346.095 280.713C346.095 280.729 345.919 280.768 345.575 280.848C345.23 280.912 344.725 281.04 344.068 281.128C342.754 281.344 340.823 281.528 338.436 281.488C336.048 281.456 333.204 281.128 330.143 280.321C327.091 279.521 323.838 278.194 320.729 276.275C317.636 274.332 315.016 271.997 312.949 269.607C310.882 267.216 309.336 264.809 308.262 262.682C307.18 260.556 306.499 258.748 306.115 257.477C305.898 256.846 305.794 256.342 305.706 256.006C305.618 255.67 305.586 255.486 305.594 255.486C305.61 255.486 305.674 255.654 305.786 255.99C305.906 256.318 306.035 256.814 306.267 257.437C306.7 258.693 307.413 260.468 308.518 262.562C309.624 264.649 311.178 267.016 313.238 269.367C315.297 271.717 317.893 274.012 320.945 275.931C324.014 277.826 327.219 279.145 330.239 279.961C333.26 280.776 336.072 281.136 338.436 281.208C340.799 281.288 342.722 281.144 344.036 280.984C344.701 280.928 345.206 280.824 345.551 280.784C345.911 280.713 346.095 280.697 346.095 280.713Z" fill="#263238"/>
<path d="M322.155 276.571C322.059 276.603 321.755 274.82 322.532 272.789C323.285 270.758 324.687 269.607 324.735 269.694C324.831 269.782 323.629 271.006 322.916 272.933C322.187 274.86 322.291 276.571 322.155 276.571Z" fill="#FAFAFA"/>
<path d="M315.561 273.82C315.617 273.932 314.415 274.516 313.478 275.795C312.516 277.058 312.292 278.378 312.164 278.354C312.06 278.37 312.1 276.915 313.141 275.547C314.167 274.172 315.545 273.716 315.561 273.82Z" fill="#FAFAFA"/>
<path d="M340.92 288.884C340.92 288.988 339.093 288.844 337.234 287.669C335.359 286.509 334.422 284.942 334.518 284.894C334.622 284.814 335.664 286.214 337.458 287.309C339.229 288.436 340.944 288.756 340.92 288.884Z" fill="#FAFAFA"/>
<path d="M344.861 266.736C344.966 266.736 344.733 268.399 343.427 269.926C342.137 271.462 340.519 271.957 340.511 271.853C340.455 271.741 341.897 271.102 343.115 269.655C344.341 268.223 344.741 266.696 344.861 266.736Z" fill="#FAFAFA"/>
<path d="M356.071 283.247C355.974 283.167 357.032 281.832 358.01 279.993C358.995 278.154 359.508 276.531 359.628 276.571C359.732 276.595 359.388 278.306 358.378 280.193C357.377 282.08 356.143 283.327 356.071 283.247Z" fill="#FAFAFA"/>
<path d="M370.885 285.43C370.933 285.55 369.475 286.126 368.009 287.333C366.526 288.524 365.669 289.836 365.565 289.764C365.469 289.724 366.206 288.26 367.744 287.013C369.275 285.75 370.861 285.326 370.885 285.43Z" fill="#FAFAFA"/>
<path d="M359.588 266.488C359.468 266.528 358.763 264.186 357.288 261.595C355.83 258.996 354.188 257.189 354.284 257.101C354.324 257.069 354.781 257.469 355.43 258.221C356.079 258.964 356.896 260.076 357.649 261.395C358.394 262.714 358.915 263.986 359.219 264.929C359.524 265.873 359.636 266.48 359.588 266.488Z" fill="#FAFAFA"/>
<path d="M361.799 242.685C361.823 242.797 360.125 243.285 358.002 243.773C355.878 244.26 354.132 244.564 354.108 244.452C354.084 244.34 355.782 243.853 357.905 243.365C360.037 242.877 361.775 242.573 361.799 242.685Z" fill="#FAFAFA"/>
<path d="M354.981 235.569C354.893 235.641 353.795 234.378 352.529 232.763C351.263 231.14 350.318 229.764 350.406 229.7C350.494 229.628 351.592 230.884 352.858 232.507C354.124 234.122 355.077 235.497 354.981 235.569Z" fill="#FAFAFA"/>
<path d="M371.871 231.299C371.863 231.411 370.116 231.299 368.033 230.804C365.942 230.316 364.339 229.628 364.379 229.524C364.419 229.412 366.07 229.908 368.129 230.396C370.188 230.884 371.887 231.18 371.871 231.299Z" fill="#FAFAFA"/>
<path d="M383.881 231.084C383.777 231.028 384.434 229.58 385.107 227.749C385.78 225.918 386.212 224.391 386.333 224.415C386.437 224.439 386.188 226.03 385.499 227.893C384.818 229.764 383.977 231.14 383.881 231.084Z" fill="#FAFAFA"/>
<path d="M381.181 247.331C381.157 247.435 379.49 247.019 377.687 245.939C375.877 244.876 374.715 243.613 374.795 243.541C374.875 243.453 376.141 244.548 377.904 245.58C379.65 246.627 381.221 247.211 381.181 247.331Z" fill="#FAFAFA"/>
<path d="M388.985 246.835C388.873 246.811 389.265 244.684 389.866 242.086C390.467 239.487 391.044 237.4 391.156 237.432C391.268 237.456 390.876 239.583 390.275 242.181C389.674 244.78 389.097 246.859 388.985 246.835Z" fill="#FAFAFA"/>
<path d="M382.471 265.001C382.374 265.065 381.109 263.49 379.634 261.483C378.16 259.468 377.046 257.789 377.135 257.717C377.231 257.653 378.497 259.22 379.971 261.235C381.445 263.242 382.559 264.929 382.471 265.001Z" fill="#FAFAFA"/>
<path d="M393.592 258.053C393.479 258.101 392.75 256.662 391.597 255.046C390.451 253.423 389.329 252.256 389.417 252.168C389.489 252.088 390.763 253.144 391.941 254.807C393.119 256.462 393.696 258.013 393.592 258.053Z" fill="#FAFAFA"/>
<path d="M404.023 256.494C403.919 256.558 402.87 254.991 401.459 253.152C400.049 251.305 398.807 249.889 398.896 249.801C398.976 249.721 400.362 251.033 401.788 252.896C403.222 254.759 404.119 256.438 404.023 256.494Z" fill="#FAFAFA"/>
<path d="M401.572 263.394C401.444 263.402 401.532 262.011 400.618 260.667C399.737 259.3 398.431 258.828 398.479 258.716C398.495 258.669 398.848 258.709 399.352 258.964C399.857 259.212 400.49 259.708 400.971 260.436C401.452 261.163 401.66 261.939 401.692 262.498C401.724 263.058 401.62 263.394 401.572 263.394Z" fill="#FAFAFA"/>
<path d="M393.439 272.853C393.375 272.837 393.399 272.637 393.335 272.357C393.279 272.077 393.111 271.701 392.782 271.438C392.454 271.182 392.045 271.118 391.757 271.126C391.468 271.134 391.276 271.198 391.252 271.142C391.22 271.102 391.372 270.926 391.717 270.83C392.045 270.734 392.59 270.758 393.047 271.102C393.495 271.454 393.648 271.973 393.632 272.317C393.616 272.685 393.487 272.869 393.439 272.853Z" fill="#FAFAFA"/>
<path d="M310.081 287.973C310.057 288.069 307.974 287.285 306.083 285.374C304.168 283.479 303.383 281.4 303.479 281.384C303.591 281.32 304.528 283.255 306.379 285.086C308.206 286.925 310.145 287.853 310.081 287.973Z" fill="#FAFAFA"/>
<path d="M259.083 89.5207C257.801 77.3593 255.47 65.9256 254.837 53.9961C254.805 53.3964 254.741 52.7248 254.268 52.349C253.627 51.8372 252.609 52.245 252.193 52.9486C251.776 53.6522 251.784 54.5158 251.784 55.3313C251.808 61.6559 250.727 67.9804 248.611 73.9452C247.233 77.8151 245.422 81.5411 244.381 85.5149C243.339 89.4887 245.286 90.84 247.073 94.534" fill="#FFBE9D"/>
<path d="M218.165 41.3549C218.093 41.4429 213.582 37.7809 208.102 33.1834C202.613 28.5779 198.231 24.78 198.303 24.692C198.375 24.6041 202.886 28.2581 208.366 32.8636C213.854 37.4691 218.245 41.267 218.165 41.3549Z" fill="#263238"/>
<path d="M241.016 35.8779C240.904 35.8859 240.447 28.7778 240.006 20.0066C239.566 11.2354 239.293 4.11924 239.413 4.11124C239.526 4.10325 239.982 11.2114 240.423 19.9826C240.864 28.7618 241.128 35.8779 241.016 35.8779Z" fill="#263238"/>
<path d="M226.466 30.8007C226.354 30.8327 224.951 26.7789 223.325 21.7416C221.698 16.7044 220.473 12.5946 220.585 12.5546C220.697 12.5226 222.099 16.5764 223.726 21.6137C225.344 26.651 226.57 30.7687 226.466 30.8007Z" fill="#263238"/>
<path d="M213.494 48.8549C213.446 48.9588 210.682 47.7914 207.309 46.2563C203.943 44.7131 201.251 43.3858 201.299 43.2819C201.348 43.178 204.112 44.3373 207.485 45.8805C210.85 47.4156 213.542 48.7509 213.494 48.8549Z" fill="#263238"/>
<path d="M192.414 39.6679C192.398 39.7798 191.733 39.7958 190.924 39.6918C190.114 39.5879 189.474 39.42 189.49 39.3001C189.506 39.1881 190.171 39.1721 190.98 39.2761C191.781 39.38 192.43 39.5559 192.414 39.6679Z" fill="#263238"/>
<path d="M221.106 7.39745C220.993 7.39745 220.897 6.7418 220.897 5.93424C220.897 5.12668 220.993 4.47104 221.106 4.47104C221.218 4.47104 221.314 5.12668 221.314 5.93424C221.314 6.7498 221.218 7.39745 221.106 7.39745Z" fill="#263238"/>
<path d="M269.355 18.6873C269.443 18.7673 265.741 22.997 261.102 28.1382C256.455 33.2794 252.626 37.3891 252.537 37.3091C252.449 37.2292 256.143 32.9995 260.79 27.8583C265.437 22.7171 269.267 18.6153 269.355 18.6873Z" fill="#263238"/>
<path d="M275.236 12.8745C275.316 12.9544 274.891 13.5141 274.282 14.1138C273.673 14.7215 273.121 15.1452 273.04 15.0653C272.96 14.9853 273.385 14.4256 273.994 13.8259C274.595 13.2183 275.156 12.7945 275.236 12.8745Z" fill="#263238"/>
<path d="M289.514 33.3433C289.53 33.3673 289.137 33.5992 288.424 33.991C287.711 34.3827 286.669 34.9344 285.363 35.5821C282.759 36.8934 279.122 38.6044 275.012 40.2995C270.901 41.9946 267.12 43.3618 264.347 44.2734C262.961 44.7291 261.84 45.0809 261.054 45.3048C260.269 45.5287 259.836 45.6406 259.828 45.6166C259.82 45.5926 260.237 45.4247 261.006 45.1529C261.84 44.857 262.937 44.4652 264.251 43.9935C266.991 43.01 270.749 41.6028 274.851 39.9077C278.946 38.2126 282.599 36.5496 285.235 35.3102C286.501 34.7106 287.543 34.2148 288.344 33.839C289.089 33.5032 289.506 33.3193 289.514 33.3433Z" fill="#263238"/>
<path d="M277.8 53.0286C277.816 53.0845 277.006 53.3644 275.676 53.7322C274.346 54.1 272.48 54.5318 270.404 54.8836C268.321 55.2354 266.422 55.4433 265.044 55.5392C263.666 55.6352 262.809 55.6352 262.809 55.5792C262.801 55.5152 263.65 55.4193 265.02 55.2434C266.382 55.0755 268.273 54.8196 270.34 54.4678C272.407 54.116 274.266 53.7322 275.612 53.4364C276.942 53.1485 277.776 52.9646 277.8 53.0286Z" fill="#263238"/>
<path d="M288.448 51.0616C288.448 51.1736 287.414 51.2695 286.14 51.2695C284.866 51.2695 283.833 51.1736 283.833 51.0616C283.833 50.9497 284.866 50.8538 286.14 50.8538C287.414 50.8538 288.448 50.9417 288.448 51.0616Z" fill="#263238"/>
<path d="M247.073 94.534C243.876 92.1593 242.178 87.9296 242.843 84.0117C243.243 81.613 244.437 79.4302 245.382 77.1914C246.336 74.9526 247.057 72.474 246.48 70.1073C246.256 69.2038 245.847 68.3322 245.847 67.3967C245.839 66.4693 246.44 65.4298 247.369 65.3818C248.074 65.3499 248.667 65.8856 249.108 66.4293C250.662 68.3562 251.92 73.9932 251.135 78.1909" fill="#FFBE9D"/>
<path d="M251.135 78.1989C251.095 78.1909 251.215 77.5512 251.263 76.3839C251.304 75.2165 251.255 73.5214 250.855 71.4745C250.655 70.4511 250.358 69.3477 249.893 68.2203C249.661 67.6606 249.389 67.0849 248.996 66.5972C248.611 66.1095 248.099 65.6217 247.49 65.5817C246.881 65.5338 246.352 66.0695 246.152 66.7011C245.927 67.3328 246.072 68.0524 246.28 68.756C246.496 69.4596 246.761 70.2192 246.841 71.0188C246.921 71.8183 246.889 72.6339 246.753 73.4335C246.192 76.6717 244.461 79.3023 243.58 81.8929C243.131 83.1882 242.859 84.4675 242.867 85.6828C242.859 86.8981 243.059 88.0255 243.363 89.009C243.98 90.9919 244.998 92.3911 245.767 93.2467C246.552 94.1102 247.089 94.486 247.057 94.518C247.049 94.526 246.913 94.438 246.664 94.2541C246.408 94.0702 246.056 93.7744 245.647 93.3586C244.822 92.5191 243.748 91.1198 243.075 89.0969C242.747 88.0895 242.522 86.9301 242.514 85.6748C242.49 84.4195 242.763 83.0842 243.211 81.7569C244.093 79.1024 245.799 76.4798 246.328 73.3535C246.464 72.5779 246.488 71.8024 246.416 71.0508C246.344 70.2912 246.104 69.5876 245.879 68.86C245.663 68.1404 245.495 67.3168 245.759 66.5572C245.887 66.1894 246.088 65.8376 246.392 65.5738C246.689 65.3019 247.097 65.15 247.498 65.182C248.315 65.2539 248.86 65.8376 249.268 66.3573C249.693 66.901 249.957 67.5007 250.198 68.0764C250.663 69.2358 250.935 70.3711 251.127 71.4026C251.496 73.4814 251.504 75.2005 251.408 76.3759C251.352 76.9595 251.296 77.4153 251.231 77.7191C251.191 78.039 251.151 78.1989 251.135 78.1989Z" fill="#EB996E"/>
<path d="M355.886 143.131C356.311 145.434 358.498 147.209 360.838 147.401C363.169 147.593 365.509 146.346 366.871 144.443C368.233 142.54 368.682 140.077 368.369 137.758C367.912 134.392 365.669 131.154 362.416 130.155C359.163 129.147 355.117 130.938 354.22 134.216L350.47 139.445L355.886 143.131Z" fill="#010E3A"/>
<path d="M351.447 132.873C352.97 120.744 344.18 109.662 331.842 108.486C320.208 107.383 309.872 116.026 308.134 127.548C306.603 137.654 305.289 147.857 305.337 151.559C305.482 162.729 312.028 167.078 314.688 168.39C315.297 168.686 316.963 169.029 317.636 169.125C317.676 169.133 317.708 169.173 317.7 169.213L315.216 182.038C314.087 190.442 318.79 197.934 327.195 199.157C335.631 200.38 342.225 193.928 343.507 185.516L351.447 132.873Z" fill="#FFBE9D"/>
<path d="M310.065 134.088C310.249 134.352 311.731 133.561 313.622 133.841C315.521 134.096 316.771 135.272 317.003 135.064C317.115 134.976 316.955 134.528 316.418 134C315.89 133.473 314.928 132.905 313.75 132.737C312.573 132.569 311.515 132.857 310.874 133.225C310.225 133.585 309.969 133.968 310.065 134.088Z" fill="#263238"/>
<path d="M326.922 137.734C327.106 137.998 328.589 137.207 330.48 137.487C332.378 137.742 333.628 138.918 333.861 138.71C333.973 138.622 333.813 138.174 333.276 137.646C332.747 137.119 331.785 136.551 330.608 136.383C329.43 136.215 328.372 136.511 327.731 136.871C327.09 137.231 326.834 137.614 326.922 137.734Z" fill="#263238"/>
<path d="M320.368 146.674C320.392 146.57 319.247 146.194 317.372 145.674C316.899 145.554 316.45 145.394 316.418 145.05C316.354 144.683 316.635 144.195 316.947 143.667C317.572 142.564 318.229 141.412 318.918 140.197C321.674 135.248 323.742 131.154 323.541 131.042C323.341 130.93 320.945 134.856 318.197 139.805C317.532 141.029 316.891 142.188 316.282 143.307C316.018 143.827 315.609 144.403 315.753 145.162C315.834 145.546 316.146 145.858 316.442 145.986C316.739 146.122 317.011 146.17 317.244 146.218C319.151 146.602 320.344 146.778 320.368 146.674Z" fill="#263238"/>
<path d="M317.708 169.141C317.708 169.141 324.935 170.804 334.894 166.647C334.894 166.647 330.6 175.882 317.043 172.595L317.708 169.141Z" fill="#EB996E"/>
<path d="M320.504 151.351C321.314 150.551 322.58 150.232 323.749 150.527C324.559 150.735 325.336 151.255 325.736 151.991C326.137 152.734 326.105 153.694 325.56 154.269C324.943 154.909 323.854 154.925 322.98 154.533C322.115 154.141 321.418 153.438 320.769 152.734C320.585 152.542 320.4 152.342 320.312 152.095C320.216 151.855 320.232 151.551 320.416 151.391" fill="#EB996E"/>
<path d="M325.753 148.792C325.448 148.728 325.144 150.783 323.173 151.983C321.202 153.19 319.038 152.638 318.982 152.926C318.934 153.054 319.415 153.398 320.336 153.558C321.242 153.718 322.612 153.622 323.814 152.886C325.015 152.151 325.656 151.023 325.849 150.192C326.049 149.344 325.897 148.8 325.753 148.792Z" fill="#263238"/>
<path d="M328.228 131.578C328.34 132.121 330.271 132.153 332.451 132.745C334.646 133.289 336.345 134.2 336.705 133.785C336.865 133.585 336.625 133.057 335.976 132.449C335.327 131.85 334.253 131.21 332.939 130.866C331.625 130.53 330.375 130.562 329.518 130.77C328.653 130.978 328.188 131.322 328.228 131.578Z" fill="#263238"/>
<path d="M311.98 128.26C312.252 128.739 313.622 128.483 315.192 128.691C316.771 128.843 318.053 129.403 318.421 128.995C318.59 128.795 318.437 128.34 317.917 127.844C317.404 127.356 316.498 126.884 315.409 126.756C314.327 126.636 313.334 126.884 312.725 127.244C312.108 127.612 311.859 128.028 311.98 128.26Z" fill="#263238"/>
<path d="M305.938 125.053C308.254 128.579 315.609 126.405 320.048 123.982C324.727 127.076 331.225 125.733 334.462 121C337.001 124.23 342.161 123.158 344.044 119.52C345.927 115.882 344.869 110.869 342.281 107.687C339.694 104.505 335.912 102.897 332.178 102.21C323.325 100.579 313.686 104.001 308.39 111.988C305.954 115.674 304.488 120.64 305.938 125.053Z" fill="#010E3A"/>
<path d="M330.408 103.465C330.4 103.617 328.316 103.217 325.039 103.769C321.819 104.305 317.292 105.984 313.911 109.742C310.61 113.556 309.111 118.073 308.566 121.303C308.014 124.582 308.438 126.644 308.294 126.66C308.254 126.668 308.118 126.165 307.99 125.229C307.877 124.294 307.845 122.911 308.054 121.231C308.486 117.905 309.929 113.244 313.366 109.262C316.899 105.328 321.634 103.681 324.959 103.265C326.642 103.041 328.028 103.089 328.965 103.201C329.903 103.289 330.408 103.425 330.408 103.465Z" fill="#455A64"/>
<path d="M318.437 119.888C318.397 119.896 318.301 119.448 318.261 118.633C318.221 117.817 318.285 116.618 318.622 115.187C319.255 112.356 321.306 108.438 325.272 106.088C329.254 103.769 333.684 103.873 336.473 104.696C337.891 105.096 338.973 105.624 339.67 106.056C340.367 106.487 340.711 106.783 340.687 106.823C340.615 106.959 339.133 105.856 336.345 105.2C333.62 104.529 329.406 104.529 325.64 106.727C321.891 108.95 319.855 112.628 319.118 115.331C318.341 118.065 318.59 119.896 318.437 119.888Z" fill="#455A64"/>
<path d="M339.678 116.066C338.932 119.217 338.187 122.399 338.187 125.629C338.187 128.867 338.996 132.201 341.064 134.696C344.156 138.422 349.316 139.549 354.075 140.453C356.623 134.152 357.4 127.14 356.295 120.432C355.758 117.154 354.7 113.827 352.385 111.437C349.044 107.999 343.227 107.303 339.173 109.862" fill="#010E3A"/>
<path d="M342.322 131.546C341.064 134.248 341.16 137.375 341.593 140.325C342.025 143.275 342.778 146.194 342.746 149.176C342.714 152.151 341.769 155.309 339.429 157.156C338.764 157.684 337.995 158.091 337.442 158.731C336.889 159.371 336.585 160.346 337.026 161.066C337.474 161.785 338.82 161.769 339.021 160.946L338.9 161.154C338.388 162.025 339.013 163.169 340.022 163.145C341.609 163.113 343.235 162.273 344.301 161.05C345.831 159.283 346.44 156.908 346.841 154.605C348.074 147.545 347.834 140.229 349.789 133.329" fill="#010E3A"/>
<path d="M315.152 177.913C316.25 182.702 319.511 186.964 323.87 189.266C328.22 191.577 333.58 191.889 338.179 190.122C342.33 188.523 345.671 185.404 348.908 182.358C350.061 189.266 348.138 196.63 343.764 202.107C339.389 207.584 332.619 211.086 325.608 211.51C320.304 211.83 314.591 210.207 311.258 206.081C308.927 203.203 307.981 199.381 308.021 195.679C308.062 191.977 309.007 188.347 310.113 184.813C311.066 181.79 312.556 178.4 315.625 177.577" fill="#0398DA"/>
<path d="M353.162 140.709C356.335 142.428 358.081 146.026 358.69 149.576C359.307 153.126 358.995 156.764 359.147 160.362C359.299 163.96 359.988 167.726 362.272 170.517C364.692 173.483 368.481 174.89 371.854 176.705C379.322 180.727 385.467 187.531 387.719 195.695C389.97 203.858 387.927 213.301 381.798 219.162C376.221 224.495 368.097 226.366 360.381 226.342C354.869 226.326 348.827 225.159 345.39 220.865C341.993 216.619 342.153 210.551 343.387 205.266C344.629 199.981 346.792 194.831 346.872 189.402C346.055 192.752 344.613 195.951 342.642 198.789C342.081 199.597 341.112 200.476 340.238 200.012C339.269 199.501 339.637 198.054 340.086 197.054C346.728 182.318 344.413 152.614 348.347 136.343" fill="#010E3A"/>
<path d="M347.698 139.022C347.898 138.958 355.646 137.495 354.644 145.138C353.651 152.782 346.167 150.208 346.183 149.992C346.199 149.768 347.698 139.022 347.698 139.022Z" fill="#FFBE9D"/>
<path d="M348.9 147.401C348.94 147.377 349.02 147.513 349.236 147.641C349.444 147.769 349.813 147.889 350.23 147.793C351.079 147.601 351.928 146.41 352.144 145.034C352.257 144.339 352.193 143.659 352.016 143.084C351.856 142.492 351.544 142.06 351.143 141.932C350.75 141.788 350.43 141.988 350.31 142.196C350.181 142.396 350.206 142.556 350.165 142.564C350.141 142.58 350.021 142.412 350.117 142.108C350.165 141.964 350.286 141.788 350.478 141.668C350.678 141.54 350.959 141.5 351.239 141.572C351.824 141.692 352.289 142.3 352.481 142.94C352.705 143.587 352.793 144.355 352.665 145.13C352.417 146.666 351.439 148.001 350.294 148.177C349.733 148.249 349.308 148.025 349.1 147.817C348.892 147.585 348.876 147.409 348.9 147.401Z" fill="#EB996E"/>
<path d="M307.236 194.384C307.18 194.352 307.709 193.456 308.542 192.017C309.359 190.578 310.513 188.579 311.306 186.188C312.1 183.797 312.236 181.487 311.995 179.863C311.771 178.232 311.306 177.289 311.379 177.265C311.403 177.257 311.539 177.473 311.723 177.905C311.915 178.336 312.132 178.984 312.284 179.815C312.604 181.471 312.516 183.869 311.699 186.316C310.882 188.763 309.68 190.762 308.791 192.169C308.342 192.872 307.965 193.432 307.693 193.808C307.421 194.2 307.26 194.4 307.236 194.384Z" fill="#263238"/>
<path d="M311.138 185.564C311.026 185.588 310.802 184.917 310.121 184.453C309.448 183.973 308.735 183.997 308.727 183.885C308.719 183.837 308.895 183.741 309.215 183.741C309.528 183.733 309.968 183.837 310.369 184.117C310.77 184.397 311.018 184.773 311.122 185.069C311.218 185.356 311.194 185.556 311.138 185.564Z" fill="#FAFAFA"/>
<path d="M316.09 185.548C315.978 185.612 315.377 184.509 314.119 183.701C312.877 182.87 311.627 182.75 311.643 182.622C311.619 182.518 312.997 182.454 314.351 183.35C315.705 184.245 316.194 185.532 316.09 185.548Z" fill="#FAFAFA"/>
<path d="M319.199 201.772C319.086 201.748 319.295 200.284 319.663 198.509C320.032 196.726 320.424 195.303 320.537 195.327C320.649 195.351 320.44 196.814 320.072 198.589C319.703 200.372 319.311 201.796 319.199 201.772Z" fill="#FAFAFA"/>
<path d="M331.697 204.218C331.585 204.218 331.537 202.667 331.593 200.764C331.649 198.861 331.794 197.318 331.906 197.326C332.018 197.326 332.066 198.877 332.01 200.78C331.954 202.683 331.818 204.226 331.697 204.218Z" fill="#FAFAFA"/>
<path d="M76.5017 239.751L64.147 293.442L90.2747 293.522L102.341 246.307L76.5017 239.751Z" fill="#FFBE9D"/>
<path d="M204.809 173.787C202.325 170.461 199.473 167.27 198.167 163.336C197.534 161.433 197.285 159.419 196.612 157.532C195.939 155.645 194.713 153.806 192.838 153.094C190.964 152.382 189.537 153.102 188.32 154.437L179.354 180.607L184.522 200.708C189.682 199.549 196.14 198.173 200.963 196.007C205.778 193.84 209.007 190.37 209.312 185.101C209.544 180.975 207.292 177.113 204.809 173.787Z" fill="#263238"/>
<path d="M123.221 169.165C123.221 169.165 92.0535 182.71 88.1596 188.811C84.2657 194.919 71.4702 238.472 71.4702 238.472L104.28 248.106L103.743 293.442H184.266L183.601 213.509L173.497 169.325C173.497 169.325 155.718 168.182 154.076 167.374C152.425 166.559 123.221 169.165 123.221 169.165Z" fill="#0398DA"/>
<path d="M233.981 58.3297C234.237 56.4987 232.955 54.4838 233.877 52.8766C234.389 51.9891 235.415 51.5574 236.377 51.1896C236.873 50.9977 237.378 50.8058 237.907 50.8218C238.436 50.8378 238.996 51.1256 239.165 51.6213C239.365 52.205 238.988 52.8367 238.548 53.2684C238.107 53.7082 237.57 54.084 237.338 54.6597C237.025 55.4272 237.314 57.8339 237.634 58.5935C238.179 59.9048 240.118 65.7416 240.286 67.1489" fill="#FFBE9D"/>
<path d="M227.403 58.9613C227.515 56.1869 229.774 45.2488 229.887 42.4743C231.769 43.05 232.859 45.0489 233.212 46.9839C233.564 48.9188 233.38 50.9097 233.716 52.8447C234.165 55.4433 235.519 57.786 236.881 60.0408C238.243 62.2955 239.669 64.5823 240.278 67.1489C240.895 69.7155 243.219 76.3599 241.408 78.2788" fill="#FFBE9D"/>
<path d="M226.882 77.6711L215.745 130.506C215.353 132.889 173.497 169.317 173.497 169.317L181.766 202.267L236.288 149.072C240.222 144.875 242.362 139.318 242.25 133.577L241.328 84.0037L226.882 77.6711Z" fill="#FFBE9D"/>
<path d="M224.975 59.2972L226.874 77.6711L241.32 84.0037C241.32 84.0037 241.496 82.7004 242.121 76.3279C242.81 69.2997 235.239 66.2854 231.866 61.1042C230.423 58.8814 230.8 54.8036 229.686 49.7504C229.558 49.1667 228.749 45.6406 228.316 43.7376C228.076 42.6902 227.483 41.7387 226.586 41.1391C225.937 40.6993 225.191 40.4834 224.655 41.1391C224.11 41.8107 224.975 59.2972 224.975 59.2972Z" fill="#FFBE9D"/>
<path d="M233.981 80.7575C235.623 79.3742 235.976 76.8956 235.367 74.8407C234.758 72.7858 233.372 71.0588 231.962 69.4356C230.552 67.8125 229.069 66.2054 228.204 64.2385C227.595 62.8552 227.315 61.344 226.642 59.9928C225.969 58.6415 224.743 57.4022 223.237 57.3382C224.446 64.9421 224.414 69.3157 226.89 77.6711" fill="#FFBE9D"/>
<path d="M224.695 65.9975C224.695 66.0295 224.639 65.7896 224.543 65.3898C224.438 64.9021 224.31 64.3264 224.158 63.6468C223.821 62.0557 223.381 60.0008 222.884 57.6661L222.836 57.4422L223.068 57.4262C224.022 57.3542 225.007 57.77 225.76 58.4336C227.018 59.505 227.595 61.0082 228.02 62.2795C228.436 63.5748 228.797 64.7262 229.286 65.6137C229.726 66.5252 230.343 67.0849 230.696 67.5567C231.048 68.0204 231.193 68.3003 231.177 68.3162C231.153 68.3322 230.952 68.0844 230.576 67.6606C230.207 67.2448 229.526 66.6931 229.029 65.7576C228.493 64.8621 228.092 63.6788 227.659 62.3995C227.219 61.1362 226.658 59.7289 225.496 58.7375C224.799 58.1298 223.926 57.762 223.1 57.818L223.285 57.5781C224.246 62.3995 224.871 66.0055 224.695 65.9975Z" fill="#7C5142"/>
<path d="M231.177 61.3201C231.065 61.3361 230.464 57.9779 229.847 53.8202C229.23 49.6624 228.813 46.2723 228.933 46.2563C229.045 46.2403 229.646 49.5985 230.263 53.7562C230.88 57.9219 231.289 61.3041 231.177 61.3201Z" fill="#7C5142"/>
<path d="M235.768 61.9437C235.792 61.9437 235.824 62.0317 235.872 62.2236L235.752 62.2476C235.479 61.5839 234.854 59.5131 234.301 57.0184C233.957 55.4753 233.7 54.068 233.556 53.0446C233.404 52.0211 233.356 51.3815 233.412 51.3735C233.532 51.3575 234.021 53.8601 234.71 56.9305C235.263 59.4171 235.768 61.512 235.88 62.2156L235.76 62.2396C235.744 62.0397 235.744 61.9437 235.768 61.9437Z" fill="#7C5142"/>
<path d="M238.612 72.0742C238.556 72.1062 238.259 71.6584 237.683 71.0428C237.106 70.4271 236.2 69.6675 235.039 69.1078C233.877 68.5481 232.715 68.3162 231.874 68.2443C231.032 68.1723 230.496 68.2283 230.488 68.1563C230.48 68.1083 231.008 67.9484 231.89 67.9484C232.771 67.9404 233.997 68.1403 235.223 68.732C236.441 69.3237 237.37 70.1552 237.907 70.8509C238.444 71.5385 238.652 72.0502 238.612 72.0742Z" fill="#7C5142"/>
<path d="M228.188 79.1264C228.14 79.1424 227.756 78.3268 227.243 76.9515C226.73 75.5763 226.105 73.6493 225.584 71.4745C225.063 69.2997 224.743 67.2928 224.575 65.8376C224.406 64.3824 224.382 63.4789 224.439 63.4709C224.503 63.4629 224.631 64.3584 224.871 65.7976C225.112 67.2368 225.472 69.2118 225.993 71.3786C226.514 73.5374 227.083 75.4724 227.523 76.8556C227.956 78.2468 228.244 79.1024 228.188 79.1264Z" fill="#7C5142"/>
<path d="M163.714 170.261C165.052 168.03 168.345 167.262 170.541 168.67C176.422 163.896 182.439 159.219 188.32 154.445C186.397 164.016 185.139 177.425 189.417 186.196C189.417 186.196 194.842 196.263 203.479 194.719L195.779 202.275L183.601 213.509" fill="#0398DA"/>
<path d="M161.807 174.754C161.703 174.762 161.815 172.979 162.937 171.148C164.051 169.309 165.581 168.39 165.629 168.486C165.709 168.582 164.355 169.613 163.298 171.364C162.216 173.107 161.936 174.778 161.807 174.754Z" fill="#263238"/>
<path d="M168.161 180.631C168.121 180.647 167.776 180.015 167.488 178.88C167.208 177.753 167.055 176.121 167.368 174.362C167.68 172.603 168.385 171.116 169.042 170.157C169.699 169.189 170.244 168.718 170.276 168.742C170.332 168.789 169.868 169.333 169.299 170.309C168.722 171.284 168.089 172.731 167.784 174.426C167.488 176.121 167.584 177.705 167.784 178.816C167.977 179.935 168.225 180.607 168.161 180.631Z" fill="#263238"/>
<path d="M197.598 201.204C197.598 201.204 196.981 201.636 195.683 201.971C194.401 202.315 192.39 202.475 190.066 201.803C187.751 201.156 185.251 199.493 183.32 196.974C181.357 194.472 180.027 191.161 179.298 187.611C177.92 180.471 177.976 173.851 178.337 169.133C178.521 166.767 178.793 164.864 179.01 163.56C179.114 162.905 179.218 162.401 179.282 162.057C179.354 161.713 179.394 161.537 179.41 161.537C179.426 161.537 179.41 161.721 179.362 162.065C179.314 162.457 179.25 162.953 179.162 163.576C178.993 164.888 178.777 166.791 178.625 169.149C178.337 173.851 178.336 180.447 179.699 187.523C180.42 191.033 181.718 194.28 183.617 196.734C185.491 199.205 187.895 200.844 190.146 201.516C192.398 202.211 194.361 202.099 195.635 201.811C196.933 201.532 197.582 201.164 197.598 201.204Z" fill="#FAFAFA"/>
<path d="M104.448 261.563C104.336 261.563 104.24 250.201 104.24 236.177C104.24 222.152 104.336 210.791 104.448 210.791C104.56 210.791 104.657 222.152 104.657 236.177C104.657 250.193 104.568 261.563 104.448 261.563Z" fill="#263238"/>
<path d="M103.807 202.019C103.719 202.019 103.743 200.884 103.351 199.117C103.166 198.229 102.822 197.206 102.349 196.111C101.852 195.031 101.195 193.88 100.37 192.784C99.5209 191.697 98.5915 190.77 97.6701 190.002C96.7407 189.258 95.8353 188.659 95.0261 188.251C93.4236 187.403 92.3099 187.132 92.342 187.052C92.35 187.028 92.6224 187.084 93.1272 187.211C93.3755 187.275 93.68 187.363 94.0165 187.499C94.353 187.635 94.7536 187.763 95.1623 187.987C96.0035 188.371 96.941 188.963 97.9104 189.706C98.8639 190.474 99.8334 191.417 100.699 192.537C101.548 193.664 102.205 194.847 102.702 195.967C103.166 197.094 103.487 198.158 103.639 199.069C103.743 199.517 103.767 199.941 103.807 200.3C103.855 200.66 103.855 200.98 103.855 201.236C103.847 201.74 103.831 202.019 103.807 202.019Z" fill="#263238"/>
<path d="M158.683 168.813C158.699 168.813 158.739 169.045 158.819 169.485C158.907 169.925 158.971 170.589 159.027 171.444C159.115 173.147 158.963 175.666 158.026 178.6C157.064 181.503 155.262 184.837 152.217 187.571C149.212 190.33 144.886 192.225 140.183 192.585C135.48 192.92 130.921 191.697 127.531 189.41C124.11 187.155 121.835 184.125 120.449 181.399C119.087 178.64 118.558 176.169 118.39 174.474C118.317 173.619 118.277 172.955 118.301 172.507C118.309 172.06 118.317 171.82 118.333 171.82C118.349 171.82 118.366 172.06 118.39 172.507C118.398 172.955 118.454 173.611 118.558 174.458C118.774 176.137 119.343 178.568 120.713 181.271C122.107 183.941 124.375 186.9 127.74 189.09C131.065 191.313 135.536 192.497 140.151 192.169C144.758 191.809 148.996 189.97 151.953 187.283C154.949 184.613 156.752 181.351 157.737 178.504C158.691 175.626 158.891 173.139 158.859 171.444C158.835 170.597 158.795 169.933 158.731 169.493C158.691 169.053 158.675 168.821 158.683 168.813Z" fill="#263238"/>
<path d="M103.759 238.184C103.719 238.296 97.1091 236.209 88.9768 233.53C80.8524 230.852 74.2904 228.589 74.3305 228.477C74.3706 228.365 80.9806 230.452 89.113 233.13C97.2373 235.817 103.791 238.072 103.759 238.184Z" fill="#FAFAFA"/>
<path d="M182.815 227.086C182.815 227.198 165.149 227.366 143.355 227.462C121.554 227.549 103.887 227.533 103.887 227.422C103.887 227.31 121.554 227.142 143.355 227.046C165.149 226.958 182.815 226.974 182.815 227.086Z" fill="#FAFAFA"/>
<path d="M183.216 234.05C183.216 234.162 165.453 234.258 143.556 234.258C121.642 234.258 103.887 234.162 103.887 234.05C103.887 233.938 121.642 233.842 143.556 233.842C165.453 233.842 183.216 233.93 183.216 234.05Z" fill="#FAFAFA"/>
<path d="M172.335 242.509C172.352 242.517 172.271 242.733 172.111 243.157C171.935 243.605 171.695 244.212 171.39 244.98C171.23 245.38 171.054 245.82 170.861 246.291C170.653 246.763 170.405 247.275 170.148 247.818C169.619 248.906 169.075 250.177 168.313 251.496C167.945 252.168 167.568 252.864 167.168 253.599C166.767 254.327 166.286 255.047 165.822 255.814C164.908 257.357 163.787 258.908 162.633 260.563C160.229 263.802 157.369 267.208 154.06 270.478C150.711 273.724 147.249 276.507 143.956 278.842C142.274 279.961 140.703 281.056 139.133 281.928C138.356 282.376 137.627 282.839 136.89 283.231C136.153 283.615 135.439 283.983 134.766 284.335C133.428 285.07 132.146 285.59 131.049 286.094C130.496 286.341 129.983 286.581 129.502 286.773C129.022 286.957 128.581 287.125 128.172 287.277C127.403 287.565 126.786 287.789 126.33 287.957C125.905 288.108 125.681 288.18 125.681 288.164C125.673 288.148 125.889 288.052 126.306 287.877C126.754 287.693 127.355 287.437 128.116 287.125C128.517 286.965 128.95 286.781 129.43 286.589C129.903 286.381 130.408 286.134 130.961 285.878C132.05 285.358 133.316 284.814 134.638 284.071C135.311 283.711 136.008 283.335 136.745 282.951C137.475 282.56 138.196 282.088 138.973 281.632C140.527 280.744 142.09 279.649 143.756 278.522C147.017 276.179 150.462 273.404 153.787 270.174C157.08 266.92 159.933 263.538 162.344 260.332C163.498 258.693 164.636 257.157 165.549 255.622C166.022 254.863 166.503 254.151 166.911 253.431C167.32 252.712 167.704 252.016 168.081 251.353C168.858 250.041 169.419 248.794 169.964 247.714C170.228 247.171 170.493 246.675 170.701 246.203C170.901 245.732 171.094 245.3 171.262 244.908C171.59 244.156 171.855 243.557 172.055 243.117C172.223 242.717 172.327 242.509 172.335 242.509Z" fill="#263238"/>
<g opacity="0.3">
<path d="M169.083 249.466C163.698 256.006 158.058 260.747 150.15 263.802C146.36 265.265 142.394 266.256 138.724 267.991C135.055 269.726 131.602 272.341 129.951 276.043C128.677 278.905 129.294 283.215 132.363 283.863C133.525 284.111 134.726 283.735 135.848 283.327C151.512 277.658 161.808 263.37 169.083 249.466Z" fill="black"/>
</g>
<path d="M113.053 107.175C109.672 109.822 109.448 114.771 109.616 119.057C109.784 123.342 109.832 128.22 106.724 131.178C104.16 133.617 99.6729 134.52 98.9358 137.982C98.5913 139.597 99.3604 141.388 100.771 142.252C102.181 143.115 104.128 142.988 105.41 141.948C104.32 144.651 104.817 148.129 107.124 149.912C109.44 151.695 113.494 150.863 114.367 148.081C113.822 149.92 115.096 152.087 116.971 152.526C118.846 152.958 120.937 151.575 121.266 149.68" fill="#263238"/>
<path d="M162.12 138.206C162.825 140.373 165.485 141.668 167.632 140.893C169.779 140.117 170.989 137.423 170.14 135.304C169.475 133.649 167.768 132.393 167.688 130.602C167.592 128.443 169.86 127.012 171.855 126.173C173.85 125.325 176.189 124.222 176.51 122.079C176.814 120.016 175.035 118.305 173.537 116.842C172.047 115.379 170.613 113.156 171.662 111.349C172.199 110.421 173.249 109.926 173.954 109.118C175.508 107.335 174.883 104.337 173.088 102.793C171.294 101.25 168.722 100.922 166.374 101.226C164.027 101.53 161.783 102.394 159.484 102.953C151.896 104.816 143.54 103.313 137.082 98.9236" fill="#263238"/>
<path d="M115.353 123.662L123.605 171.348C125.055 179.736 133.068 185.34 141.464 183.845C149.308 182.446 154.781 175.29 154.076 167.374C153.699 163.145 153.37 159.642 153.37 159.642C153.37 159.642 165.341 156.572 164.307 144.435C163.81 138.566 161.791 126.564 159.844 115.73C157.753 104.089 147.041 96.0211 135.247 97.1645L134.077 97.2765C121.498 99.2434 113.029 111.173 115.353 123.662Z" fill="#FFBE9D"/>
<path d="M157.28 123.59C157.401 124.502 156.728 125.357 155.774 125.501C154.821 125.645 153.955 125.021 153.835 124.11C153.715 123.198 154.388 122.343 155.333 122.199C156.295 122.063 157.16 122.679 157.28 123.59Z" fill="#263238"/>
<path d="M157.809 121.935C157.617 122.183 156.207 121.335 154.34 121.527C152.473 121.687 151.199 122.783 150.975 122.567C150.863 122.479 151.047 122.047 151.6 121.551C152.144 121.064 153.106 120.544 154.268 120.44C155.429 120.336 156.455 120.664 157.056 121.048C157.673 121.431 157.905 121.823 157.809 121.935Z" fill="#263238"/>
<path d="M139.013 125.725C139.133 126.636 138.46 127.492 137.506 127.636C136.553 127.78 135.688 127.156 135.567 126.245C135.447 125.333 136.12 124.478 137.066 124.334C138.019 124.19 138.892 124.813 139.013 125.725Z" fill="#263238"/>
<path d="M139.485 124.062C139.293 124.31 137.883 123.462 136.016 123.654C134.149 123.814 132.875 124.909 132.643 124.694C132.531 124.606 132.707 124.174 133.268 123.678C133.813 123.19 134.774 122.671 135.936 122.567C137.098 122.463 138.123 122.791 138.724 123.174C139.349 123.566 139.581 123.958 139.485 124.062Z" fill="#263238"/>
<path d="M147.618 137.231C147.601 137.127 148.739 136.815 150.598 136.391C151.071 136.295 151.511 136.159 151.56 135.823C151.64 135.472 151.391 134.976 151.103 134.44C150.542 133.329 149.957 132.169 149.34 130.954C146.88 125.989 145.046 121.879 145.246 121.783C145.446 121.687 147.61 125.637 150.069 130.602C150.662 131.826 151.231 133.001 151.776 134.112C152.008 134.632 152.377 135.216 152.208 135.959C152.112 136.327 151.792 136.623 151.495 136.735C151.199 136.855 150.935 136.887 150.694 136.927C148.803 137.207 147.634 137.335 147.618 137.231Z" fill="#263238"/>
<path d="M139.253 116.714C139.117 117.242 137.234 117.178 135.063 117.657C132.891 118.089 131.185 118.905 130.848 118.473C130.696 118.265 130.96 117.761 131.625 117.202C132.282 116.642 133.372 116.066 134.67 115.794C135.968 115.523 137.194 115.61 138.027 115.858C138.868 116.106 139.309 116.466 139.253 116.714Z" fill="#263238"/>
<path d="M156.599 116.602C156.311 117.058 154.981 116.746 153.435 116.874C151.88 116.946 150.606 117.433 150.262 117.026C150.11 116.826 150.27 116.378 150.807 115.922C151.327 115.467 152.241 115.051 153.306 114.979C154.372 114.907 155.333 115.203 155.91 115.587C156.495 115.962 156.72 116.386 156.599 116.602Z" fill="#263238"/>
<path d="M127.243 109.078C127.219 109.094 127.203 109.118 127.179 109.134C125.392 110.845 124.326 113.18 124.23 115.65C124.23 115.738 124.222 115.818 124.222 115.898C124.086 119.4 124.511 122.91 124.342 126.421C124.174 129.923 123.317 133.553 120.985 136.183C120.032 137.263 118.229 138.118 117.252 137.055C116.875 136.647 116.763 136.063 116.667 135.512C115.201 127.22 112.196 120.032 111.355 111.301C111.13 108.926 112.028 106.583 113.83 105.008C115.537 103.521 117.636 101.946 119.767 102.706C121.907 103.473 124.911 107.015 126.642 108.478" fill="#263238"/>
<path d="M119.984 128.747C119.767 128.675 111.395 127.092 112.468 135.36C113.542 143.627 121.634 140.845 121.618 140.605C121.602 140.365 119.984 128.747 119.984 128.747Z" fill="#FFBE9D"/>
<path d="M118.678 137.806C118.638 137.782 118.549 137.926 118.317 138.07C118.093 138.206 117.692 138.334 117.243 138.23C116.33 138.022 115.409 136.735 115.176 135.248C115.056 134.496 115.12 133.761 115.313 133.137C115.489 132.497 115.825 132.026 116.258 131.89C116.683 131.73 117.027 131.954 117.163 132.177C117.308 132.393 117.276 132.569 117.316 132.577C117.34 132.593 117.476 132.417 117.364 132.081C117.308 131.922 117.187 131.738 116.971 131.602C116.755 131.466 116.45 131.426 116.146 131.498C115.513 131.626 115.016 132.289 114.808 132.977C114.567 133.673 114.471 134.504 114.607 135.344C114.88 136.999 115.937 138.454 117.179 138.638C117.78 138.718 118.245 138.478 118.469 138.246C118.694 138.006 118.71 137.814 118.678 137.806Z" fill="#7C5142"/>
<path d="M119.615 104.025C117.244 100.906 122.388 95.5974 126.362 93.9103C130.336 92.2232 135.928 93.6944 140.143 94.6459C142.803 95.2456 145.479 96.1891 148.179 95.8133C149.989 95.5654 151.656 94.7339 153.315 93.9583C154.973 93.1827 156.704 92.4471 158.53 92.3911C160.357 92.3352 162.32 93.1187 163.169 94.7339C164.019 96.349 163.258 98.7477 161.487 99.1714C163.666 97.6843 167.152 99.0195 167.776 101.578C168.401 104.137 165.926 106.919 163.314 106.615C164.411 105.608 166.366 106.903 166.358 108.39C166.358 109.878 165.124 111.077 163.826 111.805C160.509 113.66 156.423 113.572 152.722 112.716C149.02 111.861 145.511 110.309 141.825 109.358C138.147 108.414 131.962 106.671 128.517 108.27C125.977 109.454 124.463 112.788 122.908 112.236C121.41 111.701 120.352 110.293 119.912 108.766C119.479 107.231 119.543 105.608 119.615 104.025Z" fill="#263238"/>
<g opacity="0.6">
<path d="M152.818 149.2C152.786 149.256 152.433 149.072 151.824 148.904C151.223 148.736 150.35 148.616 149.412 148.784C148.475 148.952 147.698 149.376 147.193 149.744C146.68 150.112 146.416 150.408 146.368 150.368C146.328 150.344 146.528 149.976 147.025 149.528C147.514 149.08 148.331 148.585 149.348 148.401C150.366 148.217 151.303 148.401 151.92 148.64C152.529 148.88 152.842 149.16 152.818 149.2Z" fill="#455A64"/>
</g>
<path d="M145.85 141.522C146.137 141.409 146.767 143.342 148.869 144.174C150.973 145.014 152.968 144.126 153.069 144.398C153.136 144.514 152.733 144.922 151.865 145.227C151.022 145.535 149.681 145.666 148.396 145.154C147.11 144.642 146.311 143.655 145.985 142.884C145.656 142.096 145.717 141.551 145.85 141.522Z" fill="black"/>
<path d="M101.7 141.292C101.7 141.292 101.532 141.26 101.275 141.085C101.019 140.917 100.674 140.581 100.434 140.029C100.21 139.485 100.082 138.734 100.266 137.902C100.442 137.063 101.035 136.223 101.86 135.568C102.694 134.904 103.751 134.408 104.905 133.992C106.051 133.569 107.301 133.193 108.446 132.489C109.592 131.802 110.521 130.682 111.114 129.355C111.723 128.028 112.012 126.509 112.06 124.957C112.124 121.831 111.403 118.865 111.323 116.106C111.194 113.356 111.723 110.773 112.981 109.046C114.223 107.311 115.874 106.511 117.019 106.304C117.596 106.184 118.061 106.216 118.365 106.232C118.67 106.28 118.83 106.312 118.822 106.328C118.822 106.384 118.173 106.2 117.051 106.463C115.954 106.711 114.383 107.527 113.222 109.214C112.052 110.893 111.555 113.388 111.699 116.09C111.795 118.801 112.532 121.759 112.468 124.973C112.42 126.572 112.124 128.148 111.483 129.531C110.858 130.922 109.856 132.097 108.639 132.825C107.429 133.553 106.155 133.912 105.017 134.328C103.871 134.728 102.846 135.192 102.037 135.815C101.235 136.431 100.674 137.199 100.49 137.974C100.29 138.75 100.386 139.461 100.578 139.989C101.011 141.045 101.748 141.245 101.7 141.292Z" fill="#455A64"/>
<path d="M161.767 99.0035C161.759 98.9955 161.887 98.9396 162.136 98.8356C162.256 98.7796 162.416 98.7237 162.6 98.6757C162.793 98.6197 163.009 98.5638 163.265 98.5398C164.267 98.3879 165.933 98.6277 167.344 100.003L167.352 100.011C168.297 101.194 168.858 103.001 168.594 104.968C168.369 106.935 167.191 108.974 165.309 110.381C163.442 111.821 160.958 112.652 158.346 112.796C155.718 112.956 152.986 112.556 150.254 111.908C145.799 110.837 141.793 108.918 138.516 106.719C136.857 105.648 135.295 104.632 133.701 103.921C132.122 103.193 130.528 102.833 129.053 102.737C126.089 102.546 123.725 103.313 122.235 104.001C120.729 104.712 120.016 105.312 119.992 105.272C119.992 105.272 120.665 104.616 122.163 103.857C123.645 103.113 126.041 102.282 129.069 102.442C130.576 102.522 132.218 102.881 133.837 103.601C135.463 104.313 137.058 105.328 138.716 106.392C141.993 108.558 145.935 110.437 150.35 111.501C153.05 112.148 155.758 112.54 158.314 112.388C160.87 112.252 163.273 111.461 165.084 110.085C166.911 108.734 168.049 106.799 168.281 104.92C168.561 103.041 168.041 101.298 167.159 100.155L167.167 100.163C165.861 98.8436 164.251 98.5558 163.273 98.6677C162.28 98.7796 161.775 99.0515 161.767 99.0035Z" fill="#455A64"/>
<path d="M157.521 91.9594C157.521 91.9594 157.577 92.647 157.144 93.7904C156.704 94.9097 155.63 96.4369 153.723 97.5243C152.786 98.068 151.656 98.5158 150.382 98.7237C149.116 98.9316 147.73 98.9236 146.312 98.7397C143.451 98.3879 140.495 97.2605 137.386 96.293C134.286 95.3255 131.145 94.7498 128.397 95.3415C125.648 95.9092 123.485 97.4524 122.075 99.0195C120.649 100.595 119.888 102.186 119.511 103.305C119.143 104.441 119.07 105.104 119.022 105.096C119.006 105.096 119.022 104.928 119.07 104.616C119.102 104.297 119.207 103.841 119.359 103.257C119.695 102.106 120.416 100.459 121.851 98.8196C123.269 97.1965 125.464 95.5734 128.308 94.9657C131.161 94.3341 134.382 94.9177 137.498 95.8932C140.631 96.8687 143.556 97.9881 146.36 98.3559C147.754 98.5478 149.1 98.5638 150.326 98.3799C151.552 98.196 152.657 97.7802 153.579 97.2685C155.446 96.245 156.527 94.8058 157 93.7344C157.457 92.639 157.465 91.9514 157.521 91.9594Z" fill="#455A64"/>
<path d="M212.724 287.657C214.811 283.241 213.303 277.999 209.494 274.41C205.686 270.833 199.867 268.859 194.048 268.588C191.352 268.465 188.366 268.785 186.554 270.401C184.848 271.906 184.634 274.25 185.487 276.161C186.356 278.086 188.138 279.64 190.072 280.947C196.714 285.425 204.178 288.767 212.724 287.657Z" fill="#0065BF"/>
<path d="M226.418 294.158C229.891 284.598 239.442 276.642 251.126 273.534C254.096 272.745 257.874 272.424 259.915 274.348C261.957 276.285 260.951 279.257 259.443 281.49C253.167 290.766 239.442 296.329 226.51 294.836" fill="#0065BF"/>
<path opacity="0.3" d="M226.418 294.158C229.891 284.598 239.442 276.642 251.126 273.534C254.096 272.745 257.874 272.424 259.915 274.348C261.957 276.285 260.951 279.257 259.443 281.49C253.167 290.766 239.442 296.329 226.51 294.836" fill="white"/>
<path d="M230.394 231.004C225.367 232.164 221.285 235.334 218.878 239.096C216.471 242.858 215.603 247.15 215.496 251.369C215.298 259.547 219.609 268.304 224.636 275.397C233.989 270.376 237.629 260.25 239.077 255.02C241.377 246.768 239.305 230.696 230.394 231.004Z" fill="#0065BF"/>
<path d="M219.822 311.846C219.761 310.748 220.249 309.712 220.02 307.738C219.548 303.828 218.756 298.327 216.09 292.616C213.424 286.905 208.992 282.44 205.046 280.047C203.081 278.826 201.33 278.049 200.065 277.617C198.801 277.185 198.07 277.025 198.039 277.074C197.933 277.247 200.857 278.036 204.544 280.553C208.245 283.007 212.419 287.386 215.024 292.949C217.629 298.524 218.543 303.939 219.213 307.824" fill="#455A64"/>
<path d="M219.792 311.981C220.066 310.008 220.447 307.43 220.889 304.309C221.788 297.833 223.067 288.891 224.636 279.023C226.205 269.168 227.774 260.25 228.932 253.799C229.48 250.69 229.937 248.125 230.272 246.151C230.577 244.35 230.714 243.339 230.638 243.327C230.562 243.314 230.288 244.301 229.846 246.09C229.404 247.878 228.825 250.481 228.14 253.688C226.784 260.114 225.078 269.02 223.509 278.887C221.94 288.755 220.782 297.722 220.082 304.223C219.731 307.467 219.487 310.106 219.35 311.919" fill="#455A64"/>
<path d="M248.582 281.071C248.551 281.009 247.866 281.157 246.617 281.478C245.992 281.626 245.231 281.835 244.377 282.156C243.524 282.464 242.534 282.76 241.514 283.241C239.412 284.093 237.066 285.338 234.628 286.917C232.237 288.533 229.8 290.482 227.591 292.788C225.413 295.107 223.706 297.525 222.396 299.807C221.147 302.113 220.264 304.272 219.792 306.147C219.487 307.06 219.38 307.923 219.228 308.675C219.076 309.416 219.015 310.069 219 310.6C218.939 311.66 219.289 311.969 219.365 311.969C219.594 311.981 219.38 309.909 220.553 306.307C221.117 304.494 222.061 302.409 223.341 300.177C224.666 297.969 226.357 295.625 228.49 293.356C230.653 291.111 232.999 289.187 235.299 287.583C237.645 286.017 239.899 284.734 241.91 283.834C245.901 281.946 248.658 281.243 248.582 281.071Z" fill="#455A64"/>
<path opacity="0.2" d="M212.724 287.657C214.811 283.241 213.303 277.999 209.494 274.41C205.686 270.833 199.867 268.859 194.048 268.588C191.352 268.465 188.366 268.785 186.554 270.401C184.848 271.906 184.634 274.25 185.487 276.161C186.356 278.086 188.138 279.64 190.072 280.947C196.714 285.425 204.178 288.767 212.724 287.657Z" fill="#172866"/>
<path d="M193.271 310.341H245.444V326.117C245.444 337.785 233.76 347.233 219.365 347.233C204.955 347.233 193.287 337.773 193.287 326.117V310.341H193.271Z" fill="#455A64"/>
<path d="M245.398 320.504C245.398 320.554 244.667 320.554 243.357 320.529C241.895 320.492 240.021 320.443 237.797 320.393C233.105 320.27 226.631 320.11 219.472 320.011C212.312 319.912 205.823 319.9 201.131 319.9C198.907 319.888 197.034 319.888 195.571 319.888C194.261 319.875 193.53 319.851 193.53 319.801C193.53 319.752 194.246 319.703 195.571 319.641C196.882 319.579 198.786 319.505 201.131 319.456C205.823 319.345 212.328 319.283 219.487 319.382C226.662 319.481 233.136 319.715 237.827 319.962C240.173 320.085 242.062 320.196 243.372 320.295C244.682 320.381 245.398 320.455 245.398 320.504Z" fill="#455A64"/>
<path d="M245.383 322.91C245.383 322.959 244.652 322.959 243.342 322.934C241.879 322.897 240.006 322.848 237.782 322.799C233.09 322.675 226.616 322.515 219.456 322.416C212.297 322.318 205.808 322.305 201.116 322.305C198.892 322.293 197.018 322.293 195.556 322.293C194.246 322.281 193.515 322.256 193.515 322.207C193.515 322.157 194.231 322.108 195.556 322.046C196.866 321.985 198.77 321.911 201.116 321.861C205.808 321.75 212.312 321.689 219.472 321.787C226.646 321.886 233.12 322.12 237.812 322.367C240.158 322.49 242.047 322.601 243.357 322.7C244.667 322.786 245.383 322.86 245.383 322.91Z" fill="#455A64"/>
<path d="M278.121 300.58C279.109 298.431 278.395 295.879 276.593 294.132C274.79 292.39 272.036 291.43 269.282 291.298C268.006 291.237 266.593 291.394 265.735 292.18C264.928 292.913 264.827 294.054 265.231 294.984C265.642 295.921 266.485 296.677 267.401 297.314C270.544 299.493 274.077 301.121 278.121 300.58Z" fill="#4C5063"/>
<path d="M284.602 303.745C286.246 299.091 290.766 295.218 296.296 293.705C297.702 293.321 299.49 293.165 300.456 294.102C301.422 295.044 300.946 296.491 300.232 297.578C297.262 302.093 290.766 304.801 284.646 304.075" fill="#4C5063"/>
<path opacity="0.3" d="M284.602 303.745C286.246 299.091 290.766 295.218 296.296 293.705C297.702 293.321 299.49 293.165 300.456 294.102C301.422 295.044 300.946 296.491 300.232 297.578C297.262 302.093 290.766 304.801 284.646 304.075" fill="white"/>
<path d="M286.484 273.002C284.105 273.567 282.173 275.11 281.034 276.941C279.894 278.772 279.484 280.862 279.433 282.915C279.339 286.896 281.38 291.159 283.759 294.612C288.185 292.168 289.908 287.239 290.593 284.693C291.682 280.676 290.701 272.852 286.484 273.002Z" fill="#4C5063"/>
<path d="M281.481 312.355C281.452 311.821 281.683 311.316 281.574 310.355C281.351 308.452 280.976 305.774 279.714 302.994C278.453 300.214 276.355 298.04 274.488 296.876C273.558 296.281 272.728 295.903 272.13 295.693C271.532 295.483 271.186 295.405 271.171 295.429C271.121 295.513 272.505 295.897 274.25 297.122C276.002 298.317 277.977 300.448 279.21 303.156C280.443 305.87 280.875 308.506 281.192 310.398" fill="#0065BF"/>
<path d="M281.466 312.421C281.596 311.46 281.776 310.205 281.985 308.686C282.411 305.534 283.016 301.181 283.759 296.377C284.502 291.58 285.244 287.239 285.792 284.098C286.052 282.585 286.268 281.336 286.426 280.376C286.571 279.499 286.636 279.007 286.599 279.001C286.563 278.995 286.434 279.475 286.225 280.345C286.016 281.216 285.742 282.483 285.417 284.044C284.776 287.172 283.968 291.508 283.225 296.311C282.483 301.115 281.935 305.48 281.603 308.644C281.438 310.223 281.322 311.508 281.257 312.391" fill="#0065BF"/>
<path d="M295.092 297.374C295.077 297.344 294.753 297.416 294.162 297.572C293.866 297.644 293.506 297.746 293.102 297.902C292.698 298.052 292.23 298.197 291.747 298.431C290.752 298.845 289.642 299.452 288.488 300.22C287.356 301.007 286.203 301.955 285.157 303.078C284.126 304.207 283.319 305.384 282.699 306.495C282.108 307.617 281.69 308.668 281.466 309.581C281.322 310.025 281.271 310.446 281.199 310.812C281.127 311.172 281.098 311.49 281.091 311.749C281.062 312.265 281.228 312.415 281.264 312.415C281.372 312.421 281.271 311.412 281.827 309.659C282.093 308.776 282.54 307.762 283.146 306.675C283.773 305.6 284.573 304.459 285.583 303.354C286.606 302.262 287.717 301.325 288.805 300.544C289.916 299.782 290.983 299.157 291.934 298.719C293.823 297.8 295.128 297.458 295.092 297.374Z" fill="#0065BF"/>
<path opacity="0.2" d="M278.121 300.58C279.109 298.431 278.395 295.879 276.593 294.132C274.79 292.39 272.036 291.43 269.282 291.298C268.006 291.237 266.593 291.394 265.735 292.18C264.928 292.913 264.827 294.054 265.231 294.984C265.642 295.921 266.485 296.677 267.401 297.314C270.544 299.493 274.077 301.121 278.121 300.58Z" fill="black"/>
<path d="M268.915 311.622H293.607V319.302C293.607 324.982 288.077 329.582 281.264 329.582C274.444 329.582 268.922 324.976 268.922 319.302V311.622H268.915Z" fill="#455A64"/>
<path d="M293.585 316.57C293.585 316.594 293.239 316.594 292.619 316.582C291.927 316.564 291.04 316.54 289.988 316.516C287.767 316.456 284.703 316.378 281.315 316.33C277.927 316.282 274.855 316.276 272.635 316.276C271.582 316.27 270.696 316.27 270.003 316.27C269.383 316.264 269.037 316.252 269.037 316.228C269.037 316.204 269.376 316.18 270.003 316.15C270.623 316.12 271.525 316.084 272.635 316.06C274.855 316.006 277.934 315.976 281.322 316.024C284.718 316.072 287.782 316.186 290.002 316.306C291.113 316.366 292.006 316.42 292.626 316.468C293.247 316.51 293.585 316.546 293.585 316.57Z" fill="#0065BF"/>
<path d="M293.578 317.741C293.578 317.765 293.232 317.765 292.612 317.753C291.92 317.735 291.033 317.711 289.98 317.687C287.76 317.627 284.696 317.549 281.307 317.501C277.919 317.453 274.848 317.447 272.627 317.447C271.575 317.441 270.688 317.441 269.996 317.441C269.376 317.435 269.03 317.423 269.03 317.399C269.03 317.375 269.369 317.351 269.996 317.321C270.616 317.291 271.517 317.255 272.627 317.231C274.848 317.176 277.926 317.146 281.315 317.194C284.71 317.243 287.774 317.357 289.995 317.477C291.105 317.537 291.999 317.591 292.619 317.639C293.239 317.681 293.578 317.717 293.578 317.741Z" fill="#0065BF"/>
</g>
<defs>
<clipPath id="clip0_17_2066">
<rect width="493" height="353" fill="white"/>
</clipPath>
</defs>
</svg>
